<?xml version="1.0" encoding="UTF-8" standalone="no"?>
<!DOCTYPE svg PUBLIC "-//W3C//DTD SVG 1.1//EN"
 "http://www.w3.org/Graphics/SVG/1.1/DTD/svg11.dtd">
<!-- Generated by graphviz version 12.2.1 (20241206.2353)
 -->
<!-- Pages: 1 -->
<svg width="531pt" height="695pt"
 viewBox="0.00 0.00 531.25 695.25" xmlns="http://www.w3.org/2000/svg" xmlns:xlink="http://www.w3.org/1999/xlink">
<g id="graph0" class="graph" transform="scale(1 1) rotate(0) translate(4 691.25)">
<polygon fill="white" stroke="none" points="-4,4 -4,-691.25 527.25,-691.25 527.25,4 -4,4"/>
<!-- 50014 -->
<g id="node1" class="node">
<title>50014</title>
<g id="a_node1"><a xlink:href="行传/5/0014.md" xlink:title="编号：50014，汝功，車方&#45;&#45;&gt;檀石。点击查看详情">
<polygon fill="#f0f0f0" stroke="none" points="366.12,-350.25 366.12,-367.25 425.12,-367.25 425.12,-350.25 366.12,-350.25"/>
<polygon fill="none" stroke="darkred" points="366.12,-350.25 366.12,-367.25 425.12,-367.25 425.12,-350.25 366.12,-350.25"/>
<text text-anchor="start" x="381.75" y="-352.95" font-family="SimSun" font-size="14.00" fill="#8b0000">五27</text>
<polygon fill="#ffffff" stroke="none" points="366.12,-333.25 366.12,-350.25 425.12,-350.25 425.12,-333.25 366.12,-333.25"/>
<polygon fill="none" stroke="darkred" points="366.12,-333.25 366.12,-350.25 425.12,-350.25 425.12,-333.25 366.12,-333.25"/>
<text text-anchor="start" x="367.12" y="-335.95" font-family="SimSun" font-size="14.00" fill="#8b0000">【檀石】</text>
</a>
</g>
</g>
<!-- 50002 -->
<g id="node2" class="node">
<title>50002</title>
<g id="a_node2"><a xlink:href="行传/5/0002.md" xlink:title="编号：50002，運宗，車方&#45;&#45;&gt;楊樹角。点击查看详情">
<polygon fill="#f0f0f0" stroke="none" points="42,-350.25 42,-367.25 115.25,-367.25 115.25,-350.25 42,-350.25"/>
<polygon fill="none" stroke="darkred" points="42,-350.25 42,-367.25 115.25,-367.25 115.25,-350.25 42,-350.25"/>
<text text-anchor="start" x="68.12" y="-352.95" font-family="SimSun" font-size="14.00" fill="#8b0000">五2</text>
<polygon fill="#ffffff" stroke="none" points="42,-333.25 42,-350.25 115.25,-350.25 115.25,-333.25 42,-333.25"/>
<polygon fill="none" stroke="darkred" points="42,-333.25 42,-350.25 115.25,-350.25 115.25,-333.25 42,-333.25"/>
<text text-anchor="start" x="43" y="-335.95" font-family="SimSun" font-size="14.00" fill="#8b0000">【楊樹角】</text>
</a>
</g>
</g>
<!-- 90031 -->
<g id="node3" class="node">
<title>90031</title>
<g id="a_node3"><a xlink:href="行传/9/0031.md" xlink:title="编号：90031，元德，車方&#45;&#45;&gt;湖山。点击查看详情">
<polygon fill="#f0f0f0" stroke="none" points="294.12,-21 294.12,-38 353.12,-38 353.12,-21 294.12,-21"/>
<polygon fill="none" stroke="darkred" points="294.12,-21 294.12,-38 353.12,-38 353.12,-21 294.12,-21"/>
<text text-anchor="start" x="313.12" y="-23.7" font-family="SimSun" font-size="14.00" fill="#8b0000">登2</text>
<polygon fill="#ffffff" stroke="none" points="294.12,-4 294.12,-21 353.12,-21 353.12,-4 294.12,-4"/>
<polygon fill="none" stroke="darkred" points="294.12,-4 294.12,-21 353.12,-21 353.12,-4 294.12,-4"/>
<text text-anchor="start" x="295.12" y="-6.7" font-family="SimSun" font-size="14.00" fill="#8b0000">【湖山】</text>
</a>
</g>
</g>
<!-- 50015 -->
<g id="node4" class="node">
<title>50015</title>
<g id="a_node4"><a xlink:href="行传/5/0015.md" xlink:title="编号：50015，汝才，車方&#45;&#45;&gt;青龍頭。点击查看详情">
<polygon fill="#f0f0f0" stroke="none" points="442,-350.25 442,-367.25 515.25,-367.25 515.25,-350.25 442,-350.25"/>
<polygon fill="none" stroke="darkred" points="442,-350.25 442,-367.25 515.25,-367.25 515.25,-350.25 442,-350.25"/>
<text text-anchor="start" x="464.75" y="-352.95" font-family="SimSun" font-size="14.00" fill="#8b0000">五29</text>
<polygon fill="#ffffff" stroke="none" points="442,-333.25 442,-350.25 515.25,-350.25 515.25,-333.25 442,-333.25"/>
<polygon fill="none" stroke="darkred" points="442,-333.25 442,-350.25 515.25,-350.25 515.25,-333.25 442,-333.25"/>
<text text-anchor="start" x="443" y="-335.95" font-family="SimSun" font-size="14.00" fill="#8b0000">【青龍頭】</text>
</a>
</g>
</g>
<!-- 40003 -->
<g id="node5" class="node">
<title>40003</title>
<g id="a_node5"><a xlink:href="行传/4/0003.md" xlink:title="编号：40003，★臧，遷居暨陽三都白門從外祖方姓。点击查看详情">
<polygon fill="#f0f0f0" stroke="none" points="174.62,-429.25 174.62,-446.25 224.62,-446.25 224.62,-429.25 174.62,-429.25"/>
<polygon fill="none" stroke="black" points="174.62,-429.25 174.62,-446.25 224.62,-446.25 224.62,-429.25 174.62,-429.25"/>
<text text-anchor="start" x="185.75" y="-431.95" font-family="SimSun" font-size="14.00">四41</text>
<polygon fill="#ffffff" stroke="none" points="174.62,-412.25 174.62,-429.25 224.62,-429.25 224.62,-412.25 174.62,-412.25"/>
<polygon fill="none" stroke="black" points="174.62,-412.25 174.62,-429.25 224.62,-429.25 224.62,-412.25 174.62,-412.25"/>
<text text-anchor="start" x="185.38" y="-414.95" font-family="SimSun" font-size="14.00">★臧</text>
</a>
</g>
</g>
<!-- 10001 -->
<g id="node6" class="node">
<title>10001</title>
<g id="a_node6"><a xlink:href="行传/1/0001.md" xlink:title="编号：10001，碩，。点击查看详情">
<polygon fill="#f0f0f0" stroke="none" points="170.12,-666.25 170.12,-683.25 229.12,-683.25 229.12,-666.25 170.12,-666.25"/>
<polygon fill="none" stroke="darkred" points="170.12,-666.25 170.12,-683.25 229.12,-683.25 229.12,-666.25 170.12,-666.25"/>
<text text-anchor="start" x="185.75" y="-668.95" font-family="SimSun" font-size="14.00" fill="#8b0000">一10</text>
<polygon fill="#ffffff" stroke="none" points="170.12,-649.25 170.12,-666.25 229.12,-666.25 229.12,-649.25 170.12,-649.25"/>
<polygon fill="none" stroke="darkred" points="170.12,-649.25 170.12,-666.25 229.12,-666.25 229.12,-649.25 170.12,-649.25"/>
<text text-anchor="start" x="171.12" y="-651.95" font-family="SimSun" font-size="14.00" fill="#8b0000">【始祖】</text>
</a>
</g>
</g>
<!-- 20001 -->
<g id="node14" class="node">
<title>20001</title>
<g id="a_node14"><a xlink:href="行传/2/0001.md" xlink:title="编号：20001，唐，。点击查看详情">
<polygon fill="#f0f0f0" stroke="none" points="174.62,-587.25 174.62,-604.25 224.62,-604.25 224.62,-587.25 174.62,-587.25"/>
<polygon fill="none" stroke="black" points="174.62,-587.25 174.62,-604.25 224.62,-604.25 224.62,-587.25 174.62,-587.25"/>
<text text-anchor="start" x="185.75" y="-589.95" font-family="SimSun" font-size="14.00">二28</text>
<polygon fill="#ffffff" stroke="none" points="174.62,-570.25 174.62,-587.25 224.62,-587.25 224.62,-570.25 174.62,-570.25"/>
<polygon fill="none" stroke="black" points="174.62,-570.25 174.62,-587.25 224.62,-587.25 224.62,-570.25 174.62,-570.25"/>
<text text-anchor="start" x="192.5" y="-572.95" font-family="SimSun" font-size="14.00">唐</text>
</a>
</g>
</g>
<!-- 10001&#45;&gt;20001 -->
<g id="edge2" class="edge">
<title>10001&#45;&gt;20001</title>
<path fill="none" stroke="black" d="M199.62,-645.42C199.62,-637.52 199.62,-628.23 199.62,-619.46"/>
<polygon fill="black" stroke="black" points="203.13,-619.53 199.63,-609.53 196.13,-619.53 203.13,-619.53"/>
</g>
<!-- 60013 -->
<g id="node7" class="node">
<title>60013</title>
<g id="a_node7"><a xlink:href="行传/6/0013.md" xlink:title="编号：60013，珝，。点击查看详情">
<polygon fill="#f0f0f0" stroke="none" points="298.62,-258 298.62,-275 348.62,-275 348.62,-258 298.62,-258"/>
<polygon fill="none" stroke="black" points="298.62,-258 298.62,-275 348.62,-275 348.62,-258 298.62,-258"/>
<text text-anchor="start" x="309.75" y="-260.7" font-family="SimSun" font-size="14.00">六14</text>
<polygon fill="#ffffff" stroke="none" points="298.62,-241 298.62,-258 348.62,-258 348.62,-241 298.62,-241"/>
<polygon fill="none" stroke="black" points="298.62,-241 298.62,-258 348.62,-258 348.62,-241 298.62,-241"/>
<text text-anchor="start" x="316.5" y="-243.7" font-family="SimSun" font-size="14.00">珝</text>
</a>
</g>
</g>
<!-- 70027 -->
<g id="node9" class="node">
<title>70027</title>
<g id="a_node9"><a xlink:href="行传/7/0027.md" xlink:title="编号：70027，穎，。点击查看详情">
<polygon fill="#f0f0f0" stroke="none" points="298.62,-179 298.62,-196 348.62,-196 348.62,-179 298.62,-179"/>
<polygon fill="none" stroke="black" points="298.62,-179 298.62,-196 348.62,-196 348.62,-179 298.62,-179"/>
<text text-anchor="start" x="309.75" y="-181.7" font-family="SimSun" font-size="14.00">千23</text>
<polygon fill="#ffffff" stroke="none" points="298.62,-162 298.62,-179 348.62,-179 348.62,-162 298.62,-162"/>
<polygon fill="none" stroke="black" points="298.62,-162 298.62,-179 348.62,-179 348.62,-162 298.62,-162"/>
<text text-anchor="start" x="316.5" y="-164.7" font-family="SimSun" font-size="14.00">穎</text>
</a>
</g>
</g>
<!-- 60013&#45;&gt;70027 -->
<g id="edge3" class="edge">
<title>60013&#45;&gt;70027</title>
<path fill="none" stroke="black" d="M323.62,-237.17C323.62,-229.27 323.62,-219.98 323.62,-211.21"/>
<polygon fill="black" stroke="black" points="327.13,-211.28 323.63,-201.28 320.13,-211.28 327.13,-211.28"/>
</g>
<!-- 90030 -->
<g id="node8" class="node">
<title>90030</title>
<g id="a_node8"><a xlink:href="行传/9/0030.md" xlink:title="编号：90030，元愷，車方&#45;&#45;&gt;上宅。点击查看详情">
<polygon fill="#f0f0f0" stroke="none" points="218.12,-21 218.12,-38 277.12,-38 277.12,-21 218.12,-21"/>
<polygon fill="none" stroke="darkred" points="218.12,-21 218.12,-38 277.12,-38 277.12,-21 218.12,-21"/>
<text text-anchor="start" x="237.12" y="-23.7" font-family="SimSun" font-size="14.00" fill="#8b0000">登1</text>
<polygon fill="#ffffff" stroke="none" points="218.12,-4 218.12,-21 277.12,-21 277.12,-4 218.12,-4"/>
<polygon fill="none" stroke="darkred" points="218.12,-4 218.12,-21 277.12,-21 277.12,-4 218.12,-4"/>
<text text-anchor="start" x="219.12" y="-6.7" font-family="SimSun" font-size="14.00" fill="#8b0000">【上宅】</text>
</a>
</g>
</g>
<!-- 80029 -->
<g id="node11" class="node">
<title>80029</title>
<g id="a_node11"><a xlink:href="行传/8/0029.md" xlink:title="编号：80029，雄，。点击查看详情">
<polygon fill="#f0f0f0" stroke="none" points="298.62,-100 298.62,-117 348.62,-117 348.62,-100 298.62,-100"/>
<polygon fill="none" stroke="black" points="298.62,-100 298.62,-117 348.62,-117 348.62,-100 298.62,-100"/>
<text text-anchor="start" x="313.12" y="-102.7" font-family="SimSun" font-size="14.00">文5</text>
<polygon fill="#ffffff" stroke="none" points="298.62,-83 298.62,-100 348.62,-100 348.62,-83 298.62,-83"/>
<polygon fill="none" stroke="black" points="298.62,-83 298.62,-100 348.62,-100 348.62,-83 298.62,-83"/>
<text text-anchor="start" x="316.5" y="-85.7" font-family="SimSun" font-size="14.00">雄</text>
</a>
</g>
</g>
<!-- 70027&#45;&gt;80029 -->
<g id="edge4" class="edge">
<title>70027&#45;&gt;80029</title>
<path fill="none" stroke="black" d="M323.62,-158.17C323.62,-150.27 323.62,-140.98 323.62,-132.21"/>
<polygon fill="black" stroke="black" points="327.13,-132.28 323.63,-122.28 320.13,-132.28 327.13,-132.28"/>
</g>
<!-- 50007 -->
<g id="node10" class="node">
<title>50007</title>
<g id="a_node10"><a xlink:href="行传/5/0007.md" xlink:title="编号：50007，麒，車方&#45;&#45;&gt;墻下。点击查看详情">
<polygon fill="#f0f0f0" stroke="none" points="132.12,-350.25 132.12,-367.25 191.12,-367.25 191.12,-350.25 132.12,-350.25"/>
<polygon fill="none" stroke="darkred" points="132.12,-350.25 132.12,-367.25 191.12,-367.25 191.12,-350.25 132.12,-350.25"/>
<text text-anchor="start" x="147.75" y="-352.95" font-family="SimSun" font-size="14.00" fill="#8b0000">五14</text>
<polygon fill="#ffffff" stroke="none" points="132.12,-333.25 132.12,-350.25 191.12,-350.25 191.12,-333.25 132.12,-333.25"/>
<polygon fill="none" stroke="darkred" points="132.12,-333.25 132.12,-350.25 191.12,-350.25 191.12,-333.25 132.12,-333.25"/>
<text text-anchor="start" x="133.12" y="-335.95" font-family="SimSun" font-size="14.00" fill="#8b0000">【墻下】</text>
</a>
</g>
</g>
<!-- 80029&#45;&gt;90031 -->
<g id="edge6" class="edge">
<title>80029&#45;&gt;90031</title>
<path fill="none" stroke="black" d="M323.62,-79.17C323.62,-71.27 323.62,-61.98 323.62,-53.21"/>
<polygon fill="black" stroke="black" points="327.13,-53.28 323.63,-43.28 320.13,-53.28 327.13,-53.28"/>
</g>
<!-- 80029&#45;&gt;90030 -->
<g id="edge5" class="edge">
<title>80029&#45;&gt;90030</title>
<path fill="none" stroke="black" d="M304.05,-79.17C295.28,-70.28 284.77,-59.63 275.22,-49.95"/>
<polygon fill="black" stroke="black" points="277.71,-47.5 268.19,-42.84 272.73,-52.42 277.71,-47.5"/>
</g>
<!-- 90032 -->
<g id="node20" class="node">
<title>90032</title>
<g id="a_node20"><a xlink:href="行传/9/0032.md" xlink:title="编号：90032，應紀，。点击查看详情">
<polygon fill="#f0f0f0" stroke="none" points="370.12,-21 370.12,-38 429.12,-38 429.12,-21 370.12,-21"/>
<polygon fill="none" stroke="darkred" points="370.12,-21 370.12,-38 429.12,-38 429.12,-21 370.12,-21"/>
<text text-anchor="start" x="389.12" y="-23.7" font-family="SimSun" font-size="14.00" fill="#8b0000">登3</text>
<polygon fill="#ffffff" stroke="none" points="370.12,-4 370.12,-21 429.12,-21 429.12,-4 370.12,-4"/>
<polygon fill="none" stroke="darkred" points="370.12,-4 370.12,-21 429.12,-21 429.12,-4 370.12,-4"/>
<text text-anchor="start" x="371.12" y="-6.7" font-family="SimSun" font-size="14.00" fill="#8b0000">【車方】</text>
</a>
</g>
</g>
<!-- 80029&#45;&gt;90032 -->
<g id="edge7" class="edge">
<title>80029&#45;&gt;90032</title>
<path fill="none" stroke="black" d="M343.2,-79.17C351.97,-70.28 362.48,-59.63 372.03,-49.95"/>
<polygon fill="black" stroke="black" points="374.52,-52.42 379.06,-42.84 369.54,-47.5 374.52,-52.42"/>
</g>
<!-- 50012 -->
<g id="node12" class="node">
<title>50012</title>
<g id="a_node12"><a xlink:href="行传/5/0012.md" xlink:title="编号：50012，麟，。点击查看详情">
<polygon fill="#f0f0f0" stroke="none" points="298.62,-350.25 298.62,-367.25 348.62,-367.25 348.62,-350.25 298.62,-350.25"/>
<polygon fill="none" stroke="black" points="298.62,-350.25 298.62,-367.25 348.62,-367.25 348.62,-350.25 298.62,-350.25"/>
<text text-anchor="start" x="309.75" y="-352.95" font-family="SimSun" font-size="14.00">五23</text>
<polygon fill="#ffffff" stroke="none" points="298.62,-333.25 298.62,-350.25 348.62,-350.25 348.62,-333.25 298.62,-333.25"/>
<polygon fill="none" stroke="black" points="298.62,-333.25 298.62,-350.25 348.62,-350.25 348.62,-333.25 298.62,-333.25"/>
<text text-anchor="start" x="316.5" y="-335.95" font-family="SimSun" font-size="14.00">麟</text>
</a>
</g>
</g>
<!-- 50012&#45;&gt;60013 -->
<g id="edge1" class="edge">
<title>50012&#45;&gt;60013</title>
<path fill="none" stroke="blue" d="M323.62,-329.67C323.62,-318.16 323.62,-303.34 323.62,-290.25"/>
<polygon fill="blue" stroke="blue" points="327.13,-290.37 323.63,-280.37 320.13,-290.37 327.13,-290.37"/>
<text text-anchor="middle" x="340.88" y="-297.95" font-family="Times New Roman,serif" font-size="14.00" fill="blue">承继</text>
</g>
<!-- 40005 -->
<g id="node13" class="node">
<title>40005</title>
<g id="a_node13"><a xlink:href="行传/4/0005.md" xlink:title="编号：40005，★逸，遷居桐廬下石埠從外祖方姓。点击查看详情">
<polygon fill="#f0f0f0" stroke="none" points="308.62,-429.25 308.62,-446.25 358.62,-446.25 358.62,-429.25 308.62,-429.25"/>
<polygon fill="none" stroke="black" points="308.62,-429.25 308.62,-446.25 358.62,-446.25 358.62,-429.25 308.62,-429.25"/>
<text text-anchor="start" x="319.75" y="-431.95" font-family="SimSun" font-size="14.00">四44</text>
<polygon fill="#ffffff" stroke="none" points="308.62,-412.25 308.62,-429.25 358.62,-429.25 358.62,-412.25 308.62,-412.25"/>
<polygon fill="none" stroke="black" points="308.62,-412.25 308.62,-429.25 358.62,-429.25 358.62,-412.25 308.62,-412.25"/>
<text text-anchor="start" x="319.38" y="-414.95" font-family="SimSun" font-size="14.00">★逸</text>
</a>
</g>
</g>
<!-- 30001 -->
<g id="node18" class="node">
<title>30001</title>
<g id="a_node18"><a xlink:href="行传/3/0001.md" xlink:title="编号：30001，瑣，。点击查看详情">
<polygon fill="#f0f0f0" stroke="none" points="174.62,-508.25 174.62,-525.25 224.62,-525.25 224.62,-508.25 174.62,-508.25"/>
<polygon fill="none" stroke="black" points="174.62,-508.25 174.62,-525.25 224.62,-525.25 224.62,-508.25 174.62,-508.25"/>
<text text-anchor="start" x="185.75" y="-510.95" font-family="SimSun" font-size="14.00">三67</text>
<polygon fill="#ffffff" stroke="none" points="174.62,-491.25 174.62,-508.25 224.62,-508.25 224.62,-491.25 174.62,-491.25"/>
<polygon fill="none" stroke="black" points="174.62,-491.25 174.62,-508.25 224.62,-508.25 224.62,-491.25 174.62,-491.25"/>
<text text-anchor="start" x="192.5" y="-493.95" font-family="SimSun" font-size="14.00">瑣</text>
</a>
</g>
</g>
<!-- 20001&#45;&gt;30001 -->
<g id="edge8" class="edge">
<title>20001&#45;&gt;30001</title>
<path fill="none" stroke="black" d="M199.62,-566.42C199.62,-558.52 199.62,-549.23 199.62,-540.46"/>
<polygon fill="black" stroke="black" points="203.13,-540.53 199.63,-530.53 196.13,-540.53 203.13,-540.53"/>
</g>
<!-- 40001 -->
<g id="node15" class="node">
<title>40001</title>
<g id="a_node15"><a xlink:href="行传/4/0001.md" xlink:title="编号：40001，琪，。点击查看详情">
<polygon fill="#f0f0f0" stroke="none" points="8,-429.25 8,-446.25 81.25,-446.25 81.25,-429.25 8,-429.25"/>
<polygon fill="none" stroke="darkred" points="8,-429.25 8,-446.25 81.25,-446.25 81.25,-429.25 8,-429.25"/>
<text text-anchor="start" x="30.75" y="-431.95" font-family="SimSun" font-size="14.00" fill="#8b0000">四28</text>
<polygon fill="#ffffff" stroke="none" points="8,-412.25 8,-429.25 81.25,-429.25 81.25,-412.25 8,-412.25"/>
<polygon fill="none" stroke="darkred" points="8,-412.25 8,-429.25 81.25,-429.25 81.25,-412.25 8,-412.25"/>
<text text-anchor="start" x="9" y="-414.95" font-family="SimSun" font-size="14.00" fill="#8b0000">【溪下祖】</text>
</a>
</g>
</g>
<!-- 50010 -->
<g id="node16" class="node">
<title>50010</title>
<g id="a_node16"><a xlink:href="行传/5/0010.md" xlink:title="编号：50010，汝能，車方&#45;&#45;&gt;司紀宅。点击查看详情">
<polygon fill="#f0f0f0" stroke="none" points="208,-350.25 208,-367.25 281.25,-367.25 281.25,-350.25 208,-350.25"/>
<polygon fill="none" stroke="darkred" points="208,-350.25 208,-367.25 281.25,-367.25 281.25,-350.25 208,-350.25"/>
<text text-anchor="start" x="230.75" y="-352.95" font-family="SimSun" font-size="14.00" fill="#8b0000">五20</text>
<polygon fill="#ffffff" stroke="none" points="208,-333.25 208,-350.25 281.25,-350.25 281.25,-333.25 208,-333.25"/>
<polygon fill="none" stroke="darkred" points="208,-333.25 208,-350.25 281.25,-350.25 281.25,-333.25 208,-333.25"/>
<text text-anchor="start" x="209" y="-335.95" font-family="SimSun" font-size="14.00" fill="#8b0000">【司紀宅】</text>
</a>
</g>
</g>
<!-- 40004 -->
<g id="node17" class="node">
<title>40004</title>
<g id="a_node17"><a xlink:href="行传/4/0004.md" xlink:title="编号：40004，遹，。点击查看详情">
<polygon fill="#f0f0f0" stroke="none" points="241.62,-429.25 241.62,-446.25 291.62,-446.25 291.62,-429.25 241.62,-429.25"/>
<polygon fill="none" stroke="black" points="241.62,-429.25 241.62,-446.25 291.62,-446.25 291.62,-429.25 241.62,-429.25"/>
<text text-anchor="start" x="252.75" y="-431.95" font-family="SimSun" font-size="14.00">四43</text>
<polygon fill="#ffffff" stroke="none" points="241.62,-412.25 241.62,-429.25 291.62,-429.25 291.62,-412.25 241.62,-412.25"/>
<polygon fill="none" stroke="black" points="241.62,-412.25 241.62,-429.25 291.62,-429.25 291.62,-412.25 241.62,-412.25"/>
<text text-anchor="start" x="259.5" y="-414.95" font-family="SimSun" font-size="14.00">遹</text>
</a>
</g>
</g>
<!-- 40004&#45;&gt;50014 -->
<g id="edge13" class="edge">
<title>40004&#45;&gt;50014</title>
<path fill="none" stroke="black" d="M299.51,-408.62C315.61,-399.01 335.2,-387.32 352.48,-377"/>
<polygon fill="black" stroke="black" points="354.26,-380.02 361.05,-371.89 350.67,-374.01 354.26,-380.02"/>
</g>
<!-- 40004&#45;&gt;50002 -->
<g id="edge9" class="edge">
<title>40004&#45;&gt;50002</title>
<path fill="none" stroke="black" d="M233.66,-410.12C232.31,-409.47 230.96,-408.85 229.62,-408.25 188.98,-390.01 174.79,-388.69 133.89,-373.57"/>
<polygon fill="black" stroke="black" points="135.2,-370.32 124.61,-370.06 132.73,-376.87 135.2,-370.32"/>
</g>
<!-- 40004&#45;&gt;50015 -->
<g id="edge14" class="edge">
<title>40004&#45;&gt;50015</title>
<path fill="none" stroke="black" d="M299.54,-410.01C300.91,-409.4 302.27,-408.81 303.62,-408.25 354.22,-387.42 372.27,-390.07 423.41,-373.28"/>
<polygon fill="black" stroke="black" points="424.32,-376.66 432.67,-370.13 422.07,-370.04 424.32,-376.66"/>
</g>
<!-- 40004&#45;&gt;50007 -->
<g id="edge10" class="edge">
<title>40004&#45;&gt;50007</title>
<path fill="none" stroke="black" d="M239.58,-408.42C226.85,-399.08 211.47,-387.8 197.75,-377.74"/>
<polygon fill="black" stroke="black" points="199.93,-375 189.79,-371.91 195.79,-380.64 199.93,-375"/>
</g>
<!-- 40004&#45;&gt;50012 -->
<g id="edge12" class="edge">
<title>40004&#45;&gt;50012</title>
<path fill="none" stroke="black" d="M281.3,-408.42C287.69,-399.8 295.29,-389.53 302.28,-380.09"/>
<polygon fill="black" stroke="black" points="304.96,-382.35 308.1,-372.23 299.33,-378.18 304.96,-382.35"/>
</g>
<!-- 40004&#45;&gt;50010 -->
<g id="edge11" class="edge">
<title>40004&#45;&gt;50010</title>
<path fill="none" stroke="black" d="M260.96,-408.42C258.65,-400.34 255.93,-390.8 253.37,-381.87"/>
<polygon fill="black" stroke="black" points="256.8,-381.12 250.69,-372.47 250.07,-383.04 256.8,-381.12"/>
</g>
<!-- 30001&#45;&gt;40003 -->
<g id="edge17" class="edge">
<title>30001&#45;&gt;40003</title>
<path fill="none" stroke="black" d="M199.62,-487.42C199.62,-479.52 199.62,-470.23 199.62,-461.46"/>
<polygon fill="black" stroke="black" points="203.13,-461.53 199.63,-451.53 196.13,-461.53 203.13,-461.53"/>
</g>
<!-- 30001&#45;&gt;40005 -->
<g id="edge19" class="edge">
<title>30001&#45;&gt;40005</title>
<path fill="none" stroke="black" d="M232.41,-488.41C250.01,-478.3 271.92,-465.71 290.84,-454.83"/>
<polygon fill="black" stroke="black" points="292.48,-457.93 299.41,-449.91 288.99,-451.86 292.48,-457.93"/>
</g>
<!-- 30001&#45;&gt;40001 -->
<g id="edge15" class="edge">
<title>30001&#45;&gt;40001</title>
<path fill="none" stroke="black" d="M166.75,-490.92C145.85,-480.54 118.38,-466.89 94.79,-455.17"/>
<polygon fill="black" stroke="black" points="96.47,-452.1 85.96,-450.78 93.36,-458.37 96.47,-452.1"/>
</g>
<!-- 30001&#45;&gt;40004 -->
<g id="edge18" class="edge">
<title>30001&#45;&gt;40004</title>
<path fill="none" stroke="black" d="M216.88,-487.42C224.54,-478.62 233.69,-468.1 242.05,-458.5"/>
<polygon fill="black" stroke="black" points="244.51,-461 248.44,-451.15 239.23,-456.4 244.51,-461"/>
</g>
<!-- 40002 -->
<g id="node19" class="node">
<title>40002</title>
<g id="a_node19"><a xlink:href="行传/4/0002.md" xlink:title="编号：40002，彥，。点击查看详情">
<polygon fill="#f0f0f0" stroke="none" points="98.12,-429.25 98.12,-446.25 157.12,-446.25 157.12,-429.25 98.12,-429.25"/>
<polygon fill="none" stroke="darkred" points="98.12,-429.25 98.12,-446.25 157.12,-446.25 157.12,-429.25 98.12,-429.25"/>
<text text-anchor="start" x="113.75" y="-431.95" font-family="SimSun" font-size="14.00" fill="#8b0000">四35</text>
<polygon fill="#ffffff" stroke="none" points="98.12,-412.25 98.12,-429.25 157.12,-429.25 157.12,-412.25 98.12,-412.25"/>
<polygon fill="none" stroke="darkred" points="98.12,-412.25 98.12,-429.25 157.12,-429.25 157.12,-412.25 98.12,-412.25"/>
<text text-anchor="start" x="99.12" y="-414.95" font-family="SimSun" font-size="14.00" fill="#8b0000">【寺前】</text>
</a>
</g>
</g>
<!-- 30001&#45;&gt;40002 -->
<g id="edge16" class="edge">
<title>30001&#45;&gt;40002</title>
<path fill="none" stroke="black" d="M181.08,-487.42C172.77,-478.53 162.82,-467.88 153.76,-458.2"/>
<polygon fill="black" stroke="black" points="156.52,-456.03 147.14,-451.12 151.41,-460.81 156.52,-456.03"/>
</g>
</g>

                </svg>
