<?xml version="1.0" encoding="UTF-8" standalone="no"?>
<!DOCTYPE svg PUBLIC "-//W3C//DTD SVG 1.1//EN"
 "http://www.w3.org/Graphics/SVG/1.1/DTD/svg11.dtd">
<!-- Generated by graphviz version 12.2.1 (20241206.2353)
 -->
<!-- Title: main Pages: 1 -->
<svg width="769pt" height="1013pt"
 viewBox="0.00 0.00 768.60 1012.60" xmlns="http://www.w3.org/2000/svg" xmlns:xlink="http://www.w3.org/1999/xlink">
<g id="graph0" class="graph" transform="scale(1 1) rotate(0) translate(4 1008.6)">
<title>main</title>
<!-- 40001 -->
<g id="node1" class="node">
<title>40001</title>
<g id="a_node1"><a xlink:href="HZ\0003.jpg" xlink:title="1子靈沼出家|0" target="dynamic">
<polygon fill="green" stroke="black" stroke-width="0.3" points="589,-946.5 589,-1004.1 646.6,-1004.1 646.6,-946.5 589,-946.5"/>
<text text-anchor="middle" x="618" y="-988.9" font-family="宋体" font-size="16.00">40001</text>
<polyline fill="none" stroke="black" stroke-width="0.3" points="589,-983.85 647,-983.85"/>
<text text-anchor="middle" x="618" y="-968.65" font-family="宋体" font-size="16.00">四28</text>
<polyline fill="none" stroke="black" stroke-width="0.3" points="589,-963.6 647,-963.6"/>
<text text-anchor="middle" x="618" y="-948.4" font-family="宋体" font-size="16.00">琪</text>
</a>
</g>
</g>
<!-- 50001 -->
<g id="node2" class="node">
<title>50001</title>
<g id="a_node2"><a xlink:href="HZ\0004.jpg" xlink:title="刊誤四18|0" target="dynamic">
<polygon fill="none" stroke="black" stroke-width="0.3" points="475,-851.9 475,-909.5 532.6,-909.5 532.6,-851.9 475,-851.9"/>
<text text-anchor="middle" x="504" y="-894.3" font-family="宋体" font-size="16.00">50001</text>
<polyline fill="none" stroke="black" stroke-width="0.3" points="475,-889.25 533,-889.25"/>
<text text-anchor="middle" x="504" y="-874.05" font-family="宋体" font-size="16.00">五1</text>
<polyline fill="none" stroke="black" stroke-width="0.3" points="475,-869 533,-869"/>
<text text-anchor="middle" x="504" y="-853.8" font-family="宋体" font-size="16.00">勝</text>
</a>
</g>
</g>
<!-- 40001&#45;&gt;50001 -->
<g id="edge1" class="edge">
<title>40001&#45;&gt;50001</title>
<path fill="none" stroke="black" d="M589.03,-950.93C573.37,-938.21 553.91,-922.4 537.53,-909.1"/>
<polygon fill="black" stroke="black" points="538.72,-907.81 533.73,-906.01 536.51,-910.52 538.72,-907.81"/>
</g>
<!-- 50004 -->
<g id="node3" class="node">
<title>50004</title>
<g id="a_node3"><a xlink:href="HZ\0004.jpg" xlink:title="0|0" target="dynamic">
<polygon fill="none" stroke="black" stroke-width="0.3" points="551,-851.9 551,-909.5 608.6,-909.5 608.6,-851.9 551,-851.9"/>
<text text-anchor="middle" x="580" y="-894.3" font-family="宋体" font-size="16.00">50004</text>
<polyline fill="none" stroke="black" stroke-width="0.3" points="551,-889.25 609,-889.25"/>
<text text-anchor="middle" x="580" y="-874.05" font-family="宋体" font-size="16.00">五5</text>
<polyline fill="none" stroke="black" stroke-width="0.3" points="551,-869 609,-869"/>
<text text-anchor="middle" x="580" y="-853.8" font-family="宋体" font-size="16.00">順</text>
</a>
</g>
</g>
<!-- 40001&#45;&gt;50004 -->
<g id="edge2" class="edge">
<title>40001&#45;&gt;50004</title>
<path fill="none" stroke="black" d="M606.4,-946.52C602.38,-936.72 597.81,-925.6 593.62,-915.37"/>
<polygon fill="black" stroke="black" points="595.29,-914.82 591.77,-910.86 592.05,-916.15 595.29,-914.82"/>
</g>
<!-- 50009 -->
<g id="node4" class="node">
<title>50009</title>
<g id="a_node4"><a xlink:href="HZ\0004.jpg" xlink:title="0|0" target="dynamic">
<polygon fill="none" stroke="black" stroke-width="0.3" points="627,-851.9 627,-909.5 684.6,-909.5 684.6,-851.9 627,-851.9"/>
<text text-anchor="middle" x="656" y="-894.3" font-family="宋体" font-size="16.00">50009</text>
<polyline fill="none" stroke="black" stroke-width="0.3" points="627,-889.25 685,-889.25"/>
<text text-anchor="middle" x="656" y="-874.05" font-family="宋体" font-size="16.00">五19</text>
<polyline fill="none" stroke="black" stroke-width="0.3" points="627,-869 685,-869"/>
<text text-anchor="middle" x="656" y="-853.8" font-family="宋体" font-size="16.00">勤</text>
</a>
</g>
</g>
<!-- 40001&#45;&gt;50009 -->
<g id="edge3" class="edge">
<title>40001&#45;&gt;50009</title>
<path fill="none" stroke="black" d="M629.2,-946.52C633.22,-936.72 637.79,-925.6 641.98,-915.37"/>
<polygon fill="black" stroke="black" points="643.55,-916.15 643.83,-910.86 640.31,-914.82 643.55,-916.15"/>
</g>
<!-- 50000&#45;1 -->
<g id="node45" class="node">
<title>50000&#45;1</title>
<polygon fill="grey" stroke="black" stroke-width="0.3" points="703,-851.9 703,-909.5 760.6,-909.5 760.6,-851.9 703,-851.9"/>
<text text-anchor="middle" x="731.75" y="-893.8" font-family="宋体" font-size="16.00">出家</text>
<polyline fill="none" stroke="black" stroke-width="0.3" points="703,-891.25 760.5,-891.25"/>
<text text-anchor="middle" x="731.75" y="-875.55" font-family="宋体" font-size="16.00"> </text>
<polyline fill="none" stroke="black" stroke-width="0.3" points="703,-870 760.5,-870"/>
<text text-anchor="middle" x="731.75" y="-854.3" font-family="宋体" font-size="16.00">靈沼</text>
</g>
<!-- 40001&#45;&gt;50000&#45;1 -->
<g id="edge44" class="edge">
<title>40001&#45;&gt;50000&#45;1</title>
<path fill="none" stroke="black" d="M646.57,-950.93C662.23,-938.21 681.69,-922.4 698.07,-909.1"/>
<polygon fill="black" stroke="black" points="699.09,-910.52 701.87,-906.01 696.88,-907.81 699.09,-910.52"/>
</g>
<!-- 60008 -->
<g id="node5" class="node">
<title>60008</title>
<g id="a_node5"><a xlink:href="HZ\0006.jpg" xlink:title="0|0" target="dynamic">
<polygon fill="none" stroke="black" stroke-width="0.3" points="323,-757.3 323,-814.9 380.6,-814.9 380.6,-757.3 323,-757.3"/>
<text text-anchor="middle" x="352" y="-799.7" font-family="宋体" font-size="16.00">60008</text>
<polyline fill="none" stroke="black" stroke-width="0.3" points="323,-794.65 381,-794.65"/>
<text text-anchor="middle" x="352" y="-779.45" font-family="宋体" font-size="16.00">六10</text>
<polyline fill="none" stroke="black" stroke-width="0.3" points="323,-774.4 381,-774.4"/>
<text text-anchor="middle" x="352" y="-759.2" font-family="宋体" font-size="16.00">瑋</text>
</a>
</g>
</g>
<!-- 50001&#45;&gt;60008 -->
<g id="edge4" class="edge">
<title>50001&#45;&gt;60008</title>
<path fill="none" stroke="black" d="M475.21,-862.28C449.81,-846.81 412.66,-824.18 385.76,-807.79"/>
<polygon fill="black" stroke="black" points="386.99,-806.49 381.81,-805.38 385.17,-809.48 386.99,-806.49"/>
</g>
<!-- 60017 -->
<g id="node6" class="node">
<title>60017</title>
<g id="a_node6"><a xlink:href="HZ\0006.jpg" xlink:title="0|0" target="dynamic">
<polygon fill="none" stroke="black" stroke-width="0.3" points="437,-757.3 437,-814.9 494.6,-814.9 494.6,-757.3 437,-757.3"/>
<text text-anchor="middle" x="466" y="-800.2" font-family="宋体" font-size="16.00">60017</text>
<polyline fill="none" stroke="black" stroke-width="0.3" points="437,-795.65 495,-795.65"/>
<text text-anchor="middle" x="466" y="-780.95" font-family="宋体" font-size="16.00">六17</text>
<polyline fill="none" stroke="black" stroke-width="0.3" points="437,-776.4 495,-776.4"/>
<text text-anchor="middle" x="466" y="-761.7" font-family="宋体" font-size="16.00">王+奎</text>
</a>
</g>
</g>
<!-- 50001&#45;&gt;60017 -->
<g id="edge5" class="edge">
<title>50001&#45;&gt;60017</title>
<path fill="none" stroke="black" d="M492.4,-851.92C488.38,-842.12 483.81,-831 479.62,-820.77"/>
<polygon fill="black" stroke="black" points="481.29,-820.22 477.77,-816.26 478.05,-821.55 481.29,-820.22"/>
</g>
<!-- 60019 -->
<g id="node7" class="node">
<title>60019</title>
<g id="a_node7"><a xlink:href="HZ\0007.jpg" xlink:title="0|0" target="dynamic">
<polygon fill="none" stroke="black" stroke-width="0.3" points="513,-757.3 513,-814.9 570.6,-814.9 570.6,-757.3 513,-757.3"/>
<text text-anchor="middle" x="542" y="-799.7" font-family="宋体" font-size="16.00">60019</text>
<polyline fill="none" stroke="black" stroke-width="0.3" points="513,-794.65 571,-794.65"/>
<text text-anchor="middle" x="542" y="-779.45" font-family="宋体" font-size="16.00">六19</text>
<polyline fill="none" stroke="black" stroke-width="0.3" points="513,-774.4 571,-774.4"/>
<text text-anchor="middle" x="542" y="-759.2" font-family="宋体" font-size="16.00">璨</text>
</a>
</g>
</g>
<!-- 50001&#45;&gt;60019 -->
<g id="edge6" class="edge">
<title>50001&#45;&gt;60019</title>
<path fill="none" stroke="black" d="M515.2,-851.92C519.22,-842.12 523.79,-831 527.98,-820.77"/>
<polygon fill="black" stroke="black" points="529.55,-821.55 529.83,-816.26 526.31,-820.22 529.55,-821.55"/>
</g>
<!-- 60013 -->
<g id="node42" class="node">
<title>60013</title>
<polygon fill="none" stroke="black" stroke-width="0.3" points="627,-757.3 627,-814.9 684.6,-814.9 684.6,-757.3 627,-757.3"/>
<text text-anchor="middle" x="656" y="-799.7" font-family="宋体" font-size="16.00">60013</text>
<polyline fill="none" stroke="black" stroke-width="0.3" points="627,-794.65 685,-794.65"/>
<text text-anchor="middle" x="656" y="-779.45" font-family="宋体" font-size="16.00">六14</text>
<polyline fill="none" stroke="black" stroke-width="0.3" points="627,-774.4 685,-774.4"/>
<text text-anchor="middle" x="656" y="-759.2" font-family="宋体" font-size="16.00">珝</text>
</g>
<!-- 50001&#45;&gt;60013 -->
<g id="edge41" class="edge">
<title>50001&#45;&gt;60013</title>
<path fill="none" stroke="black" d="M532.58,-857.68C535.65,-855.51 538.77,-853.37 541.8,-851.4 567.79,-834.49 598.45,-817.34 621.43,-805.01"/>
<polygon fill="black" stroke="black" points="622.18,-806.6 625.77,-802.7 620.53,-803.51 622.18,-806.6"/>
</g>
<!-- 70003 -->
<g id="node8" class="node">
<title>70003</title>
<g id="a_node8"><a xlink:href="HZ\0007.jpg" xlink:title="0|0" target="dynamic">
<polygon fill="none" stroke="black" stroke-width="0.3" points="285,-662.7 285,-720.3 342.6,-720.3 342.6,-662.7 285,-662.7"/>
<text text-anchor="middle" x="314" y="-705.1" font-family="宋体" font-size="16.00">70003</text>
<polyline fill="none" stroke="black" stroke-width="0.3" points="285,-700.05 343,-700.05"/>
<text text-anchor="middle" x="314" y="-684.85" font-family="宋体" font-size="16.00">千3</text>
<polyline fill="none" stroke="black" stroke-width="0.3" points="285,-679.8 343,-679.8"/>
<text text-anchor="middle" x="314" y="-664.6" font-family="宋体" font-size="16.00">照</text>
</a>
</g>
</g>
<!-- 60008&#45;&gt;70003 -->
<g id="edge7" class="edge">
<title>60008&#45;&gt;70003</title>
<path fill="none" stroke="black" d="M340.4,-757.32C336.38,-747.52 331.81,-736.4 327.62,-726.17"/>
<polygon fill="black" stroke="black" points="329.29,-725.62 325.77,-721.66 326.05,-726.95 329.29,-725.62"/>
</g>
<!-- 70021 -->
<g id="node10" class="node">
<title>70021</title>
<g id="a_node10"><a xlink:href="HZ\0008.jpg" xlink:title="0|0" target="dynamic">
<polygon fill="none" stroke="black" stroke-width="0.3" points="361,-662.7 361,-720.3 418.6,-720.3 418.6,-662.7 361,-662.7"/>
<text text-anchor="middle" x="389.88" y="-705.1" font-family="宋体" font-size="16.00">70021</text>
<polyline fill="none" stroke="black" stroke-width="0.3" points="361,-700.05 418.75,-700.05"/>
<text text-anchor="middle" x="389.88" y="-684.85" font-family="宋体" font-size="16.00">千17_2</text>
<polyline fill="none" stroke="black" stroke-width="0.3" points="361,-679.8 418.75,-679.8"/>
<text text-anchor="middle" x="389.88" y="-664.6" font-family="宋体" font-size="16.00">煬</text>
</a>
</g>
</g>
<!-- 60017&#45;&gt;70021 -->
<g id="edge9" class="edge">
<title>60017&#45;&gt;70021</title>
<path fill="none" stroke="black" d="M443,-757.32C434.66,-747.15 425.14,-735.56 416.49,-725.02"/>
<polygon fill="black" stroke="black" points="418.07,-724.19 413.55,-721.43 415.37,-726.41 418.07,-724.19"/>
</g>
<!-- 70022 -->
<g id="node11" class="node">
<title>70022</title>
<g id="a_node11"><a xlink:href="HZ\0008.jpg" xlink:title="0|0" target="dynamic">
<polygon fill="none" stroke="black" stroke-width="0.3" points="437,-662.7 437,-720.3 494.6,-720.3 494.6,-662.7 437,-662.7"/>
<text text-anchor="middle" x="466" y="-705.1" font-family="宋体" font-size="16.00">70022</text>
<polyline fill="none" stroke="black" stroke-width="0.3" points="437,-700.05 495,-700.05"/>
<text text-anchor="middle" x="466" y="-684.85" font-family="宋体" font-size="16.00">千18</text>
<polyline fill="none" stroke="black" stroke-width="0.3" points="437,-679.8 495,-679.8"/>
<text text-anchor="middle" x="466" y="-664.6" font-family="宋体" font-size="16.00">燈</text>
</a>
</g>
</g>
<!-- 60017&#45;&gt;70022 -->
<g id="edge10" class="edge">
<title>60017&#45;&gt;70022</title>
<path fill="none" stroke="black" d="M465.8,-757.32C465.8,-747.7 465.8,-736.81 465.8,-726.74"/>
<polygon fill="black" stroke="black" points="467.55,-726.78 465.8,-721.78 464.05,-726.78 467.55,-726.78"/>
</g>
<!-- 70004 -->
<g id="node9" class="node">
<title>70004</title>
<g id="a_node9"><a xlink:href="HZ\0007.jpg" xlink:title="刊誤六10|0" target="dynamic">
<polygon fill="none" stroke="black" stroke-width="0.3" points="513,-662.7 513,-720.3 570.6,-720.3 570.6,-662.7 513,-662.7"/>
<text text-anchor="middle" x="542" y="-705.6" font-family="宋体" font-size="16.00">70004</text>
<polyline fill="none" stroke="black" stroke-width="0.3" points="513,-701.05 571,-701.05"/>
<text text-anchor="middle" x="542" y="-686.35" font-family="宋体" font-size="16.00">千4</text>
<polyline fill="none" stroke="black" stroke-width="0.3" points="513,-681.8 571,-681.8"/>
<text text-anchor="middle" x="542" y="-667.1" font-family="宋体" font-size="16.00">0</text>
</a>
</g>
</g>
<!-- 60019&#45;&gt;70004 -->
<g id="edge8" class="edge">
<title>60019&#45;&gt;70004</title>
<path fill="none" stroke="black" d="M541.8,-757.32C541.8,-747.7 541.8,-736.81 541.8,-726.74"/>
<polygon fill="black" stroke="black" points="543.55,-726.78 541.8,-721.78 540.05,-726.78 543.55,-726.78"/>
</g>
<!-- 70023 -->
<g id="node12" class="node">
<title>70023</title>
<g id="a_node12"><a xlink:href="HZ\0008.jpg" xlink:title="??|0" target="dynamic">
<polygon fill="none" stroke="black" stroke-width="0.3" points="589,-662.7 589,-720.3 646.6,-720.3 646.6,-662.7 589,-662.7"/>
<text text-anchor="middle" x="618" y="-705.1" font-family="宋体" font-size="16.00">70023</text>
<polyline fill="none" stroke="black" stroke-width="0.3" points="589,-700.05 647,-700.05"/>
<text text-anchor="middle" x="618" y="-684.85" font-family="宋体" font-size="16.00">千19</text>
<polyline fill="none" stroke="black" stroke-width="0.3" points="589,-679.8 647,-679.8"/>
<text text-anchor="middle" x="618" y="-664.6" font-family="宋体" font-size="16.00">燒</text>
</a>
</g>
</g>
<!-- 60019&#45;&gt;70023 -->
<g id="edge11" class="edge">
<title>60019&#45;&gt;70023</title>
<path fill="none" stroke="black" d="M564.6,-757.32C572.94,-747.15 582.46,-735.56 591.11,-725.02"/>
<polygon fill="black" stroke="black" points="592.23,-726.41 594.05,-721.43 589.53,-724.19 592.23,-726.41"/>
</g>
<!-- 80010 -->
<g id="node13" class="node">
<title>80010</title>
<g id="a_node13"><a xlink:href="HZ\0009.jpg" xlink:title="刊误下店|0" target="dynamic">
<polygon fill="none" stroke="black" stroke-width="0.3" points="228,-568.1 228,-625.7 285.6,-625.7 285.6,-568.1 228,-568.1"/>
<text text-anchor="middle" x="257" y="-610.5" font-family="宋体" font-size="16.00">80010</text>
<polyline fill="none" stroke="black" stroke-width="0.3" points="228,-605.45 286,-605.45"/>
<text text-anchor="middle" x="257" y="-590.25" font-family="宋体" font-size="16.00">萬1&#45;2</text>
<polyline fill="none" stroke="black" stroke-width="0.3" points="228,-585.2 286,-585.2"/>
<text text-anchor="middle" x="257" y="-570" font-family="宋体" font-size="16.00">範</text>
</a>
</g>
</g>
<!-- 70003&#45;&gt;80010 -->
<g id="edge12" class="edge">
<title>70003&#45;&gt;80010</title>
<path fill="none" stroke="black" d="M296.7,-662.72C290.55,-652.74 283.57,-641.38 277.17,-630.99"/>
<polygon fill="black" stroke="black" points="278.79,-630.29 274.68,-626.95 275.81,-632.13 278.79,-630.29"/>
</g>
<!-- 80013 -->
<g id="node15" class="node">
<title>80013</title>
<g id="a_node15"><a xlink:href="HZ\0010.jpg" xlink:title="0|0" target="dynamic">
<polygon fill="none" stroke="black" stroke-width="0.3" points="304,-568.1 304,-625.7 361.6,-625.7 361.6,-568.1 304,-568.1"/>
<text text-anchor="middle" x="333" y="-610.5" font-family="宋体" font-size="16.00">80013</text>
<polyline fill="none" stroke="black" stroke-width="0.3" points="304,-605.45 362,-605.45"/>
<text text-anchor="middle" x="333" y="-590.25" font-family="宋体" font-size="16.00">萬3&#45;2</text>
<polyline fill="none" stroke="black" stroke-width="0.3" points="304,-585.2 362,-585.2"/>
<text text-anchor="middle" x="333" y="-570" font-family="宋体" font-size="16.00">逢</text>
</a>
</g>
</g>
<!-- 70021&#45;&gt;80013 -->
<g id="edge14" class="edge">
<title>70021&#45;&gt;80013</title>
<path fill="none" stroke="black" d="M372.7,-662.72C366.55,-652.74 359.57,-641.38 353.17,-630.99"/>
<polygon fill="black" stroke="black" points="354.79,-630.29 350.68,-626.95 351.81,-632.13 354.79,-630.29"/>
</g>
<!-- 80014 -->
<g id="node16" class="node">
<title>80014</title>
<g id="a_node16"><a xlink:href="HZ\0010.jpg" xlink:title="0|0" target="dynamic">
<polygon fill="none" stroke="black" stroke-width="0.3" points="380,-568.1 380,-625.7 437.6,-625.7 437.6,-568.1 380,-568.1"/>
<text text-anchor="middle" x="409" y="-610.5" font-family="宋体" font-size="16.00">80014</text>
<polyline fill="none" stroke="black" stroke-width="0.3" points="380,-605.45 438,-605.45"/>
<text text-anchor="middle" x="409" y="-590.25" font-family="宋体" font-size="16.00">萬4</text>
<polyline fill="none" stroke="black" stroke-width="0.3" points="380,-585.2 438,-585.2"/>
<text text-anchor="middle" x="409" y="-570" font-family="宋体" font-size="16.00">逕</text>
</a>
</g>
</g>
<!-- 70021&#45;&gt;80014 -->
<g id="edge15" class="edge">
<title>70021&#45;&gt;80014</title>
<path fill="none" stroke="black" d="M395.5,-662.72C397.49,-653.01 399.75,-642.01 401.83,-631.85"/>
<polygon fill="black" stroke="black" points="403.51,-632.4 402.8,-627.15 400.08,-631.69 403.51,-632.4"/>
</g>
<!-- 80017 -->
<g id="node17" class="node">
<title>80017</title>
<g id="a_node17"><a xlink:href="HZ\0010.jpg" xlink:title="0|0" target="dynamic">
<polygon fill="none" stroke="black" stroke-width="0.3" points="456,-568.1 456,-625.7 513.6,-625.7 513.6,-568.1 456,-568.1"/>
<text text-anchor="middle" x="485" y="-610.5" font-family="宋体" font-size="16.00">80017</text>
<polyline fill="none" stroke="black" stroke-width="0.3" points="456,-605.45 514,-605.45"/>
<text text-anchor="middle" x="485" y="-590.25" font-family="宋体" font-size="16.00">萬5_2</text>
<polyline fill="none" stroke="black" stroke-width="0.3" points="456,-585.2 514,-585.2"/>
<text text-anchor="middle" x="485" y="-570" font-family="宋体" font-size="16.00">遙</text>
</a>
</g>
</g>
<!-- 70021&#45;&gt;80017 -->
<g id="edge16" class="edge">
<title>70021&#45;&gt;80017</title>
<path fill="none" stroke="black" d="M418.3,-662.72C428.82,-652.46 440.83,-640.76 451.73,-630.14"/>
<polygon fill="black" stroke="black" points="452.87,-631.46 455.23,-626.72 450.43,-628.96 452.87,-631.46"/>
</g>
<!-- 80011 -->
<g id="node14" class="node">
<title>80011</title>
<g id="a_node14"><a xlink:href="HZ\0009.jpg" xlink:title="刊誤千10|0" target="dynamic">
<polygon fill="none" stroke="black" stroke-width="0.3" points="570,-568.1 570,-625.7 627.6,-625.7 627.6,-568.1 570,-568.1"/>
<text text-anchor="middle" x="599" y="-611" font-family="宋体" font-size="16.00">80011</text>
<polyline fill="none" stroke="black" stroke-width="0.3" points="570,-606.45 628,-606.45"/>
<text text-anchor="middle" x="599" y="-591.75" font-family="宋体" font-size="16.00">萬2</text>
<polyline fill="none" stroke="black" stroke-width="0.3" points="570,-587.2 628,-587.2"/>
<text text-anchor="middle" x="599" y="-572.5" font-family="宋体" font-size="16.00">0</text>
</a>
</g>
</g>
<!-- 70023&#45;&gt;80011 -->
<g id="edge13" class="edge">
<title>70023&#45;&gt;80011</title>
<path fill="none" stroke="black" d="M612.1,-662.72C610.11,-653.01 607.85,-642.01 605.77,-631.85"/>
<polygon fill="black" stroke="black" points="607.52,-631.69 604.8,-627.15 604.09,-632.4 607.52,-631.69"/>
</g>
<!-- 80019 -->
<g id="node18" class="node">
<title>80019</title>
<g id="a_node18"><a xlink:href="HZ\0010.jpg" xlink:title="0|0" target="dynamic">
<polygon fill="none" stroke="black" stroke-width="0.3" points="646,-568.1 646,-625.7 703.6,-625.7 703.6,-568.1 646,-568.1"/>
<text text-anchor="middle" x="675" y="-611" font-family="宋体" font-size="16.00">80019</text>
<polyline fill="none" stroke="black" stroke-width="0.3" points="646,-606.45 704,-606.45"/>
<text text-anchor="middle" x="675" y="-591.75" font-family="宋体" font-size="16.00">萬6_2</text>
<polyline fill="none" stroke="black" stroke-width="0.3" points="646,-587.2 704,-587.2"/>
<text text-anchor="middle" x="675" y="-572.5" font-family="宋体" font-size="16.00">0</text>
</a>
</g>
</g>
<!-- 70023&#45;&gt;80019 -->
<g id="edge17" class="edge">
<title>70023&#45;&gt;80019</title>
<path fill="none" stroke="black" d="M634.9,-662.72C641.05,-652.74 648.03,-641.38 654.43,-630.99"/>
<polygon fill="black" stroke="black" points="655.79,-632.13 656.92,-626.95 652.81,-630.29 655.79,-632.13"/>
</g>
<!-- 90001 -->
<g id="node19" class="node">
<title>90001</title>
<g id="a_node19"><a xlink:href="HZ\0012.jpg" xlink:title="0|0" target="dynamic">
<polygon fill="none" stroke="black" stroke-width="0.3" points="152,-473.5 152,-531.1 209.6,-531.1 209.6,-473.5 152,-473.5"/>
<text text-anchor="middle" x="181" y="-515.9" font-family="宋体" font-size="16.00">90001</text>
<polyline fill="none" stroke="black" stroke-width="0.3" points="152,-510.85 210,-510.85"/>
<text text-anchor="middle" x="181" y="-495.65" font-family="宋体" font-size="16.00">宗1</text>
<polyline fill="none" stroke="black" stroke-width="0.3" points="152,-490.6 210,-490.6"/>
<text text-anchor="middle" x="181" y="-475.4" font-family="宋体" font-size="16.00">顯</text>
</a>
</g>
</g>
<!-- 80010&#45;&gt;90001 -->
<g id="edge18" class="edge">
<title>80010&#45;&gt;90001</title>
<path fill="none" stroke="black" d="M234,-568.12C225.66,-557.95 216.14,-546.36 207.49,-535.82"/>
<polygon fill="black" stroke="black" points="209.07,-534.99 204.55,-532.23 206.37,-537.21 209.07,-534.99"/>
</g>
<!-- 90002 -->
<g id="node20" class="node">
<title>90002</title>
<g id="a_node20"><a xlink:href="HZ\0012.jpg" xlink:title="0|0" target="dynamic">
<polygon fill="none" stroke="black" stroke-width="0.3" points="228,-473.5 228,-531.1 285.6,-531.1 285.6,-473.5 228,-473.5"/>
<text text-anchor="middle" x="257" y="-516.4" font-family="宋体" font-size="16.00">90002</text>
<polyline fill="none" stroke="black" stroke-width="0.3" points="228,-511.85 286,-511.85"/>
<text text-anchor="middle" x="257" y="-497.15" font-family="宋体" font-size="16.00">宗2</text>
<polyline fill="none" stroke="black" stroke-width="0.3" points="228,-492.6 286,-492.6"/>
<text text-anchor="middle" x="257" y="-477.9" font-family="宋体" font-size="16.00">0</text>
</a>
</g>
</g>
<!-- 80010&#45;&gt;90002 -->
<g id="edge19" class="edge">
<title>80010&#45;&gt;90002</title>
<path fill="none" stroke="black" d="M256.8,-568.12C256.8,-558.5 256.8,-547.61 256.8,-537.54"/>
<polygon fill="black" stroke="black" points="258.55,-537.58 256.8,-532.58 255.05,-537.58 258.55,-537.58"/>
</g>
<!-- 90026 -->
<g id="node21" class="node">
<title>90026</title>
<g id="a_node21"><a xlink:href="HZ\0013.jpg" xlink:title="0|0" target="dynamic">
<polygon fill="none" stroke="black" stroke-width="0.3" points="304,-473.5 304,-531.1 361.6,-531.1 361.6,-473.5 304,-473.5"/>
<text text-anchor="middle" x="333" y="-516.4" font-family="宋体" font-size="16.00">90026</text>
<polyline fill="none" stroke="black" stroke-width="0.3" points="304,-511.85 362,-511.85"/>
<text text-anchor="middle" x="333" y="-497.15" font-family="宋体" font-size="16.00">曾5_3</text>
<polyline fill="none" stroke="black" stroke-width="0.3" points="304,-492.6 362,-492.6"/>
<text text-anchor="middle" x="333" y="-477.9" font-family="宋体" font-size="16.00">0</text>
</a>
</g>
</g>
<!-- 80013&#45;&gt;90026 -->
<g id="edge20" class="edge">
<title>80013&#45;&gt;90026</title>
<path fill="none" stroke="black" d="M332.8,-568.12C332.8,-558.5 332.8,-547.61 332.8,-537.54"/>
<polygon fill="black" stroke="black" points="334.55,-537.58 332.8,-532.58 331.05,-537.58 334.55,-537.58"/>
</g>
<!-- 90029 -->
<g id="node22" class="node">
<title>90029</title>
<g id="a_node22"><a xlink:href="HZ\0013.jpg" xlink:title="0|析居富陽大源" target="dynamic">
<polygon fill="none" stroke="black" stroke-width="0.3" points="456,-473.5 456,-531.1 513.6,-531.1 513.6,-473.5 456,-473.5"/>
<text text-anchor="middle" x="485" y="-516.4" font-family="宋体" font-size="16.00">90029</text>
<polyline fill="none" stroke="black" stroke-width="0.3" points="456,-511.85 514,-511.85"/>
<text text-anchor="middle" x="485" y="-497.15" font-family="宋体" font-size="16.00">曾7_2</text>
<polyline fill="none" stroke="black" stroke-width="0.3" points="456,-492.6 514,-492.6"/>
<text text-anchor="middle" x="485" y="-477.9" font-family="宋体" font-size="16.00">0</text>
</a>
</g>
</g>
<!-- 80017&#45;&gt;90029 -->
<g id="edge21" class="edge">
<title>80017&#45;&gt;90029</title>
<path fill="none" stroke="black" d="M484.8,-568.12C484.8,-558.5 484.8,-547.61 484.8,-537.54"/>
<polygon fill="black" stroke="black" points="486.55,-537.58 484.8,-532.58 483.05,-537.58 486.55,-537.58"/>
</g>
<!-- 100001 -->
<g id="node23" class="node">
<title>100001</title>
<g id="a_node23"><a xlink:href="HZ\0014.jpg" xlink:title="0|0" target="dynamic">
<polygon fill="none" stroke="black" stroke-width="0.3" points="114,-378.9 114,-436.5 171.6,-436.5 171.6,-378.9 114,-378.9"/>
<text text-anchor="middle" x="143" y="-421.3" font-family="宋体" font-size="16.00">100001</text>
<polyline fill="none" stroke="black" stroke-width="0.3" points="114,-416.25 172,-416.25"/>
<text text-anchor="middle" x="143" y="-401.05" font-family="宋体" font-size="16.00">寧6</text>
<polyline fill="none" stroke="black" stroke-width="0.3" points="114,-396 172,-396"/>
<text text-anchor="middle" x="143" y="-380.8" font-family="宋体" font-size="16.00">瑛</text>
</a>
</g>
</g>
<!-- 90001&#45;&gt;100001 -->
<g id="edge22" class="edge">
<title>90001&#45;&gt;100001</title>
<path fill="none" stroke="black" d="M169.4,-473.52C165.38,-463.72 160.81,-452.6 156.62,-442.37"/>
<polygon fill="black" stroke="black" points="158.29,-441.82 154.77,-437.86 155.05,-443.15 158.29,-441.82"/>
</g>
<!-- 100002 -->
<g id="node24" class="node">
<title>100002</title>
<g id="a_node24"><a xlink:href="HZ\0014.jpg" xlink:title="0|0" target="dynamic">
<polygon fill="none" stroke="black" stroke-width="0.3" points="190,-378.9 190,-436.5 247.6,-436.5 247.6,-378.9 190,-378.9"/>
<text text-anchor="middle" x="219" y="-421.3" font-family="宋体" font-size="16.00">100002</text>
<polyline fill="none" stroke="black" stroke-width="0.3" points="190,-416.25 248,-416.25"/>
<text text-anchor="middle" x="219" y="-401.05" font-family="宋体" font-size="16.00">寧7</text>
<polyline fill="none" stroke="black" stroke-width="0.3" points="190,-396 248,-396"/>
<text text-anchor="middle" x="219" y="-380.8" font-family="宋体" font-size="16.00">琇</text>
</a>
</g>
</g>
<!-- 90001&#45;&gt;100002 -->
<g id="edge23" class="edge">
<title>90001&#45;&gt;100002</title>
<path fill="none" stroke="black" d="M192.2,-473.52C196.22,-463.72 200.79,-452.6 204.98,-442.37"/>
<polygon fill="black" stroke="black" points="206.55,-443.15 206.83,-437.86 203.31,-441.82 206.55,-443.15"/>
</g>
<!-- 90029&#45;1 -->
<g id="node44" class="node">
<title>90029&#45;1</title>
<polygon fill="grey" stroke="black" stroke-width="0.3" points="456,-378.9 456,-436.5 513.6,-436.5 513.6,-378.9 456,-378.9"/>
<text text-anchor="middle" x="485" y="-420.8" font-family="宋体" font-size="16.00">迁居</text>
<polyline fill="none" stroke="black" stroke-width="0.3" points="456,-418.25 514,-418.25"/>
<text text-anchor="middle" x="485" y="-402.55" font-family="宋体" font-size="16.00">富陽大源</text>
<polyline fill="none" stroke="black" stroke-width="0.3" points="456,-400 514,-400"/>
<text text-anchor="middle" x="485" y="-384.3" font-family="宋体" font-size="16.00"> </text>
</g>
<!-- 90029&#45;&gt;90029&#45;1 -->
<g id="edge43" class="edge">
<title>90029&#45;&gt;90029&#45;1</title>
<path fill="none" stroke="black" d="M484.8,-473.52C484.8,-463.9 484.8,-453.01 484.8,-442.94"/>
<polygon fill="black" stroke="black" points="486.55,-442.98 484.8,-437.98 483.05,-442.98 486.55,-442.98"/>
</g>
<!-- 110001 -->
<g id="node25" class="node">
<title>110001</title>
<g id="a_node25"><a xlink:href="HZ\0016.jpg" xlink:title="0|0" target="dynamic">
<polygon fill="none" stroke="black" stroke-width="0.3" points="114,-284.3 114,-341.9 171.6,-341.9 171.6,-284.3 114,-284.3"/>
<text text-anchor="middle" x="143" y="-326.7" font-family="宋体" font-size="16.00">110001</text>
<polyline fill="none" stroke="black" stroke-width="0.3" points="114,-321.65 172,-321.65"/>
<text text-anchor="middle" x="143" y="-306.45" font-family="宋体" font-size="16.00">清1</text>
<polyline fill="none" stroke="black" stroke-width="0.3" points="114,-301.4 172,-301.4"/>
<text text-anchor="middle" x="143" y="-286.2" font-family="宋体" font-size="16.00">文循</text>
</a>
</g>
</g>
<!-- 100002&#45;&gt;110001 -->
<g id="edge24" class="edge">
<title>100002&#45;&gt;110001</title>
<path fill="none" stroke="black" d="M196,-378.92C187.66,-368.75 178.14,-357.16 169.49,-346.62"/>
<polygon fill="black" stroke="black" points="171.07,-345.79 166.55,-343.03 168.37,-348.01 171.07,-345.79"/>
</g>
<!-- 110002 -->
<g id="node26" class="node">
<title>110002</title>
<g id="a_node26"><a xlink:href="HZ\0016.jpg" xlink:title="0|0" target="dynamic">
<polygon fill="none" stroke="black" stroke-width="0.3" points="190,-284.3 190,-341.9 247.6,-341.9 247.6,-284.3 190,-284.3"/>
<text text-anchor="middle" x="219" y="-326.7" font-family="宋体" font-size="16.00">110002</text>
<polyline fill="none" stroke="black" stroke-width="0.3" points="190,-321.65 248,-321.65"/>
<text text-anchor="middle" x="219" y="-306.45" font-family="宋体" font-size="16.00">清2</text>
<polyline fill="none" stroke="black" stroke-width="0.3" points="190,-301.4 248,-301.4"/>
<text text-anchor="middle" x="219" y="-286.2" font-family="宋体" font-size="16.00">文從</text>
</a>
</g>
</g>
<!-- 100002&#45;&gt;110002 -->
<g id="edge25" class="edge">
<title>100002&#45;&gt;110002</title>
<path fill="none" stroke="black" d="M218.8,-378.92C218.8,-369.3 218.8,-358.41 218.8,-348.34"/>
<polygon fill="black" stroke="black" points="220.55,-348.38 218.8,-343.38 217.05,-348.38 220.55,-348.38"/>
</g>
<!-- 110003 -->
<g id="node27" class="node">
<title>110003</title>
<g id="a_node27"><a xlink:href="HZ\0016.jpg" xlink:title="刊誤車方|0" target="dynamic">
<polygon fill="none" stroke="black" stroke-width="0.3" points="342,-284.3 342,-341.9 399.6,-341.9 399.6,-284.3 342,-284.3"/>
<text text-anchor="middle" x="371" y="-326.7" font-family="宋体" font-size="16.00">110003</text>
<polyline fill="none" stroke="black" stroke-width="0.3" points="342,-321.65 400,-321.65"/>
<text text-anchor="middle" x="371" y="-306.45" font-family="宋体" font-size="16.00">清4</text>
<polyline fill="none" stroke="black" stroke-width="0.3" points="342,-301.4 400,-301.4"/>
<text text-anchor="middle" x="371" y="-286.2" font-family="宋体" font-size="16.00">文行</text>
</a>
</g>
</g>
<!-- 100002&#45;&gt;110003 -->
<g id="edge26" class="edge">
<title>100002&#45;&gt;110003</title>
<path fill="none" stroke="black" d="M247.39,-389.28C272.79,-373.81 309.94,-351.18 336.84,-334.79"/>
<polygon fill="black" stroke="black" points="337.43,-336.48 340.79,-332.38 335.61,-333.49 337.43,-336.48"/>
</g>
<!-- 120001 -->
<g id="node28" class="node">
<title>120001</title>
<g id="a_node28"><a xlink:href="HZ\0018.jpg" xlink:title="0|0" target="dynamic">
<polygon fill="none" stroke="black" stroke-width="0.3" points="76,-189.7 76,-247.3 133.6,-247.3 133.6,-189.7 76,-189.7"/>
<text text-anchor="middle" x="105" y="-232.1" font-family="宋体" font-size="16.00">120001</text>
<polyline fill="none" stroke="black" stroke-width="0.3" points="76,-227.05 134,-227.05"/>
<text text-anchor="middle" x="105" y="-211.85" font-family="宋体" font-size="16.00">怡1</text>
<polyline fill="none" stroke="black" stroke-width="0.3" points="76,-206.8 134,-206.8"/>
<text text-anchor="middle" x="105" y="-191.6" font-family="宋体" font-size="16.00">瑗</text>
</a>
</g>
</g>
<!-- 110001&#45;&gt;120001 -->
<g id="edge27" class="edge">
<title>110001&#45;&gt;120001</title>
<path fill="none" stroke="black" d="M131.4,-284.32C127.38,-274.52 122.81,-263.4 118.62,-253.17"/>
<polygon fill="black" stroke="black" points="120.29,-252.62 116.77,-248.66 117.05,-253.95 120.29,-252.62"/>
</g>
<!-- 120002 -->
<g id="node29" class="node">
<title>120002</title>
<g id="a_node29"><a xlink:href="HZ\0018.jpg" xlink:title="0|0" target="dynamic">
<polygon fill="none" stroke="black" stroke-width="0.3" points="190,-189.7 190,-247.3 247.6,-247.3 247.6,-189.7 190,-189.7"/>
<text text-anchor="middle" x="219" y="-232.1" font-family="宋体" font-size="16.00">120002</text>
<polyline fill="none" stroke="black" stroke-width="0.3" points="190,-227.05 248,-227.05"/>
<text text-anchor="middle" x="219" y="-211.85" font-family="宋体" font-size="16.00">怡6</text>
<polyline fill="none" stroke="black" stroke-width="0.3" points="190,-206.8 248,-206.8"/>
<text text-anchor="middle" x="219" y="-191.6" font-family="宋体" font-size="16.00">魁</text>
</a>
</g>
</g>
<!-- 110002&#45;&gt;120002 -->
<g id="edge28" class="edge">
<title>110002&#45;&gt;120002</title>
<path fill="none" stroke="black" d="M218.8,-284.32C218.8,-274.7 218.8,-263.81 218.8,-253.74"/>
<polygon fill="black" stroke="black" points="220.55,-253.78 218.8,-248.78 217.05,-253.78 220.55,-253.78"/>
</g>
<!-- 120003 -->
<g id="node30" class="node">
<title>120003</title>
<g id="a_node30"><a xlink:href="HZ\0018.jpg" xlink:title="0|0" target="dynamic">
<polygon fill="none" stroke="black" stroke-width="0.3" points="342,-189.7 342,-247.3 399.6,-247.3 399.6,-189.7 342,-189.7"/>
<text text-anchor="middle" x="371" y="-232.1" font-family="宋体" font-size="16.00">120003</text>
<polyline fill="none" stroke="black" stroke-width="0.3" points="342,-227.05 400,-227.05"/>
<text text-anchor="middle" x="371" y="-211.85" font-family="宋体" font-size="16.00">安3</text>
<polyline fill="none" stroke="black" stroke-width="0.3" points="342,-206.8 400,-206.8"/>
<text text-anchor="middle" x="371" y="-191.6" font-family="宋体" font-size="16.00">毛</text>
</a>
</g>
</g>
<!-- 110003&#45;&gt;120003 -->
<g id="edge29" class="edge">
<title>110003&#45;&gt;120003</title>
<path fill="none" stroke="black" d="M370.8,-284.32C370.8,-274.7 370.8,-263.81 370.8,-253.74"/>
<polygon fill="black" stroke="black" points="372.55,-253.78 370.8,-248.78 369.05,-253.78 372.55,-253.78"/>
</g>
<!-- 120004 -->
<g id="node31" class="node">
<title>120004</title>
<g id="a_node31"><a xlink:href="HZ\0018.jpg" xlink:title="刊誤安3|0" target="dynamic">
<polygon fill="none" stroke="black" stroke-width="0.3" points="456,-189.7 456,-247.3 513.6,-247.3 513.6,-189.7 456,-189.7"/>
<text text-anchor="middle" x="485" y="-232.1" font-family="宋体" font-size="16.00">120004</text>
<polyline fill="none" stroke="black" stroke-width="0.3" points="456,-227.05 514,-227.05"/>
<text text-anchor="middle" x="485" y="-211.85" font-family="宋体" font-size="16.00">安4</text>
<polyline fill="none" stroke="black" stroke-width="0.3" points="456,-206.8 514,-206.8"/>
<text text-anchor="middle" x="485" y="-191.6" font-family="宋体" font-size="16.00">艮</text>
</a>
</g>
</g>
<!-- 110003&#45;&gt;120004 -->
<g id="edge30" class="edge">
<title>110003&#45;&gt;120004</title>
<path fill="none" stroke="black" d="M399.57,-288.73C415.23,-276.01 434.69,-260.2 451.07,-246.9"/>
<polygon fill="black" stroke="black" points="452.09,-248.32 454.87,-243.81 449.88,-245.61 452.09,-248.32"/>
</g>
<!-- 130001 -->
<g id="node32" class="node">
<title>130001</title>
<g id="a_node32"><a xlink:href="HZ\0022.jpg" xlink:title="刊誤怡9|0" target="dynamic">
<polygon fill="none" stroke="black" stroke-width="0.3" points="0,-95.1 0,-152.7 57.6,-152.7 57.6,-95.1 0,-95.1"/>
<text text-anchor="middle" x="29" y="-137.5" font-family="宋体" font-size="16.00">130001</text>
<polyline fill="none" stroke="black" stroke-width="0.3" points="0,-132.45 58,-132.45"/>
<text text-anchor="middle" x="29" y="-117.25" font-family="宋体" font-size="16.00">瓊1</text>
<polyline fill="none" stroke="black" stroke-width="0.3" points="0,-112.2 58,-112.2"/>
<text text-anchor="middle" x="29" y="-97" font-family="宋体" font-size="16.00">惠</text>
</a>
</g>
</g>
<!-- 120001&#45;&gt;130001 -->
<g id="edge31" class="edge">
<title>120001&#45;&gt;130001</title>
<path fill="none" stroke="black" d="M82,-189.72C73.66,-179.55 64.14,-167.96 55.49,-157.42"/>
<polygon fill="black" stroke="black" points="57.07,-156.59 52.55,-153.83 54.37,-158.81 57.07,-156.59"/>
</g>
<!-- 130002 -->
<g id="node33" class="node">
<title>130002</title>
<g id="a_node33"><a xlink:href="HZ\0022.jpg" xlink:title="0|0" target="dynamic">
<polygon fill="none" stroke="black" stroke-width="0.3" points="76,-95.1 76,-152.7 133.6,-152.7 133.6,-95.1 76,-95.1"/>
<text text-anchor="middle" x="105" y="-137.5" font-family="宋体" font-size="16.00">130002</text>
<polyline fill="none" stroke="black" stroke-width="0.3" points="76,-132.45 134,-132.45"/>
<text text-anchor="middle" x="105" y="-117.25" font-family="宋体" font-size="16.00">瓊2</text>
<polyline fill="none" stroke="black" stroke-width="0.3" points="76,-112.2 134,-112.2"/>
<text text-anchor="middle" x="105" y="-97" font-family="宋体" font-size="16.00">珍</text>
</a>
</g>
</g>
<!-- 120001&#45;&gt;130002 -->
<g id="edge32" class="edge">
<title>120001&#45;&gt;130002</title>
<path fill="none" stroke="black" d="M104.8,-189.72C104.8,-180.1 104.8,-169.21 104.8,-159.14"/>
<polygon fill="black" stroke="black" points="106.55,-159.18 104.8,-154.18 103.05,-159.18 106.55,-159.18"/>
</g>
<!-- 130003 -->
<g id="node34" class="node">
<title>130003</title>
<g id="a_node34"><a xlink:href="HZ\0023.jpg" xlink:title="0|0" target="dynamic">
<polygon fill="none" stroke="black" stroke-width="0.3" points="152,-95.1 152,-152.7 209.6,-152.7 209.6,-95.1 152,-95.1"/>
<text text-anchor="middle" x="181" y="-138" font-family="宋体" font-size="16.00">130003</text>
<polyline fill="none" stroke="black" stroke-width="0.3" points="152,-133.45 210,-133.45"/>
<text text-anchor="middle" x="181" y="-118.75" font-family="宋体" font-size="16.00">瓊3</text>
<polyline fill="none" stroke="black" stroke-width="0.3" points="152,-114.2 210,-114.2"/>
<text text-anchor="middle" x="181" y="-99.5" font-family="宋体" font-size="16.00">0</text>
</a>
</g>
</g>
<!-- 120002&#45;&gt;130003 -->
<g id="edge33" class="edge">
<title>120002&#45;&gt;130003</title>
<path fill="none" stroke="black" d="M207.4,-189.72C203.38,-179.92 198.81,-168.8 194.62,-158.57"/>
<polygon fill="black" stroke="black" points="196.29,-158.02 192.77,-154.06 193.05,-159.35 196.29,-158.02"/>
</g>
<!-- 130004 -->
<g id="node35" class="node">
<title>130004</title>
<g id="a_node35"><a xlink:href="HZ\0023.jpg" xlink:title="0|0" target="dynamic">
<polygon fill="none" stroke="black" stroke-width="0.3" points="228,-95.1 228,-152.7 285.6,-152.7 285.6,-95.1 228,-95.1"/>
<text text-anchor="middle" x="257" y="-138" font-family="宋体" font-size="16.00">130004</text>
<polyline fill="none" stroke="black" stroke-width="0.3" points="228,-133.45 286,-133.45"/>
<text text-anchor="middle" x="257" y="-118.75" font-family="宋体" font-size="16.00">瓊4</text>
<polyline fill="none" stroke="black" stroke-width="0.3" points="228,-114.2 286,-114.2"/>
<text text-anchor="middle" x="257" y="-99.5" font-family="宋体" font-size="16.00">0</text>
</a>
</g>
</g>
<!-- 120002&#45;&gt;130004 -->
<g id="edge34" class="edge">
<title>120002&#45;&gt;130004</title>
<path fill="none" stroke="black" d="M230.2,-189.72C234.22,-179.92 238.79,-168.8 242.98,-158.57"/>
<polygon fill="black" stroke="black" points="244.55,-159.35 244.83,-154.06 241.31,-158.02 244.55,-159.35"/>
</g>
<!-- 130005 -->
<g id="node36" class="node">
<title>130005</title>
<g id="a_node36"><a xlink:href="HZ\0023.jpg" xlink:title="0|0" target="dynamic">
<polygon fill="none" stroke="black" stroke-width="0.3" points="304,-95.1 304,-152.7 361.6,-152.7 361.6,-95.1 304,-95.1"/>
<text text-anchor="middle" x="333" y="-138" font-family="宋体" font-size="16.00">130005</text>
<polyline fill="none" stroke="black" stroke-width="0.3" points="304,-133.45 362,-133.45"/>
<text text-anchor="middle" x="333" y="-118.75" font-family="宋体" font-size="16.00">瓊5</text>
<polyline fill="none" stroke="black" stroke-width="0.3" points="304,-114.2 362,-114.2"/>
<text text-anchor="middle" x="333" y="-99.5" font-family="宋体" font-size="16.00">0</text>
</a>
</g>
</g>
<!-- 120003&#45;&gt;130005 -->
<g id="edge35" class="edge">
<title>120003&#45;&gt;130005</title>
<path fill="none" stroke="black" d="M359.4,-189.72C355.38,-179.92 350.81,-168.8 346.62,-158.57"/>
<polygon fill="black" stroke="black" points="348.29,-158.02 344.77,-154.06 345.05,-159.35 348.29,-158.02"/>
</g>
<!-- 130007 -->
<g id="node38" class="node">
<title>130007</title>
<g id="a_node38"><a xlink:href="HZ\0023.jpg" xlink:title="0|0" target="dynamic">
<polygon fill="none" stroke="black" stroke-width="0.3" points="380,-95.1 380,-152.7 437.6,-152.7 437.6,-95.1 380,-95.1"/>
<text text-anchor="middle" x="409" y="-137.5" font-family="宋体" font-size="16.00">130007</text>
<polyline fill="none" stroke="black" stroke-width="0.3" points="380,-132.45 438,-132.45"/>
<text text-anchor="middle" x="409" y="-117.25" font-family="宋体" font-size="16.00">瓊8</text>
<polyline fill="none" stroke="black" stroke-width="0.3" points="380,-112.2 438,-112.2"/>
<text text-anchor="middle" x="409" y="-97" font-family="宋体" font-size="16.00">武</text>
</a>
</g>
</g>
<!-- 120003&#45;&gt;130007 -->
<g id="edge37" class="edge">
<title>120003&#45;&gt;130007</title>
<path fill="none" stroke="black" d="M382.2,-189.72C386.22,-179.92 390.79,-168.8 394.98,-158.57"/>
<polygon fill="black" stroke="black" points="396.55,-159.35 396.83,-154.06 393.31,-158.02 396.55,-159.35"/>
</g>
<!-- 130006 -->
<g id="node37" class="node">
<title>130006</title>
<g id="a_node37"><a xlink:href="HZ\0023.jpg" xlink:title="0|0" target="dynamic">
<polygon fill="none" stroke="black" stroke-width="0.3" points="456,-95.1 456,-152.7 513.6,-152.7 513.6,-95.1 456,-95.1"/>
<text text-anchor="middle" x="485" y="-137.5" font-family="宋体" font-size="16.00">130006</text>
<polyline fill="none" stroke="black" stroke-width="0.3" points="456,-132.45 514,-132.45"/>
<text text-anchor="middle" x="485" y="-117.25" font-family="宋体" font-size="16.00">瓊6</text>
<polyline fill="none" stroke="black" stroke-width="0.3" points="456,-112.2 514,-112.2"/>
<text text-anchor="middle" x="485" y="-97" font-family="宋体" font-size="16.00">捨</text>
</a>
</g>
</g>
<!-- 120004&#45;&gt;130006 -->
<g id="edge36" class="edge">
<title>120004&#45;&gt;130006</title>
<path fill="none" stroke="black" d="M484.8,-189.72C484.8,-180.1 484.8,-169.21 484.8,-159.14"/>
<polygon fill="black" stroke="black" points="486.55,-159.18 484.8,-154.18 483.05,-159.18 486.55,-159.18"/>
</g>
<!-- 130008 -->
<g id="node39" class="node">
<title>130008</title>
<g id="a_node39"><a xlink:href="HZ\0023.jpg" xlink:title="0|0" target="dynamic">
<polygon fill="none" stroke="black" stroke-width="0.3" points="532,-95.1 532,-152.7 589.6,-152.7 589.6,-95.1 532,-95.1"/>
<text text-anchor="middle" x="561" y="-138" font-family="宋体" font-size="16.00">130008</text>
<polyline fill="none" stroke="black" stroke-width="0.3" points="532,-133.45 590,-133.45"/>
<text text-anchor="middle" x="561" y="-118.75" font-family="宋体" font-size="16.00">瓊10</text>
<polyline fill="none" stroke="black" stroke-width="0.3" points="532,-114.2 590,-114.2"/>
<text text-anchor="middle" x="561" y="-99.5" font-family="宋体" font-size="16.00">0</text>
</a>
</g>
</g>
<!-- 120004&#45;&gt;130008 -->
<g id="edge38" class="edge">
<title>120004&#45;&gt;130008</title>
<path fill="none" stroke="black" d="M507.6,-189.72C515.94,-179.55 525.46,-167.96 534.11,-157.42"/>
<polygon fill="black" stroke="black" points="535.23,-158.81 537.05,-153.83 532.53,-156.59 535.23,-158.81"/>
</g>
<!-- 140001 -->
<g id="node40" class="node">
<title>140001</title>
<g id="a_node40"><a xlink:href="HZ\0028.jpg" xlink:title="0|0" target="dynamic">
<polygon fill="none" stroke="black" stroke-width="0.3" points="342,-0.5 342,-58.1 399.6,-58.1 399.6,-0.5 342,-0.5"/>
<text text-anchor="middle" x="371" y="-42.9" font-family="宋体" font-size="16.00">140001</text>
<polyline fill="none" stroke="black" stroke-width="0.3" points="342,-37.85 400,-37.85"/>
<text text-anchor="middle" x="371" y="-22.65" font-family="宋体" font-size="16.00">壬1</text>
<polyline fill="none" stroke="black" stroke-width="0.3" points="342,-17.6 400,-17.6"/>
<text text-anchor="middle" x="371" y="-2.4" font-family="宋体" font-size="16.00">壬</text>
</a>
</g>
</g>
<!-- 130007&#45;&gt;140001 -->
<g id="edge39" class="edge">
<title>130007&#45;&gt;140001</title>
<path fill="none" stroke="black" d="M397.4,-95.12C393.38,-85.32 388.81,-74.2 384.62,-63.97"/>
<polygon fill="black" stroke="black" points="386.29,-63.42 382.77,-59.46 383.05,-64.75 386.29,-63.42"/>
</g>
<!-- 140002 -->
<g id="node41" class="node">
<title>140002</title>
<g id="a_node41"><a xlink:href="HZ\0028.jpg" xlink:title="0|0" target="dynamic">
<polygon fill="none" stroke="black" stroke-width="0.3" points="418,-0.5 418,-58.1 475.6,-58.1 475.6,-0.5 418,-0.5"/>
<text text-anchor="middle" x="447" y="-42.9" font-family="宋体" font-size="16.00">140002</text>
<polyline fill="none" stroke="black" stroke-width="0.3" points="418,-37.85 476,-37.85"/>
<text text-anchor="middle" x="447" y="-22.65" font-family="宋体" font-size="16.00">壬2</text>
<polyline fill="none" stroke="black" stroke-width="0.3" points="418,-17.6 476,-17.6"/>
<text text-anchor="middle" x="447" y="-2.4" font-family="宋体" font-size="16.00">牙</text>
</a>
</g>
</g>
<!-- 130007&#45;&gt;140002 -->
<g id="edge40" class="edge">
<title>130007&#45;&gt;140002</title>
<path fill="none" stroke="black" d="M420.2,-95.12C424.22,-85.32 428.79,-74.2 432.98,-63.97"/>
<polygon fill="black" stroke="black" points="434.55,-64.75 434.83,-59.46 431.31,-63.42 434.55,-64.75"/>
</g>
<!-- 60013&#45;1 -->
<g id="node43" class="node">
<title>60013&#45;1</title>
<polygon fill="grey" stroke="black" stroke-width="0.3" points="665,-662.7 665,-720.3 722.6,-720.3 722.6,-662.7 665,-662.7"/>
<text text-anchor="middle" x="694" y="-704.6" font-family="宋体" font-size="16.00">出继</text>
<polyline fill="none" stroke="black" stroke-width="0.3" points="665,-702.05 723,-702.05"/>
<text text-anchor="middle" x="694" y="-686.35" font-family="宋体" font-size="16.00">车方祖宅</text>
<polyline fill="none" stroke="black" stroke-width="0.3" points="665,-683.8 723,-683.8"/>
<text text-anchor="middle" x="694" y="-668.1" font-family="宋体" font-size="16.00">50012</text>
</g>
<!-- 60013&#45;&gt;60013&#45;1 -->
<g id="edge42" class="edge">
<title>60013&#45;&gt;60013&#45;1</title>
<path fill="none" stroke="black" d="M667.2,-757.32C671.22,-747.52 675.79,-736.4 679.98,-726.17"/>
<polygon fill="black" stroke="black" points="681.55,-726.95 681.83,-721.66 678.31,-725.62 681.55,-726.95"/>
</g>
</g>
</svg>
