<?xml version="1.0" encoding="UTF-8" standalone="no"?>
<!DOCTYPE svg PUBLIC "-//W3C//DTD SVG 1.1//EN"
 "http://www.w3.org/Graphics/SVG/1.1/DTD/svg11.dtd">
<!-- Generated by graphviz version 12.2.1 (20241206.2353)
 -->
<!-- Title: main Pages: 1 -->
<svg width="370pt" height="918pt"
 viewBox="0.00 0.00 369.60 918.00" xmlns="http://www.w3.org/2000/svg" xmlns:xlink="http://www.w3.org/1999/xlink">
<g id="graph0" class="graph" transform="scale(1 1) rotate(0) translate(4 914)">
<title>main</title>
<!-- 50015 -->
<g id="node1" class="node">
<title>50015</title>
<g id="a_node1"><a xlink:href="HZ\0005.jpg" xlink:title="0|車方&#45;&#45;&gt;青龍頭" target="dynamic">
<polygon fill="green" stroke="black" stroke-width="0.3" points="161,-851.9 161,-909.5 218.6,-909.5 218.6,-851.9 161,-851.9"/>
<text text-anchor="middle" x="190" y="-894.3" font-family="GenWanMin TW TTF Medium" font-size="16.00">50015</text>
<polyline fill="none" stroke="black" stroke-width="0.3" points="161,-889.25 219,-889.25"/>
<text text-anchor="middle" x="190" y="-874.05" font-family="GenWanMin TW TTF Medium" font-size="16.00">五29</text>
<polyline fill="none" stroke="black" stroke-width="0.3" points="161,-869 219,-869"/>
<text text-anchor="middle" x="190" y="-853.8" font-family="GenWanMin TW TTF Medium" font-size="16.00">汝才</text>
</a>
</g>
</g>
<!-- 60015 -->
<g id="node2" class="node">
<title>60015</title>
<g id="a_node2"><a xlink:href="HZ\0006.jpg" xlink:title="0|0" target="dynamic">
<polygon fill="none" stroke="black" stroke-width="0.3" points="161,-757.3 161,-814.9 218.6,-814.9 218.6,-757.3 161,-757.3"/>
<text text-anchor="middle" x="189.88" y="-799.7" font-family="GenWanMin TW TTF Medium" font-size="16.00">60015</text>
<polyline fill="none" stroke="black" stroke-width="0.3" points="161,-794.65 218.75,-794.65"/>
<text text-anchor="middle" x="189.88" y="-779.45" font-family="GenWanMin TW TTF Medium" font-size="16.00">六15_2</text>
<polyline fill="none" stroke="black" stroke-width="0.3" points="161,-774.4 218.75,-774.4"/>
<text text-anchor="middle" x="189.88" y="-759.2" font-family="GenWanMin TW TTF Medium" font-size="16.00">執法</text>
</a>
</g>
</g>
<!-- 50015&#45;&gt;60015 -->
<g id="edge1" class="edge">
<title>50015&#45;&gt;60015</title>
<path fill="none" stroke="black" d="M189.8,-851.92C189.8,-842.3 189.8,-831.41 189.8,-821.34"/>
<polygon fill="black" stroke="black" points="191.55,-821.38 189.8,-816.38 188.05,-821.38 191.55,-821.38"/>
</g>
<!-- 70031 -->
<g id="node3" class="node">
<title>70031</title>
<g id="a_node3"><a xlink:href="HZ\0009.jpg" xlink:title="0|0" target="dynamic">
<polygon fill="none" stroke="black" stroke-width="0.3" points="85,-662.7 85,-720.3 142.6,-720.3 142.6,-662.7 85,-662.7"/>
<text text-anchor="middle" x="114" y="-705.1" font-family="GenWanMin TW TTF Medium" font-size="16.00">70031</text>
<polyline fill="none" stroke="black" stroke-width="0.3" points="85,-700.05 143,-700.05"/>
<text text-anchor="middle" x="114" y="-684.85" font-family="GenWanMin TW TTF Medium" font-size="16.00">千26</text>
<polyline fill="none" stroke="black" stroke-width="0.3" points="85,-679.8 143,-679.8"/>
<text text-anchor="middle" x="114" y="-664.6" font-family="GenWanMin TW TTF Medium" font-size="16.00">宗</text>
</a>
</g>
</g>
<!-- 60015&#45;&gt;70031 -->
<g id="edge2" class="edge">
<title>60015&#45;&gt;70031</title>
<path fill="none" stroke="black" d="M167,-757.32C158.66,-747.15 149.14,-735.56 140.49,-725.02"/>
<polygon fill="black" stroke="black" points="142.07,-724.19 137.55,-721.43 139.37,-726.41 142.07,-724.19"/>
</g>
<!-- 70032 -->
<g id="node4" class="node">
<title>70032</title>
<g id="a_node4"><a xlink:href="HZ\0009.jpg" xlink:title="0|0" target="dynamic">
<polygon fill="none" stroke="black" stroke-width="0.3" points="161,-662.7 161,-720.3 218.6,-720.3 218.6,-662.7 161,-662.7"/>
<text text-anchor="middle" x="190" y="-705.1" font-family="GenWanMin TW TTF Medium" font-size="16.00">70032</text>
<polyline fill="none" stroke="black" stroke-width="0.3" points="161,-700.05 219,-700.05"/>
<text text-anchor="middle" x="190" y="-684.85" font-family="GenWanMin TW TTF Medium" font-size="16.00">千27</text>
<polyline fill="none" stroke="black" stroke-width="0.3" points="161,-679.8 219,-679.8"/>
<text text-anchor="middle" x="190" y="-664.6" font-family="GenWanMin TW TTF Medium" font-size="16.00">盛</text>
</a>
</g>
</g>
<!-- 60015&#45;&gt;70032 -->
<g id="edge3" class="edge">
<title>60015&#45;&gt;70032</title>
<path fill="none" stroke="black" d="M189.8,-757.32C189.8,-747.7 189.8,-736.81 189.8,-726.74"/>
<polygon fill="black" stroke="black" points="191.55,-726.78 189.8,-721.78 188.05,-726.78 191.55,-726.78"/>
</g>
<!-- 70033 -->
<g id="node5" class="node">
<title>70033</title>
<g id="a_node5"><a xlink:href="HZ\0009.jpg" xlink:title="0|0" target="dynamic">
<polygon fill="none" stroke="black" stroke-width="0.3" points="256,-662.7 256,-720.3 313.6,-720.3 313.6,-662.7 256,-662.7"/>
<text text-anchor="middle" x="285" y="-705.1" font-family="GenWanMin TW TTF Medium" font-size="16.00">70033</text>
<polyline fill="none" stroke="black" stroke-width="0.3" points="256,-700.05 314,-700.05"/>
<text text-anchor="middle" x="285" y="-684.85" font-family="GenWanMin TW TTF Medium" font-size="16.00">千28</text>
<polyline fill="none" stroke="black" stroke-width="0.3" points="256,-679.8 314,-679.8"/>
<text text-anchor="middle" x="285" y="-664.6" font-family="GenWanMin TW TTF Medium" font-size="16.00">閏</text>
</a>
</g>
</g>
<!-- 60015&#45;&gt;70033 -->
<g id="edge4" class="edge">
<title>60015&#45;&gt;70033</title>
<path fill="none" stroke="black" d="M218.3,-757.32C228.82,-747.06 240.83,-735.36 251.73,-724.74"/>
<polygon fill="black" stroke="black" points="252.87,-726.06 255.23,-721.32 250.43,-723.56 252.87,-726.06"/>
</g>
<!-- 80030 -->
<g id="node6" class="node">
<title>80030</title>
<g id="a_node6"><a xlink:href="HZ\0011.jpg" xlink:title="0|0" target="dynamic">
<polygon fill="none" stroke="black" stroke-width="0.3" points="76,-568.1 76,-625.7 133.6,-625.7 133.6,-568.1 76,-568.1"/>
<text text-anchor="middle" x="105" y="-610.5" font-family="GenWanMin TW TTF Medium" font-size="16.00">80030</text>
<polyline fill="none" stroke="black" stroke-width="0.3" points="76,-605.45 134,-605.45"/>
<text text-anchor="middle" x="105" y="-590.25" font-family="GenWanMin TW TTF Medium" font-size="16.00">文6</text>
<polyline fill="none" stroke="black" stroke-width="0.3" points="76,-585.2 134,-585.2"/>
<text text-anchor="middle" x="105" y="-570" font-family="GenWanMin TW TTF Medium" font-size="16.00">肱</text>
</a>
</g>
</g>
<!-- 70031&#45;&gt;80030 -->
<g id="edge5" class="edge">
<title>70031&#45;&gt;80030</title>
<path fill="none" stroke="black" d="M111.1,-662.72C110.17,-653.1 109.11,-642.21 108.13,-632.14"/>
<polygon fill="black" stroke="black" points="109.87,-631.98 107.64,-627.17 106.39,-632.32 109.87,-631.98"/>
</g>
<!-- 80032 -->
<g id="node7" class="node">
<title>80032</title>
<g id="a_node7"><a xlink:href="HZ\0011.jpg" xlink:title="0|0" target="dynamic">
<polygon fill="none" stroke="black" stroke-width="0.3" points="161,-568.1 161,-625.7 218.6,-625.7 218.6,-568.1 161,-568.1"/>
<text text-anchor="middle" x="190" y="-611" font-family="GenWanMin TW TTF Medium" font-size="16.00">80032</text>
<polyline fill="none" stroke="black" stroke-width="0.3" points="161,-606.45 219,-606.45"/>
<text text-anchor="middle" x="190" y="-591.75" font-family="GenWanMin TW TTF Medium" font-size="16.00">文8</text>
<polyline fill="none" stroke="black" stroke-width="0.3" points="161,-587.2 219,-587.2"/>
<text text-anchor="middle" x="190" y="-572.5" font-family="GenWanMin TW TTF Medium" font-size="16.00">月+㫖</text>
</a>
</g>
</g>
<!-- 70032&#45;&gt;80032 -->
<g id="edge6" class="edge">
<title>70032&#45;&gt;80032</title>
<path fill="none" stroke="black" d="M189.8,-662.72C189.8,-653.1 189.8,-642.21 189.8,-632.14"/>
<polygon fill="black" stroke="black" points="191.55,-632.18 189.8,-627.18 188.05,-632.18 191.55,-632.18"/>
</g>
<!-- 80034 -->
<g id="node8" class="node">
<title>80034</title>
<g id="a_node8"><a xlink:href="HZ\0011.jpg" xlink:title="0|0" target="dynamic">
<polygon fill="none" stroke="black" stroke-width="0.3" points="294,-568.1 294,-625.7 351.6,-625.7 351.6,-568.1 294,-568.1"/>
<text text-anchor="middle" x="323" y="-610.5" font-family="GenWanMin TW TTF Medium" font-size="16.00">80034</text>
<polyline fill="none" stroke="black" stroke-width="0.3" points="294,-605.45 352,-605.45"/>
<text text-anchor="middle" x="323" y="-590.25" font-family="GenWanMin TW TTF Medium" font-size="16.00">文10</text>
<polyline fill="none" stroke="black" stroke-width="0.3" points="294,-585.2 352,-585.2"/>
<text text-anchor="middle" x="323" y="-570" font-family="GenWanMin TW TTF Medium" font-size="16.00">朋</text>
</a>
</g>
</g>
<!-- 70033&#45;&gt;80034 -->
<g id="edge7" class="edge">
<title>70033&#45;&gt;80034</title>
<path fill="none" stroke="black" d="M296.2,-662.72C300.22,-652.92 304.79,-641.8 308.98,-631.57"/>
<polygon fill="black" stroke="black" points="310.55,-632.35 310.83,-627.06 307.31,-631.02 310.55,-632.35"/>
</g>
<!-- 90042 -->
<g id="node12" class="node">
<title>90042</title>
<g id="a_node12"><a xlink:href="HZ\0014.jpg" xlink:title="0|0" target="dynamic">
<polygon fill="none" stroke="black" stroke-width="0.3" points="0,-473.5 0,-531.1 57.6,-531.1 57.6,-473.5 0,-473.5"/>
<text text-anchor="middle" x="28.88" y="-516.4" font-family="GenWanMin TW TTF Medium" font-size="16.00">90042</text>
<polyline fill="none" stroke="black" stroke-width="0.3" points="0,-511.85 57.75,-511.85"/>
<text text-anchor="middle" x="28.88" y="-497.15" font-family="GenWanMin TW TTF Medium" font-size="16.00">崇10_1</text>
<polyline fill="none" stroke="black" stroke-width="0.3" points="0,-492.6 57.75,-492.6"/>
<text text-anchor="middle" x="28.88" y="-477.9" font-family="GenWanMin TW TTF Medium" font-size="16.00">0</text>
</a>
</g>
</g>
<!-- 80030&#45;&gt;90042 -->
<g id="edge11" class="edge">
<title>80030&#45;&gt;90042</title>
<path fill="none" stroke="black" d="M82,-568.12C73.66,-557.95 64.14,-546.36 55.49,-535.82"/>
<polygon fill="black" stroke="black" points="57.07,-534.99 52.55,-532.23 54.37,-537.21 57.07,-534.99"/>
</g>
<!-- 90043 -->
<g id="node13" class="node">
<title>90043</title>
<g id="a_node13"><a xlink:href="HZ\0014.jpg" xlink:title="0|0" target="dynamic">
<polygon fill="none" stroke="black" stroke-width="0.3" points="76,-473.5 76,-531.1 133.6,-531.1 133.6,-473.5 76,-473.5"/>
<text text-anchor="middle" x="105" y="-515.9" font-family="GenWanMin TW TTF Medium" font-size="16.00">90043</text>
<polyline fill="none" stroke="black" stroke-width="0.3" points="76,-510.85 134,-510.85"/>
<text text-anchor="middle" x="105" y="-495.65" font-family="GenWanMin TW TTF Medium" font-size="16.00">崇18</text>
<polyline fill="none" stroke="black" stroke-width="0.3" points="76,-490.6 134,-490.6"/>
<text text-anchor="middle" x="105" y="-475.4" font-family="GenWanMin TW TTF Medium" font-size="16.00">書</text>
</a>
</g>
</g>
<!-- 80030&#45;&gt;90043 -->
<g id="edge12" class="edge">
<title>80030&#45;&gt;90043</title>
<path fill="none" stroke="black" d="M104.8,-568.12C104.8,-558.5 104.8,-547.61 104.8,-537.54"/>
<polygon fill="black" stroke="black" points="106.55,-537.58 104.8,-532.58 103.05,-537.58 106.55,-537.58"/>
</g>
<!-- 90040 -->
<g id="node10" class="node">
<title>90040</title>
<g id="a_node10"><a xlink:href="HZ\0014.jpg" xlink:title="0|0" target="dynamic">
<polygon fill="none" stroke="black" stroke-width="0.3" points="152,-473.5 152,-531.1 209.6,-531.1 209.6,-473.5 152,-473.5"/>
<text text-anchor="middle" x="181" y="-516.4" font-family="GenWanMin TW TTF Medium" font-size="16.00">90040</text>
<polyline fill="none" stroke="black" stroke-width="0.3" points="152,-511.85 210,-511.85"/>
<text text-anchor="middle" x="181" y="-497.15" font-family="GenWanMin TW TTF Medium" font-size="16.00">崇9</text>
<polyline fill="none" stroke="black" stroke-width="0.3" points="152,-492.6 210,-492.6"/>
<text text-anchor="middle" x="181" y="-477.9" font-family="GenWanMin TW TTF Medium" font-size="16.00">0</text>
</a>
</g>
</g>
<!-- 80032&#45;&gt;90040 -->
<g id="edge9" class="edge">
<title>80032&#45;&gt;90040</title>
<path fill="none" stroke="black" d="M187.1,-568.12C186.17,-558.5 185.11,-547.61 184.13,-537.54"/>
<polygon fill="black" stroke="black" points="185.87,-537.38 183.64,-532.57 182.39,-537.72 185.87,-537.38"/>
</g>
<!-- 90041 -->
<g id="node11" class="node">
<title>90041</title>
<g id="a_node11"><a xlink:href="HZ\0014.jpg" xlink:title="0|0" target="dynamic">
<polygon fill="none" stroke="black" stroke-width="0.3" points="228,-473.5 228,-531.1 285.6,-531.1 285.6,-473.5 228,-473.5"/>
<text text-anchor="middle" x="257" y="-516.4" font-family="GenWanMin TW TTF Medium" font-size="16.00">90041</text>
<polyline fill="none" stroke="black" stroke-width="0.3" points="228,-511.85 286,-511.85"/>
<text text-anchor="middle" x="257" y="-497.15" font-family="GenWanMin TW TTF Medium" font-size="16.00">崇10</text>
<polyline fill="none" stroke="black" stroke-width="0.3" points="228,-492.6 286,-492.6"/>
<text text-anchor="middle" x="257" y="-477.9" font-family="GenWanMin TW TTF Medium" font-size="16.00">0</text>
</a>
</g>
</g>
<!-- 80032&#45;&gt;90041 -->
<g id="edge10" class="edge">
<title>80032&#45;&gt;90041</title>
<path fill="none" stroke="black" d="M209.9,-568.12C217.19,-558.04 225.49,-546.57 233.06,-536.11"/>
<polygon fill="black" stroke="black" points="234.31,-537.37 235.82,-532.29 231.48,-535.31 234.31,-537.37"/>
</g>
<!-- 90039 -->
<g id="node9" class="node">
<title>90039</title>
<g id="a_node9"><a xlink:href="HZ\0013.jpg" xlink:title="0|0" target="dynamic">
<polygon fill="none" stroke="black" stroke-width="0.3" points="304,-473.5 304,-531.1 361.6,-531.1 361.6,-473.5 304,-473.5"/>
<text text-anchor="middle" x="333" y="-516.4" font-family="GenWanMin TW TTF Medium" font-size="16.00">90039</text>
<polyline fill="none" stroke="black" stroke-width="0.3" points="304,-511.85 362,-511.85"/>
<text text-anchor="middle" x="333" y="-497.15" font-family="GenWanMin TW TTF Medium" font-size="16.00">崇7</text>
<polyline fill="none" stroke="black" stroke-width="0.3" points="304,-492.6 362,-492.6"/>
<text text-anchor="middle" x="333" y="-477.9" font-family="GenWanMin TW TTF Medium" font-size="16.00">0</text>
</a>
</g>
</g>
<!-- 80034&#45;&gt;90039 -->
<g id="edge8" class="edge">
<title>80034&#45;&gt;90039</title>
<path fill="none" stroke="black" d="M325.8,-568.12C326.85,-558.41 328.04,-547.41 329.13,-537.25"/>
<polygon fill="black" stroke="black" points="330.84,-537.73 329.64,-532.57 327.36,-537.35 330.84,-537.73"/>
</g>
<!-- 100028 -->
<g id="node14" class="node">
<title>100028</title>
<g id="a_node14"><a xlink:href="HZ\0015.jpg" xlink:title="0|0" target="dynamic">
<polygon fill="none" stroke="black" stroke-width="0.3" points="38,-378.9 38,-436.5 95.6,-436.5 95.6,-378.9 38,-378.9"/>
<text text-anchor="middle" x="67" y="-421.3" font-family="GenWanMin TW TTF Medium" font-size="16.00">100028</text>
<polyline fill="none" stroke="black" stroke-width="0.3" points="38,-416.25 96,-416.25"/>
<text text-anchor="middle" x="67" y="-401.05" font-family="GenWanMin TW TTF Medium" font-size="16.00">福17</text>
<polyline fill="none" stroke="black" stroke-width="0.3" points="38,-396 96,-396"/>
<text text-anchor="middle" x="67" y="-380.8" font-family="GenWanMin TW TTF Medium" font-size="16.00">彰</text>
</a>
</g>
</g>
<!-- 90043&#45;&gt;100028 -->
<g id="edge13" class="edge">
<title>90043&#45;&gt;100028</title>
<path fill="none" stroke="black" d="M93.4,-473.52C89.38,-463.72 84.81,-452.6 80.62,-442.37"/>
<polygon fill="black" stroke="black" points="82.29,-441.82 78.77,-437.86 79.05,-443.15 82.29,-441.82"/>
</g>
<!-- 100030 -->
<g id="node15" class="node">
<title>100030</title>
<g id="a_node15"><a xlink:href="HZ\0015.jpg" xlink:title="0|0" target="dynamic">
<polygon fill="none" stroke="black" stroke-width="0.3" points="114,-378.9 114,-436.5 171.6,-436.5 171.6,-378.9 114,-378.9"/>
<text text-anchor="middle" x="143" y="-421.8" font-family="GenWanMin TW TTF Medium" font-size="16.00">100030</text>
<polyline fill="none" stroke="black" stroke-width="0.3" points="114,-417.25 172,-417.25"/>
<text text-anchor="middle" x="143" y="-402.55" font-family="GenWanMin TW TTF Medium" font-size="16.00">福20</text>
<polyline fill="none" stroke="black" stroke-width="0.3" points="114,-398 172,-398"/>
<text text-anchor="middle" x="143" y="-383.3" font-family="GenWanMin TW TTF Medium" font-size="16.00">0</text>
</a>
</g>
</g>
<!-- 90043&#45;&gt;100030 -->
<g id="edge14" class="edge">
<title>90043&#45;&gt;100030</title>
<path fill="none" stroke="black" d="M116.2,-473.52C120.22,-463.72 124.79,-452.6 128.98,-442.37"/>
<polygon fill="black" stroke="black" points="130.55,-443.15 130.83,-437.86 127.31,-441.82 130.55,-443.15"/>
</g>
<!-- 110039 -->
<g id="node16" class="node">
<title>110039</title>
<g id="a_node16"><a xlink:href="HZ\0018.jpg" xlink:title="0|0" target="dynamic">
<polygon fill="none" stroke="black" stroke-width="0.3" points="38,-284.3 38,-341.9 95.6,-341.9 95.6,-284.3 38,-284.3"/>
<text text-anchor="middle" x="67" y="-326.7" font-family="GenWanMin TW TTF Medium" font-size="16.00">110039</text>
<polyline fill="none" stroke="black" stroke-width="0.3" points="38,-321.65 96,-321.65"/>
<text text-anchor="middle" x="67" y="-306.45" font-family="GenWanMin TW TTF Medium" font-size="16.00">惠1</text>
<polyline fill="none" stroke="black" stroke-width="0.3" points="38,-301.4 96,-301.4"/>
<text text-anchor="middle" x="67" y="-286.2" font-family="GenWanMin TW TTF Medium" font-size="16.00">荒</text>
</a>
</g>
</g>
<!-- 100028&#45;&gt;110039 -->
<g id="edge15" class="edge">
<title>100028&#45;&gt;110039</title>
<path fill="none" stroke="black" d="M66.8,-378.92C66.8,-369.3 66.8,-358.41 66.8,-348.34"/>
<polygon fill="black" stroke="black" points="68.55,-348.38 66.8,-343.38 65.05,-348.38 68.55,-348.38"/>
</g>
<!-- 110040 -->
<g id="node17" class="node">
<title>110040</title>
<g id="a_node17"><a xlink:href="HZ\0018.jpg" xlink:title="0|0" target="dynamic">
<polygon fill="none" stroke="black" stroke-width="0.3" points="114,-284.3 114,-341.9 171.6,-341.9 171.6,-284.3 114,-284.3"/>
<text text-anchor="middle" x="143" y="-327.2" font-family="GenWanMin TW TTF Medium" font-size="16.00">110040</text>
<polyline fill="none" stroke="black" stroke-width="0.3" points="114,-322.65 172,-322.65"/>
<text text-anchor="middle" x="143" y="-307.95" font-family="GenWanMin TW TTF Medium" font-size="16.00">惠4</text>
<polyline fill="none" stroke="black" stroke-width="0.3" points="114,-303.4 172,-303.4"/>
<text text-anchor="middle" x="143" y="-288.7" font-family="GenWanMin TW TTF Medium" font-size="16.00">0</text>
</a>
</g>
</g>
<!-- 100030&#45;&gt;110040 -->
<g id="edge16" class="edge">
<title>100030&#45;&gt;110040</title>
<path fill="none" stroke="black" d="M142.8,-378.92C142.8,-369.3 142.8,-358.41 142.8,-348.34"/>
<polygon fill="black" stroke="black" points="144.55,-348.38 142.8,-343.38 141.05,-348.38 144.55,-348.38"/>
</g>
<!-- 110041 -->
<g id="node18" class="node">
<title>110041</title>
<g id="a_node18"><a xlink:href="HZ\0018.jpg" xlink:title="0|0" target="dynamic">
<polygon fill="none" stroke="black" stroke-width="0.3" points="190,-284.3 190,-341.9 247.6,-341.9 247.6,-284.3 190,-284.3"/>
<text text-anchor="middle" x="219" y="-327.2" font-family="GenWanMin TW TTF Medium" font-size="16.00">110041</text>
<polyline fill="none" stroke="black" stroke-width="0.3" points="190,-322.65 248,-322.65"/>
<text text-anchor="middle" x="219" y="-307.95" font-family="GenWanMin TW TTF Medium" font-size="16.00">惠6</text>
<polyline fill="none" stroke="black" stroke-width="0.3" points="190,-303.4 248,-303.4"/>
<text text-anchor="middle" x="219" y="-288.7" font-family="GenWanMin TW TTF Medium" font-size="16.00">0</text>
</a>
</g>
</g>
<!-- 100030&#45;&gt;110041 -->
<g id="edge17" class="edge">
<title>100030&#45;&gt;110041</title>
<path fill="none" stroke="black" d="M165.6,-378.92C173.94,-368.75 183.46,-357.16 192.11,-346.62"/>
<polygon fill="black" stroke="black" points="193.23,-348.01 195.05,-343.03 190.53,-345.79 193.23,-348.01"/>
</g>
<!-- 120059 -->
<g id="node19" class="node">
<title>120059</title>
<g id="a_node19"><a xlink:href="HZ\0022.jpg" xlink:title="0|0" target="dynamic">
<polygon fill="none" stroke="black" stroke-width="0.3" points="0,-189.7 0,-247.3 57.6,-247.3 57.6,-189.7 0,-189.7"/>
<text text-anchor="middle" x="29" y="-232.1" font-family="GenWanMin TW TTF Medium" font-size="16.00">120059</text>
<polyline fill="none" stroke="black" stroke-width="0.3" points="0,-227.05 58,-227.05"/>
<text text-anchor="middle" x="29" y="-211.85" font-family="GenWanMin TW TTF Medium" font-size="16.00">志2</text>
<polyline fill="none" stroke="black" stroke-width="0.3" points="0,-206.8 58,-206.8"/>
<text text-anchor="middle" x="29" y="-191.6" font-family="GenWanMin TW TTF Medium" font-size="16.00">富</text>
</a>
</g>
</g>
<!-- 110039&#45;&gt;120059 -->
<g id="edge18" class="edge">
<title>110039&#45;&gt;120059</title>
<path fill="none" stroke="black" d="M55.4,-284.32C51.38,-274.52 46.81,-263.4 42.62,-253.17"/>
<polygon fill="black" stroke="black" points="44.29,-252.62 40.77,-248.66 41.05,-253.95 44.29,-252.62"/>
</g>
<!-- 120060 -->
<g id="node20" class="node">
<title>120060</title>
<g id="a_node20"><a xlink:href="HZ\0022.jpg" xlink:title="刊誤惠3|0" target="dynamic">
<polygon fill="none" stroke="black" stroke-width="0.3" points="76,-189.7 76,-247.3 133.6,-247.3 133.6,-189.7 76,-189.7"/>
<text text-anchor="middle" x="105" y="-232.1" font-family="GenWanMin TW TTF Medium" font-size="16.00">120060</text>
<polyline fill="none" stroke="black" stroke-width="0.3" points="76,-227.05 134,-227.05"/>
<text text-anchor="middle" x="105" y="-211.85" font-family="GenWanMin TW TTF Medium" font-size="16.00">志3</text>
<polyline fill="none" stroke="black" stroke-width="0.3" points="76,-206.8 134,-206.8"/>
<text text-anchor="middle" x="105" y="-191.6" font-family="GenWanMin TW TTF Medium" font-size="16.00">貴</text>
</a>
</g>
</g>
<!-- 110039&#45;&gt;120060 -->
<g id="edge19" class="edge">
<title>110039&#45;&gt;120060</title>
<path fill="none" stroke="black" d="M78.2,-284.32C82.22,-274.52 86.79,-263.4 90.98,-253.17"/>
<polygon fill="black" stroke="black" points="92.55,-253.95 92.83,-248.66 89.31,-252.62 92.55,-253.95"/>
</g>
<!-- 130076 -->
<g id="node21" class="node">
<title>130076</title>
<g id="a_node21"><a xlink:href="HZ\0028.jpg" xlink:title="0|0" target="dynamic">
<polygon fill="none" stroke="black" stroke-width="0.3" points="0,-95.1 0,-152.7 57.6,-152.7 57.6,-95.1 0,-95.1"/>
<text text-anchor="middle" x="29" y="-137.5" font-family="GenWanMin TW TTF Medium" font-size="16.00">130076</text>
<polyline fill="none" stroke="black" stroke-width="0.3" points="0,-132.45 58,-132.45"/>
<text text-anchor="middle" x="29" y="-117.25" font-family="GenWanMin TW TTF Medium" font-size="16.00">季1</text>
<polyline fill="none" stroke="black" stroke-width="0.3" points="0,-112.2 58,-112.2"/>
<text text-anchor="middle" x="29" y="-97" font-family="GenWanMin TW TTF Medium" font-size="16.00">孟宗</text>
</a>
</g>
</g>
<!-- 120060&#45;&gt;130076 -->
<g id="edge20" class="edge">
<title>120060&#45;&gt;130076</title>
<path fill="none" stroke="black" d="M82,-189.72C73.66,-179.55 64.14,-167.96 55.49,-157.42"/>
<polygon fill="black" stroke="black" points="57.07,-156.59 52.55,-153.83 54.37,-158.81 57.07,-156.59"/>
</g>
<!-- 130077 -->
<g id="node22" class="node">
<title>130077</title>
<g id="a_node22"><a xlink:href="HZ\0028.jpg" xlink:title="0|0" target="dynamic">
<polygon fill="none" stroke="black" stroke-width="0.3" points="76,-95.1 76,-152.7 133.6,-152.7 133.6,-95.1 76,-95.1"/>
<text text-anchor="middle" x="105" y="-138" font-family="GenWanMin TW TTF Medium" font-size="16.00">130077</text>
<polyline fill="none" stroke="black" stroke-width="0.3" points="76,-133.45 134,-133.45"/>
<text text-anchor="middle" x="105" y="-118.75" font-family="GenWanMin TW TTF Medium" font-size="16.00">季2</text>
<polyline fill="none" stroke="black" stroke-width="0.3" points="76,-114.2 134,-114.2"/>
<text text-anchor="middle" x="105" y="-99.5" font-family="GenWanMin TW TTF Medium" font-size="16.00">0</text>
</a>
</g>
</g>
<!-- 120060&#45;&gt;130077 -->
<g id="edge21" class="edge">
<title>120060&#45;&gt;130077</title>
<path fill="none" stroke="black" d="M104.8,-189.72C104.8,-180.1 104.8,-169.21 104.8,-159.14"/>
<polygon fill="black" stroke="black" points="106.55,-159.18 104.8,-154.18 103.05,-159.18 106.55,-159.18"/>
</g>
<!-- 130078 -->
<g id="node23" class="node">
<title>130078</title>
<g id="a_node23"><a xlink:href="HZ\0028.jpg" xlink:title="0|0" target="dynamic">
<polygon fill="none" stroke="black" stroke-width="0.3" points="152,-95.1 152,-152.7 209.6,-152.7 209.6,-95.1 152,-95.1"/>
<text text-anchor="middle" x="181" y="-138" font-family="GenWanMin TW TTF Medium" font-size="16.00">130078</text>
<polyline fill="none" stroke="black" stroke-width="0.3" points="152,-133.45 210,-133.45"/>
<text text-anchor="middle" x="181" y="-118.75" font-family="GenWanMin TW TTF Medium" font-size="16.00">季3</text>
<polyline fill="none" stroke="black" stroke-width="0.3" points="152,-114.2 210,-114.2"/>
<text text-anchor="middle" x="181" y="-99.5" font-family="GenWanMin TW TTF Medium" font-size="16.00">0</text>
</a>
</g>
</g>
<!-- 120060&#45;&gt;130078 -->
<g id="edge22" class="edge">
<title>120060&#45;&gt;130078</title>
<path fill="none" stroke="black" d="M127.6,-189.72C135.94,-179.55 145.46,-167.96 154.11,-157.42"/>
<polygon fill="black" stroke="black" points="155.23,-158.81 157.05,-153.83 152.53,-156.59 155.23,-158.81"/>
</g>
<!-- 140071 -->
<g id="node24" class="node">
<title>140071</title>
<g id="a_node24"><a xlink:href="HZ\0034.jpg" xlink:title="0|0" target="dynamic">
<polygon fill="none" stroke="black" stroke-width="0.3" points="0,-0.5 0,-58.1 57.6,-58.1 57.6,-0.5 0,-0.5"/>
<text text-anchor="middle" x="29" y="-43.4" font-family="GenWanMin TW TTF Medium" font-size="16.00">140071</text>
<polyline fill="none" stroke="black" stroke-width="0.3" points="0,-38.85 58,-38.85"/>
<text text-anchor="middle" x="29" y="-24.15" font-family="GenWanMin TW TTF Medium" font-size="16.00">義1</text>
<polyline fill="none" stroke="black" stroke-width="0.3" points="0,-19.6 58,-19.6"/>
<text text-anchor="middle" x="29" y="-4.9" font-family="GenWanMin TW TTF Medium" font-size="16.00">0</text>
</a>
</g>
</g>
<!-- 130076&#45;&gt;140071 -->
<g id="edge23" class="edge">
<title>130076&#45;&gt;140071</title>
<path fill="none" stroke="black" d="M28.8,-95.12C28.8,-85.5 28.8,-74.61 28.8,-64.54"/>
<polygon fill="black" stroke="black" points="30.55,-64.58 28.8,-59.58 27.05,-64.58 30.55,-64.58"/>
</g>
</g>
</svg>
