<?xml version="1.0" encoding="UTF-8" standalone="no"?>
<!DOCTYPE svg PUBLIC "-//W3C//DTD SVG 1.1//EN"
 "http://www.w3.org/Graphics/SVG/1.1/DTD/svg11.dtd">
<!-- Generated by graphviz version 12.2.1 (20241206.2353)
 -->
<!-- Pages: 1 -->
<svg width="342pt" height="752pt"
 viewBox="0.00 0.00 342.00 752.00" xmlns="http://www.w3.org/2000/svg" xmlns:xlink="http://www.w3.org/1999/xlink">
<g id="graph0" class="graph" transform="scale(1 1) rotate(0) translate(4 748)">
<polygon fill="white" stroke="none" points="-4,4 -4,-748 338,-748 338,4 -4,4"/>
<!-- 120060 -->
<g id="node1" class="node">
<title>120060</title>
<g id="a_node1"><a xlink:href="/docs/biography/行传/12/0060" xlink:title="编号：120060，貴，0。点击查看详情">
<polygon fill="#f0f0f0" stroke="none" points="75,-177 75,-194 125,-194 125,-177 75,-177"/>
<polygon fill="none" stroke="black" points="75,-177 75,-194 125,-194 125,-177 75,-177"/>
<text text-anchor="start" x="89.5" y="-179.7" font-family="SimSun" font-size="14.00">志3</text>
<polygon fill="#ffffff" stroke="none" points="75,-160 75,-177 125,-177 125,-160 75,-160"/>
<polygon fill="none" stroke="black" points="75,-160 75,-177 125,-177 125,-160 75,-160"/>
<text text-anchor="start" x="92.88" y="-162.7" font-family="SimSun" font-size="14.00">貴</text>
</a>
</g>
</g>
<!-- 130076 -->
<g id="node17" class="node">
<title>130076</title>
<g id="a_node17"><a xlink:href="/docs/biography/行传/13/0076" xlink:title="编号：130076，孟宗，0。点击查看详情">
<polygon fill="#f0f0f0" stroke="none" points="8,-99 8,-116 58,-116 58,-99 8,-99"/>
<polygon fill="none" stroke="black" points="8,-99 8,-116 58,-116 58,-99 8,-99"/>
<text text-anchor="start" x="22.5" y="-101.7" font-family="SimSun" font-size="14.00">季1</text>
<polygon fill="#ffffff" stroke="none" points="8,-82 8,-99 58,-99 58,-82 8,-82"/>
<polygon fill="none" stroke="black" points="8,-82 8,-99 58,-99 58,-82 8,-82"/>
<text text-anchor="start" x="18.75" y="-84.7" font-family="SimSun" font-size="14.00">孟宗</text>
</a>
</g>
</g>
<!-- 120060&#45;&gt;130076 -->
<g id="edge1" class="edge">
<title>120060&#45;&gt;130076</title>
<path fill="none" stroke="black" d="M82.4,-156.03C74.93,-147.57 66.1,-137.55 57.98,-128.34"/>
<polygon fill="black" stroke="black" points="60.73,-126.16 51.49,-120.97 55.47,-130.79 60.73,-126.16"/>
</g>
<!-- 130078 -->
<g id="node20" class="node">
<title>130078</title>
<g id="a_node20"><a xlink:href="/docs/biography/行传/13/0078" xlink:title="编号：130078，，0。点击查看详情">
<polygon fill="#f0f0f0" stroke="none" points="142,-99 142,-116 192,-116 192,-99 142,-99"/>
<polygon fill="none" stroke="black" points="142,-99 142,-116 192,-116 192,-99 142,-99"/>
<text text-anchor="start" x="156.5" y="-101.7" font-family="SimSun" font-size="14.00">季3</text>
<polygon fill="#ffffff" stroke="none" points="142,-82 142,-99 192,-99 192,-82 142,-82"/>
<polygon fill="none" stroke="black" points="142,-82 142,-99 192,-99 192,-82 142,-82"/>
<text text-anchor="start" x="163.62" y="-84.7" font-family="SimSun" font-size="14.00"> </text>
</a>
</g>
</g>
<!-- 120060&#45;&gt;130078 -->
<g id="edge3" class="edge">
<title>120060&#45;&gt;130078</title>
<path fill="none" stroke="black" d="M117.6,-156.03C125.07,-147.57 133.9,-137.55 142.02,-128.34"/>
<polygon fill="black" stroke="black" points="144.53,-130.79 148.51,-120.97 139.27,-126.16 144.53,-130.79"/>
</g>
<!-- 130077 -->
<g id="node22" class="node">
<title>130077</title>
<g id="a_node22"><a xlink:href="/docs/biography/行传/13/0077" xlink:title="编号：130077，，0。点击查看详情">
<polygon fill="#f0f0f0" stroke="none" points="75,-99 75,-116 125,-116 125,-99 75,-99"/>
<polygon fill="none" stroke="black" points="75,-99 75,-116 125,-116 125,-99 75,-99"/>
<text text-anchor="start" x="89.5" y="-101.7" font-family="SimSun" font-size="14.00">季2</text>
<polygon fill="#ffffff" stroke="none" points="75,-82 75,-99 125,-99 125,-82 75,-82"/>
<polygon fill="none" stroke="black" points="75,-82 75,-99 125,-99 125,-82 75,-82"/>
<text text-anchor="start" x="96.62" y="-84.7" font-family="SimSun" font-size="14.00"> </text>
</a>
</g>
</g>
<!-- 120060&#45;&gt;130077 -->
<g id="edge2" class="edge">
<title>120060&#45;&gt;130077</title>
<path fill="none" stroke="black" d="M100,-156.03C100,-148.44 100,-139.6 100,-131.21"/>
<polygon fill="black" stroke="black" points="103.5,-131.35 100,-121.35 96.5,-131.35 103.5,-131.35"/>
</g>
<!-- 110040 -->
<g id="node2" class="node">
<title>110040</title>
<g id="a_node2"><a xlink:href="/docs/biography/行传/11/0040" xlink:title="编号：110040，，0。点击查看详情">
<polygon fill="#f0f0f0" stroke="none" points="108,-255 108,-272 158,-272 158,-255 108,-255"/>
<polygon fill="none" stroke="black" points="108,-255 108,-272 158,-272 158,-255 108,-255"/>
<text text-anchor="start" x="122.5" y="-257.7" font-family="SimSun" font-size="14.00">惠4</text>
<polygon fill="#ffffff" stroke="none" points="108,-238 108,-255 158,-255 158,-238 108,-238"/>
<polygon fill="none" stroke="black" points="108,-238 108,-255 158,-255 158,-238 108,-238"/>
<text text-anchor="start" x="129.62" y="-240.7" font-family="SimSun" font-size="14.00"> </text>
</a>
</g>
</g>
<!-- 80030 -->
<g id="node3" class="node">
<title>80030</title>
<g id="a_node3"><a xlink:href="/docs/biography/行传/8/0030" xlink:title="编号：80030，肱，0。点击查看详情">
<polygon fill="#f0f0f0" stroke="none" points="75,-489 75,-506 125,-506 125,-489 75,-489"/>
<polygon fill="none" stroke="black" points="75,-489 75,-506 125,-506 125,-489 75,-489"/>
<text text-anchor="start" x="89.5" y="-491.7" font-family="SimSun" font-size="14.00">文6</text>
<polygon fill="#ffffff" stroke="none" points="75,-472 75,-489 125,-489 125,-472 75,-472"/>
<polygon fill="none" stroke="black" points="75,-472 75,-489 125,-489 125,-472 75,-472"/>
<text text-anchor="start" x="92.88" y="-474.7" font-family="SimSun" font-size="14.00">肱</text>
</a>
</g>
</g>
<!-- 90042 -->
<g id="node8" class="node">
<title>90042</title>
<g id="a_node8"><a xlink:href="/docs/biography/行传/9/0042" xlink:title="编号：90042，，0。点击查看详情">
<polygon fill="#f0f0f0" stroke="none" points="8,-411 8,-428 58,-428 58,-411 8,-411"/>
<polygon fill="none" stroke="black" points="8,-411 8,-428 58,-428 58,-411 8,-411"/>
<text text-anchor="start" x="12.38" y="-413.7" font-family="SimSun" font-size="14.00">崇10_1</text>
<polygon fill="#ffffff" stroke="none" points="8,-394 8,-411 58,-411 58,-394 8,-394"/>
<polygon fill="none" stroke="black" points="8,-394 8,-411 58,-411 58,-394 8,-394"/>
<text text-anchor="start" x="29.62" y="-396.7" font-family="SimSun" font-size="14.00"> </text>
</a>
</g>
</g>
<!-- 80030&#45;&gt;90042 -->
<g id="edge4" class="edge">
<title>80030&#45;&gt;90042</title>
<path fill="none" stroke="black" d="M82.4,-468.03C74.93,-459.57 66.1,-449.55 57.98,-440.34"/>
<polygon fill="black" stroke="black" points="60.73,-438.16 51.49,-432.97 55.47,-442.79 60.73,-438.16"/>
</g>
<!-- 90043 -->
<g id="node21" class="node">
<title>90043</title>
<g id="a_node21"><a xlink:href="/docs/biography/行传/9/0043" xlink:title="编号：90043，書，0。点击查看详情">
<polygon fill="#f0f0f0" stroke="none" points="75,-411 75,-428 125,-428 125,-411 75,-411"/>
<polygon fill="none" stroke="black" points="75,-411 75,-428 125,-428 125,-411 75,-411"/>
<text text-anchor="start" x="86.12" y="-413.7" font-family="SimSun" font-size="14.00">崇18</text>
<polygon fill="#ffffff" stroke="none" points="75,-394 75,-411 125,-411 125,-394 75,-394"/>
<polygon fill="none" stroke="black" points="75,-394 75,-411 125,-411 125,-394 75,-394"/>
<text text-anchor="start" x="92.88" y="-396.7" font-family="SimSun" font-size="14.00">書</text>
</a>
</g>
</g>
<!-- 80030&#45;&gt;90043 -->
<g id="edge5" class="edge">
<title>80030&#45;&gt;90043</title>
<path fill="none" stroke="black" d="M100,-468.03C100,-460.44 100,-451.6 100,-443.21"/>
<polygon fill="black" stroke="black" points="103.5,-443.35 100,-433.35 96.5,-443.35 103.5,-443.35"/>
</g>
<!-- 110039 -->
<g id="node4" class="node">
<title>110039</title>
<g id="a_node4"><a xlink:href="/docs/biography/行传/11/0039" xlink:title="编号：110039，荒，0。点击查看详情">
<polygon fill="#f0f0f0" stroke="none" points="41,-255 41,-272 91,-272 91,-255 41,-255"/>
<polygon fill="none" stroke="black" points="41,-255 41,-272 91,-272 91,-255 41,-255"/>
<text text-anchor="start" x="55.5" y="-257.7" font-family="SimSun" font-size="14.00">惠1</text>
<polygon fill="#ffffff" stroke="none" points="41,-238 41,-255 91,-255 91,-238 41,-238"/>
<polygon fill="none" stroke="black" points="41,-238 41,-255 91,-255 91,-238 41,-238"/>
<text text-anchor="start" x="58.88" y="-240.7" font-family="SimSun" font-size="14.00">荒</text>
</a>
</g>
</g>
<!-- 110039&#45;&gt;120060 -->
<g id="edge7" class="edge">
<title>110039&#45;&gt;120060</title>
<path fill="none" stroke="black" d="M74.93,-234.03C78.45,-226.18 82.56,-216.98 86.43,-208.34"/>
<polygon fill="black" stroke="black" points="89.62,-209.77 90.51,-199.22 83.23,-206.92 89.62,-209.77"/>
</g>
<!-- 120059 -->
<g id="node13" class="node">
<title>120059</title>
<g id="a_node13"><a xlink:href="/docs/biography/行传/12/0059" xlink:title="编号：120059，富，0。点击查看详情">
<polygon fill="#f0f0f0" stroke="none" points="8,-177 8,-194 58,-194 58,-177 8,-177"/>
<polygon fill="none" stroke="black" points="8,-177 8,-194 58,-194 58,-177 8,-177"/>
<text text-anchor="start" x="22.5" y="-179.7" font-family="SimSun" font-size="14.00">志2</text>
<polygon fill="#ffffff" stroke="none" points="8,-160 8,-177 58,-177 58,-160 8,-160"/>
<polygon fill="none" stroke="black" points="8,-160 8,-177 58,-177 58,-160 8,-160"/>
<text text-anchor="start" x="25.88" y="-162.7" font-family="SimSun" font-size="14.00">富</text>
</a>
</g>
</g>
<!-- 110039&#45;&gt;120059 -->
<g id="edge6" class="edge">
<title>110039&#45;&gt;120059</title>
<path fill="none" stroke="black" d="M57.33,-234.03C53.92,-226.18 49.93,-216.98 46.18,-208.34"/>
<polygon fill="black" stroke="black" points="49.41,-207 42.22,-199.22 42.99,-209.79 49.41,-207"/>
</g>
<!-- 110041 -->
<g id="node5" class="node">
<title>110041</title>
<g id="a_node5"><a xlink:href="/docs/biography/行传/11/0041" xlink:title="编号：110041，，0。点击查看详情">
<polygon fill="#f0f0f0" stroke="none" points="175,-255 175,-272 225,-272 225,-255 175,-255"/>
<polygon fill="none" stroke="black" points="175,-255 175,-272 225,-272 225,-255 175,-255"/>
<text text-anchor="start" x="189.5" y="-257.7" font-family="SimSun" font-size="14.00">惠6</text>
<polygon fill="#ffffff" stroke="none" points="175,-238 175,-255 225,-255 225,-238 175,-238"/>
<polygon fill="none" stroke="black" points="175,-238 175,-255 225,-255 225,-238 175,-238"/>
<text text-anchor="start" x="196.62" y="-240.7" font-family="SimSun" font-size="14.00"> </text>
</a>
</g>
</g>
<!-- 70033 -->
<g id="node6" class="node">
<title>70033</title>
<g id="a_node6"><a xlink:href="/docs/biography/行传/7/0033" xlink:title="编号：70033，閏，0。点击查看详情">
<polygon fill="#f0f0f0" stroke="none" points="250,-567 250,-584 300,-584 300,-567 250,-567"/>
<polygon fill="none" stroke="black" points="250,-567 250,-584 300,-584 300,-567 250,-567"/>
<text text-anchor="start" x="261.12" y="-569.7" font-family="SimSun" font-size="14.00">千28</text>
<polygon fill="#ffffff" stroke="none" points="250,-550 250,-567 300,-567 300,-550 250,-550"/>
<polygon fill="none" stroke="black" points="250,-550 250,-567 300,-567 300,-550 250,-550"/>
<text text-anchor="start" x="267.88" y="-552.7" font-family="SimSun" font-size="14.00">閏</text>
</a>
</g>
</g>
<!-- 80034 -->
<g id="node7" class="node">
<title>80034</title>
<g id="a_node7"><a xlink:href="/docs/biography/行传/8/0034" xlink:title="编号：80034，朋，0。点击查看详情">
<polygon fill="#f0f0f0" stroke="none" points="267,-489 267,-506 317,-506 317,-489 267,-489"/>
<polygon fill="none" stroke="black" points="267,-489 267,-506 317,-506 317,-489 267,-489"/>
<text text-anchor="start" x="278.12" y="-491.7" font-family="SimSun" font-size="14.00">文10</text>
<polygon fill="#ffffff" stroke="none" points="267,-472 267,-489 317,-489 317,-472 267,-472"/>
<polygon fill="none" stroke="black" points="267,-472 267,-489 317,-489 317,-472 267,-472"/>
<text text-anchor="start" x="284.88" y="-474.7" font-family="SimSun" font-size="14.00">朋</text>
</a>
</g>
</g>
<!-- 70033&#45;&gt;80034 -->
<g id="edge8" class="edge">
<title>70033&#45;&gt;80034</title>
<path fill="none" stroke="black" d="M279.47,-546.03C281.18,-538.35 283.19,-529.39 285.08,-520.92"/>
<polygon fill="black" stroke="black" points="288.47,-521.83 287.23,-511.31 281.63,-520.31 288.47,-521.83"/>
</g>
<!-- 90039 -->
<g id="node12" class="node">
<title>90039</title>
<g id="a_node12"><a xlink:href="/docs/biography/行传/9/0039" xlink:title="编号：90039，，0。点击查看详情">
<polygon fill="#f0f0f0" stroke="none" points="276,-411 276,-428 326,-428 326,-411 276,-411"/>
<polygon fill="none" stroke="black" points="276,-411 276,-428 326,-428 326,-411 276,-411"/>
<text text-anchor="start" x="290.5" y="-413.7" font-family="SimSun" font-size="14.00">崇7</text>
<polygon fill="#ffffff" stroke="none" points="276,-394 276,-411 326,-411 326,-394 276,-394"/>
<polygon fill="none" stroke="black" points="276,-394 276,-411 326,-411 326,-394 276,-394"/>
<text text-anchor="start" x="297.62" y="-396.7" font-family="SimSun" font-size="14.00"> </text>
</a>
</g>
</g>
<!-- 80034&#45;&gt;90039 -->
<g id="edge9" class="edge">
<title>80034&#45;&gt;90039</title>
<path fill="none" stroke="black" d="M294.36,-468.03C295.26,-460.44 296.31,-451.6 297.3,-443.21"/>
<polygon fill="black" stroke="black" points="300.77,-443.68 298.47,-433.34 293.82,-442.86 300.77,-443.68"/>
</g>
<!-- 70032 -->
<g id="node9" class="node">
<title>70032</title>
<g id="a_node9"><a xlink:href="/docs/biography/行传/7/0032" xlink:title="编号：70032，盛，0。点击查看详情">
<polygon fill="#f0f0f0" stroke="none" points="150,-567 150,-584 200,-584 200,-567 150,-567"/>
<polygon fill="none" stroke="black" points="150,-567 150,-584 200,-584 200,-567 150,-567"/>
<text text-anchor="start" x="161.12" y="-569.7" font-family="SimSun" font-size="14.00">千27</text>
<polygon fill="#ffffff" stroke="none" points="150,-550 150,-567 200,-567 200,-550 150,-550"/>
<polygon fill="none" stroke="black" points="150,-550 150,-567 200,-567 200,-550 150,-550"/>
<text text-anchor="start" x="167.88" y="-552.7" font-family="SimSun" font-size="14.00">盛</text>
</a>
</g>
</g>
<!-- 80032 -->
<g id="node11" class="node">
<title>80032</title>
<g id="a_node11"><a xlink:href="/docs/biography/行传/8/0032" xlink:title="编号：80032，月+㫖，0。点击查看详情">
<polygon fill="#f0f0f0" stroke="none" points="150,-489 150,-506 200,-506 200,-489 150,-489"/>
<polygon fill="none" stroke="black" points="150,-489 150,-506 200,-506 200,-489 150,-489"/>
<text text-anchor="start" x="164.5" y="-491.7" font-family="SimSun" font-size="14.00">文8</text>
<polygon fill="#ffffff" stroke="none" points="150,-472 150,-489 200,-489 200,-472 150,-472"/>
<polygon fill="none" stroke="black" points="150,-472 150,-489 200,-489 200,-472 150,-472"/>
<text text-anchor="start" x="157.38" y="-474.7" font-family="SimSun" font-size="14.00">月+㫖</text>
</a>
</g>
</g>
<!-- 70032&#45;&gt;80032 -->
<g id="edge10" class="edge">
<title>70032&#45;&gt;80032</title>
<path fill="none" stroke="black" d="M175,-546.03C175,-538.44 175,-529.6 175,-521.21"/>
<polygon fill="black" stroke="black" points="178.5,-521.35 175,-511.35 171.5,-521.35 178.5,-521.35"/>
</g>
<!-- 70031 -->
<g id="node10" class="node">
<title>70031</title>
<g id="a_node10"><a xlink:href="/docs/biography/行传/7/0031" xlink:title="编号：70031，宗，0。点击查看详情">
<polygon fill="#f0f0f0" stroke="none" points="75,-567 75,-584 125,-584 125,-567 75,-567"/>
<polygon fill="none" stroke="black" points="75,-567 75,-584 125,-584 125,-567 75,-567"/>
<text text-anchor="start" x="86.12" y="-569.7" font-family="SimSun" font-size="14.00">千26</text>
<polygon fill="#ffffff" stroke="none" points="75,-550 75,-567 125,-567 125,-550 75,-550"/>
<polygon fill="none" stroke="black" points="75,-550 75,-567 125,-567 125,-550 75,-550"/>
<text text-anchor="start" x="92.88" y="-552.7" font-family="SimSun" font-size="14.00">宗</text>
</a>
</g>
</g>
<!-- 70031&#45;&gt;80030 -->
<g id="edge11" class="edge">
<title>70031&#45;&gt;80030</title>
<path fill="none" stroke="black" d="M100,-546.03C100,-538.44 100,-529.6 100,-521.21"/>
<polygon fill="black" stroke="black" points="103.5,-521.35 100,-511.35 96.5,-521.35 103.5,-521.35"/>
</g>
<!-- 90040 -->
<g id="node14" class="node">
<title>90040</title>
<g id="a_node14"><a xlink:href="/docs/biography/行传/9/0040" xlink:title="编号：90040，，0。点击查看详情">
<polygon fill="#f0f0f0" stroke="none" points="142,-411 142,-428 192,-428 192,-411 142,-411"/>
<polygon fill="none" stroke="black" points="142,-411 142,-428 192,-428 192,-411 142,-411"/>
<text text-anchor="start" x="156.5" y="-413.7" font-family="SimSun" font-size="14.00">崇9</text>
<polygon fill="#ffffff" stroke="none" points="142,-394 142,-411 192,-411 192,-394 142,-394"/>
<polygon fill="none" stroke="black" points="142,-394 142,-411 192,-411 192,-394 142,-394"/>
<text text-anchor="start" x="163.62" y="-396.7" font-family="SimSun" font-size="14.00"> </text>
</a>
</g>
</g>
<!-- 80032&#45;&gt;90040 -->
<g id="edge12" class="edge">
<title>80032&#45;&gt;90040</title>
<path fill="none" stroke="black" d="M172.9,-468.03C172.1,-460.44 171.17,-451.6 170.29,-443.21"/>
<polygon fill="black" stroke="black" points="173.77,-442.92 169.25,-433.34 166.81,-443.65 173.77,-442.92"/>
</g>
<!-- 90041 -->
<g id="node19" class="node">
<title>90041</title>
<g id="a_node19"><a xlink:href="/docs/biography/行传/9/0041" xlink:title="编号：90041，，0。点击查看详情">
<polygon fill="#f0f0f0" stroke="none" points="209,-411 209,-428 259,-428 259,-411 209,-411"/>
<polygon fill="none" stroke="black" points="209,-411 209,-428 259,-428 259,-411 209,-411"/>
<text text-anchor="start" x="220.12" y="-413.7" font-family="SimSun" font-size="14.00">崇10</text>
<polygon fill="#ffffff" stroke="none" points="209,-394 209,-411 259,-411 259,-394 209,-394"/>
<polygon fill="none" stroke="black" points="209,-394 209,-411 259,-411 259,-394 209,-394"/>
<text text-anchor="start" x="230.62" y="-396.7" font-family="SimSun" font-size="14.00"> </text>
</a>
</g>
</g>
<!-- 80032&#45;&gt;90041 -->
<g id="edge13" class="edge">
<title>80032&#45;&gt;90041</title>
<path fill="none" stroke="black" d="M190.5,-468.03C196.94,-459.74 204.53,-449.96 211.56,-440.91"/>
<polygon fill="black" stroke="black" points="214.31,-443.08 217.67,-433.03 208.78,-438.78 214.31,-443.08"/>
</g>
<!-- 100030 -->
<g id="node15" class="node">
<title>100030</title>
<g id="a_node15"><a xlink:href="/docs/biography/行传/10/0030" xlink:title="编号：100030，，0。点击查看详情">
<polygon fill="#f0f0f0" stroke="none" points="108,-333 108,-350 158,-350 158,-333 108,-333"/>
<polygon fill="none" stroke="black" points="108,-333 108,-350 158,-350 158,-333 108,-333"/>
<text text-anchor="start" x="119.12" y="-335.7" font-family="SimSun" font-size="14.00">福20</text>
<polygon fill="#ffffff" stroke="none" points="108,-316 108,-333 158,-333 158,-316 108,-316"/>
<polygon fill="none" stroke="black" points="108,-316 108,-333 158,-333 158,-316 108,-316"/>
<text text-anchor="start" x="129.62" y="-318.7" font-family="SimSun" font-size="14.00"> </text>
</a>
</g>
</g>
<!-- 100030&#45;&gt;110040 -->
<g id="edge14" class="edge">
<title>100030&#45;&gt;110040</title>
<path fill="none" stroke="black" d="M133,-312.03C133,-304.44 133,-295.6 133,-287.21"/>
<polygon fill="black" stroke="black" points="136.5,-287.35 133,-277.35 129.5,-287.35 136.5,-287.35"/>
</g>
<!-- 100030&#45;&gt;110041 -->
<g id="edge15" class="edge">
<title>100030&#45;&gt;110041</title>
<path fill="none" stroke="black" d="M150.6,-312.03C158.07,-303.57 166.9,-293.55 175.02,-284.34"/>
<polygon fill="black" stroke="black" points="177.53,-286.79 181.51,-276.97 172.27,-282.16 177.53,-286.79"/>
</g>
<!-- 100028 -->
<g id="node16" class="node">
<title>100028</title>
<g id="a_node16"><a xlink:href="/docs/biography/行传/10/0028" xlink:title="编号：100028，彰，0。点击查看详情">
<polygon fill="#f0f0f0" stroke="none" points="41,-333 41,-350 91,-350 91,-333 41,-333"/>
<polygon fill="none" stroke="black" points="41,-333 41,-350 91,-350 91,-333 41,-333"/>
<text text-anchor="start" x="52.12" y="-335.7" font-family="SimSun" font-size="14.00">福17</text>
<polygon fill="#ffffff" stroke="none" points="41,-316 41,-333 91,-333 91,-316 41,-316"/>
<polygon fill="none" stroke="black" points="41,-316 41,-333 91,-333 91,-316 41,-316"/>
<text text-anchor="start" x="58.88" y="-318.7" font-family="SimSun" font-size="14.00">彰</text>
</a>
</g>
</g>
<!-- 100028&#45;&gt;110039 -->
<g id="edge16" class="edge">
<title>100028&#45;&gt;110039</title>
<path fill="none" stroke="black" d="M66,-312.03C66,-304.44 66,-295.6 66,-287.21"/>
<polygon fill="black" stroke="black" points="69.5,-287.35 66,-277.35 62.5,-287.35 69.5,-287.35"/>
</g>
<!-- 140071 -->
<g id="node18" class="node">
<title>140071</title>
<g id="a_node18"><a xlink:href="/docs/biography/行传/14/0071" xlink:title="编号：140071，，0。点击查看详情">
<polygon fill="#f0f0f0" stroke="none" points="8,-21 8,-38 58,-38 58,-21 8,-21"/>
<polygon fill="none" stroke="black" points="8,-21 8,-38 58,-38 58,-21 8,-21"/>
<text text-anchor="start" x="22.5" y="-23.7" font-family="SimSun" font-size="14.00">義1</text>
<polygon fill="#ffffff" stroke="none" points="8,-4 8,-21 58,-21 58,-4 8,-4"/>
<polygon fill="none" stroke="black" points="8,-4 8,-21 58,-21 58,-4 8,-4"/>
<text text-anchor="start" x="29.62" y="-6.7" font-family="SimSun" font-size="14.00"> </text>
</a>
</g>
</g>
<!-- 130076&#45;&gt;140071 -->
<g id="edge17" class="edge">
<title>130076&#45;&gt;140071</title>
<path fill="none" stroke="black" d="M33,-78.03C33,-70.44 33,-61.6 33,-53.21"/>
<polygon fill="black" stroke="black" points="36.5,-53.35 33,-43.35 29.5,-53.35 36.5,-53.35"/>
</g>
<!-- 90043&#45;&gt;100030 -->
<g id="edge19" class="edge">
<title>90043&#45;&gt;100030</title>
<path fill="none" stroke="black" d="M108.67,-390.03C112.08,-382.18 116.07,-372.98 119.82,-364.34"/>
<polygon fill="black" stroke="black" points="123.01,-365.79 123.78,-355.22 116.59,-363 123.01,-365.79"/>
</g>
<!-- 90043&#45;&gt;100028 -->
<g id="edge18" class="edge">
<title>90043&#45;&gt;100028</title>
<path fill="none" stroke="black" d="M91.07,-390.03C87.55,-382.18 83.44,-372.98 79.57,-364.34"/>
<polygon fill="black" stroke="black" points="82.77,-362.92 75.49,-355.22 76.38,-365.77 82.77,-362.92"/>
</g>
<!-- 50015 -->
<g id="node23" class="node">
<title>50015</title>
<g id="a_node23"><a xlink:href="/docs/biography/行传/5/0015" xlink:title="编号：50015，汝才，車方&#45;&#45;&gt;青龍頭。点击查看详情">
<polygon fill="#f0f0f0" stroke="none" points="138.38,-723 138.38,-740 211.62,-740 211.62,-723 138.38,-723"/>
<polygon fill="none" stroke="darkred" points="138.38,-723 138.38,-740 211.62,-740 211.62,-723 138.38,-723"/>
<text text-anchor="start" x="161.12" y="-725.7" font-family="SimSun" font-size="14.00" fill="#8b0000">五29</text>
<polygon fill="#ffffff" stroke="none" points="138.38,-706 138.38,-723 211.62,-723 211.62,-706 138.38,-706"/>
<polygon fill="none" stroke="darkred" points="138.38,-706 138.38,-723 211.62,-723 211.62,-706 138.38,-706"/>
<text text-anchor="start" x="139.38" y="-708.7" font-family="SimSun" font-size="14.00" fill="#8b0000">【青龍頭】</text>
</a>
</g>
</g>
<!-- 60015 -->
<g id="node24" class="node">
<title>60015</title>
<g id="a_node24"><a xlink:href="/docs/biography/行传/6/0015" xlink:title="编号：60015，執法，0。点击查看详情">
<polygon fill="#f0f0f0" stroke="none" points="150,-645 150,-662 200,-662 200,-645 150,-645"/>
<polygon fill="none" stroke="black" points="150,-645 150,-662 200,-662 200,-645 150,-645"/>
<text text-anchor="start" x="154.38" y="-647.7" font-family="SimSun" font-size="14.00">六15_2</text>
<polygon fill="#ffffff" stroke="none" points="150,-628 150,-645 200,-645 200,-628 150,-628"/>
<polygon fill="none" stroke="black" points="150,-628 150,-645 200,-645 200,-628 150,-628"/>
<text text-anchor="start" x="160.75" y="-630.7" font-family="SimSun" font-size="14.00">執法</text>
</a>
</g>
</g>
<!-- 50015&#45;&gt;60015 -->
<g id="edge20" class="edge">
<title>50015&#45;&gt;60015</title>
<path fill="none" stroke="black" d="M175,-702.03C175,-694.44 175,-685.6 175,-677.21"/>
<polygon fill="black" stroke="black" points="178.5,-677.35 175,-667.35 171.5,-677.35 178.5,-677.35"/>
</g>
<!-- 60015&#45;&gt;70033 -->
<g id="edge23" class="edge">
<title>60015&#45;&gt;70033</title>
<path fill="none" stroke="black" d="M201.27,-624.03C213.1,-615.04 227.23,-604.3 239.95,-594.64"/>
<polygon fill="black" stroke="black" points="241.85,-597.59 247.7,-588.75 237.62,-592.01 241.85,-597.59"/>
</g>
<!-- 60015&#45;&gt;70032 -->
<g id="edge22" class="edge">
<title>60015&#45;&gt;70032</title>
<path fill="none" stroke="black" d="M175,-624.03C175,-616.44 175,-607.6 175,-599.21"/>
<polygon fill="black" stroke="black" points="178.5,-599.35 175,-589.35 171.5,-599.35 178.5,-599.35"/>
</g>
<!-- 60015&#45;&gt;70031 -->
<g id="edge21" class="edge">
<title>60015&#45;&gt;70031</title>
<path fill="none" stroke="black" d="M155.29,-624.03C146.77,-615.39 136.64,-605.13 127.4,-595.77"/>
<polygon fill="black" stroke="black" points="130.15,-593.57 120.64,-588.91 125.17,-598.49 130.15,-593.57"/>
</g>
</g>
</svg>
