<?xml version="1.0" encoding="UTF-8" standalone="no"?>
<!DOCTYPE svg PUBLIC "-//W3C//DTD SVG 1.1//EN"
 "http://www.w3.org/Graphics/SVG/1.1/DTD/svg11.dtd">
<!-- Generated by graphviz version 12.2.1 (20241206.2353)
 -->
<!-- Pages: 1 -->
<svg width="581pt" height="788pt"
 viewBox="0.00 0.00 580.50 787.50" xmlns="http://www.w3.org/2000/svg" xmlns:xlink="http://www.w3.org/1999/xlink">
<g id="graph0" class="graph" transform="scale(1 1) rotate(0) translate(4 783.5)">
<polygon fill="white" stroke="none" points="-4,4 -4,-783.5 576.5,-783.5 576.5,4 -4,4"/>
<!-- 160077 -->
<g id="node1" class="node">
<title>160077</title>
<g id="a_node1"><a xlink:href="/docs/biography/行传/16/0077" xlink:title="编号：160077，，0。点击查看详情">
<polygon fill="#f0f0f0" stroke="none" points="413.5,-179 413.5,-196 463.5,-196 463.5,-179 413.5,-179"/>
<polygon fill="none" stroke="black" points="413.5,-179 413.5,-196 463.5,-196 463.5,-179 413.5,-179"/>
<text text-anchor="start" x="424.62" y="-181.7" font-family="SimSun" font-size="14.00">厚17</text>
<polygon fill="#ffffff" stroke="none" points="413.5,-162 413.5,-179 463.5,-179 463.5,-162 413.5,-162"/>
<polygon fill="none" stroke="black" points="413.5,-162 413.5,-179 463.5,-179 463.5,-162 413.5,-162"/>
<text text-anchor="start" x="435.12" y="-164.7" font-family="SimSun" font-size="14.00"> </text>
</a>
</g>
</g>
<!-- 120041 -->
<g id="node2" class="node">
<title>120041</title>
<g id="a_node2"><a xlink:href="/docs/biography/行传/12/0041" xlink:title="编号：120041，沂，0。点击查看详情">
<polygon fill="#f0f0f0" stroke="none" points="155.5,-521.5 155.5,-538.5 205.5,-538.5 205.5,-521.5 155.5,-521.5"/>
<polygon fill="none" stroke="black" points="155.5,-521.5 155.5,-538.5 205.5,-538.5 205.5,-521.5 155.5,-521.5"/>
<text text-anchor="start" x="170" y="-524.2" font-family="SimSun" font-size="14.00">斌6</text>
<polygon fill="#ffffff" stroke="none" points="155.5,-504.5 155.5,-521.5 205.5,-521.5 205.5,-504.5 155.5,-504.5"/>
<polygon fill="none" stroke="black" points="155.5,-504.5 155.5,-521.5 205.5,-521.5 205.5,-504.5 155.5,-504.5"/>
<text text-anchor="start" x="173.38" y="-507.2" font-family="SimSun" font-size="14.00">沂</text>
</a>
</g>
</g>
<!-- 130042 -->
<g id="node3" class="node">
<title>130042</title>
<g id="a_node3"><a xlink:href="/docs/biography/行传/13/0042" xlink:title="编号：130042，凱，0。点击查看详情">
<polygon fill="#f0f0f0" stroke="none" points="70.5,-442.5 70.5,-459.5 120.5,-459.5 120.5,-442.5 70.5,-442.5"/>
<polygon fill="none" stroke="black" points="70.5,-442.5 70.5,-459.5 120.5,-459.5 120.5,-442.5 70.5,-442.5"/>
<text text-anchor="start" x="85" y="-445.2" font-family="SimSun" font-size="14.00">常4</text>
<polygon fill="#ffffff" stroke="none" points="70.5,-425.5 70.5,-442.5 120.5,-442.5 120.5,-425.5 70.5,-425.5"/>
<polygon fill="none" stroke="black" points="70.5,-425.5 70.5,-442.5 120.5,-442.5 120.5,-425.5 70.5,-425.5"/>
<text text-anchor="start" x="88.38" y="-428.2" font-family="SimSun" font-size="14.00">凱</text>
</a>
</g>
</g>
<!-- 120041&#45;&gt;130042 -->
<g id="edge7" class="edge">
<title>120041&#45;&gt;130042</title>
<path fill="none" stroke="black" d="M158.61,-500.67C148.6,-491.6 136.57,-480.7 125.71,-470.87"/>
<polygon fill="black" stroke="black" points="128.2,-468.4 118.44,-464.28 123.5,-473.59 128.2,-468.4"/>
</g>
<!-- 140030 -->
<g id="node16" class="node">
<title>140030</title>
<g id="a_node16"><a xlink:href="/docs/biography/行传/14/0030" xlink:title="编号：140030，堪，車方&#45;&#45;&gt;前陳。点击查看详情">
<polygon fill="#f0f0f0" stroke="none" points="8,-350.25 8,-367.25 67,-367.25 67,-350.25 8,-350.25"/>
<polygon fill="none" stroke="darkred" points="8,-350.25 8,-367.25 67,-367.25 67,-350.25 8,-350.25"/>
<text text-anchor="start" x="23.62" y="-352.95" font-family="SimSun" font-size="14.00" fill="#8b0000">顯11</text>
<polygon fill="#ffffff" stroke="none" points="8,-333.25 8,-350.25 67,-350.25 67,-333.25 8,-333.25"/>
<polygon fill="none" stroke="darkred" points="8,-333.25 8,-350.25 67,-350.25 67,-333.25 8,-333.25"/>
<text text-anchor="start" x="9" y="-335.95" font-family="SimSun" font-size="14.00" fill="#8b0000">【前陳】</text>
</a>
</g>
</g>
<!-- 130042&#45;&gt;140030 -->
<g id="edge2" class="edge">
<title>130042&#45;&gt;140030</title>
<path fill="none" stroke="blue" d="M82.91,-421.92C75.14,-409.82 65.02,-394.07 56.3,-380.51"/>
<polygon fill="blue" stroke="blue" points="59.43,-378.9 51.08,-372.38 53.54,-382.68 59.43,-378.9"/>
<text text-anchor="middle" x="87.22" y="-390.2" font-family="Times New Roman,serif" font-size="14.00" fill="blue">承继</text>
</g>
<!-- 130044 -->
<g id="node4" class="node">
<title>130044</title>
<g id="a_node4"><a xlink:href="/docs/biography/行传/13/0044" xlink:title="编号：130044，俤，0。点击查看详情">
<polygon fill="#f0f0f0" stroke="none" points="233.5,-442.5 233.5,-459.5 283.5,-459.5 283.5,-442.5 233.5,-442.5"/>
<polygon fill="none" stroke="black" points="233.5,-442.5 233.5,-459.5 283.5,-459.5 283.5,-442.5 233.5,-442.5"/>
<text text-anchor="start" x="248" y="-445.2" font-family="SimSun" font-size="14.00">常6</text>
<polygon fill="#ffffff" stroke="none" points="233.5,-425.5 233.5,-442.5 283.5,-442.5 283.5,-425.5 233.5,-425.5"/>
<polygon fill="none" stroke="black" points="233.5,-425.5 233.5,-442.5 283.5,-442.5 283.5,-425.5 233.5,-425.5"/>
<text text-anchor="start" x="251.38" y="-428.2" font-family="SimSun" font-size="14.00">俤</text>
</a>
</g>
</g>
<!-- 140029 -->
<g id="node17" class="node">
<title>140029</title>
<g id="a_node17"><a xlink:href="/docs/biography/行传/14/0029" xlink:title="编号：140029，豪，0。点击查看详情">
<polygon fill="#f0f0f0" stroke="none" points="236.5,-350.25 236.5,-367.25 286.5,-367.25 286.5,-350.25 236.5,-350.25"/>
<polygon fill="none" stroke="black" points="236.5,-350.25 236.5,-367.25 286.5,-367.25 286.5,-350.25 236.5,-350.25"/>
<text text-anchor="start" x="247.62" y="-352.95" font-family="SimSun" font-size="14.00">顯10</text>
<polygon fill="#ffffff" stroke="none" points="236.5,-333.25 236.5,-350.25 286.5,-350.25 286.5,-333.25 236.5,-333.25"/>
<polygon fill="none" stroke="black" points="236.5,-333.25 236.5,-350.25 286.5,-350.25 286.5,-333.25 236.5,-333.25"/>
<text text-anchor="start" x="254.38" y="-335.95" font-family="SimSun" font-size="14.00">豪</text>
</a>
</g>
</g>
<!-- 130044&#45;&gt;140029 -->
<g id="edge8" class="edge">
<title>130044&#45;&gt;140029</title>
<path fill="none" stroke="black" d="M259.15,-421.92C259.53,-410.41 260.03,-395.59 260.46,-382.5"/>
<polygon fill="black" stroke="black" points="263.96,-382.73 260.79,-372.62 256.96,-382.5 263.96,-382.73"/>
</g>
<!-- 150029 -->
<g id="node5" class="node">
<title>150029</title>
<g id="a_node5"><a xlink:href="/docs/biography/行传/15/0029" xlink:title="编号：150029，珠，0。点击查看详情">
<polygon fill="#f0f0f0" stroke="none" points="447.5,-258 447.5,-275 497.5,-275 497.5,-258 447.5,-258"/>
<polygon fill="none" stroke="black" points="447.5,-258 447.5,-275 497.5,-275 497.5,-258 447.5,-258"/>
<text text-anchor="start" x="458.62" y="-260.7" font-family="SimSun" font-size="14.00">湻13</text>
<polygon fill="#ffffff" stroke="none" points="447.5,-241 447.5,-258 497.5,-258 497.5,-241 447.5,-241"/>
<polygon fill="none" stroke="black" points="447.5,-241 447.5,-258 497.5,-258 497.5,-241 447.5,-241"/>
<text text-anchor="start" x="465.38" y="-243.7" font-family="SimSun" font-size="14.00">珠</text>
</a>
</g>
</g>
<!-- 150029&#45;&gt;160077 -->
<g id="edge9" class="edge">
<title>150029&#45;&gt;160077</title>
<path fill="none" stroke="black" d="M463.74,-237.17C460.1,-228.91 455.78,-219.13 451.76,-210.02"/>
<polygon fill="black" stroke="black" points="455.08,-208.88 447.84,-201.15 448.68,-211.71 455.08,-208.88"/>
</g>
<!-- 160090 -->
<g id="node28" class="node">
<title>160090</title>
<g id="a_node28"><a xlink:href="/docs/biography/行传/16/0090" xlink:title="编号：160090，，0。点击查看详情">
<polygon fill="#f0f0f0" stroke="none" points="480.5,-179 480.5,-196 530.5,-196 530.5,-179 480.5,-179"/>
<polygon fill="none" stroke="black" points="480.5,-179 480.5,-196 530.5,-196 530.5,-179 480.5,-179"/>
<text text-anchor="start" x="491.62" y="-181.7" font-family="SimSun" font-size="14.00">厚32</text>
<polygon fill="#ffffff" stroke="none" points="480.5,-162 480.5,-179 530.5,-179 530.5,-162 480.5,-162"/>
<polygon fill="none" stroke="black" points="480.5,-162 480.5,-179 530.5,-179 530.5,-162 480.5,-162"/>
<text text-anchor="start" x="502.12" y="-164.7" font-family="SimSun" font-size="14.00"> </text>
</a>
</g>
</g>
<!-- 150029&#45;&gt;160090 -->
<g id="edge10" class="edge">
<title>150029&#45;&gt;160090</title>
<path fill="none" stroke="black" d="M481,-237.17C484.5,-229 488.64,-219.34 492.51,-210.32"/>
<polygon fill="black" stroke="black" points="495.71,-211.72 496.43,-201.15 489.28,-208.97 495.71,-211.72"/>
</g>
<!-- 100023 -->
<g id="node6" class="node">
<title>100023</title>
<g id="a_node6"><a xlink:href="/docs/biography/行传/10/0023" xlink:title="编号：100023，正道，0。点击查看详情">
<polygon fill="#f0f0f0" stroke="none" points="344.5,-679.5 344.5,-696.5 394.5,-696.5 394.5,-679.5 344.5,-679.5"/>
<polygon fill="none" stroke="black" points="344.5,-679.5 344.5,-696.5 394.5,-696.5 394.5,-679.5 344.5,-679.5"/>
<text text-anchor="start" x="355.62" y="-682.2" font-family="SimSun" font-size="14.00">福12</text>
<polygon fill="#ffffff" stroke="none" points="344.5,-662.5 344.5,-679.5 394.5,-679.5 394.5,-662.5 344.5,-662.5"/>
<polygon fill="none" stroke="black" points="344.5,-662.5 344.5,-679.5 394.5,-679.5 394.5,-662.5 344.5,-662.5"/>
<text text-anchor="start" x="355.25" y="-665.2" font-family="SimSun" font-size="14.00">正道</text>
</a>
</g>
</g>
<!-- 110027 -->
<g id="node7" class="node">
<title>110027</title>
<g id="a_node7"><a xlink:href="/docs/biography/行传/11/0027" xlink:title="编号：110027，珪，車方&#45;&#45;&gt;會龍。点击查看详情">
<polygon fill="#f0f0f0" stroke="none" points="340,-600.5 340,-617.5 399,-617.5 399,-600.5 340,-600.5"/>
<polygon fill="none" stroke="darkred" points="340,-600.5 340,-617.5 399,-617.5 399,-600.5 340,-600.5"/>
<text text-anchor="start" x="359" y="-603.2" font-family="SimSun" font-size="14.00" fill="#8b0000">俊5</text>
<polygon fill="#ffffff" stroke="none" points="340,-583.5 340,-600.5 399,-600.5 399,-583.5 340,-583.5"/>
<polygon fill="none" stroke="darkred" points="340,-583.5 340,-600.5 399,-600.5 399,-583.5 340,-583.5"/>
<text text-anchor="start" x="341" y="-586.2" font-family="SimSun" font-size="14.00" fill="#8b0000">【會龍】</text>
</a>
</g>
</g>
<!-- 100023&#45;&gt;110027 -->
<g id="edge12" class="edge">
<title>100023&#45;&gt;110027</title>
<path fill="none" stroke="black" d="M369.5,-658.67C369.5,-650.77 369.5,-641.48 369.5,-632.71"/>
<polygon fill="black" stroke="black" points="373,-632.78 369.5,-622.78 366,-632.78 373,-632.78"/>
</g>
<!-- 110026 -->
<g id="node19" class="node">
<title>110026</title>
<g id="a_node19"><a xlink:href="/docs/biography/行传/11/0026" xlink:title="编号：110026，瑪，0。点击查看详情">
<polygon fill="#f0f0f0" stroke="none" points="240.5,-600.5 240.5,-617.5 290.5,-617.5 290.5,-600.5 240.5,-600.5"/>
<polygon fill="none" stroke="black" points="240.5,-600.5 240.5,-617.5 290.5,-617.5 290.5,-600.5 240.5,-600.5"/>
<text text-anchor="start" x="255" y="-603.2" font-family="SimSun" font-size="14.00">俊4</text>
<polygon fill="#ffffff" stroke="none" points="240.5,-583.5 240.5,-600.5 290.5,-600.5 290.5,-583.5 240.5,-583.5"/>
<polygon fill="none" stroke="black" points="240.5,-583.5 240.5,-600.5 290.5,-600.5 290.5,-583.5 240.5,-583.5"/>
<text text-anchor="start" x="258.38" y="-586.2" font-family="SimSun" font-size="14.00">瑪</text>
</a>
</g>
</g>
<!-- 100023&#45;&gt;110026 -->
<g id="edge11" class="edge">
<title>100023&#45;&gt;110026</title>
<path fill="none" stroke="black" d="M342.72,-658.67C330.1,-649.33 314.87,-638.05 301.28,-627.99"/>
<polygon fill="black" stroke="black" points="303.53,-625.3 293.41,-622.16 299.36,-630.93 303.53,-625.3"/>
</g>
<!-- 170256 -->
<g id="node8" class="node">
<title>170256</title>
<g id="a_node8"><a xlink:href="/docs/biography/行传/17/0256" xlink:title="编号：170256，，0。点击查看详情">
<polygon fill="#f0f0f0" stroke="none" points="219.5,-100 219.5,-117 269.5,-117 269.5,-100 219.5,-100"/>
<polygon fill="none" stroke="black" points="219.5,-100 219.5,-117 269.5,-117 269.5,-100 219.5,-100"/>
<text text-anchor="start" x="227.25" y="-102.7" font-family="SimSun" font-size="14.00">魁144</text>
<polygon fill="#ffffff" stroke="none" points="219.5,-83 219.5,-100 269.5,-100 269.5,-83 219.5,-83"/>
<polygon fill="none" stroke="black" points="219.5,-83 219.5,-100 269.5,-100 269.5,-83 219.5,-83"/>
<text text-anchor="start" x="241.12" y="-85.7" font-family="SimSun" font-size="14.00"> </text>
</a>
</g>
</g>
<!-- 180454 -->
<g id="node18" class="node">
<title>180454</title>
<g id="a_node18"><a xlink:href="/docs/biography/行传/18/0454" xlink:title="编号：180454，★，0。点击查看详情">
<polygon fill="#f0f0f0" stroke="none" points="219.5,-21 219.5,-38 269.5,-38 269.5,-21 219.5,-21"/>
<polygon fill="none" stroke="black" points="219.5,-21 219.5,-38 269.5,-38 269.5,-21 219.5,-21"/>
<text text-anchor="start" x="227.25" y="-23.7" font-family="SimSun" font-size="14.00">賢290</text>
<polygon fill="#ffffff" stroke="none" points="219.5,-4 219.5,-21 269.5,-21 269.5,-4 219.5,-4"/>
<polygon fill="none" stroke="black" points="219.5,-4 219.5,-21 269.5,-21 269.5,-4 219.5,-4"/>
<text text-anchor="start" x="237.38" y="-6.7" font-family="SimSun" font-size="14.00">★</text>
</a>
</g>
</g>
<!-- 170256&#45;&gt;180454 -->
<g id="edge13" class="edge">
<title>170256&#45;&gt;180454</title>
<path fill="none" stroke="black" d="M244.5,-79.17C244.5,-71.27 244.5,-61.98 244.5,-53.21"/>
<polygon fill="black" stroke="black" points="248,-53.28 244.5,-43.28 241,-53.28 248,-53.28"/>
</g>
<!-- 90032 -->
<g id="node9" class="node">
<title>90032</title>
<g id="a_node9"><a xlink:href="/docs/biography/行传/9/0032" xlink:title="编号：90032，應紀，0。点击查看详情">
<polygon fill="#f0f0f0" stroke="none" points="373,-758.5 373,-775.5 432,-775.5 432,-758.5 373,-758.5"/>
<polygon fill="none" stroke="darkred" points="373,-758.5 373,-775.5 432,-775.5 432,-758.5 373,-758.5"/>
<text text-anchor="start" x="392" y="-761.2" font-family="SimSun" font-size="14.00" fill="#8b0000">登3</text>
<polygon fill="#ffffff" stroke="none" points="373,-741.5 373,-758.5 432,-758.5 432,-741.5 373,-741.5"/>
<polygon fill="none" stroke="darkred" points="373,-741.5 373,-758.5 432,-758.5 432,-741.5 373,-741.5"/>
<text text-anchor="start" x="374" y="-744.2" font-family="SimSun" font-size="14.00" fill="#8b0000">【車方】</text>
</a>
</g>
</g>
<!-- 90032&#45;&gt;100023 -->
<g id="edge14" class="edge">
<title>90032&#45;&gt;100023</title>
<path fill="none" stroke="black" d="M394,-737.67C390.5,-729.5 386.36,-719.84 382.49,-710.82"/>
<polygon fill="black" stroke="black" points="385.72,-709.47 378.57,-701.65 379.29,-712.22 385.72,-709.47"/>
</g>
<!-- 100026 -->
<g id="node20" class="node">
<title>100026</title>
<g id="a_node20"><a xlink:href="/docs/biography/行传/10/0026" xlink:title="编号：100026，山，0。点击查看详情">
<polygon fill="#f0f0f0" stroke="none" points="413.5,-679.5 413.5,-696.5 463.5,-696.5 463.5,-679.5 413.5,-679.5"/>
<polygon fill="none" stroke="black" points="413.5,-679.5 413.5,-696.5 463.5,-696.5 463.5,-679.5 413.5,-679.5"/>
<text text-anchor="start" x="424.62" y="-682.2" font-family="SimSun" font-size="14.00">福15</text>
<polygon fill="#ffffff" stroke="none" points="413.5,-662.5 413.5,-679.5 463.5,-679.5 463.5,-662.5 413.5,-662.5"/>
<polygon fill="none" stroke="black" points="413.5,-662.5 413.5,-679.5 463.5,-679.5 463.5,-662.5 413.5,-662.5"/>
<text text-anchor="start" x="431.38" y="-665.2" font-family="SimSun" font-size="14.00">山</text>
</a>
</g>
</g>
<!-- 90032&#45;&gt;100026 -->
<g id="edge15" class="edge">
<title>90032&#45;&gt;100026</title>
<path fill="none" stroke="black" d="M411.77,-737.67C415.63,-729.41 420.21,-719.63 424.46,-710.52"/>
<polygon fill="black" stroke="black" points="427.55,-712.17 428.62,-701.63 421.21,-709.21 427.55,-712.17"/>
</g>
<!-- 140024 -->
<g id="node10" class="node">
<title>140024</title>
<g id="a_node10"><a xlink:href="/docs/biography/行传/14/0024" xlink:title="编号：140024，坦，車方&#45;&#45;&gt;平湖。点击查看详情">
<polygon fill="#f0f0f0" stroke="none" points="84,-350.25 84,-367.25 143,-367.25 143,-350.25 84,-350.25"/>
<polygon fill="none" stroke="darkred" points="84,-350.25 84,-367.25 143,-367.25 143,-350.25 84,-350.25"/>
<text text-anchor="start" x="103" y="-352.95" font-family="SimSun" font-size="14.00" fill="#8b0000">顯5</text>
<polygon fill="#ffffff" stroke="none" points="84,-333.25 84,-350.25 143,-350.25 143,-333.25 84,-333.25"/>
<polygon fill="none" stroke="darkred" points="84,-333.25 84,-350.25 143,-350.25 143,-333.25 84,-333.25"/>
<text text-anchor="start" x="85" y="-335.95" font-family="SimSun" font-size="14.00" fill="#8b0000">【平湖】</text>
</a>
</g>
</g>
<!-- 150025 -->
<g id="node33" class="node">
<title>150025</title>
<polygon fill="#f0f0f0" stroke="none" points="114.5,-258 114.5,-275 164.5,-275 164.5,-258 114.5,-258"/>
<polygon fill="none" stroke="gray" points="114.5,-258 114.5,-275 164.5,-275 164.5,-258 114.5,-258"/>
<text text-anchor="start" x="129" y="-260.7" font-family="SimSun" font-size="14.00" fill="#808080">湻7</text>
<polygon fill="#ffffff" stroke="none" points="114.5,-241 114.5,-258 164.5,-258 164.5,-241 114.5,-241"/>
<polygon fill="none" stroke="gray" points="114.5,-241 114.5,-258 164.5,-258 164.5,-241 114.5,-241"/>
<text text-anchor="start" x="132.38" y="-243.7" font-family="SimSun" font-size="14.00" fill="#808080">璨</text>
</g>
<!-- 140024&#45;&gt;150025 -->
<g id="edge4" class="edge">
<title>140024&#45;&gt;150025</title>
<path fill="none" stroke="blue" d="M118.33,-329.32C120.78,-319.54 123.89,-307.61 127,-297 127.71,-294.56 128.48,-292.05 129.27,-289.53"/>
<polygon fill="blue" stroke="blue" points="132.57,-290.68 132.3,-280.09 125.91,-288.53 132.57,-290.68"/>
<text text-anchor="middle" x="144.25" y="-297.95" font-family="Times New Roman,serif" font-size="14.00" fill="blue">承继</text>
</g>
<!-- 170253 -->
<g id="node11" class="node">
<title>170253</title>
<g id="a_node11"><a xlink:href="/docs/biography/行传/17/0253" xlink:title="编号：170253，★，0。点击查看详情">
<polygon fill="#f0f0f0" stroke="none" points="152.12,-100 152.12,-117 202.88,-117 202.88,-100 152.12,-100"/>
<polygon fill="none" stroke="black" points="152.12,-100 152.12,-117 202.88,-117 202.88,-100 152.12,-100"/>
<text text-anchor="start" x="153.12" y="-102.7" font-family="SimSun" font-size="14.00">魁138又</text>
<polygon fill="#ffffff" stroke="none" points="152.12,-83 152.12,-100 202.88,-100 202.88,-83 152.12,-83"/>
<polygon fill="none" stroke="black" points="152.12,-83 152.12,-100 202.88,-100 202.88,-83 152.12,-83"/>
<text text-anchor="start" x="170.38" y="-85.7" font-family="SimSun" font-size="14.00">★</text>
</a>
</g>
</g>
<!-- 120042 -->
<g id="node12" class="node">
<title>120042</title>
<g id="a_node12"><a xlink:href="/docs/biography/行传/12/0042" xlink:title="编号：120042，潼，0。点击查看详情">
<polygon fill="#f0f0f0" stroke="none" points="240.5,-521.5 240.5,-538.5 290.5,-538.5 290.5,-521.5 240.5,-521.5"/>
<polygon fill="none" stroke="black" points="240.5,-521.5 240.5,-538.5 290.5,-538.5 290.5,-521.5 240.5,-521.5"/>
<text text-anchor="start" x="255" y="-524.2" font-family="SimSun" font-size="14.00">斌8</text>
<polygon fill="#ffffff" stroke="none" points="240.5,-504.5 240.5,-521.5 290.5,-521.5 290.5,-504.5 240.5,-504.5"/>
<polygon fill="none" stroke="black" points="240.5,-504.5 240.5,-521.5 290.5,-521.5 290.5,-504.5 240.5,-504.5"/>
<text text-anchor="start" x="258.38" y="-507.2" font-family="SimSun" font-size="14.00">潼</text>
</a>
</g>
</g>
<!-- 120042&#45;&gt;130044 -->
<g id="edge16" class="edge">
<title>120042&#45;&gt;130044</title>
<path fill="none" stroke="black" d="M263.7,-500.67C262.98,-492.77 262.13,-483.48 261.34,-474.71"/>
<polygon fill="black" stroke="black" points="264.82,-474.41 260.43,-464.77 257.85,-475.05 264.82,-474.41"/>
</g>
<!-- 130047 -->
<g id="node13" class="node">
<title>130047</title>
<g id="a_node13"><a xlink:href="/docs/biography/行传/13/0047" xlink:title="编号：130047，，0。点击查看详情">
<polygon fill="#f0f0f0" stroke="none" points="300.5,-442.5 300.5,-459.5 350.5,-459.5 350.5,-442.5 300.5,-442.5"/>
<polygon fill="none" stroke="black" points="300.5,-442.5 300.5,-459.5 350.5,-459.5 350.5,-442.5 300.5,-442.5"/>
<text text-anchor="start" x="315" y="-445.2" font-family="SimSun" font-size="14.00">常9</text>
<polygon fill="#ffffff" stroke="none" points="300.5,-425.5 300.5,-442.5 350.5,-442.5 350.5,-425.5 300.5,-425.5"/>
<polygon fill="none" stroke="black" points="300.5,-425.5 300.5,-442.5 350.5,-442.5 350.5,-425.5 300.5,-425.5"/>
<text text-anchor="start" x="322.12" y="-428.2" font-family="SimSun" font-size="14.00"> </text>
</a>
</g>
</g>
<!-- 120042&#45;&gt;130047 -->
<g id="edge18" class="edge">
<title>120042&#45;&gt;130047</title>
<path fill="none" stroke="black" d="M280.95,-500.67C287.67,-492.05 295.67,-481.78 303.03,-472.34"/>
<polygon fill="black" stroke="black" points="305.78,-474.5 309.17,-464.46 300.26,-470.19 305.78,-474.5"/>
</g>
<!-- 130046 -->
<g id="node15" class="node">
<title>130046</title>
<g id="a_node15"><a xlink:href="/docs/biography/行传/13/0046" xlink:title="编号：130046，正性，0。点击查看详情">
<polygon fill="#f0f0f0" stroke="none" points="164.5,-442.5 164.5,-459.5 214.5,-459.5 214.5,-442.5 164.5,-442.5"/>
<polygon fill="none" stroke="black" points="164.5,-442.5 164.5,-459.5 214.5,-459.5 214.5,-442.5 164.5,-442.5"/>
<text text-anchor="start" x="179" y="-445.2" font-family="SimSun" font-size="14.00">常8</text>
<polygon fill="#ffffff" stroke="none" points="164.5,-425.5 164.5,-442.5 214.5,-442.5 214.5,-425.5 164.5,-425.5"/>
<polygon fill="none" stroke="black" points="164.5,-425.5 164.5,-442.5 214.5,-442.5 214.5,-425.5 164.5,-425.5"/>
<text text-anchor="start" x="175.25" y="-428.2" font-family="SimSun" font-size="14.00">正性</text>
</a>
</g>
</g>
<!-- 120042&#45;&gt;130046 -->
<g id="edge17" class="edge">
<title>120042&#45;&gt;130046</title>
<path fill="none" stroke="black" d="M245.93,-500.67C237.15,-491.78 226.65,-481.13 217.09,-471.45"/>
<polygon fill="black" stroke="black" points="219.58,-469 210.07,-464.34 214.6,-473.92 219.58,-469"/>
</g>
<!-- 140027 -->
<g id="node14" class="node">
<title>140027</title>
<g id="a_node14"><a xlink:href="/docs/biography/行传/14/0027" xlink:title="编号：140027，，0。点击查看详情">
<polygon fill="#f0f0f0" stroke="none" points="514.5,-350.25 514.5,-367.25 564.5,-367.25 564.5,-350.25 514.5,-350.25"/>
<polygon fill="none" stroke="black" points="514.5,-350.25 514.5,-367.25 564.5,-367.25 564.5,-350.25 514.5,-350.25"/>
<text text-anchor="start" x="529" y="-352.95" font-family="SimSun" font-size="14.00">顯8</text>
<polygon fill="#ffffff" stroke="none" points="514.5,-333.25 514.5,-350.25 564.5,-350.25 564.5,-333.25 514.5,-333.25"/>
<polygon fill="none" stroke="black" points="514.5,-333.25 514.5,-350.25 564.5,-350.25 564.5,-333.25 514.5,-333.25"/>
<text text-anchor="start" x="536.12" y="-335.95" font-family="SimSun" font-size="14.00"> </text>
</a>
</g>
</g>
<!-- 130046&#45;&gt;140024 -->
<g id="edge19" class="edge">
<title>130046&#45;&gt;140024</title>
<path fill="none" stroke="black" d="M176.12,-421.59C169.14,-411.6 160.24,-399.48 151.5,-389.25 148.65,-385.91 145.56,-382.52 142.43,-379.21"/>
<polygon fill="black" stroke="black" points="145.16,-377 135.68,-372.28 140.15,-381.88 145.16,-377"/>
</g>
<!-- 130046&#45;&gt;140030 -->
<g id="edge1" class="edge">
<title>130046&#45;&gt;140030</title>
<path fill="none" stroke="gray" stroke-dasharray="5,2" d="M156.55,-427.42C143.58,-421.09 128.95,-412.9 117,-403.5 110.38,-398.29 111.03,-394.57 104.5,-389.25 98.3,-384.2 91.34,-379.44 84.31,-375.1"/>
<polygon fill="gray" stroke="gray" points="86.45,-372.3 76.05,-370.23 82.89,-378.33 86.45,-372.3"/>
<text text-anchor="middle" x="134.25" y="-390.2" font-family="Times New Roman,serif" font-size="14.00" fill="gray">出继</text>
</g>
<!-- 140028 -->
<g id="node21" class="node">
<title>140028</title>
<g id="a_node21"><a xlink:href="/docs/biography/行传/14/0028" xlink:title="编号：140028，塤，車方&#45;&#45;&gt;山干。点击查看详情">
<polygon fill="#f0f0f0" stroke="none" points="304,-350.25 304,-367.25 363,-367.25 363,-350.25 304,-350.25"/>
<polygon fill="none" stroke="darkred" points="304,-350.25 304,-367.25 363,-367.25 363,-350.25 304,-350.25"/>
<text text-anchor="start" x="323" y="-352.95" font-family="SimSun" font-size="14.00" fill="#8b0000">顯9</text>
<polygon fill="#ffffff" stroke="none" points="304,-333.25 304,-350.25 363,-350.25 363,-333.25 304,-333.25"/>
<polygon fill="none" stroke="darkred" points="304,-333.25 304,-350.25 363,-350.25 363,-333.25 304,-333.25"/>
<text text-anchor="start" x="305" y="-335.95" font-family="SimSun" font-size="14.00" fill="#8b0000">【山干】</text>
</a>
</g>
</g>
<!-- 130046&#45;&gt;140028 -->
<g id="edge21" class="edge">
<title>130046&#45;&gt;140028</title>
<path fill="none" stroke="black" d="M221.1,-421.69C242.02,-408.59 269.65,-391.26 292.29,-377.08"/>
<polygon fill="black" stroke="black" points="294.08,-380.09 300.69,-371.81 290.36,-374.16 294.08,-380.09"/>
</g>
<!-- 140025 -->
<g id="node23" class="node">
<title>140025</title>
<g id="a_node23"><a xlink:href="/docs/biography/行传/14/0025" xlink:title="编号：140025，墀，0。点击查看详情">
<polygon fill="#f0f0f0" stroke="none" points="160,-350.25 160,-367.25 219,-367.25 219,-350.25 160,-350.25"/>
<polygon fill="none" stroke="darkred" points="160,-350.25 160,-367.25 219,-367.25 219,-350.25 160,-350.25"/>
<text text-anchor="start" x="179" y="-352.95" font-family="SimSun" font-size="14.00" fill="#8b0000">顯6</text>
<polygon fill="#ffffff" stroke="none" points="160,-333.25 160,-350.25 219,-350.25 219,-333.25 160,-333.25"/>
<polygon fill="none" stroke="darkred" points="160,-333.25 160,-350.25 219,-350.25 219,-333.25 160,-333.25"/>
<text text-anchor="start" x="161" y="-335.95" font-family="SimSun" font-size="14.00" fill="#8b0000">【車方】</text>
</a>
</g>
</g>
<!-- 130046&#45;&gt;140025 -->
<g id="edge20" class="edge">
<title>130046&#45;&gt;140025</title>
<path fill="none" stroke="black" d="M189.5,-421.92C189.5,-410.41 189.5,-395.59 189.5,-382.5"/>
<polygon fill="black" stroke="black" points="193,-382.62 189.5,-372.62 186,-382.62 193,-382.62"/>
</g>
<!-- 150052 -->
<g id="node25" class="node">
<title>150052</title>
<g id="a_node25"><a xlink:href="/docs/biography/行传/15/0052" xlink:title="编号：150052，，0。点击查看详情">
<polygon fill="#f0f0f0" stroke="none" points="219.5,-258 219.5,-275 269.5,-275 269.5,-258 219.5,-258"/>
<polygon fill="none" stroke="black" points="219.5,-258 219.5,-275 269.5,-275 269.5,-258 219.5,-258"/>
<text text-anchor="start" x="230.62" y="-260.7" font-family="SimSun" font-size="14.00">湻37</text>
<polygon fill="#ffffff" stroke="none" points="219.5,-241 219.5,-258 269.5,-258 269.5,-241 219.5,-241"/>
<polygon fill="none" stroke="black" points="219.5,-241 219.5,-258 269.5,-258 269.5,-241 219.5,-241"/>
<text text-anchor="start" x="241.12" y="-243.7" font-family="SimSun" font-size="14.00"> </text>
</a>
</g>
</g>
<!-- 140029&#45;&gt;150052 -->
<g id="edge6" class="edge">
<title>140029&#45;&gt;150052</title>
<path fill="none" stroke="blue" d="M257.81,-329.67C255.62,-318.04 252.8,-303.04 250.31,-289.85"/>
<polygon fill="blue" stroke="blue" points="253.81,-289.52 248.52,-280.34 246.93,-290.82 253.81,-289.52"/>
<text text-anchor="middle" x="271.27" y="-297.95" font-family="Times New Roman,serif" font-size="14.00" fill="blue">承继</text>
</g>
<!-- 110026&#45;&gt;120041 -->
<g id="edge22" class="edge">
<title>110026&#45;&gt;120041</title>
<path fill="none" stroke="black" d="M243.61,-579.67C233.6,-570.6 221.57,-559.7 210.71,-549.87"/>
<polygon fill="black" stroke="black" points="213.2,-547.4 203.44,-543.28 208.5,-552.59 213.2,-547.4"/>
</g>
<!-- 110026&#45;&gt;120042 -->
<g id="edge23" class="edge">
<title>110026&#45;&gt;120042</title>
<path fill="none" stroke="black" d="M265.5,-579.67C265.5,-571.77 265.5,-562.48 265.5,-553.71"/>
<polygon fill="black" stroke="black" points="269,-553.78 265.5,-543.78 262,-553.78 269,-553.78"/>
</g>
<!-- 110029 -->
<g id="node31" class="node">
<title>110029</title>
<g id="a_node31"><a xlink:href="/docs/biography/行传/11/0029" xlink:title="编号：110029，駿，0。点击查看详情">
<polygon fill="#f0f0f0" stroke="none" points="432.5,-600.5 432.5,-617.5 482.5,-617.5 482.5,-600.5 432.5,-600.5"/>
<polygon fill="none" stroke="black" points="432.5,-600.5 432.5,-617.5 482.5,-617.5 482.5,-600.5 432.5,-600.5"/>
<text text-anchor="start" x="447" y="-603.2" font-family="SimSun" font-size="14.00">俊7</text>
<polygon fill="#ffffff" stroke="none" points="432.5,-583.5 432.5,-600.5 482.5,-600.5 482.5,-583.5 432.5,-583.5"/>
<polygon fill="none" stroke="black" points="432.5,-583.5 432.5,-600.5 482.5,-600.5 482.5,-583.5 432.5,-583.5"/>
<text text-anchor="start" x="450.38" y="-586.2" font-family="SimSun" font-size="14.00">駿</text>
</a>
</g>
</g>
<!-- 100026&#45;&gt;110029 -->
<g id="edge24" class="edge">
<title>100026&#45;&gt;110029</title>
<path fill="none" stroke="black" d="M443.39,-658.67C445.37,-650.68 447.69,-641.27 449.87,-632.41"/>
<polygon fill="black" stroke="black" points="453.26,-633.28 452.26,-622.73 446.47,-631.6 453.26,-633.28"/>
</g>
<!-- 130040 -->
<g id="node22" class="node">
<title>130040</title>
<g id="a_node22"><a xlink:href="/docs/biography/行传/13/0040" xlink:title="编号：130040，惟操，0。点击查看详情">
<polygon fill="#f0f0f0" stroke="none" points="436.5,-442.5 436.5,-459.5 486.5,-459.5 486.5,-442.5 436.5,-442.5"/>
<polygon fill="none" stroke="black" points="436.5,-442.5 436.5,-459.5 486.5,-459.5 486.5,-442.5 436.5,-442.5"/>
<text text-anchor="start" x="451" y="-445.2" font-family="SimSun" font-size="14.00">常2</text>
<polygon fill="#ffffff" stroke="none" points="436.5,-425.5 436.5,-442.5 486.5,-442.5 486.5,-425.5 436.5,-425.5"/>
<polygon fill="none" stroke="black" points="436.5,-425.5 436.5,-442.5 486.5,-442.5 486.5,-425.5 436.5,-425.5"/>
<text text-anchor="start" x="447.25" y="-428.2" font-family="SimSun" font-size="14.00">惟操</text>
</a>
</g>
</g>
<!-- 130040&#45;&gt;140027 -->
<g id="edge27" class="edge">
<title>130040&#45;&gt;140027</title>
<path fill="none" stroke="black" d="M478.42,-421.92C489.08,-409.58 503.02,-393.46 514.89,-379.72"/>
<polygon fill="black" stroke="black" points="517.46,-382.11 521.35,-372.25 512.16,-377.53 517.46,-382.11"/>
</g>
<!-- 140022 -->
<g id="node24" class="node">
<title>140022</title>
<g id="a_node24"><a xlink:href="/docs/biography/行传/14/0022" xlink:title="编号：140022，，0。点击查看详情">
<polygon fill="#f0f0f0" stroke="none" points="380.5,-350.25 380.5,-367.25 430.5,-367.25 430.5,-350.25 380.5,-350.25"/>
<polygon fill="none" stroke="black" points="380.5,-350.25 380.5,-367.25 430.5,-367.25 430.5,-350.25 380.5,-350.25"/>
<text text-anchor="start" x="395" y="-352.95" font-family="SimSun" font-size="14.00">顯3</text>
<polygon fill="#ffffff" stroke="none" points="380.5,-333.25 380.5,-350.25 430.5,-350.25 430.5,-333.25 380.5,-333.25"/>
<polygon fill="none" stroke="black" points="380.5,-333.25 380.5,-350.25 430.5,-350.25 430.5,-333.25 380.5,-333.25"/>
<text text-anchor="start" x="402.12" y="-335.95" font-family="SimSun" font-size="14.00"> </text>
</a>
</g>
</g>
<!-- 130040&#45;&gt;140022 -->
<g id="edge25" class="edge">
<title>130040&#45;&gt;140022</title>
<path fill="none" stroke="black" d="M449.35,-421.92C441.84,-409.82 432.07,-394.07 423.66,-380.51"/>
<polygon fill="black" stroke="black" points="426.87,-379.04 418.62,-372.39 420.92,-382.73 426.87,-379.04"/>
</g>
<!-- 140026 -->
<g id="node32" class="node">
<title>140026</title>
<g id="a_node32"><a xlink:href="/docs/biography/行传/14/0026" xlink:title="编号：140026，正，0。点击查看详情">
<polygon fill="#f0f0f0" stroke="none" points="447.5,-350.25 447.5,-367.25 497.5,-367.25 497.5,-350.25 447.5,-350.25"/>
<polygon fill="none" stroke="black" points="447.5,-350.25 447.5,-367.25 497.5,-367.25 497.5,-350.25 447.5,-350.25"/>
<text text-anchor="start" x="462" y="-352.95" font-family="SimSun" font-size="14.00">顯7</text>
<polygon fill="#ffffff" stroke="none" points="447.5,-333.25 447.5,-350.25 497.5,-350.25 497.5,-333.25 447.5,-333.25"/>
<polygon fill="none" stroke="black" points="447.5,-333.25 447.5,-350.25 497.5,-350.25 497.5,-333.25 447.5,-333.25"/>
<text text-anchor="start" x="465.38" y="-335.95" font-family="SimSun" font-size="14.00">正</text>
</a>
</g>
</g>
<!-- 130040&#45;&gt;140026 -->
<g id="edge26" class="edge">
<title>130040&#45;&gt;140026</title>
<path fill="none" stroke="black" d="M463.89,-421.92C465.29,-410.41 467.1,-395.59 468.69,-382.5"/>
<polygon fill="black" stroke="black" points="472.16,-382.96 469.9,-372.61 465.21,-382.11 472.16,-382.96"/>
</g>
<!-- 140025&#45;&gt;150052 -->
<g id="edge5" class="edge">
<title>140025&#45;&gt;150052</title>
<path fill="none" stroke="gray" stroke-dasharray="5,2" d="M199.17,-329.28C204.17,-319.38 210.57,-307.36 217,-297 218.83,-294.05 220.81,-291.03 222.85,-288.04"/>
<polygon fill="gray" stroke="gray" points="225.63,-290.18 228.53,-279.99 219.9,-286.15 225.63,-290.18"/>
<text text-anchor="middle" x="234.25" y="-297.95" font-family="Times New Roman,serif" font-size="14.00" fill="gray">出继</text>
</g>
<!-- 140025&#45;&gt;150025 -->
<g id="edge3" class="edge">
<title>140025&#45;&gt;150025</title>
<path fill="none" stroke="gray" stroke-dasharray="5,2" d="M178.65,-329.67C172.01,-317.69 163.39,-302.12 155.93,-288.65"/>
<polygon fill="gray" stroke="gray" points="159.14,-287.23 151.23,-280.18 153.02,-290.62 159.14,-287.23"/>
<text text-anchor="middle" x="184.74" y="-297.95" font-family="Times New Roman,serif" font-size="14.00" fill="gray">出继</text>
</g>
<!-- 160123 -->
<g id="node29" class="node">
<title>160123</title>
<g id="a_node29"><a xlink:href="/docs/biography/行传/16/0123" xlink:title="编号：160123，宗興，前陳&#45;&#45;&gt;車方。点击查看详情">
<polygon fill="#f0f0f0" stroke="none" points="219.5,-179 219.5,-196 269.5,-196 269.5,-179 219.5,-179"/>
<polygon fill="none" stroke="black" points="219.5,-179 219.5,-196 269.5,-196 269.5,-179 219.5,-179"/>
<text text-anchor="start" x="230.62" y="-181.7" font-family="SimSun" font-size="14.00">厚69</text>
<polygon fill="#ffffff" stroke="none" points="219.5,-162 219.5,-179 269.5,-179 269.5,-162 219.5,-162"/>
<polygon fill="none" stroke="black" points="219.5,-162 219.5,-179 269.5,-179 269.5,-162 219.5,-162"/>
<text text-anchor="start" x="230.25" y="-164.7" font-family="SimSun" font-size="14.00">宗興</text>
</a>
</g>
</g>
<!-- 150052&#45;&gt;160123 -->
<g id="edge28" class="edge">
<title>150052&#45;&gt;160123</title>
<path fill="none" stroke="black" d="M244.5,-237.17C244.5,-229.27 244.5,-219.98 244.5,-211.21"/>
<polygon fill="black" stroke="black" points="248,-211.28 244.5,-201.28 241,-211.28 248,-211.28"/>
</g>
<!-- 170257 -->
<g id="node26" class="node">
<title>170257</title>
<g id="a_node26"><a xlink:href="/docs/biography/行传/17/0257" xlink:title="编号：170257，★，0。点击查看详情">
<polygon fill="#f0f0f0" stroke="none" points="286.5,-100 286.5,-117 336.5,-117 336.5,-100 286.5,-100"/>
<polygon fill="none" stroke="black" points="286.5,-100 286.5,-117 336.5,-117 336.5,-100 286.5,-100"/>
<text text-anchor="start" x="294.25" y="-102.7" font-family="SimSun" font-size="14.00">魁145</text>
<polygon fill="#ffffff" stroke="none" points="286.5,-83 286.5,-100 336.5,-100 336.5,-83 286.5,-83"/>
<polygon fill="none" stroke="black" points="286.5,-83 286.5,-100 336.5,-100 336.5,-83 286.5,-83"/>
<text text-anchor="start" x="304.38" y="-85.7" font-family="SimSun" font-size="14.00">★</text>
</a>
</g>
</g>
<!-- 120039 -->
<g id="node27" class="node">
<title>120039</title>
<g id="a_node27"><a xlink:href="/docs/biography/行传/12/0039" xlink:title="编号：120039，行，0。点击查看详情">
<polygon fill="#f0f0f0" stroke="none" points="499.5,-521.5 499.5,-538.5 549.5,-538.5 549.5,-521.5 499.5,-521.5"/>
<polygon fill="none" stroke="black" points="499.5,-521.5 499.5,-538.5 549.5,-538.5 549.5,-521.5 499.5,-521.5"/>
<text text-anchor="start" x="514" y="-524.2" font-family="SimSun" font-size="14.00">斌4</text>
<polygon fill="#ffffff" stroke="none" points="499.5,-504.5 499.5,-521.5 549.5,-521.5 549.5,-504.5 499.5,-504.5"/>
<polygon fill="none" stroke="black" points="499.5,-504.5 499.5,-521.5 549.5,-521.5 549.5,-504.5 499.5,-504.5"/>
<text text-anchor="start" x="517.38" y="-507.2" font-family="SimSun" font-size="14.00">行</text>
</a>
</g>
</g>
<!-- 160123&#45;&gt;170256 -->
<g id="edge30" class="edge">
<title>160123&#45;&gt;170256</title>
<path fill="none" stroke="black" d="M244.5,-158.17C244.5,-150.27 244.5,-140.98 244.5,-132.21"/>
<polygon fill="black" stroke="black" points="248,-132.28 244.5,-122.28 241,-132.28 248,-132.28"/>
</g>
<!-- 160123&#45;&gt;170253 -->
<g id="edge29" class="edge">
<title>160123&#45;&gt;170253</title>
<path fill="none" stroke="black" d="M227.25,-158.17C219.59,-149.37 210.43,-138.85 202.08,-129.25"/>
<polygon fill="black" stroke="black" points="204.89,-127.15 195.69,-121.9 199.61,-131.75 204.89,-127.15"/>
</g>
<!-- 160123&#45;&gt;170257 -->
<g id="edge31" class="edge">
<title>160123&#45;&gt;170257</title>
<path fill="none" stroke="black" d="M261.75,-158.17C269.41,-149.37 278.57,-138.85 286.92,-129.25"/>
<polygon fill="black" stroke="black" points="289.39,-131.75 293.31,-121.9 284.11,-127.15 289.39,-131.75"/>
</g>
<!-- 120037 -->
<g id="node30" class="node">
<title>120037</title>
<g id="a_node30"><a xlink:href="/docs/biography/行传/12/0037" xlink:title="编号：120037，漢，0。点击查看详情">
<polygon fill="#f0f0f0" stroke="none" points="432.5,-521.5 432.5,-538.5 482.5,-538.5 482.5,-521.5 432.5,-521.5"/>
<polygon fill="none" stroke="black" points="432.5,-521.5 432.5,-538.5 482.5,-538.5 482.5,-521.5 432.5,-521.5"/>
<text text-anchor="start" x="447" y="-524.2" font-family="SimSun" font-size="14.00">斌2</text>
<polygon fill="#ffffff" stroke="none" points="432.5,-504.5 432.5,-521.5 482.5,-521.5 482.5,-504.5 432.5,-504.5"/>
<polygon fill="none" stroke="black" points="432.5,-504.5 432.5,-521.5 482.5,-521.5 482.5,-504.5 432.5,-504.5"/>
<text text-anchor="start" x="450.38" y="-507.2" font-family="SimSun" font-size="14.00">漢</text>
</a>
</g>
</g>
<!-- 120037&#45;&gt;130040 -->
<g id="edge32" class="edge">
<title>120037&#45;&gt;130040</title>
<path fill="none" stroke="black" d="M458.53,-500.67C458.94,-492.77 459.42,-483.48 459.88,-474.71"/>
<polygon fill="black" stroke="black" points="463.37,-474.94 460.39,-464.77 456.38,-474.58 463.37,-474.94"/>
</g>
<!-- 110029&#45;&gt;120039 -->
<g id="edge34" class="edge">
<title>110029&#45;&gt;120039</title>
<path fill="none" stroke="black" d="M474.75,-579.67C482.41,-570.87 491.57,-560.35 499.92,-550.75"/>
<polygon fill="black" stroke="black" points="502.39,-553.25 506.31,-543.4 497.11,-548.65 502.39,-553.25"/>
</g>
<!-- 110029&#45;&gt;120037 -->
<g id="edge33" class="edge">
<title>110029&#45;&gt;120037</title>
<path fill="none" stroke="black" d="M457.5,-579.67C457.5,-571.77 457.5,-562.48 457.5,-553.71"/>
<polygon fill="black" stroke="black" points="461,-553.78 457.5,-543.78 454,-553.78 461,-553.78"/>
</g>
<!-- 140026&#45;&gt;150029 -->
<g id="edge35" class="edge">
<title>140026&#45;&gt;150029</title>
<path fill="none" stroke="black" d="M472.5,-329.67C472.5,-318.16 472.5,-303.34 472.5,-290.25"/>
<polygon fill="black" stroke="black" points="476,-290.37 472.5,-280.37 469,-290.37 476,-290.37"/>
</g>
</g>
</svg>
