<?xml version="1.0" encoding="UTF-8" standalone="no"?>
<!DOCTYPE svg PUBLIC "-//W3C//DTD SVG 1.1//EN"
 "http://www.w3.org/Graphics/SVG/1.1/DTD/svg11.dtd">
<!-- Generated by graphviz version 12.2.1 (20241206.2353)
 -->
<!-- Pages: 1 -->
<svg width="308pt" height="518pt"
 viewBox="0.00 0.00 308.00 518.00" xmlns="http://www.w3.org/2000/svg" xmlns:xlink="http://www.w3.org/1999/xlink">
<g id="graph0" class="graph" transform="scale(1 1) rotate(0) translate(4 514)">
<polygon fill="white" stroke="none" points="-4,4 -4,-514 304,-514 304,4 -4,4"/>
<!-- 110028 -->
<g id="node1" class="node">
<title>110028</title>
<g id="a_node1"><a xlink:href="/docs/biography/行传/11/0028" xlink:title="编号：110028，驊，0。点击查看详情">
<polygon fill="#f0f0f0" stroke="none" points="8,-333 8,-350 58,-350 58,-333 8,-333"/>
<polygon fill="none" stroke="black" points="8,-333 8,-350 58,-350 58,-333 8,-333"/>
<text text-anchor="start" x="22.5" y="-335.7" font-family="SimSun" font-size="14.00">俊6</text>
<polygon fill="#ffffff" stroke="none" points="8,-316 8,-333 58,-333 58,-316 8,-316"/>
<polygon fill="none" stroke="black" points="8,-316 8,-333 58,-333 58,-316 8,-316"/>
<text text-anchor="start" x="25.88" y="-318.7" font-family="SimSun" font-size="14.00">驊</text>
</a>
</g>
</g>
<!-- 120049 -->
<g id="node4" class="node">
<title>120049</title>
<g id="a_node4"><a xlink:href="/docs/biography/行传/12/0049" xlink:title="编号：120049，圻，0。点击查看详情">
<polygon fill="#f0f0f0" stroke="none" points="8,-255 8,-272 58,-272 58,-255 8,-255"/>
<polygon fill="none" stroke="black" points="8,-255 8,-272 58,-272 58,-255 8,-255"/>
<text text-anchor="start" x="19.12" y="-257.7" font-family="SimSun" font-size="14.00">斌15</text>
<polygon fill="#ffffff" stroke="none" points="8,-238 8,-255 58,-255 58,-238 8,-238"/>
<polygon fill="none" stroke="black" points="8,-238 8,-255 58,-255 58,-238 8,-238"/>
<text text-anchor="start" x="25.88" y="-240.7" font-family="SimSun" font-size="14.00">圻</text>
</a>
</g>
</g>
<!-- 110028&#45;&gt;120049 -->
<g id="edge1" class="edge">
<title>110028&#45;&gt;120049</title>
<path fill="none" stroke="black" d="M33,-312.03C33,-304.44 33,-295.6 33,-287.21"/>
<polygon fill="black" stroke="black" points="36.5,-287.35 33,-277.35 29.5,-287.35 36.5,-287.35"/>
</g>
<!-- 90030 -->
<g id="node2" class="node">
<title>90030</title>
<g id="a_node2"><a xlink:href="/docs/biography/行传/9/0030" xlink:title="编号：90030，元愷，車方&#45;&#45;&gt;上宅。点击查看详情">
<polygon fill="#f0f0f0" stroke="none" points="36.5,-489 36.5,-506 95.5,-506 95.5,-489 36.5,-489"/>
<polygon fill="none" stroke="darkred" points="36.5,-489 36.5,-506 95.5,-506 95.5,-489 36.5,-489"/>
<text text-anchor="start" x="55.5" y="-491.7" font-family="SimSun" font-size="14.00" fill="#8b0000">登1</text>
<polygon fill="#ffffff" stroke="none" points="36.5,-472 36.5,-489 95.5,-489 95.5,-472 36.5,-472"/>
<polygon fill="none" stroke="darkred" points="36.5,-472 36.5,-489 95.5,-489 95.5,-472 36.5,-472"/>
<text text-anchor="start" x="37.5" y="-474.7" font-family="SimSun" font-size="14.00" fill="#8b0000">【上宅】</text>
</a>
</g>
</g>
<!-- 100020 -->
<g id="node3" class="node">
<title>100020</title>
<g id="a_node3"><a xlink:href="/docs/biography/行传/10/0020" xlink:title="编号：100020，爽，0。点击查看详情">
<polygon fill="#f0f0f0" stroke="none" points="75,-411 75,-428 125,-428 125,-411 75,-411"/>
<polygon fill="none" stroke="black" points="75,-411 75,-428 125,-428 125,-411 75,-411"/>
<text text-anchor="start" x="89.5" y="-413.7" font-family="SimSun" font-size="14.00">福9</text>
<polygon fill="#ffffff" stroke="none" points="75,-394 75,-411 125,-411 125,-394 75,-394"/>
<polygon fill="none" stroke="black" points="75,-394 75,-411 125,-411 125,-394 75,-394"/>
<text text-anchor="start" x="92.88" y="-396.7" font-family="SimSun" font-size="14.00">爽</text>
</a>
</g>
</g>
<!-- 90030&#45;&gt;100020 -->
<g id="edge3" class="edge">
<title>90030&#45;&gt;100020</title>
<path fill="none" stroke="black" d="M74.93,-468.03C78.45,-460.18 82.56,-450.98 86.43,-442.34"/>
<polygon fill="black" stroke="black" points="89.62,-443.77 90.51,-433.22 83.23,-440.92 89.62,-443.77"/>
</g>
<!-- 100018 -->
<g id="node9" class="node">
<title>100018</title>
<g id="a_node9"><a xlink:href="/docs/biography/行传/10/0018" xlink:title="编号：100018，通，0。点击查看详情">
<polygon fill="#f0f0f0" stroke="none" points="8,-411 8,-428 58,-428 58,-411 8,-411"/>
<polygon fill="none" stroke="black" points="8,-411 8,-428 58,-428 58,-411 8,-411"/>
<text text-anchor="start" x="22.5" y="-413.7" font-family="SimSun" font-size="14.00">福7</text>
<polygon fill="#ffffff" stroke="none" points="8,-394 8,-411 58,-411 58,-394 8,-394"/>
<polygon fill="none" stroke="black" points="8,-394 8,-411 58,-411 58,-394 8,-394"/>
<text text-anchor="start" x="25.88" y="-396.7" font-family="SimSun" font-size="14.00">通</text>
</a>
</g>
</g>
<!-- 90030&#45;&gt;100018 -->
<g id="edge2" class="edge">
<title>90030&#45;&gt;100018</title>
<path fill="none" stroke="black" d="M57.33,-468.03C53.92,-460.18 49.93,-450.98 46.18,-442.34"/>
<polygon fill="black" stroke="black" points="49.41,-441 42.22,-433.22 42.99,-443.79 49.41,-441"/>
</g>
<!-- 110024 -->
<g id="node5" class="node">
<title>110024</title>
<g id="a_node5"><a xlink:href="/docs/biography/行传/11/0024" xlink:title="编号：110024，與，0。点击查看详情">
<polygon fill="#f0f0f0" stroke="none" points="75,-333 75,-350 125,-350 125,-333 75,-333"/>
<polygon fill="none" stroke="black" points="75,-333 75,-350 125,-350 125,-333 75,-333"/>
<text text-anchor="start" x="89.5" y="-335.7" font-family="SimSun" font-size="14.00">俊2</text>
<polygon fill="#ffffff" stroke="none" points="75,-316 75,-333 125,-333 125,-316 75,-316"/>
<polygon fill="none" stroke="black" points="75,-316 75,-333 125,-333 125,-316 75,-316"/>
<text text-anchor="start" x="92.88" y="-318.7" font-family="SimSun" font-size="14.00">與</text>
</a>
</g>
</g>
<!-- 100020&#45;&gt;110024 -->
<g id="edge4" class="edge">
<title>100020&#45;&gt;110024</title>
<path fill="none" stroke="black" d="M100,-390.03C100,-382.44 100,-373.6 100,-365.21"/>
<polygon fill="black" stroke="black" points="103.5,-365.35 100,-355.35 96.5,-365.35 103.5,-365.35"/>
</g>
<!-- 110030 -->
<g id="node8" class="node">
<title>110030</title>
<g id="a_node8"><a xlink:href="/docs/biography/行传/11/0030" xlink:title="编号：110030，驑，0。点击查看详情">
<polygon fill="#f0f0f0" stroke="none" points="142,-333 142,-350 192,-350 192,-333 142,-333"/>
<polygon fill="none" stroke="black" points="142,-333 142,-350 192,-350 192,-333 142,-333"/>
<text text-anchor="start" x="156.5" y="-335.7" font-family="SimSun" font-size="14.00">俊8</text>
<polygon fill="#ffffff" stroke="none" points="142,-316 142,-333 192,-333 192,-316 142,-316"/>
<polygon fill="none" stroke="black" points="142,-316 142,-333 192,-333 192,-316 142,-316"/>
<text text-anchor="start" x="159.88" y="-318.7" font-family="SimSun" font-size="14.00">驑</text>
</a>
</g>
</g>
<!-- 100020&#45;&gt;110030 -->
<g id="edge5" class="edge">
<title>100020&#45;&gt;110030</title>
<path fill="none" stroke="black" d="M117.6,-390.03C125.07,-381.57 133.9,-371.55 142.02,-362.34"/>
<polygon fill="black" stroke="black" points="144.53,-364.79 148.51,-354.97 139.27,-360.16 144.53,-364.79"/>
</g>
<!-- 120046 -->
<g id="node6" class="node">
<title>120046</title>
<g id="a_node6"><a xlink:href="/docs/biography/行传/12/0046" xlink:title="编号：120046，渝淮，0。点击查看详情">
<polygon fill="#f0f0f0" stroke="none" points="175,-255 175,-272 225,-272 225,-255 175,-255"/>
<polygon fill="none" stroke="black" points="175,-255 175,-272 225,-272 225,-255 175,-255"/>
<text text-anchor="start" x="186.12" y="-257.7" font-family="SimSun" font-size="14.00">斌12</text>
<polygon fill="#ffffff" stroke="none" points="175,-238 175,-255 225,-255 225,-238 175,-238"/>
<polygon fill="none" stroke="black" points="175,-238 175,-255 225,-255 225,-238 175,-238"/>
<text text-anchor="start" x="185.75" y="-240.7" font-family="SimSun" font-size="14.00">渝淮</text>
</a>
</g>
</g>
<!-- 130057 -->
<g id="node7" class="node">
<title>130057</title>
<g id="a_node7"><a xlink:href="/docs/biography/行传/13/0057" xlink:title="编号：130057，梓，0。点击查看详情">
<polygon fill="#f0f0f0" stroke="none" points="175,-177 175,-194 225,-194 225,-177 175,-177"/>
<polygon fill="none" stroke="black" points="175,-177 175,-194 225,-194 225,-177 175,-177"/>
<text text-anchor="start" x="186.12" y="-179.7" font-family="SimSun" font-size="14.00">常19</text>
<polygon fill="#ffffff" stroke="none" points="175,-160 175,-177 225,-177 225,-160 175,-160"/>
<polygon fill="none" stroke="black" points="175,-160 175,-177 225,-177 225,-160 175,-160"/>
<text text-anchor="start" x="192.88" y="-162.7" font-family="SimSun" font-size="14.00">梓</text>
</a>
</g>
</g>
<!-- 120046&#45;&gt;130057 -->
<g id="edge6" class="edge">
<title>120046&#45;&gt;130057</title>
<path fill="none" stroke="black" d="M200,-234.03C200,-226.44 200,-217.6 200,-209.21"/>
<polygon fill="black" stroke="black" points="203.5,-209.35 200,-199.35 196.5,-209.35 203.5,-209.35"/>
</g>
<!-- 140032 -->
<g id="node18" class="node">
<title>140032</title>
<g id="a_node18"><a xlink:href="/docs/biography/行传/14/0032" xlink:title="编号：140032，初，0。点击查看详情">
<polygon fill="#f0f0f0" stroke="none" points="175,-99 175,-116 225,-116 225,-99 175,-99"/>
<polygon fill="none" stroke="black" points="175,-99 175,-116 225,-116 225,-99 175,-99"/>
<text text-anchor="start" x="186.12" y="-101.7" font-family="SimSun" font-size="14.00">顯15</text>
<polygon fill="#ffffff" stroke="none" points="175,-82 175,-99 225,-99 225,-82 175,-82"/>
<polygon fill="none" stroke="black" points="175,-82 175,-99 225,-99 225,-82 175,-82"/>
<text text-anchor="start" x="192.88" y="-84.7" font-family="SimSun" font-size="14.00">初</text>
</a>
</g>
</g>
<!-- 130057&#45;&gt;140032 -->
<g id="edge7" class="edge">
<title>130057&#45;&gt;140032</title>
<path fill="none" stroke="black" d="M200,-156.03C200,-148.44 200,-139.6 200,-131.21"/>
<polygon fill="black" stroke="black" points="203.5,-131.35 200,-121.35 196.5,-131.35 203.5,-131.35"/>
</g>
<!-- 110030&#45;&gt;120046 -->
<g id="edge9" class="edge">
<title>110030&#45;&gt;120046</title>
<path fill="none" stroke="black" d="M175.67,-312.03C179.08,-304.18 183.07,-294.98 186.82,-286.34"/>
<polygon fill="black" stroke="black" points="190.01,-287.79 190.78,-277.22 183.59,-285 190.01,-287.79"/>
</g>
<!-- 120044 -->
<g id="node12" class="node">
<title>120044</title>
<g id="a_node12"><a xlink:href="/docs/biography/行传/12/0044" xlink:title="编号：120044，浩，0。点击查看详情">
<polygon fill="#f0f0f0" stroke="none" points="108,-255 108,-272 158,-272 158,-255 108,-255"/>
<polygon fill="none" stroke="black" points="108,-255 108,-272 158,-272 158,-255 108,-255"/>
<text text-anchor="start" x="119.12" y="-257.7" font-family="SimSun" font-size="14.00">斌10</text>
<polygon fill="#ffffff" stroke="none" points="108,-238 108,-255 158,-255 158,-238 108,-238"/>
<polygon fill="none" stroke="black" points="108,-238 108,-255 158,-255 158,-238 108,-238"/>
<text text-anchor="start" x="125.88" y="-240.7" font-family="SimSun" font-size="14.00">浩</text>
</a>
</g>
</g>
<!-- 110030&#45;&gt;120044 -->
<g id="edge8" class="edge">
<title>110030&#45;&gt;120044</title>
<path fill="none" stroke="black" d="M158.07,-312.03C154.55,-304.18 150.44,-294.98 146.57,-286.34"/>
<polygon fill="black" stroke="black" points="149.77,-284.92 142.49,-277.22 143.38,-287.77 149.77,-284.92"/>
</g>
<!-- 100018&#45;&gt;110028 -->
<g id="edge10" class="edge">
<title>100018&#45;&gt;110028</title>
<path fill="none" stroke="black" d="M33,-390.03C33,-382.44 33,-373.6 33,-365.21"/>
<polygon fill="black" stroke="black" points="36.5,-365.35 33,-355.35 29.5,-365.35 36.5,-365.35"/>
</g>
<!-- 130052 -->
<g id="node10" class="node">
<title>130052</title>
<g id="a_node10"><a xlink:href="/docs/biography/行传/13/0052" xlink:title="编号：130052，彬，0。点击查看详情">
<polygon fill="#f0f0f0" stroke="none" points="41,-177 41,-194 91,-194 91,-177 41,-177"/>
<polygon fill="none" stroke="black" points="41,-177 41,-194 91,-194 91,-177 41,-177"/>
<text text-anchor="start" x="52.12" y="-179.7" font-family="SimSun" font-size="14.00">常14</text>
<polygon fill="#ffffff" stroke="none" points="41,-160 41,-177 91,-177 91,-160 41,-160"/>
<polygon fill="none" stroke="black" points="41,-160 41,-177 91,-177 91,-160 41,-160"/>
<text text-anchor="start" x="58.88" y="-162.7" font-family="SimSun" font-size="14.00">彬</text>
</a>
</g>
</g>
<!-- 140031 -->
<g id="node14" class="node">
<title>140031</title>
<g id="a_node14"><a xlink:href="/docs/biography/行传/14/0031" xlink:title="编号：140031，啟，0。点击查看详情">
<polygon fill="#f0f0f0" stroke="none" points="41,-99 41,-116 91,-116 91,-99 41,-99"/>
<polygon fill="none" stroke="black" points="41,-99 41,-116 91,-116 91,-99 41,-99"/>
<text text-anchor="start" x="52.12" y="-101.7" font-family="SimSun" font-size="14.00">顯13</text>
<polygon fill="#ffffff" stroke="none" points="41,-82 41,-99 91,-99 91,-82 41,-82"/>
<polygon fill="none" stroke="black" points="41,-82 41,-99 91,-99 91,-82 41,-82"/>
<text text-anchor="start" x="58.88" y="-84.7" font-family="SimSun" font-size="14.00">啟</text>
</a>
</g>
</g>
<!-- 130052&#45;&gt;140031 -->
<g id="edge11" class="edge">
<title>130052&#45;&gt;140031</title>
<path fill="none" stroke="black" d="M66,-156.03C66,-148.44 66,-139.6 66,-131.21"/>
<polygon fill="black" stroke="black" points="69.5,-131.35 66,-121.35 62.5,-131.35 69.5,-131.35"/>
</g>
<!-- 150054 -->
<g id="node11" class="node">
<title>150054</title>
<g id="a_node11"><a xlink:href="/docs/biography/行传/15/0054" xlink:title="编号：150054，，0。点击查看详情">
<polygon fill="#f0f0f0" stroke="none" points="175,-21 175,-38 225,-38 225,-21 175,-21"/>
<polygon fill="none" stroke="black" points="175,-21 175,-38 225,-38 225,-21 175,-21"/>
<text text-anchor="start" x="186.12" y="-23.7" font-family="SimSun" font-size="14.00">湻39</text>
<polygon fill="#ffffff" stroke="none" points="175,-4 175,-21 225,-21 225,-4 175,-4"/>
<polygon fill="none" stroke="black" points="175,-4 175,-21 225,-21 225,-4 175,-4"/>
<text text-anchor="start" x="196.62" y="-6.7" font-family="SimSun" font-size="14.00"> </text>
</a>
</g>
</g>
<!-- 120044&#45;&gt;130052 -->
<g id="edge12" class="edge">
<title>120044&#45;&gt;130052</title>
<path fill="none" stroke="black" d="M115.4,-234.03C107.93,-225.57 99.1,-215.55 90.98,-206.34"/>
<polygon fill="black" stroke="black" points="93.73,-204.16 84.49,-198.97 88.47,-208.79 93.73,-204.16"/>
</g>
<!-- 130058 -->
<g id="node19" class="node">
<title>130058</title>
<g id="a_node19"><a xlink:href="/docs/biography/行传/13/0058" xlink:title="编号：130058，善男，0。点击查看详情">
<polygon fill="#f0f0f0" stroke="none" points="108,-177 108,-194 158,-194 158,-177 108,-177"/>
<polygon fill="none" stroke="black" points="108,-177 108,-194 158,-194 158,-177 108,-177"/>
<text text-anchor="start" x="119.12" y="-179.7" font-family="SimSun" font-size="14.00">常20</text>
<polygon fill="#ffffff" stroke="none" points="108,-160 108,-177 158,-177 158,-160 108,-160"/>
<polygon fill="none" stroke="black" points="108,-160 108,-177 158,-177 158,-160 108,-160"/>
<text text-anchor="start" x="118.75" y="-162.7" font-family="SimSun" font-size="14.00">善男</text>
</a>
</g>
</g>
<!-- 120044&#45;&gt;130058 -->
<g id="edge13" class="edge">
<title>120044&#45;&gt;130058</title>
<path fill="none" stroke="black" d="M133,-234.03C133,-226.44 133,-217.6 133,-209.21"/>
<polygon fill="black" stroke="black" points="136.5,-209.35 133,-199.35 129.5,-209.35 136.5,-209.35"/>
</g>
<!-- 140033 -->
<g id="node13" class="node">
<title>140033</title>
<g id="a_node13"><a xlink:href="/docs/biography/行传/14/0033" xlink:title="编号：140033，豪，0。点击查看详情">
<polygon fill="#f0f0f0" stroke="none" points="108,-99 108,-116 158,-116 158,-99 108,-99"/>
<polygon fill="none" stroke="black" points="108,-99 108,-116 158,-116 158,-99 108,-99"/>
<text text-anchor="start" x="119.12" y="-101.7" font-family="SimSun" font-size="14.00">顯16</text>
<polygon fill="#ffffff" stroke="none" points="108,-82 108,-99 158,-99 158,-82 108,-82"/>
<polygon fill="none" stroke="black" points="108,-82 108,-99 158,-99 158,-82 108,-82"/>
<text text-anchor="start" x="125.88" y="-84.7" font-family="SimSun" font-size="14.00">豪</text>
</a>
</g>
</g>
<!-- 150049 -->
<g id="node15" class="node">
<title>150049</title>
<g id="a_node15"><a xlink:href="/docs/biography/行传/15/0049" xlink:title="编号：150049，，0。点击查看详情">
<polygon fill="#f0f0f0" stroke="none" points="41,-21 41,-38 91,-38 91,-21 41,-21"/>
<polygon fill="none" stroke="black" points="41,-21 41,-38 91,-38 91,-21 41,-21"/>
<text text-anchor="start" x="52.12" y="-23.7" font-family="SimSun" font-size="14.00">湻34</text>
<polygon fill="#ffffff" stroke="none" points="41,-4 41,-21 91,-21 91,-4 41,-4"/>
<polygon fill="none" stroke="black" points="41,-4 41,-21 91,-21 91,-4 41,-4"/>
<text text-anchor="start" x="62.62" y="-6.7" font-family="SimSun" font-size="14.00"> </text>
</a>
</g>
</g>
<!-- 140031&#45;&gt;150049 -->
<g id="edge14" class="edge">
<title>140031&#45;&gt;150049</title>
<path fill="none" stroke="black" d="M66,-78.03C66,-70.44 66,-61.6 66,-53.21"/>
<polygon fill="black" stroke="black" points="69.5,-53.35 66,-43.35 62.5,-53.35 69.5,-53.35"/>
</g>
<!-- 150053 -->
<g id="node16" class="node">
<title>150053</title>
<g id="a_node16"><a xlink:href="/docs/biography/行传/15/0053" xlink:title="编号：150053，，0。点击查看详情">
<polygon fill="#f0f0f0" stroke="none" points="108,-21 108,-38 158,-38 158,-21 108,-21"/>
<polygon fill="none" stroke="black" points="108,-21 108,-38 158,-38 158,-21 108,-21"/>
<text text-anchor="start" x="119.12" y="-23.7" font-family="SimSun" font-size="14.00">湻38</text>
<polygon fill="#ffffff" stroke="none" points="108,-4 108,-21 158,-21 158,-4 108,-4"/>
<polygon fill="none" stroke="black" points="108,-4 108,-21 158,-21 158,-4 108,-4"/>
<text text-anchor="start" x="129.62" y="-6.7" font-family="SimSun" font-size="14.00"> </text>
</a>
</g>
</g>
<!-- 150055 -->
<g id="node17" class="node">
<title>150055</title>
<g id="a_node17"><a xlink:href="/docs/biography/行传/15/0055" xlink:title="编号：150055，，0。点击查看详情">
<polygon fill="#f0f0f0" stroke="none" points="242,-21 242,-38 292,-38 292,-21 242,-21"/>
<polygon fill="none" stroke="black" points="242,-21 242,-38 292,-38 292,-21 242,-21"/>
<text text-anchor="start" x="253.12" y="-23.7" font-family="SimSun" font-size="14.00">湻40</text>
<polygon fill="#ffffff" stroke="none" points="242,-4 242,-21 292,-21 292,-4 242,-4"/>
<polygon fill="none" stroke="black" points="242,-4 242,-21 292,-21 292,-4 242,-4"/>
<text text-anchor="start" x="263.62" y="-6.7" font-family="SimSun" font-size="14.00"> </text>
</a>
</g>
</g>
<!-- 140032&#45;&gt;150054 -->
<g id="edge16" class="edge">
<title>140032&#45;&gt;150054</title>
<path fill="none" stroke="black" d="M200,-78.03C200,-70.44 200,-61.6 200,-53.21"/>
<polygon fill="black" stroke="black" points="203.5,-53.35 200,-43.35 196.5,-53.35 203.5,-53.35"/>
</g>
<!-- 140032&#45;&gt;150053 -->
<g id="edge15" class="edge">
<title>140032&#45;&gt;150053</title>
<path fill="none" stroke="black" d="M182.4,-78.03C174.93,-69.57 166.1,-59.55 157.98,-50.34"/>
<polygon fill="black" stroke="black" points="160.73,-48.16 151.49,-42.97 155.47,-52.79 160.73,-48.16"/>
</g>
<!-- 140032&#45;&gt;150055 -->
<g id="edge17" class="edge">
<title>140032&#45;&gt;150055</title>
<path fill="none" stroke="black" d="M217.6,-78.03C225.07,-69.57 233.9,-59.55 242.02,-50.34"/>
<polygon fill="black" stroke="black" points="244.53,-52.79 248.51,-42.97 239.27,-48.16 244.53,-52.79"/>
</g>
<!-- 130058&#45;&gt;140033 -->
<g id="edge18" class="edge">
<title>130058&#45;&gt;140033</title>
<path fill="none" stroke="black" d="M133,-156.03C133,-148.44 133,-139.6 133,-131.21"/>
<polygon fill="black" stroke="black" points="136.5,-131.35 133,-121.35 129.5,-131.35 136.5,-131.35"/>
</g>
</g>
</svg>
