<?xml version="1.0" encoding="UTF-8" standalone="no"?>
<!DOCTYPE svg PUBLIC "-//W3C//DTD SVG 1.1//EN"
 "http://www.w3.org/Graphics/SVG/1.1/DTD/svg11.dtd">
<!-- Generated by graphviz version 12.2.1 (20241206.2353)
 -->
<!-- Title: main Pages: 1 -->
<svg width="332pt" height="634pt"
 viewBox="0.00 0.00 331.60 634.20" xmlns="http://www.w3.org/2000/svg" xmlns:xlink="http://www.w3.org/1999/xlink">
<g id="graph0" class="graph" transform="scale(1 1) rotate(0) translate(4 630.2)">
<title>main</title>
<!-- 90030 -->
<g id="node1" class="node">
<title>90030</title>
<g id="a_node1"><a xlink:href="HZ\0013.jpg" xlink:title="0|車方&#45;&#45;&gt;上宅" target="dynamic">
<polygon fill="green" stroke="black" stroke-width="0.3" points="38,-568.1 38,-625.7 95.6,-625.7 95.6,-568.1 38,-568.1"/>
<text text-anchor="middle" x="67" y="-610.5" font-family="GenWanMin TW TTF Medium" font-size="16.00">90030</text>
<polyline fill="none" stroke="black" stroke-width="0.3" points="38,-605.45 96,-605.45"/>
<text text-anchor="middle" x="67" y="-590.25" font-family="GenWanMin TW TTF Medium" font-size="16.00">登1</text>
<polyline fill="none" stroke="black" stroke-width="0.3" points="38,-585.2 96,-585.2"/>
<text text-anchor="middle" x="67" y="-570" font-family="GenWanMin TW TTF Medium" font-size="16.00">元愷</text>
</a>
</g>
</g>
<!-- 100018 -->
<g id="node2" class="node">
<title>100018</title>
<g id="a_node2"><a xlink:href="HZ\0015.jpg" xlink:title="0|0" target="dynamic">
<polygon fill="none" stroke="black" stroke-width="0.3" points="0,-473.5 0,-531.1 57.6,-531.1 57.6,-473.5 0,-473.5"/>
<text text-anchor="middle" x="29" y="-515.9" font-family="GenWanMin TW TTF Medium" font-size="16.00">100018</text>
<polyline fill="none" stroke="black" stroke-width="0.3" points="0,-510.85 58,-510.85"/>
<text text-anchor="middle" x="29" y="-495.65" font-family="GenWanMin TW TTF Medium" font-size="16.00">福7</text>
<polyline fill="none" stroke="black" stroke-width="0.3" points="0,-490.6 58,-490.6"/>
<text text-anchor="middle" x="29" y="-475.4" font-family="GenWanMin TW TTF Medium" font-size="16.00">通</text>
</a>
</g>
</g>
<!-- 90030&#45;&gt;100018 -->
<g id="edge1" class="edge">
<title>90030&#45;&gt;100018</title>
<path fill="none" stroke="black" d="M55.4,-568.12C51.38,-558.32 46.81,-547.2 42.62,-536.97"/>
<polygon fill="black" stroke="black" points="44.29,-536.42 40.77,-532.46 41.05,-537.75 44.29,-536.42"/>
</g>
<!-- 100020 -->
<g id="node3" class="node">
<title>100020</title>
<g id="a_node3"><a xlink:href="HZ\0015.jpg" xlink:title="0|0" target="dynamic">
<polygon fill="none" stroke="black" stroke-width="0.3" points="76,-473.5 76,-531.1 133.6,-531.1 133.6,-473.5 76,-473.5"/>
<text text-anchor="middle" x="105" y="-515.9" font-family="GenWanMin TW TTF Medium" font-size="16.00">100020</text>
<polyline fill="none" stroke="black" stroke-width="0.3" points="76,-510.85 134,-510.85"/>
<text text-anchor="middle" x="105" y="-495.65" font-family="GenWanMin TW TTF Medium" font-size="16.00">福9</text>
<polyline fill="none" stroke="black" stroke-width="0.3" points="76,-490.6 134,-490.6"/>
<text text-anchor="middle" x="105" y="-475.4" font-family="GenWanMin TW TTF Medium" font-size="16.00">爽</text>
</a>
</g>
</g>
<!-- 90030&#45;&gt;100020 -->
<g id="edge2" class="edge">
<title>90030&#45;&gt;100020</title>
<path fill="none" stroke="black" d="M78.2,-568.12C82.22,-558.32 86.79,-547.2 90.98,-536.97"/>
<polygon fill="black" stroke="black" points="92.55,-537.75 92.83,-532.46 89.31,-536.42 92.55,-537.75"/>
</g>
<!-- 110028 -->
<g id="node5" class="node">
<title>110028</title>
<g id="a_node5"><a xlink:href="HZ\0017.jpg" xlink:title="0|0" target="dynamic">
<polygon fill="none" stroke="black" stroke-width="0.3" points="0,-378.9 0,-436.5 57.6,-436.5 57.6,-378.9 0,-378.9"/>
<text text-anchor="middle" x="29" y="-421.3" font-family="GenWanMin TW TTF Medium" font-size="16.00">110028</text>
<polyline fill="none" stroke="black" stroke-width="0.3" points="0,-416.25 58,-416.25"/>
<text text-anchor="middle" x="29" y="-401.05" font-family="GenWanMin TW TTF Medium" font-size="16.00">俊6</text>
<polyline fill="none" stroke="black" stroke-width="0.3" points="0,-396 58,-396"/>
<text text-anchor="middle" x="29" y="-380.8" font-family="GenWanMin TW TTF Medium" font-size="16.00">驊</text>
</a>
</g>
</g>
<!-- 100018&#45;&gt;110028 -->
<g id="edge4" class="edge">
<title>100018&#45;&gt;110028</title>
<path fill="none" stroke="black" d="M28.8,-473.52C28.8,-463.9 28.8,-453.01 28.8,-442.94"/>
<polygon fill="black" stroke="black" points="30.55,-442.98 28.8,-437.98 27.05,-442.98 30.55,-442.98"/>
</g>
<!-- 110024 -->
<g id="node4" class="node">
<title>110024</title>
<g id="a_node4"><a xlink:href="HZ\0017.jpg" xlink:title="刊誤福5|0" target="dynamic">
<polygon fill="none" stroke="black" stroke-width="0.3" points="76,-378.9 76,-436.5 133.6,-436.5 133.6,-378.9 76,-378.9"/>
<text text-anchor="middle" x="105" y="-421.3" font-family="GenWanMin TW TTF Medium" font-size="16.00">110024</text>
<polyline fill="none" stroke="black" stroke-width="0.3" points="76,-416.25 134,-416.25"/>
<text text-anchor="middle" x="105" y="-401.05" font-family="GenWanMin TW TTF Medium" font-size="16.00">俊2</text>
<polyline fill="none" stroke="black" stroke-width="0.3" points="76,-396 134,-396"/>
<text text-anchor="middle" x="105" y="-380.8" font-family="GenWanMin TW TTF Medium" font-size="16.00">與</text>
</a>
</g>
</g>
<!-- 100020&#45;&gt;110024 -->
<g id="edge3" class="edge">
<title>100020&#45;&gt;110024</title>
<path fill="none" stroke="black" d="M104.8,-473.52C104.8,-463.9 104.8,-453.01 104.8,-442.94"/>
<polygon fill="black" stroke="black" points="106.55,-442.98 104.8,-437.98 103.05,-442.98 106.55,-442.98"/>
</g>
<!-- 110030 -->
<g id="node6" class="node">
<title>110030</title>
<g id="a_node6"><a xlink:href="HZ\0017.jpg" xlink:title="248|0" target="dynamic">
<polygon fill="none" stroke="black" stroke-width="0.3" points="152,-378.9 152,-436.5 209.6,-436.5 209.6,-378.9 152,-378.9"/>
<text text-anchor="middle" x="181" y="-421.3" font-family="GenWanMin TW TTF Medium" font-size="16.00">110030</text>
<polyline fill="none" stroke="black" stroke-width="0.3" points="152,-416.25 210,-416.25"/>
<text text-anchor="middle" x="181" y="-401.05" font-family="GenWanMin TW TTF Medium" font-size="16.00">俊8</text>
<polyline fill="none" stroke="black" stroke-width="0.3" points="152,-396 210,-396"/>
<text text-anchor="middle" x="181" y="-380.8" font-family="GenWanMin TW TTF Medium" font-size="16.00">驑</text>
</a>
</g>
</g>
<!-- 100020&#45;&gt;110030 -->
<g id="edge5" class="edge">
<title>100020&#45;&gt;110030</title>
<path fill="none" stroke="black" d="M127.6,-473.52C135.94,-463.35 145.46,-451.76 154.11,-441.22"/>
<polygon fill="black" stroke="black" points="155.23,-442.61 157.05,-437.63 152.53,-440.39 155.23,-442.61"/>
</g>
<!-- 120049 -->
<g id="node9" class="node">
<title>120049</title>
<g id="a_node9"><a xlink:href="HZ\0022.jpg" xlink:title="0|0" target="dynamic">
<polygon fill="none" stroke="black" stroke-width="0.3" points="0,-284.3 0,-341.9 57.6,-341.9 57.6,-284.3 0,-284.3"/>
<text text-anchor="middle" x="29" y="-326.7" font-family="GenWanMin TW TTF Medium" font-size="16.00">120049</text>
<polyline fill="none" stroke="black" stroke-width="0.3" points="0,-321.65 58,-321.65"/>
<text text-anchor="middle" x="29" y="-306.45" font-family="GenWanMin TW TTF Medium" font-size="16.00">斌15</text>
<polyline fill="none" stroke="black" stroke-width="0.3" points="0,-301.4 58,-301.4"/>
<text text-anchor="middle" x="29" y="-286.2" font-family="GenWanMin TW TTF Medium" font-size="16.00">圻</text>
</a>
</g>
</g>
<!-- 110028&#45;&gt;120049 -->
<g id="edge8" class="edge">
<title>110028&#45;&gt;120049</title>
<path fill="none" stroke="black" d="M28.8,-378.92C28.8,-369.3 28.8,-358.41 28.8,-348.34"/>
<polygon fill="black" stroke="black" points="30.55,-348.38 28.8,-343.38 27.05,-348.38 30.55,-348.38"/>
</g>
<!-- 120044 -->
<g id="node7" class="node">
<title>120044</title>
<g id="a_node7"><a xlink:href="HZ\0021.jpg" xlink:title="0|0" target="dynamic">
<polygon fill="none" stroke="black" stroke-width="0.3" points="114,-284.3 114,-341.9 171.6,-341.9 171.6,-284.3 114,-284.3"/>
<text text-anchor="middle" x="143" y="-326.7" font-family="GenWanMin TW TTF Medium" font-size="16.00">120044</text>
<polyline fill="none" stroke="black" stroke-width="0.3" points="114,-321.65 172,-321.65"/>
<text text-anchor="middle" x="143" y="-306.45" font-family="GenWanMin TW TTF Medium" font-size="16.00">斌10</text>
<polyline fill="none" stroke="black" stroke-width="0.3" points="114,-301.4 172,-301.4"/>
<text text-anchor="middle" x="143" y="-286.2" font-family="GenWanMin TW TTF Medium" font-size="16.00">浩</text>
</a>
</g>
</g>
<!-- 110030&#45;&gt;120044 -->
<g id="edge6" class="edge">
<title>110030&#45;&gt;120044</title>
<path fill="none" stroke="black" d="M169.4,-378.92C165.38,-369.12 160.81,-358 156.62,-347.77"/>
<polygon fill="black" stroke="black" points="158.29,-347.22 154.77,-343.26 155.05,-348.55 158.29,-347.22"/>
</g>
<!-- 120046 -->
<g id="node8" class="node">
<title>120046</title>
<g id="a_node8"><a xlink:href="HZ\0021.jpg" xlink:title="0|0" target="dynamic">
<polygon fill="none" stroke="black" stroke-width="0.3" points="190,-284.3 190,-341.9 247.6,-341.9 247.6,-284.3 190,-284.3"/>
<text text-anchor="middle" x="219" y="-326.7" font-family="GenWanMin TW TTF Medium" font-size="16.00">120046</text>
<polyline fill="none" stroke="black" stroke-width="0.3" points="190,-321.65 248,-321.65"/>
<text text-anchor="middle" x="219" y="-306.45" font-family="GenWanMin TW TTF Medium" font-size="16.00">斌12</text>
<polyline fill="none" stroke="black" stroke-width="0.3" points="190,-301.4 248,-301.4"/>
<text text-anchor="middle" x="219" y="-286.2" font-family="GenWanMin TW TTF Medium" font-size="16.00">渝淮</text>
</a>
</g>
</g>
<!-- 110030&#45;&gt;120046 -->
<g id="edge7" class="edge">
<title>110030&#45;&gt;120046</title>
<path fill="none" stroke="black" d="M192.2,-378.92C196.22,-369.12 200.79,-358 204.98,-347.77"/>
<polygon fill="black" stroke="black" points="206.55,-348.55 206.83,-343.26 203.31,-347.22 206.55,-348.55"/>
</g>
<!-- 130052 -->
<g id="node10" class="node">
<title>130052</title>
<g id="a_node10"><a xlink:href="HZ\0026.jpg" xlink:title="0|0" target="dynamic">
<polygon fill="none" stroke="black" stroke-width="0.3" points="38,-189.7 38,-247.3 95.6,-247.3 95.6,-189.7 38,-189.7"/>
<text text-anchor="middle" x="67" y="-232.1" font-family="GenWanMin TW TTF Medium" font-size="16.00">130052</text>
<polyline fill="none" stroke="black" stroke-width="0.3" points="38,-227.05 96,-227.05"/>
<text text-anchor="middle" x="67" y="-211.85" font-family="GenWanMin TW TTF Medium" font-size="16.00">常14</text>
<polyline fill="none" stroke="black" stroke-width="0.3" points="38,-206.8 96,-206.8"/>
<text text-anchor="middle" x="67" y="-191.6" font-family="GenWanMin TW TTF Medium" font-size="16.00">彬</text>
</a>
</g>
</g>
<!-- 120044&#45;&gt;130052 -->
<g id="edge9" class="edge">
<title>120044&#45;&gt;130052</title>
<path fill="none" stroke="black" d="M120,-284.32C111.66,-274.15 102.14,-262.56 93.49,-252.02"/>
<polygon fill="black" stroke="black" points="95.07,-251.19 90.55,-248.43 92.37,-253.41 95.07,-251.19"/>
</g>
<!-- 130058 -->
<g id="node12" class="node">
<title>130058</title>
<g id="a_node12"><a xlink:href="HZ\0026.jpg" xlink:title="0|0" target="dynamic">
<polygon fill="none" stroke="black" stroke-width="0.3" points="114,-189.7 114,-247.3 171.6,-247.3 171.6,-189.7 114,-189.7"/>
<text text-anchor="middle" x="143" y="-232.1" font-family="GenWanMin TW TTF Medium" font-size="16.00">130058</text>
<polyline fill="none" stroke="black" stroke-width="0.3" points="114,-227.05 172,-227.05"/>
<text text-anchor="middle" x="143" y="-211.85" font-family="GenWanMin TW TTF Medium" font-size="16.00">常20</text>
<polyline fill="none" stroke="black" stroke-width="0.3" points="114,-206.8 172,-206.8"/>
<text text-anchor="middle" x="143" y="-191.6" font-family="GenWanMin TW TTF Medium" font-size="16.00">善男</text>
</a>
</g>
</g>
<!-- 120044&#45;&gt;130058 -->
<g id="edge11" class="edge">
<title>120044&#45;&gt;130058</title>
<path fill="none" stroke="black" d="M142.8,-284.32C142.8,-274.7 142.8,-263.81 142.8,-253.74"/>
<polygon fill="black" stroke="black" points="144.55,-253.78 142.8,-248.78 141.05,-253.78 144.55,-253.78"/>
</g>
<!-- 130057 -->
<g id="node11" class="node">
<title>130057</title>
<g id="a_node11"><a xlink:href="HZ\0026.jpg" xlink:title="0|0" target="dynamic">
<polygon fill="none" stroke="black" stroke-width="0.3" points="190,-189.7 190,-247.3 247.6,-247.3 247.6,-189.7 190,-189.7"/>
<text text-anchor="middle" x="219" y="-232.1" font-family="GenWanMin TW TTF Medium" font-size="16.00">130057</text>
<polyline fill="none" stroke="black" stroke-width="0.3" points="190,-227.05 248,-227.05"/>
<text text-anchor="middle" x="219" y="-211.85" font-family="GenWanMin TW TTF Medium" font-size="16.00">常19</text>
<polyline fill="none" stroke="black" stroke-width="0.3" points="190,-206.8 248,-206.8"/>
<text text-anchor="middle" x="219" y="-191.6" font-family="GenWanMin TW TTF Medium" font-size="16.00">梓</text>
</a>
</g>
</g>
<!-- 120046&#45;&gt;130057 -->
<g id="edge10" class="edge">
<title>120046&#45;&gt;130057</title>
<path fill="none" stroke="black" d="M218.8,-284.32C218.8,-274.7 218.8,-263.81 218.8,-253.74"/>
<polygon fill="black" stroke="black" points="220.55,-253.78 218.8,-248.78 217.05,-253.78 220.55,-253.78"/>
</g>
<!-- 140031 -->
<g id="node13" class="node">
<title>140031</title>
<g id="a_node13"><a xlink:href="HZ\0031.jpg" xlink:title="0|0" target="dynamic">
<polygon fill="none" stroke="black" stroke-width="0.3" points="38,-95.1 38,-152.7 95.6,-152.7 95.6,-95.1 38,-95.1"/>
<text text-anchor="middle" x="67" y="-137.5" font-family="GenWanMin TW TTF Medium" font-size="16.00">140031</text>
<polyline fill="none" stroke="black" stroke-width="0.3" points="38,-132.45 96,-132.45"/>
<text text-anchor="middle" x="67" y="-117.25" font-family="GenWanMin TW TTF Medium" font-size="16.00">顯13</text>
<polyline fill="none" stroke="black" stroke-width="0.3" points="38,-112.2 96,-112.2"/>
<text text-anchor="middle" x="67" y="-97" font-family="GenWanMin TW TTF Medium" font-size="16.00">啟</text>
</a>
</g>
</g>
<!-- 130052&#45;&gt;140031 -->
<g id="edge12" class="edge">
<title>130052&#45;&gt;140031</title>
<path fill="none" stroke="black" d="M66.8,-189.72C66.8,-180.1 66.8,-169.21 66.8,-159.14"/>
<polygon fill="black" stroke="black" points="68.55,-159.18 66.8,-154.18 65.05,-159.18 68.55,-159.18"/>
</g>
<!-- 140032 -->
<g id="node14" class="node">
<title>140032</title>
<g id="a_node14"><a xlink:href="HZ\0031.jpg" xlink:title="0|0" target="dynamic">
<polygon fill="none" stroke="black" stroke-width="0.3" points="190,-95.1 190,-152.7 247.6,-152.7 247.6,-95.1 190,-95.1"/>
<text text-anchor="middle" x="219" y="-137.5" font-family="GenWanMin TW TTF Medium" font-size="16.00">140032</text>
<polyline fill="none" stroke="black" stroke-width="0.3" points="190,-132.45 248,-132.45"/>
<text text-anchor="middle" x="219" y="-117.25" font-family="GenWanMin TW TTF Medium" font-size="16.00">顯15</text>
<polyline fill="none" stroke="black" stroke-width="0.3" points="190,-112.2 248,-112.2"/>
<text text-anchor="middle" x="219" y="-97" font-family="GenWanMin TW TTF Medium" font-size="16.00">初</text>
</a>
</g>
</g>
<!-- 130057&#45;&gt;140032 -->
<g id="edge13" class="edge">
<title>130057&#45;&gt;140032</title>
<path fill="none" stroke="black" d="M218.8,-189.72C218.8,-180.1 218.8,-169.21 218.8,-159.14"/>
<polygon fill="black" stroke="black" points="220.55,-159.18 218.8,-154.18 217.05,-159.18 220.55,-159.18"/>
</g>
<!-- 140033 -->
<g id="node15" class="node">
<title>140033</title>
<g id="a_node15"><a xlink:href="HZ\0031.jpg" xlink:title="刊誤常12|0" target="dynamic">
<polygon fill="none" stroke="black" stroke-width="0.3" points="114,-95.1 114,-152.7 171.6,-152.7 171.6,-95.1 114,-95.1"/>
<text text-anchor="middle" x="143" y="-137.5" font-family="GenWanMin TW TTF Medium" font-size="16.00">140033</text>
<polyline fill="none" stroke="black" stroke-width="0.3" points="114,-132.45 172,-132.45"/>
<text text-anchor="middle" x="143" y="-117.25" font-family="GenWanMin TW TTF Medium" font-size="16.00">顯16</text>
<polyline fill="none" stroke="black" stroke-width="0.3" points="114,-112.2 172,-112.2"/>
<text text-anchor="middle" x="143" y="-97" font-family="GenWanMin TW TTF Medium" font-size="16.00">豪</text>
</a>
</g>
</g>
<!-- 130058&#45;&gt;140033 -->
<g id="edge14" class="edge">
<title>130058&#45;&gt;140033</title>
<path fill="none" stroke="black" d="M142.8,-189.72C142.8,-180.1 142.8,-169.21 142.8,-159.14"/>
<polygon fill="black" stroke="black" points="144.55,-159.18 142.8,-154.18 141.05,-159.18 144.55,-159.18"/>
</g>
<!-- 150049 -->
<g id="node16" class="node">
<title>150049</title>
<g id="a_node16"><a xlink:href="HZ\0039.jpg" xlink:title="0|0" target="dynamic">
<polygon fill="none" stroke="black" stroke-width="0.3" points="38,-0.5 38,-58.1 95.6,-58.1 95.6,-0.5 38,-0.5"/>
<text text-anchor="middle" x="67" y="-43.4" font-family="GenWanMin TW TTF Medium" font-size="16.00">150049</text>
<polyline fill="none" stroke="black" stroke-width="0.3" points="38,-38.85 96,-38.85"/>
<text text-anchor="middle" x="67" y="-24.15" font-family="GenWanMin TW TTF Medium" font-size="16.00">湻34</text>
<polyline fill="none" stroke="black" stroke-width="0.3" points="38,-19.6 96,-19.6"/>
<text text-anchor="middle" x="67" y="-4.9" font-family="GenWanMin TW TTF Medium" font-size="16.00">0</text>
</a>
</g>
</g>
<!-- 140031&#45;&gt;150049 -->
<g id="edge15" class="edge">
<title>140031&#45;&gt;150049</title>
<path fill="none" stroke="black" d="M66.8,-95.12C66.8,-85.5 66.8,-74.61 66.8,-64.54"/>
<polygon fill="black" stroke="black" points="68.55,-64.58 66.8,-59.58 65.05,-64.58 68.55,-64.58"/>
</g>
<!-- 150053 -->
<g id="node17" class="node">
<title>150053</title>
<g id="a_node17"><a xlink:href="HZ\0039.jpg" xlink:title="0|0" target="dynamic">
<polygon fill="none" stroke="black" stroke-width="0.3" points="114,-0.5 114,-58.1 171.6,-58.1 171.6,-0.5 114,-0.5"/>
<text text-anchor="middle" x="143" y="-43.4" font-family="GenWanMin TW TTF Medium" font-size="16.00">150053</text>
<polyline fill="none" stroke="black" stroke-width="0.3" points="114,-38.85 172,-38.85"/>
<text text-anchor="middle" x="143" y="-24.15" font-family="GenWanMin TW TTF Medium" font-size="16.00">湻38</text>
<polyline fill="none" stroke="black" stroke-width="0.3" points="114,-19.6 172,-19.6"/>
<text text-anchor="middle" x="143" y="-4.9" font-family="GenWanMin TW TTF Medium" font-size="16.00">0</text>
</a>
</g>
</g>
<!-- 140032&#45;&gt;150053 -->
<g id="edge16" class="edge">
<title>140032&#45;&gt;150053</title>
<path fill="none" stroke="black" d="M196,-95.12C187.66,-84.95 178.14,-73.36 169.49,-62.82"/>
<polygon fill="black" stroke="black" points="171.07,-61.99 166.55,-59.23 168.37,-64.21 171.07,-61.99"/>
</g>
<!-- 150054 -->
<g id="node18" class="node">
<title>150054</title>
<g id="a_node18"><a xlink:href="HZ\0040.jpg" xlink:title="0|0" target="dynamic">
<polygon fill="none" stroke="black" stroke-width="0.3" points="190,-0.5 190,-58.1 247.6,-58.1 247.6,-0.5 190,-0.5"/>
<text text-anchor="middle" x="219" y="-43.4" font-family="GenWanMin TW TTF Medium" font-size="16.00">150054</text>
<polyline fill="none" stroke="black" stroke-width="0.3" points="190,-38.85 248,-38.85"/>
<text text-anchor="middle" x="219" y="-24.15" font-family="GenWanMin TW TTF Medium" font-size="16.00">湻39</text>
<polyline fill="none" stroke="black" stroke-width="0.3" points="190,-19.6 248,-19.6"/>
<text text-anchor="middle" x="219" y="-4.9" font-family="GenWanMin TW TTF Medium" font-size="16.00">0</text>
</a>
</g>
</g>
<!-- 140032&#45;&gt;150054 -->
<g id="edge17" class="edge">
<title>140032&#45;&gt;150054</title>
<path fill="none" stroke="black" d="M218.8,-95.12C218.8,-85.5 218.8,-74.61 218.8,-64.54"/>
<polygon fill="black" stroke="black" points="220.55,-64.58 218.8,-59.58 217.05,-64.58 220.55,-64.58"/>
</g>
<!-- 150055 -->
<g id="node19" class="node">
<title>150055</title>
<g id="a_node19"><a xlink:href="HZ\0040.jpg" xlink:title="0|0" target="dynamic">
<polygon fill="none" stroke="black" stroke-width="0.3" points="266,-0.5 266,-58.1 323.6,-58.1 323.6,-0.5 266,-0.5"/>
<text text-anchor="middle" x="295" y="-43.4" font-family="GenWanMin TW TTF Medium" font-size="16.00">150055</text>
<polyline fill="none" stroke="black" stroke-width="0.3" points="266,-38.85 324,-38.85"/>
<text text-anchor="middle" x="295" y="-24.15" font-family="GenWanMin TW TTF Medium" font-size="16.00">湻40</text>
<polyline fill="none" stroke="black" stroke-width="0.3" points="266,-19.6 324,-19.6"/>
<text text-anchor="middle" x="295" y="-4.9" font-family="GenWanMin TW TTF Medium" font-size="16.00">0</text>
</a>
</g>
</g>
<!-- 140032&#45;&gt;150055 -->
<g id="edge18" class="edge">
<title>140032&#45;&gt;150055</title>
<path fill="none" stroke="black" d="M241.6,-95.12C249.94,-84.95 259.46,-73.36 268.11,-62.82"/>
<polygon fill="black" stroke="black" points="269.23,-64.21 271.05,-59.23 266.53,-61.99 269.23,-64.21"/>
</g>
</g>
</svg>
