<?xml version="1.0" encoding="UTF-8" standalone="no"?>
<!DOCTYPE svg PUBLIC "-//W3C//DTD SVG 1.1//EN"
 "http://www.w3.org/Graphics/SVG/1.1/DTD/svg11.dtd">
<!-- Generated by graphviz version 12.2.1 (20241206.2353)
 -->
<!-- Pages: 1 -->
<svg width="777pt" height="774pt"
 viewBox="0.00 0.00 777.00 774.25" xmlns="http://www.w3.org/2000/svg" xmlns:xlink="http://www.w3.org/1999/xlink">
<g id="graph0" class="graph" transform="scale(1 1) rotate(0) translate(4 770.25)">
<polygon fill="white" stroke="none" points="-4,4 -4,-770.25 773,-770.25 773,4 -4,4"/>
<!-- 100027 -->
<g id="node1" class="node">
<title>100027</title>
<g id="a_node1"><a xlink:href="/docs/biography/行传/10/0027" xlink:title="编号：100027，讓，0。点击查看详情">
<polygon fill="#f0f0f0" stroke="none" points="350,-666.25 350,-683.25 400,-683.25 400,-666.25 350,-666.25"/>
<polygon fill="none" stroke="black" points="350,-666.25 350,-683.25 400,-683.25 400,-666.25 350,-666.25"/>
<text text-anchor="start" x="361.12" y="-668.95" font-family="SimSun" font-size="14.00">福16</text>
<polygon fill="#ffffff" stroke="none" points="350,-649.25 350,-666.25 400,-666.25 400,-649.25 350,-649.25"/>
<polygon fill="none" stroke="black" points="350,-649.25 350,-666.25 400,-666.25 400,-649.25 350,-649.25"/>
<text text-anchor="start" x="367.88" y="-651.95" font-family="SimSun" font-size="14.00">讓</text>
</a>
</g>
</g>
<!-- 110031 -->
<g id="node7" class="node">
<title>110031</title>
<g id="a_node7"><a xlink:href="/docs/biography/行传/11/0031" xlink:title="编号：110031，𡨴，0。点击查看详情">
<polygon fill="#f0f0f0" stroke="none" points="350,-586.88 350,-603.88 400,-603.88 400,-586.88 350,-586.88"/>
<polygon fill="none" stroke="black" points="350,-586.88 350,-603.88 400,-603.88 400,-586.88 350,-586.88"/>
<text text-anchor="start" x="364.5" y="-589.58" font-family="SimSun" font-size="14.00">俊9</text>
<polygon fill="#ffffff" stroke="none" points="350,-570.62 350,-586.88 400,-586.88 400,-570.62 350,-570.62"/>
<polygon fill="none" stroke="black" points="350,-570.62 350,-586.88 400,-586.88 400,-570.62 350,-570.62"/>
<text text-anchor="start" x="363" y="-572.58" font-family="SimSun" font-size="14.00">𡨴</text>
</a>
</g>
</g>
<!-- 100027&#45;&gt;110031 -->
<g id="edge2" class="edge">
<title>100027&#45;&gt;110031</title>
<path fill="none" stroke="black" d="M375,-645.42C375,-637.46 375,-628.08 375,-619.26"/>
<polygon fill="black" stroke="black" points="378.5,-619.26 375,-609.26 371.5,-619.26 378.5,-619.26"/>
</g>
<!-- 110032 -->
<g id="node8" class="node">
<title>110032</title>
<g id="a_node8"><a xlink:href="/docs/biography/行传/11/0032" xlink:title="编号：110032，澤，0。点击查看详情">
<polygon fill="#f0f0f0" stroke="none" points="554,-587.25 554,-604.25 604,-604.25 604,-587.25 554,-587.25"/>
<polygon fill="none" stroke="black" points="554,-587.25 554,-604.25 604,-604.25 604,-587.25 554,-587.25"/>
<text text-anchor="start" x="565.12" y="-589.95" font-family="SimSun" font-size="14.00">俊10</text>
<polygon fill="#ffffff" stroke="none" points="554,-570.25 554,-587.25 604,-587.25 604,-570.25 554,-570.25"/>
<polygon fill="none" stroke="black" points="554,-570.25 554,-587.25 604,-587.25 604,-570.25 554,-570.25"/>
<text text-anchor="start" x="571.88" y="-572.95" font-family="SimSun" font-size="14.00">澤</text>
</a>
</g>
</g>
<!-- 100027&#45;&gt;110032 -->
<g id="edge3" class="edge">
<title>100027&#45;&gt;110032</title>
<path fill="none" stroke="black" d="M407.78,-652.88C442.57,-639.74 497.72,-618.93 535.99,-604.48"/>
<polygon fill="black" stroke="black" points="536.77,-607.93 544.89,-601.13 534.3,-601.38 536.77,-607.93"/>
</g>
<!-- 150065 -->
<g id="node2" class="node">
<title>150065</title>
<g id="a_node2"><a xlink:href="/docs/biography/行传/15/0065" xlink:title="编号：150065，，0。点击查看详情">
<polygon fill="#f0f0f0" stroke="none" points="633,-271.25 633,-288.25 683,-288.25 683,-271.25 633,-271.25"/>
<polygon fill="none" stroke="black" points="633,-271.25 633,-288.25 683,-288.25 683,-271.25 633,-271.25"/>
<text text-anchor="start" x="644.12" y="-273.95" font-family="SimSun" font-size="14.00">敬12</text>
<polygon fill="#ffffff" stroke="none" points="633,-254.25 633,-271.25 683,-271.25 683,-254.25 633,-254.25"/>
<polygon fill="none" stroke="black" points="633,-254.25 633,-271.25 683,-271.25 683,-254.25 633,-254.25"/>
<text text-anchor="start" x="654.62" y="-256.95" font-family="SimSun" font-size="14.00"> </text>
</a>
</g>
</g>
<!-- 160044 -->
<g id="node43" class="node">
<title>160044</title>
<g id="a_node43"><a xlink:href="/docs/biography/行传/16/0044" xlink:title="编号：160044，，0。点击查看详情">
<polygon fill="#f0f0f0" stroke="none" points="641,-192.25 641,-209.25 691,-209.25 691,-192.25 641,-192.25"/>
<polygon fill="none" stroke="black" points="641,-192.25 641,-209.25 691,-209.25 691,-192.25 641,-192.25"/>
<text text-anchor="start" x="652.12" y="-194.95" font-family="SimSun" font-size="14.00">元26</text>
<polygon fill="#ffffff" stroke="none" points="641,-175.25 641,-192.25 691,-192.25 691,-175.25 641,-175.25"/>
<polygon fill="none" stroke="black" points="641,-175.25 641,-192.25 691,-192.25 691,-175.25 641,-175.25"/>
<text text-anchor="start" x="662.62" y="-177.95" font-family="SimSun" font-size="14.00"> </text>
</a>
</g>
</g>
<!-- 150065&#45;&gt;160044 -->
<g id="edge4" class="edge">
<title>150065&#45;&gt;160044</title>
<path fill="none" stroke="black" d="M660.06,-250.42C660.88,-242.52 661.85,-233.23 662.76,-224.46"/>
<polygon fill="black" stroke="black" points="666.24,-224.83 663.79,-214.52 659.28,-224.1 666.24,-224.83"/>
</g>
<!-- 140038 -->
<g id="node3" class="node">
<title>140038</title>
<g id="a_node3"><a xlink:href="/docs/biography/行传/14/0038" xlink:title="编号：140038，王+息，0。点击查看详情">
<polygon fill="#f0f0f0" stroke="none" points="176,-350.25 176,-367.25 226,-367.25 226,-350.25 176,-350.25"/>
<polygon fill="none" stroke="black" points="176,-350.25 176,-367.25 226,-367.25 226,-350.25 176,-350.25"/>
<text text-anchor="start" x="190.5" y="-352.95" font-family="SimSun" font-size="14.00">恭6</text>
<polygon fill="#ffffff" stroke="none" points="176,-333.25 176,-350.25 226,-350.25 226,-333.25 176,-333.25"/>
<polygon fill="none" stroke="black" points="176,-333.25 176,-350.25 226,-350.25 226,-333.25 176,-333.25"/>
<text text-anchor="start" x="183.38" y="-335.95" font-family="SimSun" font-size="14.00">王+息</text>
</a>
</g>
</g>
<!-- 120047 -->
<g id="node4" class="node">
<title>120047</title>
<g id="a_node4"><a xlink:href="/docs/biography/行传/12/0047" xlink:title="编号：120047，瑜，0。点击查看详情">
<polygon fill="#f0f0f0" stroke="none" points="659,-508.25 659,-525.25 709,-525.25 709,-508.25 659,-508.25"/>
<polygon fill="none" stroke="black" points="659,-508.25 659,-525.25 709,-525.25 709,-508.25 659,-508.25"/>
<text text-anchor="start" x="670.12" y="-510.95" font-family="SimSun" font-size="14.00">斌13</text>
<polygon fill="#ffffff" stroke="none" points="659,-491.25 659,-508.25 709,-508.25 709,-491.25 659,-491.25"/>
<polygon fill="none" stroke="black" points="659,-491.25 659,-508.25 709,-508.25 709,-491.25 659,-491.25"/>
<text text-anchor="start" x="676.88" y="-493.95" font-family="SimSun" font-size="14.00">瑜</text>
</a>
</g>
</g>
<!-- 130055 -->
<g id="node37" class="node">
<title>130055</title>
<g id="a_node37"><a xlink:href="/docs/biography/行传/13/0055" xlink:title="编号：130055，記，0。点击查看详情">
<polygon fill="#f0f0f0" stroke="none" points="698,-429.25 698,-446.25 748,-446.25 748,-429.25 698,-429.25"/>
<polygon fill="none" stroke="black" points="698,-429.25 698,-446.25 748,-446.25 748,-429.25 698,-429.25"/>
<text text-anchor="start" x="709.12" y="-431.95" font-family="SimSun" font-size="14.00">常17</text>
<polygon fill="#ffffff" stroke="none" points="698,-412.25 698,-429.25 748,-429.25 748,-412.25 698,-412.25"/>
<polygon fill="none" stroke="black" points="698,-412.25 698,-429.25 748,-429.25 748,-412.25 698,-412.25"/>
<text text-anchor="start" x="715.88" y="-414.95" font-family="SimSun" font-size="14.00">記</text>
</a>
</g>
</g>
<!-- 120047&#45;&gt;130055 -->
<g id="edge5" class="edge">
<title>120047&#45;&gt;130055</title>
<path fill="none" stroke="black" d="M694.04,-487.42C698.23,-479.16 703.18,-469.38 707.79,-460.27"/>
<polygon fill="black" stroke="black" points="710.91,-461.86 712.31,-451.36 704.67,-458.7 710.91,-461.86"/>
</g>
<!-- 140042 -->
<g id="node5" class="node">
<title>140042</title>
<g id="a_node5"><a xlink:href="/docs/biography/行传/14/0042" xlink:title="编号：140042，哲，0。点击查看详情">
<polygon fill="#f0f0f0" stroke="none" points="310,-350.25 310,-367.25 360,-367.25 360,-350.25 310,-350.25"/>
<polygon fill="none" stroke="black" points="310,-350.25 310,-367.25 360,-367.25 360,-350.25 310,-350.25"/>
<text text-anchor="start" x="324.5" y="-352.95" font-family="SimSun" font-size="14.00">恭9</text>
<polygon fill="#ffffff" stroke="none" points="310,-333.25 310,-350.25 360,-350.25 360,-333.25 310,-333.25"/>
<polygon fill="none" stroke="black" points="310,-333.25 310,-350.25 360,-350.25 360,-333.25 310,-333.25"/>
<text text-anchor="start" x="327.88" y="-335.95" font-family="SimSun" font-size="14.00">哲</text>
</a>
</g>
</g>
<!-- 130050 -->
<g id="node6" class="node">
<title>130050</title>
<g id="a_node6"><a xlink:href="/docs/biography/行传/13/0050" xlink:title="编号：130050，椆，0。点击查看详情">
<polygon fill="#f0f0f0" stroke="none" points="209,-429.25 209,-446.25 259,-446.25 259,-429.25 209,-429.25"/>
<polygon fill="none" stroke="black" points="209,-429.25 209,-446.25 259,-446.25 259,-429.25 209,-429.25"/>
<text text-anchor="start" x="220.12" y="-431.95" font-family="SimSun" font-size="14.00">常12</text>
<polygon fill="#ffffff" stroke="none" points="209,-412.25 209,-429.25 259,-429.25 259,-412.25 209,-412.25"/>
<polygon fill="none" stroke="black" points="209,-412.25 209,-429.25 259,-429.25 259,-412.25 209,-412.25"/>
<text text-anchor="start" x="226.88" y="-414.95" font-family="SimSun" font-size="14.00">椆</text>
</a>
</g>
</g>
<!-- 130050&#45;&gt;140038 -->
<g id="edge6" class="edge">
<title>130050&#45;&gt;140038</title>
<path fill="none" stroke="black" d="M225.5,-408.42C222,-400.25 217.86,-390.59 213.99,-381.57"/>
<polygon fill="black" stroke="black" points="217.22,-380.22 210.07,-372.4 210.79,-382.97 217.22,-380.22"/>
</g>
<!-- 120050 -->
<g id="node15" class="node">
<title>120050</title>
<g id="a_node15"><a xlink:href="/docs/biography/行传/12/0050" xlink:title="编号：120050，彥廣，0。点击查看详情">
<polygon fill="#f0f0f0" stroke="none" points="392,-508.25 392,-525.25 442,-525.25 442,-508.25 392,-508.25"/>
<polygon fill="none" stroke="black" points="392,-508.25 392,-525.25 442,-525.25 442,-508.25 392,-508.25"/>
<text text-anchor="start" x="403.12" y="-510.95" font-family="SimSun" font-size="14.00">斌16</text>
<polygon fill="#ffffff" stroke="none" points="392,-491.25 392,-508.25 442,-508.25 442,-491.25 392,-491.25"/>
<polygon fill="none" stroke="black" points="392,-491.25 392,-508.25 442,-508.25 442,-491.25 392,-491.25"/>
<text text-anchor="start" x="402.75" y="-493.95" font-family="SimSun" font-size="14.00">彥廣</text>
</a>
</g>
</g>
<!-- 110031&#45;&gt;120050 -->
<g id="edge8" class="edge">
<title>110031&#45;&gt;120050</title>
<path fill="none" stroke="black" d="M385.6,-566.82C390.15,-558.47 395.58,-548.52 400.63,-539.25"/>
<polygon fill="black" stroke="black" points="403.67,-540.99 405.39,-530.54 397.53,-537.64 403.67,-540.99"/>
</g>
<!-- 120048 -->
<g id="node38" class="node">
<title>120048</title>
<g id="a_node38"><a xlink:href="/docs/biography/行传/12/0048" xlink:title="编号：120048，彥立，0。点击查看详情">
<polygon fill="#f0f0f0" stroke="none" points="303,-508.25 303,-525.25 353,-525.25 353,-508.25 303,-508.25"/>
<polygon fill="none" stroke="black" points="303,-508.25 303,-525.25 353,-525.25 353,-508.25 303,-508.25"/>
<text text-anchor="start" x="314.12" y="-510.95" font-family="SimSun" font-size="14.00">斌14</text>
<polygon fill="#ffffff" stroke="none" points="303,-491.25 303,-508.25 353,-508.25 353,-491.25 303,-491.25"/>
<polygon fill="none" stroke="black" points="303,-491.25 303,-508.25 353,-508.25 353,-491.25 303,-491.25"/>
<text text-anchor="start" x="313.75" y="-493.95" font-family="SimSun" font-size="14.00">彥立</text>
</a>
</g>
</g>
<!-- 110031&#45;&gt;120048 -->
<g id="edge7" class="edge">
<title>110031&#45;&gt;120048</title>
<path fill="none" stroke="black" d="M363.14,-566.82C357.99,-558.38 351.84,-548.3 346.13,-538.95"/>
<polygon fill="black" stroke="black" points="349.17,-537.21 340.97,-530.5 343.2,-540.86 349.17,-537.21"/>
</g>
<!-- 110032&#45;&gt;120047 -->
<g id="edge10" class="edge">
<title>110032&#45;&gt;120047</title>
<path fill="none" stroke="black" d="M606.04,-566.42C618.78,-557.08 634.15,-545.8 647.87,-535.74"/>
<polygon fill="black" stroke="black" points="649.84,-538.64 655.83,-529.91 645.7,-533 649.84,-538.64"/>
</g>
<!-- 120045 -->
<g id="node39" class="node">
<title>120045</title>
<g id="a_node39"><a xlink:href="/docs/biography/行传/12/0045" xlink:title="编号：120045，瑊，0。点击查看详情">
<polygon fill="#f0f0f0" stroke="none" points="554,-508.25 554,-525.25 604,-525.25 604,-508.25 554,-508.25"/>
<polygon fill="none" stroke="black" points="554,-508.25 554,-525.25 604,-525.25 604,-508.25 554,-508.25"/>
<text text-anchor="start" x="565.12" y="-510.95" font-family="SimSun" font-size="14.00">斌11</text>
<polygon fill="#ffffff" stroke="none" points="554,-491.25 554,-508.25 604,-508.25 604,-491.25 554,-491.25"/>
<polygon fill="none" stroke="black" points="554,-491.25 554,-508.25 604,-508.25 604,-491.25 554,-491.25"/>
<text text-anchor="start" x="571.88" y="-493.95" font-family="SimSun" font-size="14.00">瑊</text>
</a>
</g>
</g>
<!-- 110032&#45;&gt;120045 -->
<g id="edge9" class="edge">
<title>110032&#45;&gt;120045</title>
<path fill="none" stroke="black" d="M579,-566.42C579,-558.52 579,-549.23 579,-540.46"/>
<polygon fill="black" stroke="black" points="582.5,-540.53 579,-530.53 575.5,-540.53 582.5,-540.53"/>
</g>
<!-- 170233 -->
<g id="node9" class="node">
<title>170233</title>
<g id="a_node9"><a xlink:href="/docs/biography/行传/17/0233" xlink:title="编号：170233，，0。点击查看详情">
<polygon fill="#f0f0f0" stroke="none" points="510,-100 510,-117 560,-117 560,-100 510,-100"/>
<polygon fill="none" stroke="black" points="510,-100 510,-117 560,-117 560,-100 510,-100"/>
<text text-anchor="start" x="521.12" y="-102.7" font-family="SimSun" font-size="14.00">利26</text>
<polygon fill="#ffffff" stroke="none" points="510,-83 510,-100 560,-100 560,-83 510,-83"/>
<polygon fill="none" stroke="black" points="510,-83 510,-100 560,-100 560,-83 510,-83"/>
<text text-anchor="start" x="531.62" y="-85.7" font-family="SimSun" font-size="14.00"> </text>
</a>
</g>
</g>
<!-- 180375 -->
<g id="node44" class="node">
<title>180375</title>
<g id="a_node44"><a xlink:href="/docs/biography/行传/18/0375" xlink:title="编号：180375，，0。点击查看详情">
<polygon fill="#f0f0f0" stroke="none" points="510,-21 510,-38 560,-38 560,-21 510,-21"/>
<polygon fill="none" stroke="black" points="510,-21 510,-38 560,-38 560,-21 510,-21"/>
<text text-anchor="start" x="521.12" y="-23.7" font-family="SimSun" font-size="14.00">貞52</text>
<polygon fill="#ffffff" stroke="none" points="510,-4 510,-21 560,-21 560,-4 510,-4"/>
<polygon fill="none" stroke="black" points="510,-4 510,-21 560,-21 560,-4 510,-4"/>
<text text-anchor="start" x="531.62" y="-6.7" font-family="SimSun" font-size="14.00"> </text>
</a>
</g>
</g>
<!-- 170233&#45;&gt;180375 -->
<g id="edge11" class="edge">
<title>170233&#45;&gt;180375</title>
<path fill="none" stroke="black" d="M535,-79.17C535,-71.27 535,-61.98 535,-53.21"/>
<polygon fill="black" stroke="black" points="538.5,-53.28 535,-43.28 531.5,-53.28 538.5,-53.28"/>
</g>
<!-- 170183 -->
<g id="node10" class="node">
<title>170183</title>
<g id="a_node10"><a xlink:href="/docs/biography/行传/17/0183" xlink:title="编号：170183，，0。点击查看详情">
<polygon fill="#f0f0f0" stroke="none" points="443,-100 443,-117 493,-117 493,-100 443,-100"/>
<polygon fill="none" stroke="black" points="443,-100 443,-117 493,-117 493,-100 443,-100"/>
<text text-anchor="start" x="454.12" y="-102.7" font-family="SimSun" font-size="14.00">利74</text>
<polygon fill="#ffffff" stroke="none" points="443,-83 443,-100 493,-100 493,-83 443,-83"/>
<polygon fill="none" stroke="black" points="443,-83 443,-100 493,-100 493,-83 443,-83"/>
<text text-anchor="start" x="464.62" y="-85.7" font-family="SimSun" font-size="14.00"> </text>
</a>
</g>
</g>
<!-- 130051 -->
<g id="node11" class="node">
<title>130051</title>
<g id="a_node11"><a xlink:href="/docs/biography/行传/13/0051" xlink:title="编号：130051，棋，0。点击查看详情">
<polygon fill="#f0f0f0" stroke="none" points="276,-429.25 276,-446.25 326,-446.25 326,-429.25 276,-429.25"/>
<polygon fill="none" stroke="black" points="276,-429.25 276,-446.25 326,-446.25 326,-429.25 276,-429.25"/>
<text text-anchor="start" x="287.12" y="-431.95" font-family="SimSun" font-size="14.00">常13</text>
<polygon fill="#ffffff" stroke="none" points="276,-412.25 276,-429.25 326,-429.25 326,-412.25 276,-412.25"/>
<polygon fill="none" stroke="black" points="276,-412.25 276,-429.25 326,-429.25 326,-412.25 276,-412.25"/>
<text text-anchor="start" x="293.88" y="-414.95" font-family="SimSun" font-size="14.00">棋</text>
</a>
</g>
</g>
<!-- 130051&#45;&gt;140042 -->
<g id="edge13" class="edge">
<title>130051&#45;&gt;140042</title>
<path fill="none" stroke="black" d="M309.76,-408.42C313.4,-400.16 317.72,-390.38 321.74,-381.27"/>
<polygon fill="black" stroke="black" points="324.82,-382.96 325.66,-372.4 318.42,-380.13 324.82,-382.96"/>
</g>
<!-- 140044 -->
<g id="node20" class="node">
<title>140044</title>
<g id="a_node20"><a xlink:href="/docs/biography/行传/14/0044" xlink:title="编号：140044，，0。点击查看详情">
<polygon fill="#f0f0f0" stroke="none" points="377,-350.25 377,-367.25 427,-367.25 427,-350.25 377,-350.25"/>
<polygon fill="none" stroke="black" points="377,-350.25 377,-367.25 427,-367.25 427,-350.25 377,-350.25"/>
<text text-anchor="start" x="388.12" y="-352.95" font-family="SimSun" font-size="14.00">恭11</text>
<polygon fill="#ffffff" stroke="none" points="377,-333.25 377,-350.25 427,-350.25 427,-333.25 377,-333.25"/>
<polygon fill="none" stroke="black" points="377,-333.25 377,-350.25 427,-350.25 427,-333.25 377,-333.25"/>
<text text-anchor="start" x="398.62" y="-335.95" font-family="SimSun" font-size="14.00"> </text>
</a>
</g>
</g>
<!-- 130051&#45;&gt;140044 -->
<g id="edge14" class="edge">
<title>130051&#45;&gt;140044</title>
<path fill="none" stroke="black" d="M327.01,-408.42C339.26,-399.08 354.05,-387.8 367.25,-377.74"/>
<polygon fill="black" stroke="black" points="369.04,-380.78 374.87,-371.93 364.8,-375.21 369.04,-380.78"/>
</g>
<!-- 140036 -->
<g id="node31" class="node">
<title>140036</title>
<g id="a_node31"><a xlink:href="/docs/biography/行传/14/0036" xlink:title="编号：140036，，0。点击查看详情">
<polygon fill="#f0f0f0" stroke="none" points="243,-350.25 243,-367.25 293,-367.25 293,-350.25 243,-350.25"/>
<polygon fill="none" stroke="black" points="243,-350.25 243,-367.25 293,-367.25 293,-350.25 243,-350.25"/>
<text text-anchor="start" x="257.5" y="-352.95" font-family="SimSun" font-size="14.00">恭3</text>
<polygon fill="#ffffff" stroke="none" points="243,-333.25 243,-350.25 293,-350.25 293,-333.25 243,-333.25"/>
<polygon fill="none" stroke="black" points="243,-333.25 243,-350.25 293,-350.25 293,-333.25 243,-333.25"/>
<text text-anchor="start" x="264.62" y="-335.95" font-family="SimSun" font-size="14.00"> </text>
</a>
</g>
</g>
<!-- 130051&#45;&gt;140036 -->
<g id="edge12" class="edge">
<title>130051&#45;&gt;140036</title>
<path fill="none" stroke="black" d="M292.5,-408.42C289,-400.25 284.86,-390.59 280.99,-381.57"/>
<polygon fill="black" stroke="black" points="284.22,-380.22 277.07,-372.4 277.79,-382.97 284.22,-380.22"/>
</g>
<!-- 150058 -->
<g id="node12" class="node">
<title>150058</title>
<g id="a_node12"><a xlink:href="/docs/biography/行传/15/0058" xlink:title="编号：150058，楠，0。点击查看详情">
<polygon fill="#f0f0f0" stroke="none" points="463,-271.25 463,-288.25 513,-288.25 513,-271.25 463,-271.25"/>
<polygon fill="none" stroke="black" points="463,-271.25 463,-288.25 513,-288.25 513,-271.25 463,-271.25"/>
<text text-anchor="start" x="477.5" y="-273.95" font-family="SimSun" font-size="14.00">敬3</text>
<polygon fill="#ffffff" stroke="none" points="463,-254.25 463,-271.25 513,-271.25 513,-254.25 463,-254.25"/>
<polygon fill="none" stroke="black" points="463,-254.25 463,-271.25 513,-271.25 513,-254.25 463,-254.25"/>
<text text-anchor="start" x="480.88" y="-256.95" font-family="SimSun" font-size="14.00">楠</text>
</a>
</g>
</g>
<!-- 160040 -->
<g id="node26" class="node">
<title>160040</title>
<g id="a_node26"><a xlink:href="/docs/biography/行传/16/0040" xlink:title="编号：160040，橡，0。点击查看详情">
<polygon fill="#f0f0f0" stroke="none" points="443,-192.25 443,-209.25 493,-209.25 493,-192.25 443,-192.25"/>
<polygon fill="none" stroke="black" points="443,-192.25 443,-209.25 493,-209.25 493,-192.25 443,-192.25"/>
<text text-anchor="start" x="454.12" y="-194.95" font-family="SimSun" font-size="14.00">元22</text>
<polygon fill="#ffffff" stroke="none" points="443,-175.25 443,-192.25 493,-192.25 493,-175.25 443,-175.25"/>
<polygon fill="none" stroke="black" points="443,-175.25 443,-192.25 493,-192.25 493,-175.25 443,-175.25"/>
<text text-anchor="start" x="460.88" y="-177.95" font-family="SimSun" font-size="14.00">橡</text>
</a>
</g>
</g>
<!-- 150058&#45;&gt;160040 -->
<g id="edge16" class="edge">
<title>150058&#45;&gt;160040</title>
<path fill="none" stroke="black" d="M482.85,-250.42C480.75,-242.34 478.27,-232.8 475.95,-223.87"/>
<polygon fill="black" stroke="black" points="479.42,-223.28 473.51,-214.48 472.64,-225.04 479.42,-223.28"/>
</g>
<!-- 160049 -->
<g id="node40" class="node">
<title>160049</title>
<g id="a_node40"><a xlink:href="/docs/biography/行传/16/0049" xlink:title="编号：160049，，0。点击查看详情">
<polygon fill="#f0f0f0" stroke="none" points="510,-192.25 510,-209.25 560,-209.25 560,-192.25 510,-192.25"/>
<polygon fill="none" stroke="black" points="510,-192.25 510,-209.25 560,-209.25 560,-192.25 510,-192.25"/>
<text text-anchor="start" x="521.12" y="-194.95" font-family="SimSun" font-size="14.00">元32</text>
<polygon fill="#ffffff" stroke="none" points="510,-175.25 510,-192.25 560,-192.25 560,-175.25 510,-175.25"/>
<polygon fill="none" stroke="black" points="510,-175.25 510,-192.25 560,-192.25 560,-175.25 510,-175.25"/>
<text text-anchor="start" x="531.62" y="-177.95" font-family="SimSun" font-size="14.00"> </text>
</a>
</g>
</g>
<!-- 150058&#45;&gt;160049 -->
<g id="edge17" class="edge">
<title>150058&#45;&gt;160049</title>
<path fill="none" stroke="black" d="M500.1,-250.42C505.26,-241.98 511.38,-231.95 517.04,-222.68"/>
<polygon fill="black" stroke="black" points="519.93,-224.66 522.15,-214.3 513.95,-221.02 519.93,-224.66"/>
</g>
<!-- 160031 -->
<g id="node42" class="node">
<title>160031</title>
<g id="a_node42"><a xlink:href="/docs/biography/行传/16/0031" xlink:title="编号：160031，，0。点击查看详情">
<polygon fill="#f0f0f0" stroke="none" points="376,-192.25 376,-209.25 426,-209.25 426,-192.25 376,-192.25"/>
<polygon fill="none" stroke="black" points="376,-192.25 376,-209.25 426,-209.25 426,-192.25 376,-192.25"/>
<text text-anchor="start" x="390.5" y="-194.95" font-family="SimSun" font-size="14.00">元6</text>
<polygon fill="#ffffff" stroke="none" points="376,-175.25 376,-192.25 426,-192.25 426,-175.25 376,-175.25"/>
<polygon fill="none" stroke="black" points="376,-175.25 376,-192.25 426,-192.25 426,-175.25 376,-175.25"/>
<text text-anchor="start" x="397.62" y="-177.95" font-family="SimSun" font-size="14.00"> </text>
</a>
</g>
</g>
<!-- 150058&#45;&gt;160031 -->
<g id="edge15" class="edge">
<title>150058&#45;&gt;160031</title>
<path fill="none" stroke="black" d="M465.6,-250.42C455.35,-241.35 443.03,-230.45 431.92,-220.62"/>
<polygon fill="black" stroke="black" points="434.27,-218.02 424.46,-214.02 429.63,-223.26 434.27,-218.02"/>
</g>
<!-- 170162 -->
<g id="node13" class="node">
<title>170162</title>
<g id="a_node13"><a xlink:href="/docs/biography/行传/17/0162" xlink:title="编号：170162，，0。点击查看详情">
<polygon fill="#f0f0f0" stroke="none" points="376,-100 376,-117 426,-117 426,-100 376,-100"/>
<polygon fill="none" stroke="black" points="376,-100 376,-117 426,-117 426,-100 376,-100"/>
<text text-anchor="start" x="390.5" y="-102.7" font-family="SimSun" font-size="14.00">利8</text>
<polygon fill="#ffffff" stroke="none" points="376,-83 376,-100 426,-100 426,-83 376,-83"/>
<polygon fill="none" stroke="black" points="376,-83 376,-100 426,-100 426,-83 376,-83"/>
<text text-anchor="start" x="397.62" y="-85.7" font-family="SimSun" font-size="14.00"> </text>
</a>
</g>
</g>
<!-- 90031 -->
<g id="node14" class="node">
<title>90031</title>
<g id="a_node14"><a xlink:href="/docs/biography/行传/9/0031" xlink:title="编号：90031，元德，車方&#45;&#45;&gt;湖山。点击查看详情">
<polygon fill="#f0f0f0" stroke="none" points="266.5,-745.25 266.5,-762.25 325.5,-762.25 325.5,-745.25 266.5,-745.25"/>
<polygon fill="none" stroke="darkred" points="266.5,-745.25 266.5,-762.25 325.5,-762.25 325.5,-745.25 266.5,-745.25"/>
<text text-anchor="start" x="285.5" y="-747.95" font-family="SimSun" font-size="14.00" fill="#8b0000">登2</text>
<polygon fill="#ffffff" stroke="none" points="266.5,-728.25 266.5,-745.25 325.5,-745.25 325.5,-728.25 266.5,-728.25"/>
<polygon fill="none" stroke="darkred" points="266.5,-728.25 266.5,-745.25 325.5,-745.25 325.5,-728.25 266.5,-728.25"/>
<text text-anchor="start" x="267.5" y="-730.95" font-family="SimSun" font-size="14.00" fill="#8b0000">【湖山】</text>
</a>
</g>
</g>
<!-- 90031&#45;&gt;100027 -->
<g id="edge19" class="edge">
<title>90031&#45;&gt;100027</title>
<path fill="none" stroke="black" d="M316.34,-724.42C325.56,-715.44 336.61,-704.67 346.62,-694.91"/>
<polygon fill="black" stroke="black" points="348.92,-697.55 353.64,-688.07 344.04,-692.54 348.92,-697.55"/>
</g>
<!-- 100022 -->
<g id="node18" class="node">
<title>100022</title>
<g id="a_node18"><a xlink:href="/docs/biography/行传/10/0022" xlink:title="编号：100022，標，0。点击查看详情">
<polygon fill="#f0f0f0" stroke="none" points="138,-666.25 138,-683.25 188,-683.25 188,-666.25 138,-666.25"/>
<polygon fill="none" stroke="black" points="138,-666.25 138,-683.25 188,-683.25 188,-666.25 138,-666.25"/>
<text text-anchor="start" x="149.12" y="-668.95" font-family="SimSun" font-size="14.00">福11</text>
<polygon fill="#ffffff" stroke="none" points="138,-649.25 138,-666.25 188,-666.25 188,-649.25 138,-649.25"/>
<polygon fill="none" stroke="black" points="138,-649.25 138,-666.25 188,-666.25 188,-649.25 138,-649.25"/>
<text text-anchor="start" x="155.88" y="-651.95" font-family="SimSun" font-size="14.00">標</text>
</a>
</g>
</g>
<!-- 90031&#45;&gt;100022 -->
<g id="edge18" class="edge">
<title>90031&#45;&gt;100022</title>
<path fill="none" stroke="black" d="M261.75,-724.42C244.6,-714.49 223.69,-702.38 205.52,-691.87"/>
<polygon fill="black" stroke="black" points="207.48,-688.96 197.07,-686.97 203.97,-695.01 207.48,-688.96"/>
</g>
<!-- 130060 -->
<g id="node41" class="node">
<title>130060</title>
<g id="a_node41"><a xlink:href="/docs/biography/行传/13/0060" xlink:title="编号：130060，，0。点击查看详情">
<polygon fill="#f0f0f0" stroke="none" points="410,-429.25 410,-446.25 460,-446.25 460,-429.25 410,-429.25"/>
<polygon fill="none" stroke="black" points="410,-429.25 410,-446.25 460,-446.25 460,-429.25 410,-429.25"/>
<text text-anchor="start" x="421.12" y="-431.95" font-family="SimSun" font-size="14.00">常25</text>
<polygon fill="#ffffff" stroke="none" points="410,-412.25 410,-429.25 460,-429.25 460,-412.25 410,-412.25"/>
<polygon fill="none" stroke="black" points="410,-412.25 410,-429.25 460,-429.25 460,-412.25 410,-412.25"/>
<text text-anchor="start" x="431.62" y="-414.95" font-family="SimSun" font-size="14.00"> </text>
</a>
</g>
</g>
<!-- 120050&#45;&gt;130060 -->
<g id="edge20" class="edge">
<title>120050&#45;&gt;130060</title>
<path fill="none" stroke="black" d="M421.64,-487.42C423.5,-479.43 425.7,-470.02 427.77,-461.16"/>
<polygon fill="black" stroke="black" points="431.17,-462.02 430.04,-451.49 424.35,-460.43 431.17,-462.02"/>
</g>
<!-- 120043 -->
<g id="node16" class="node">
<title>120043</title>
<g id="a_node16"><a xlink:href="/docs/biography/行传/12/0043" xlink:title="编号：120043，魁，0。点击查看详情">
<polygon fill="#f0f0f0" stroke="none" points="138,-508.25 138,-525.25 188,-525.25 188,-508.25 138,-508.25"/>
<polygon fill="none" stroke="black" points="138,-508.25 138,-525.25 188,-525.25 188,-508.25 138,-508.25"/>
<text text-anchor="start" x="152.5" y="-510.95" font-family="SimSun" font-size="14.00">斌9</text>
<polygon fill="#ffffff" stroke="none" points="138,-491.25 138,-508.25 188,-508.25 188,-491.25 138,-491.25"/>
<polygon fill="none" stroke="black" points="138,-491.25 138,-508.25 188,-508.25 188,-491.25 138,-491.25"/>
<text text-anchor="start" x="155.88" y="-493.95" font-family="SimSun" font-size="14.00">魁</text>
</a>
</g>
</g>
<!-- 130048 -->
<g id="node21" class="node">
<title>130048</title>
<g id="a_node21"><a xlink:href="/docs/biography/行传/13/0048" xlink:title="编号：130048，桐，0。点击查看详情">
<polygon fill="#f0f0f0" stroke="none" points="75,-429.25 75,-446.25 125,-446.25 125,-429.25 75,-429.25"/>
<polygon fill="none" stroke="black" points="75,-429.25 75,-446.25 125,-446.25 125,-429.25 75,-429.25"/>
<text text-anchor="start" x="86.12" y="-431.95" font-family="SimSun" font-size="14.00">常10</text>
<polygon fill="#ffffff" stroke="none" points="75,-412.25 75,-429.25 125,-429.25 125,-412.25 75,-412.25"/>
<polygon fill="none" stroke="black" points="75,-412.25 75,-429.25 125,-429.25 125,-412.25 75,-412.25"/>
<text text-anchor="start" x="92.88" y="-414.95" font-family="SimSun" font-size="14.00">桐</text>
</a>
</g>
</g>
<!-- 120043&#45;&gt;130048 -->
<g id="edge21" class="edge">
<title>120043&#45;&gt;130048</title>
<path fill="none" stroke="black" d="M146.78,-487.42C139.65,-478.71 131.14,-468.31 123.35,-458.79"/>
<polygon fill="black" stroke="black" points="126.17,-456.71 117.13,-451.18 120.75,-461.14 126.17,-456.71"/>
</g>
<!-- 130056 -->
<g id="node28" class="node">
<title>130056</title>
<g id="a_node28"><a xlink:href="/docs/biography/行传/13/0056" xlink:title="编号：130056，橋，0。点击查看详情">
<polygon fill="#f0f0f0" stroke="none" points="142,-429.25 142,-446.25 192,-446.25 192,-429.25 142,-429.25"/>
<polygon fill="none" stroke="black" points="142,-429.25 142,-446.25 192,-446.25 192,-429.25 142,-429.25"/>
<text text-anchor="start" x="153.12" y="-431.95" font-family="SimSun" font-size="14.00">常18</text>
<polygon fill="#ffffff" stroke="none" points="142,-412.25 142,-429.25 192,-429.25 192,-412.25 142,-412.25"/>
<polygon fill="none" stroke="black" points="142,-412.25 142,-429.25 192,-429.25 192,-412.25 142,-412.25"/>
<text text-anchor="start" x="159.88" y="-414.95" font-family="SimSun" font-size="14.00">橋</text>
</a>
</g>
</g>
<!-- 120043&#45;&gt;130056 -->
<g id="edge22" class="edge">
<title>120043&#45;&gt;130056</title>
<path fill="none" stroke="black" d="M164.03,-487.42C164.44,-479.52 164.92,-470.23 165.38,-461.46"/>
<polygon fill="black" stroke="black" points="168.87,-461.69 165.89,-451.52 161.88,-461.33 168.87,-461.69"/>
</g>
<!-- 170280 -->
<g id="node17" class="node">
<title>170280</title>
<g id="a_node17"><a xlink:href="/docs/biography/行传/17/0280" xlink:title="编号：170280，鎧，0。点击查看详情">
<polygon fill="#f0f0f0" stroke="none" points="711,-100 711,-117 761,-117 761,-100 711,-100"/>
<polygon fill="none" stroke="black" points="711,-100 711,-117 761,-117 761,-100 711,-100"/>
<text text-anchor="start" x="722.12" y="-102.7" font-family="SimSun" font-size="14.00">利31</text>
<polygon fill="#ffffff" stroke="none" points="711,-83 711,-100 761,-100 761,-83 711,-83"/>
<polygon fill="none" stroke="black" points="711,-83 711,-100 761,-100 761,-83 711,-83"/>
<text text-anchor="start" x="728.88" y="-85.7" font-family="SimSun" font-size="14.00">鎧</text>
</a>
</g>
</g>
<!-- 110023 -->
<g id="node27" class="node">
<title>110023</title>
<g id="a_node27"><a xlink:href="/docs/biography/行传/11/0023" xlink:title="编号：110023，雅，0。点击查看详情">
<polygon fill="#f0f0f0" stroke="none" points="54,-587.25 54,-604.25 104,-604.25 104,-587.25 54,-587.25"/>
<polygon fill="none" stroke="black" points="54,-587.25 54,-604.25 104,-604.25 104,-587.25 54,-587.25"/>
<text text-anchor="start" x="68.5" y="-589.95" font-family="SimSun" font-size="14.00">俊1</text>
<polygon fill="#ffffff" stroke="none" points="54,-570.25 54,-587.25 104,-587.25 104,-570.25 54,-570.25"/>
<polygon fill="none" stroke="black" points="54,-570.25 54,-587.25 104,-587.25 104,-570.25 54,-570.25"/>
<text text-anchor="start" x="71.88" y="-572.95" font-family="SimSun" font-size="14.00">雅</text>
</a>
</g>
</g>
<!-- 100022&#45;&gt;110023 -->
<g id="edge23" class="edge">
<title>100022&#45;&gt;110023</title>
<path fill="none" stroke="black" d="M141.37,-645.42C131.47,-636.35 119.59,-625.45 108.86,-615.62"/>
<polygon fill="black" stroke="black" points="111.41,-613.21 101.67,-609.03 106.68,-618.37 111.41,-613.21"/>
</g>
<!-- 110025 -->
<g id="node33" class="node">
<title>110025</title>
<g id="a_node33"><a xlink:href="/docs/biography/行传/11/0025" xlink:title="编号：110025，儒，0。点击查看详情">
<polygon fill="#f0f0f0" stroke="none" points="138,-587.25 138,-604.25 188,-604.25 188,-587.25 138,-587.25"/>
<polygon fill="none" stroke="black" points="138,-587.25 138,-604.25 188,-604.25 188,-587.25 138,-587.25"/>
<text text-anchor="start" x="152.5" y="-589.95" font-family="SimSun" font-size="14.00">俊3</text>
<polygon fill="#ffffff" stroke="none" points="138,-570.25 138,-587.25 188,-587.25 188,-570.25 138,-570.25"/>
<polygon fill="none" stroke="black" points="138,-570.25 138,-587.25 188,-587.25 188,-570.25 138,-570.25"/>
<text text-anchor="start" x="155.88" y="-572.95" font-family="SimSun" font-size="14.00">儒</text>
</a>
</g>
</g>
<!-- 100022&#45;&gt;110025 -->
<g id="edge24" class="edge">
<title>100022&#45;&gt;110025</title>
<path fill="none" stroke="black" d="M163,-645.42C163,-637.52 163,-628.23 163,-619.46"/>
<polygon fill="black" stroke="black" points="166.5,-619.53 163,-609.53 159.5,-619.53 166.5,-619.53"/>
</g>
<!-- 130053 -->
<g id="node19" class="node">
<title>130053</title>
<g id="a_node19"><a xlink:href="/docs/biography/行传/13/0053" xlink:title="编号：130053，彪，0。点击查看详情">
<polygon fill="#f0f0f0" stroke="none" points="554,-429.25 554,-446.25 604,-446.25 604,-429.25 554,-429.25"/>
<polygon fill="none" stroke="black" points="554,-429.25 554,-446.25 604,-446.25 604,-429.25 554,-429.25"/>
<text text-anchor="start" x="565.12" y="-431.95" font-family="SimSun" font-size="14.00">常15</text>
<polygon fill="#ffffff" stroke="none" points="554,-412.25 554,-429.25 604,-429.25 604,-412.25 554,-412.25"/>
<polygon fill="none" stroke="black" points="554,-412.25 554,-429.25 604,-429.25 604,-412.25 554,-412.25"/>
<text text-anchor="start" x="571.88" y="-414.95" font-family="SimSun" font-size="14.00">彪</text>
</a>
</g>
</g>
<!-- 140037 -->
<g id="node22" class="node">
<title>140037</title>
<g id="a_node22"><a xlink:href="/docs/biography/行传/14/0037" xlink:title="编号：140037，琪，0。点击查看详情">
<polygon fill="#f0f0f0" stroke="none" points="554,-350.25 554,-367.25 604,-367.25 604,-350.25 554,-350.25"/>
<polygon fill="none" stroke="black" points="554,-350.25 554,-367.25 604,-367.25 604,-350.25 554,-350.25"/>
<text text-anchor="start" x="568.5" y="-352.95" font-family="SimSun" font-size="14.00">恭4</text>
<polygon fill="#ffffff" stroke="none" points="554,-333.25 554,-350.25 604,-350.25 604,-333.25 554,-333.25"/>
<polygon fill="none" stroke="black" points="554,-333.25 554,-350.25 604,-350.25 604,-333.25 554,-333.25"/>
<text text-anchor="start" x="571.88" y="-335.95" font-family="SimSun" font-size="14.00">琪</text>
</a>
</g>
</g>
<!-- 130053&#45;&gt;140037 -->
<g id="edge25" class="edge">
<title>130053&#45;&gt;140037</title>
<path fill="none" stroke="black" d="M579,-408.42C579,-400.52 579,-391.23 579,-382.46"/>
<polygon fill="black" stroke="black" points="582.5,-382.53 579,-372.53 575.5,-382.53 582.5,-382.53"/>
</g>
<!-- 140037&#45;&gt;150065 -->
<g id="edge28" class="edge">
<title>140037&#45;&gt;150065</title>
<path fill="none" stroke="black" d="M599.34,-329.42C608.56,-320.44 619.61,-309.67 629.62,-299.91"/>
<polygon fill="black" stroke="black" points="631.92,-302.55 636.64,-293.07 627.04,-297.54 631.92,-302.55"/>
</g>
<!-- 140037&#45;&gt;150058 -->
<g id="edge26" class="edge">
<title>140037&#45;&gt;150058</title>
<path fill="none" stroke="black" d="M555.57,-329.42C544.74,-320.26 531.71,-309.24 520,-299.33"/>
<polygon fill="black" stroke="black" points="522.41,-296.78 512.51,-292.99 517.88,-302.12 522.41,-296.78"/>
</g>
<!-- 150062 -->
<g id="node23" class="node">
<title>150062</title>
<g id="a_node23"><a xlink:href="/docs/biography/行传/15/0062" xlink:title="编号：150062，，0。点击查看详情">
<polygon fill="#f0f0f0" stroke="none" points="554,-271.25 554,-288.25 604,-288.25 604,-271.25 554,-271.25"/>
<polygon fill="none" stroke="black" points="554,-271.25 554,-288.25 604,-288.25 604,-271.25 554,-271.25"/>
<text text-anchor="start" x="568.5" y="-273.95" font-family="SimSun" font-size="14.00">敬7</text>
<polygon fill="#ffffff" stroke="none" points="554,-254.25 554,-271.25 604,-271.25 604,-254.25 554,-254.25"/>
<polygon fill="none" stroke="black" points="554,-254.25 554,-271.25 604,-271.25 604,-254.25 554,-254.25"/>
<text text-anchor="start" x="575.62" y="-256.95" font-family="SimSun" font-size="14.00"> </text>
</a>
</g>
</g>
<!-- 140037&#45;&gt;150062 -->
<g id="edge27" class="edge">
<title>140037&#45;&gt;150062</title>
<path fill="none" stroke="black" d="M579,-329.42C579,-321.52 579,-312.23 579,-303.46"/>
<polygon fill="black" stroke="black" points="582.5,-303.53 579,-293.53 575.5,-303.53 582.5,-303.53"/>
</g>
<!-- 130054 -->
<g id="node24" class="node">
<title>130054</title>
<g id="a_node24"><a xlink:href="/docs/biography/行传/13/0054" xlink:title="编号：130054，楊，0。点击查看详情">
<polygon fill="#f0f0f0" stroke="none" points="343,-429.25 343,-446.25 393,-446.25 393,-429.25 343,-429.25"/>
<polygon fill="none" stroke="black" points="343,-429.25 343,-446.25 393,-446.25 393,-429.25 343,-429.25"/>
<text text-anchor="start" x="354.12" y="-431.95" font-family="SimSun" font-size="14.00">常16</text>
<polygon fill="#ffffff" stroke="none" points="343,-412.25 343,-429.25 393,-429.25 393,-412.25 343,-412.25"/>
<polygon fill="none" stroke="black" points="343,-412.25 343,-429.25 393,-429.25 393,-412.25 343,-412.25"/>
<text text-anchor="start" x="360.88" y="-414.95" font-family="SimSun" font-size="14.00">楊</text>
</a>
</g>
</g>
<!-- 170263 -->
<g id="node25" class="node">
<title>170263</title>
<g id="a_node25"><a xlink:href="/docs/biography/行传/17/0263" xlink:title="编号：170263，鑑，0。点击查看详情">
<polygon fill="#f0f0f0" stroke="none" points="644,-100 644,-117 694,-117 694,-100 644,-100"/>
<polygon fill="none" stroke="black" points="644,-100 644,-117 694,-117 694,-100 644,-100"/>
<text text-anchor="start" x="655.12" y="-102.7" font-family="SimSun" font-size="14.00">利30</text>
<polygon fill="#ffffff" stroke="none" points="644,-83 644,-100 694,-100 694,-83 644,-83"/>
<polygon fill="none" stroke="black" points="644,-83 644,-100 694,-100 694,-83 644,-83"/>
<text text-anchor="start" x="661.88" y="-85.7" font-family="SimSun" font-size="14.00">鑑</text>
</a>
</g>
</g>
<!-- 160040&#45;&gt;170183 -->
<g id="edge29" class="edge">
<title>160040&#45;&gt;170183</title>
<path fill="none" stroke="black" d="M468,-171.67C468,-160.16 468,-145.34 468,-132.25"/>
<polygon fill="black" stroke="black" points="471.5,-132.37 468,-122.37 464.5,-132.37 471.5,-132.37"/>
</g>
<!-- 120040 -->
<g id="node30" class="node">
<title>120040</title>
<g id="a_node30"><a xlink:href="/docs/biography/行传/12/0040" xlink:title="编号：120040，祈，0。点击查看详情">
<polygon fill="#f0f0f0" stroke="none" points="13,-508.25 13,-525.25 63,-525.25 63,-508.25 13,-508.25"/>
<polygon fill="none" stroke="black" points="13,-508.25 13,-525.25 63,-525.25 63,-508.25 13,-508.25"/>
<text text-anchor="start" x="27.5" y="-510.95" font-family="SimSun" font-size="14.00">斌5</text>
<polygon fill="#ffffff" stroke="none" points="13,-491.25 13,-508.25 63,-508.25 63,-491.25 13,-491.25"/>
<polygon fill="none" stroke="black" points="13,-491.25 13,-508.25 63,-508.25 63,-491.25 13,-491.25"/>
<text text-anchor="start" x="30.88" y="-493.95" font-family="SimSun" font-size="14.00">祈</text>
</a>
</g>
</g>
<!-- 110023&#45;&gt;120040 -->
<g id="edge30" class="edge">
<title>110023&#45;&gt;120040</title>
<path fill="none" stroke="black" d="M68.44,-566.42C63.99,-558.07 58.72,-548.17 53.83,-538.97"/>
<polygon fill="black" stroke="black" points="57.02,-537.53 49.23,-530.35 50.84,-540.82 57.02,-537.53"/>
</g>
<!-- 170259 -->
<g id="node29" class="node">
<title>170259</title>
<g id="a_node29"><a xlink:href="/docs/biography/行传/17/0259" xlink:title="编号：170259，鉽，0。点击查看详情">
<polygon fill="#f0f0f0" stroke="none" points="577,-100 577,-117 627,-117 627,-100 577,-100"/>
<polygon fill="none" stroke="black" points="577,-100 577,-117 627,-117 627,-100 577,-100"/>
<text text-anchor="start" x="588.12" y="-102.7" font-family="SimSun" font-size="14.00">利27</text>
<polygon fill="#ffffff" stroke="none" points="577,-83 577,-100 627,-100 627,-83 577,-83"/>
<polygon fill="none" stroke="black" points="577,-83 577,-100 627,-100 627,-83 577,-83"/>
<text text-anchor="start" x="594.88" y="-85.7" font-family="SimSun" font-size="14.00">鉽</text>
</a>
</g>
</g>
<!-- 180343 -->
<g id="node35" class="node">
<title>180343</title>
<g id="a_node35"><a xlink:href="/docs/biography/行传/18/0343" xlink:title="编号：180343，，0。点击查看详情">
<polygon fill="#f0f0f0" stroke="none" points="577,-21 577,-38 627,-38 627,-21 577,-21"/>
<polygon fill="none" stroke="black" points="577,-21 577,-38 627,-38 627,-21 577,-21"/>
<text text-anchor="start" x="588.12" y="-23.7" font-family="SimSun" font-size="14.00">貞41</text>
<polygon fill="#ffffff" stroke="none" points="577,-4 577,-21 627,-21 627,-4 577,-4"/>
<polygon fill="none" stroke="black" points="577,-4 577,-21 627,-21 627,-4 577,-4"/>
<text text-anchor="start" x="598.62" y="-6.7" font-family="SimSun" font-size="14.00"> </text>
</a>
</g>
</g>
<!-- 170259&#45;&gt;180343 -->
<g id="edge31" class="edge">
<title>170259&#45;&gt;180343</title>
<path fill="none" stroke="black" d="M602,-79.17C602,-71.27 602,-61.98 602,-53.21"/>
<polygon fill="black" stroke="black" points="605.5,-53.28 602,-43.28 598.5,-53.28 605.5,-53.28"/>
</g>
<!-- 130045 -->
<g id="node36" class="node">
<title>130045</title>
<g id="a_node36"><a xlink:href="/docs/biography/行传/13/0045" xlink:title="编号：130045，性，0。点击查看详情">
<polygon fill="#f0f0f0" stroke="none" points="8,-429.25 8,-446.25 58,-446.25 58,-429.25 8,-429.25"/>
<polygon fill="none" stroke="black" points="8,-429.25 8,-446.25 58,-446.25 58,-429.25 8,-429.25"/>
<text text-anchor="start" x="22.5" y="-431.95" font-family="SimSun" font-size="14.00">常7</text>
<polygon fill="#ffffff" stroke="none" points="8,-412.25 8,-429.25 58,-429.25 58,-412.25 8,-412.25"/>
<polygon fill="none" stroke="black" points="8,-412.25 8,-429.25 58,-429.25 58,-412.25 8,-412.25"/>
<text text-anchor="start" x="25.88" y="-414.95" font-family="SimSun" font-size="14.00">性</text>
</a>
</g>
</g>
<!-- 120040&#45;&gt;130045 -->
<g id="edge32" class="edge">
<title>120040&#45;&gt;130045</title>
<path fill="none" stroke="black" d="M36.71,-487.42C36.2,-479.52 35.6,-470.23 35.03,-461.46"/>
<polygon fill="black" stroke="black" points="38.52,-461.27 34.38,-451.52 31.54,-461.73 38.52,-461.27"/>
</g>
<!-- 130059 -->
<g id="node32" class="node">
<title>130059</title>
<g id="a_node32"><a xlink:href="/docs/biography/行传/13/0059" xlink:title="编号：130059，聰，0。点击查看详情">
<polygon fill="#f0f0f0" stroke="none" points="621.5,-429.25 621.5,-446.25 680.5,-446.25 680.5,-429.25 621.5,-429.25"/>
<polygon fill="none" stroke="darkred" points="621.5,-429.25 621.5,-446.25 680.5,-446.25 680.5,-429.25 621.5,-429.25"/>
<text text-anchor="start" x="637.12" y="-431.95" font-family="SimSun" font-size="14.00" fill="#8b0000">常22</text>
<polygon fill="#ffffff" stroke="none" points="621.5,-412.25 621.5,-429.25 680.5,-429.25 680.5,-412.25 621.5,-412.25"/>
<polygon fill="none" stroke="darkred" points="621.5,-412.25 621.5,-429.25 680.5,-429.25 680.5,-412.25 621.5,-412.25"/>
<text text-anchor="start" x="622.5" y="-414.95" font-family="SimSun" font-size="14.00" fill="#8b0000">【湖山】</text>
</a>
</g>
</g>
<!-- 110025&#45;&gt;120043 -->
<g id="edge33" class="edge">
<title>110025&#45;&gt;120043</title>
<path fill="none" stroke="black" d="M163,-566.42C163,-558.52 163,-549.23 163,-540.46"/>
<polygon fill="black" stroke="black" points="166.5,-540.53 163,-530.53 159.5,-540.53 166.5,-540.53"/>
</g>
<!-- 130049 -->
<g id="node34" class="node">
<title>130049</title>
<g id="a_node34"><a xlink:href="/docs/biography/行传/13/0049" xlink:title="编号：130049，文，0。点击查看详情">
<polygon fill="#f0f0f0" stroke="none" points="477.5,-429.25 477.5,-446.25 536.5,-446.25 536.5,-429.25 477.5,-429.25"/>
<polygon fill="none" stroke="darkred" points="477.5,-429.25 477.5,-446.25 536.5,-446.25 536.5,-429.25 477.5,-429.25"/>
<text text-anchor="start" x="493.12" y="-431.95" font-family="SimSun" font-size="14.00" fill="#8b0000">常11</text>
<polygon fill="#ffffff" stroke="none" points="477.5,-412.25 477.5,-429.25 536.5,-429.25 536.5,-412.25 477.5,-412.25"/>
<polygon fill="none" stroke="darkred" points="477.5,-412.25 477.5,-429.25 536.5,-429.25 536.5,-412.25 477.5,-412.25"/>
<text text-anchor="start" x="478.5" y="-414.95" font-family="SimSun" font-size="14.00" fill="#8b0000">【湖山】</text>
</a>
</g>
</g>
<!-- 120048&#45;&gt;130050 -->
<g id="edge34" class="edge">
<title>120048&#45;&gt;130050</title>
<path fill="none" stroke="black" d="M303.79,-487.42C292.5,-478.17 278.89,-467.02 266.7,-457.03"/>
<polygon fill="black" stroke="black" points="269.25,-454.6 259.3,-450.97 264.81,-460.02 269.25,-454.6"/>
</g>
<!-- 120048&#45;&gt;130051 -->
<g id="edge35" class="edge">
<title>120048&#45;&gt;130051</title>
<path fill="none" stroke="black" d="M321.05,-487.42C318.21,-479.34 314.87,-469.8 311.74,-460.87"/>
<polygon fill="black" stroke="black" points="315.04,-459.72 308.43,-451.44 308.44,-462.04 315.04,-459.72"/>
</g>
<!-- 120048&#45;&gt;130054 -->
<g id="edge36" class="edge">
<title>120048&#45;&gt;130054</title>
<path fill="none" stroke="black" d="M338.3,-487.42C342.64,-479.07 347.78,-469.17 352.56,-459.97"/>
<polygon fill="black" stroke="black" points="355.53,-461.84 357.04,-451.36 349.32,-458.62 355.53,-461.84"/>
</g>
<!-- 120045&#45;&gt;130053 -->
<g id="edge38" class="edge">
<title>120045&#45;&gt;130053</title>
<path fill="none" stroke="black" d="M579,-487.42C579,-479.52 579,-470.23 579,-461.46"/>
<polygon fill="black" stroke="black" points="582.5,-461.53 579,-451.53 575.5,-461.53 582.5,-461.53"/>
</g>
<!-- 120045&#45;&gt;130059 -->
<g id="edge39" class="edge">
<title>120045&#45;&gt;130059</title>
<path fill="none" stroke="black" d="M597.54,-487.42C605.86,-478.53 615.81,-467.88 624.86,-458.2"/>
<polygon fill="black" stroke="black" points="627.21,-460.81 631.49,-451.12 622.1,-456.03 627.21,-460.81"/>
</g>
<!-- 120045&#45;&gt;130049 -->
<g id="edge37" class="edge">
<title>120045&#45;&gt;130049</title>
<path fill="none" stroke="black" d="M560.46,-487.42C552.14,-478.53 542.19,-467.88 533.14,-458.2"/>
<polygon fill="black" stroke="black" points="535.9,-456.03 526.51,-451.12 530.79,-460.81 535.9,-456.03"/>
</g>
<!-- 160049&#45;&gt;170233 -->
<g id="edge1" class="edge">
<title>160049&#45;&gt;170233</title>
<path fill="none" stroke="blue" d="M535,-171.67C535,-160.16 535,-145.34 535,-132.25"/>
<polygon fill="blue" stroke="blue" points="538.5,-132.37 535,-122.37 531.5,-132.37 538.5,-132.37"/>
<text text-anchor="middle" x="552.25" y="-139.95" font-family="Times New Roman,serif" font-size="14.00" fill="blue">承继</text>
</g>
<!-- 160031&#45;&gt;170162 -->
<g id="edge40" class="edge">
<title>160031&#45;&gt;170162</title>
<path fill="none" stroke="black" d="M401,-171.67C401,-160.16 401,-145.34 401,-132.25"/>
<polygon fill="black" stroke="black" points="404.5,-132.37 401,-122.37 397.5,-132.37 404.5,-132.37"/>
</g>
<!-- 160044&#45;&gt;170280 -->
<g id="edge43" class="edge">
<title>160044&#45;&gt;170280</title>
<path fill="none" stroke="black" d="M681.19,-171.67C690.66,-159.45 703.03,-143.51 713.61,-129.87"/>
<polygon fill="black" stroke="black" points="716.31,-132.1 719.67,-122.05 710.78,-127.81 716.31,-132.1"/>
</g>
<!-- 160044&#45;&gt;170263 -->
<g id="edge42" class="edge">
<title>160044&#45;&gt;170263</title>
<path fill="none" stroke="black" d="M666.65,-171.67C667.03,-160.16 667.53,-145.34 667.96,-132.25"/>
<polygon fill="black" stroke="black" points="671.46,-132.48 668.29,-122.37 664.46,-132.25 671.46,-132.48"/>
</g>
<!-- 160044&#45;&gt;170259 -->
<g id="edge41" class="edge">
<title>160044&#45;&gt;170259</title>
<path fill="none" stroke="black" d="M652.11,-171.67C643.45,-159.45 632.15,-143.51 622.47,-129.87"/>
<polygon fill="black" stroke="black" points="625.6,-128.22 616.96,-122.09 619.89,-132.27 625.6,-128.22"/>
</g>
</g>
</svg>
