<?xml version="1.0" encoding="UTF-8" standalone="no"?>
<!DOCTYPE svg PUBLIC "-//W3C//DTD SVG 1.1//EN"
 "http://www.w3.org/Graphics/SVG/1.1/DTD/svg11.dtd">
<!-- Generated by graphviz version 12.2.1 (20241206.2353)
 -->
<!-- Title: main Pages: 1 -->
<svg width="674pt" height="729pt"
 viewBox="0.00 0.00 673.60 728.80" xmlns="http://www.w3.org/2000/svg" xmlns:xlink="http://www.w3.org/1999/xlink">
<g id="graph0" class="graph" transform="scale(1 1) rotate(0) translate(4 724.8)">
<title>main</title>
<!-- 50002 -->
<g id="node1" class="node">
<title>50002</title>
<g id="a_node1"><a xlink:href="HZ\0004.jpg" xlink:title="1子子達出家|車方&#45;&#45;&gt;楊樹角" target="dynamic">
<polygon fill="green" stroke="black" stroke-width="0.3" points="380,-662.7 380,-720.3 437.6,-720.3 437.6,-662.7 380,-662.7"/>
<text text-anchor="middle" x="409" y="-705.1" font-family="GenWanMin TW TTF Medium" font-size="16.00">50002</text>
<polyline fill="none" stroke="black" stroke-width="0.3" points="380,-700.05 438,-700.05"/>
<text text-anchor="middle" x="409" y="-684.85" font-family="GenWanMin TW TTF Medium" font-size="16.00">五2</text>
<polyline fill="none" stroke="black" stroke-width="0.3" points="380,-679.8 438,-679.8"/>
<text text-anchor="middle" x="409" y="-664.6" font-family="GenWanMin TW TTF Medium" font-size="16.00">運宗</text>
</a>
</g>
</g>
<!-- 60001 -->
<g id="node2" class="node">
<title>60001</title>
<g id="a_node2"><a xlink:href="HZ\0005.jpg" xlink:title="237|0" target="dynamic">
<polygon fill="none" stroke="black" stroke-width="0.3" points="152,-568.1 152,-625.7 209.6,-625.7 209.6,-568.1 152,-568.1"/>
<text text-anchor="middle" x="181" y="-610.5" font-family="GenWanMin TW TTF Medium" font-size="16.00">60001</text>
<polyline fill="none" stroke="black" stroke-width="0.3" points="152,-605.45 210,-605.45"/>
<text text-anchor="middle" x="181" y="-590.25" font-family="GenWanMin TW TTF Medium" font-size="16.00">六1</text>
<polyline fill="none" stroke="black" stroke-width="0.3" points="152,-585.2 210,-585.2"/>
<text text-anchor="middle" x="181" y="-570" font-family="GenWanMin TW TTF Medium" font-size="16.00">子昌</text>
</a>
</g>
</g>
<!-- 50002&#45;&gt;60001 -->
<g id="edge1" class="edge">
<title>50002&#45;&gt;60001</title>
<path fill="none" stroke="black" d="M380.31,-683.85C342.13,-674.28 272.92,-654.6 218.8,-626.2 217.4,-625.46 215.99,-624.68 214.59,-623.86"/>
<polygon fill="black" stroke="black" points="215.68,-622.47 210.51,-621.32 213.83,-625.45 215.68,-622.47"/>
</g>
<!-- 60002 -->
<g id="node3" class="node">
<title>60002</title>
<g id="a_node3"><a xlink:href="HZ\0005.jpg" xlink:title="0|0" target="dynamic">
<polygon fill="none" stroke="black" stroke-width="0.3" points="228,-568.1 228,-625.7 285.6,-625.7 285.6,-568.1 228,-568.1"/>
<text text-anchor="middle" x="257" y="-610.5" font-family="GenWanMin TW TTF Medium" font-size="16.00">60002</text>
<polyline fill="none" stroke="black" stroke-width="0.3" points="228,-605.45 286,-605.45"/>
<text text-anchor="middle" x="257" y="-590.25" font-family="GenWanMin TW TTF Medium" font-size="16.00">六2</text>
<polyline fill="none" stroke="black" stroke-width="0.3" points="228,-585.2 286,-585.2"/>
<text text-anchor="middle" x="257" y="-570" font-family="GenWanMin TW TTF Medium" font-size="16.00">子端</text>
</a>
</g>
</g>
<!-- 50002&#45;&gt;60002 -->
<g id="edge2" class="edge">
<title>50002&#45;&gt;60002</title>
<path fill="none" stroke="black" d="M380.1,-675.62C356.69,-663.17 322.99,-644.54 294.8,-626.2 293.47,-625.34 292.13,-624.44 290.78,-623.53"/>
<polygon fill="black" stroke="black" points="291.93,-622.19 286.82,-620.78 289.93,-625.07 291.93,-622.19"/>
</g>
<!-- 60003 -->
<g id="node4" class="node">
<title>60003</title>
<g id="a_node4"><a xlink:href="HZ\0005.jpg" xlink:title="0|0" target="dynamic">
<polygon fill="none" stroke="black" stroke-width="0.3" points="304,-568.1 304,-625.7 361.6,-625.7 361.6,-568.1 304,-568.1"/>
<text text-anchor="middle" x="333" y="-610.5" font-family="GenWanMin TW TTF Medium" font-size="16.00">60003</text>
<polyline fill="none" stroke="black" stroke-width="0.3" points="304,-605.45 362,-605.45"/>
<text text-anchor="middle" x="333" y="-590.25" font-family="GenWanMin TW TTF Medium" font-size="16.00">六3</text>
<polyline fill="none" stroke="black" stroke-width="0.3" points="304,-585.2 362,-585.2"/>
<text text-anchor="middle" x="333" y="-570" font-family="GenWanMin TW TTF Medium" font-size="16.00">子華</text>
</a>
</g>
</g>
<!-- 50002&#45;&gt;60003 -->
<g id="edge3" class="edge">
<title>50002&#45;&gt;60003</title>
<path fill="none" stroke="black" d="M386,-662.72C377.66,-652.55 368.14,-640.96 359.49,-630.42"/>
<polygon fill="black" stroke="black" points="361.07,-629.59 356.55,-626.83 358.37,-631.81 361.07,-629.59"/>
</g>
<!-- 60004 -->
<g id="node5" class="node">
<title>60004</title>
<g id="a_node5"><a xlink:href="HZ\0005.jpg" xlink:title="0|0" target="dynamic">
<polygon fill="none" stroke="black" stroke-width="0.3" points="380,-568.1 380,-625.7 437.6,-625.7 437.6,-568.1 380,-568.1"/>
<text text-anchor="middle" x="409" y="-610.5" font-family="GenWanMin TW TTF Medium" font-size="16.00">60004</text>
<polyline fill="none" stroke="black" stroke-width="0.3" points="380,-605.45 438,-605.45"/>
<text text-anchor="middle" x="409" y="-590.25" font-family="GenWanMin TW TTF Medium" font-size="16.00">六4</text>
<polyline fill="none" stroke="black" stroke-width="0.3" points="380,-585.2 438,-585.2"/>
<text text-anchor="middle" x="409" y="-570" font-family="GenWanMin TW TTF Medium" font-size="16.00">子森</text>
</a>
</g>
</g>
<!-- 50002&#45;&gt;60004 -->
<g id="edge4" class="edge">
<title>50002&#45;&gt;60004</title>
<path fill="none" stroke="black" d="M408.8,-662.72C408.8,-653.1 408.8,-642.21 408.8,-632.14"/>
<polygon fill="black" stroke="black" points="410.55,-632.18 408.8,-627.18 407.05,-632.18 410.55,-632.18"/>
</g>
<!-- 60007 -->
<g id="node6" class="node">
<title>60007</title>
<g id="a_node6"><a xlink:href="HZ\0006.jpg" xlink:title="0|0" target="dynamic">
<polygon fill="none" stroke="black" stroke-width="0.3" points="456,-568.1 456,-625.7 513.6,-625.7 513.6,-568.1 456,-568.1"/>
<text text-anchor="middle" x="485" y="-610.5" font-family="GenWanMin TW TTF Medium" font-size="16.00">60007</text>
<polyline fill="none" stroke="black" stroke-width="0.3" points="456,-605.45 514,-605.45"/>
<text text-anchor="middle" x="485" y="-590.25" font-family="GenWanMin TW TTF Medium" font-size="16.00">六9</text>
<polyline fill="none" stroke="black" stroke-width="0.3" points="456,-585.2 514,-585.2"/>
<text text-anchor="middle" x="485" y="-570" font-family="GenWanMin TW TTF Medium" font-size="16.00">子檜</text>
</a>
</g>
</g>
<!-- 50002&#45;&gt;60007 -->
<g id="edge5" class="edge">
<title>50002&#45;&gt;60007</title>
<path fill="none" stroke="black" d="M431.6,-662.72C439.94,-652.55 449.46,-640.96 458.11,-630.42"/>
<polygon fill="black" stroke="black" points="459.23,-631.81 461.05,-626.83 456.53,-629.59 459.23,-631.81"/>
</g>
<!-- 60011 -->
<g id="node7" class="node">
<title>60011</title>
<g id="a_node7"><a xlink:href="HZ\0006.jpg" xlink:title="0|0" target="dynamic">
<polygon fill="none" stroke="black" stroke-width="0.3" points="532,-568.1 532,-625.7 589.6,-625.7 589.6,-568.1 532,-568.1"/>
<text text-anchor="middle" x="561" y="-610.5" font-family="GenWanMin TW TTF Medium" font-size="16.00">60011</text>
<polyline fill="none" stroke="black" stroke-width="0.3" points="532,-605.45 590,-605.45"/>
<text text-anchor="middle" x="561" y="-590.25" font-family="GenWanMin TW TTF Medium" font-size="16.00">六12</text>
<polyline fill="none" stroke="black" stroke-width="0.3" points="532,-585.2 590,-585.2"/>
<text text-anchor="middle" x="561" y="-570" font-family="GenWanMin TW TTF Medium" font-size="16.00">子彬</text>
</a>
</g>
</g>
<!-- 50002&#45;&gt;60011 -->
<g id="edge6" class="edge">
<title>50002&#45;&gt;60011</title>
<path fill="none" stroke="black" d="M437.5,-675.62C460.91,-663.17 494.61,-644.54 522.8,-626.2 524.13,-625.34 525.47,-624.44 526.82,-623.53"/>
<polygon fill="black" stroke="black" points="527.67,-625.07 530.78,-620.78 525.67,-622.19 527.67,-625.07"/>
</g>
<!-- 60000&#45;1 -->
<g id="node30" class="node">
<title>60000&#45;1</title>
<polygon fill="grey" stroke="black" stroke-width="0.3" points="608,-568.1 608,-625.7 665.6,-625.7 665.6,-568.1 608,-568.1"/>
<text text-anchor="middle" x="636.75" y="-610" font-family="GenWanMin TW TTF Medium" font-size="16.00">出家</text>
<polyline fill="none" stroke="black" stroke-width="0.3" points="608,-607.45 665.5,-607.45"/>
<text text-anchor="middle" x="636.75" y="-591.75" font-family="GenWanMin TW TTF Medium" font-size="16.00"> </text>
<polyline fill="none" stroke="black" stroke-width="0.3" points="608,-586.2 665.5,-586.2"/>
<text text-anchor="middle" x="636.75" y="-570.5" font-family="GenWanMin TW TTF Medium" font-size="16.00">子達</text>
</g>
<!-- 50002&#45;&gt;60000&#45;1 -->
<g id="edge29" class="edge">
<title>50002&#45;&gt;60000&#45;1</title>
<path fill="none" stroke="black" d="M437.29,-683.85C475.47,-674.28 544.68,-654.6 598.8,-626.2 600.2,-625.46 601.61,-624.68 603.01,-623.86"/>
<polygon fill="black" stroke="black" points="603.77,-625.45 607.09,-621.32 601.92,-622.47 603.77,-625.45"/>
</g>
<!-- 70009 -->
<g id="node10" class="node">
<title>70009</title>
<g id="a_node10"><a xlink:href="HZ\0007.jpg" xlink:title="0|0" target="dynamic">
<polygon fill="none" stroke="black" stroke-width="0.3" points="114,-473.5 114,-531.1 171.6,-531.1 171.6,-473.5 114,-473.5"/>
<text text-anchor="middle" x="143" y="-515.9" font-family="GenWanMin TW TTF Medium" font-size="16.00">70009</text>
<polyline fill="none" stroke="black" stroke-width="0.3" points="114,-510.85 172,-510.85"/>
<text text-anchor="middle" x="143" y="-495.65" font-family="GenWanMin TW TTF Medium" font-size="16.00">千8</text>
<polyline fill="none" stroke="black" stroke-width="0.3" points="114,-490.6 172,-490.6"/>
<text text-anchor="middle" x="143" y="-475.4" font-family="GenWanMin TW TTF Medium" font-size="16.00">進</text>
</a>
</g>
</g>
<!-- 60002&#45;&gt;70009 -->
<g id="edge9" class="edge">
<title>60002&#45;&gt;70009</title>
<path fill="none" stroke="black" d="M228.03,-572.53C212.37,-559.81 192.91,-544 176.53,-530.7"/>
<polygon fill="black" stroke="black" points="177.72,-529.41 172.73,-527.61 175.51,-532.12 177.72,-529.41"/>
</g>
<!-- 70013 -->
<g id="node12" class="node">
<title>70013</title>
<g id="a_node12"><a xlink:href="HZ\0008.jpg" xlink:title="0|0" target="dynamic">
<polygon fill="none" stroke="black" stroke-width="0.3" points="228,-473.5 228,-531.1 285.6,-531.1 285.6,-473.5 228,-473.5"/>
<text text-anchor="middle" x="257" y="-515.9" font-family="GenWanMin TW TTF Medium" font-size="16.00">70013</text>
<polyline fill="none" stroke="black" stroke-width="0.3" points="228,-510.85 286,-510.85"/>
<text text-anchor="middle" x="257" y="-495.65" font-family="GenWanMin TW TTF Medium" font-size="16.00">千11</text>
<polyline fill="none" stroke="black" stroke-width="0.3" points="228,-490.6 286,-490.6"/>
<text text-anchor="middle" x="257" y="-475.4" font-family="GenWanMin TW TTF Medium" font-size="16.00">羅</text>
</a>
</g>
</g>
<!-- 60002&#45;&gt;70013 -->
<g id="edge11" class="edge">
<title>60002&#45;&gt;70013</title>
<path fill="none" stroke="black" d="M256.8,-568.12C256.8,-558.5 256.8,-547.61 256.8,-537.54"/>
<polygon fill="black" stroke="black" points="258.55,-537.58 256.8,-532.58 255.05,-537.58 258.55,-537.58"/>
</g>
<!-- 70011 -->
<g id="node11" class="node">
<title>70011</title>
<g id="a_node11"><a xlink:href="HZ\0007.jpg" xlink:title="0|0" target="dynamic">
<polygon fill="none" stroke="black" stroke-width="0.3" points="304,-473.5 304,-531.1 361.6,-531.1 361.6,-473.5 304,-473.5"/>
<text text-anchor="middle" x="333" y="-515.9" font-family="GenWanMin TW TTF Medium" font-size="16.00">70011</text>
<polyline fill="none" stroke="black" stroke-width="0.3" points="304,-510.85 362,-510.85"/>
<text text-anchor="middle" x="333" y="-495.65" font-family="GenWanMin TW TTF Medium" font-size="16.00">千10</text>
<polyline fill="none" stroke="black" stroke-width="0.3" points="304,-490.6 362,-490.6"/>
<text text-anchor="middle" x="333" y="-475.4" font-family="GenWanMin TW TTF Medium" font-size="16.00">洪</text>
</a>
</g>
</g>
<!-- 60003&#45;&gt;70011 -->
<g id="edge10" class="edge">
<title>60003&#45;&gt;70011</title>
<path fill="none" stroke="black" d="M332.8,-568.12C332.8,-558.5 332.8,-547.61 332.8,-537.54"/>
<polygon fill="black" stroke="black" points="334.55,-537.58 332.8,-532.58 331.05,-537.58 334.55,-537.58"/>
</g>
<!-- 70005 -->
<g id="node8" class="node">
<title>70005</title>
<g id="a_node8"><a xlink:href="HZ\0007.jpg" xlink:title="0|0" target="dynamic">
<polygon fill="none" stroke="black" stroke-width="0.3" points="380,-473.5 380,-531.1 437.6,-531.1 437.6,-473.5 380,-473.5"/>
<text text-anchor="middle" x="409" y="-515.9" font-family="GenWanMin TW TTF Medium" font-size="16.00">70005</text>
<polyline fill="none" stroke="black" stroke-width="0.3" points="380,-510.85 438,-510.85"/>
<text text-anchor="middle" x="409" y="-495.65" font-family="GenWanMin TW TTF Medium" font-size="16.00">千5</text>
<polyline fill="none" stroke="black" stroke-width="0.3" points="380,-490.6 438,-490.6"/>
<text text-anchor="middle" x="409" y="-475.4" font-family="GenWanMin TW TTF Medium" font-size="16.00">初</text>
</a>
</g>
</g>
<!-- 60004&#45;&gt;70005 -->
<g id="edge7" class="edge">
<title>60004&#45;&gt;70005</title>
<path fill="none" stroke="black" d="M408.8,-568.12C408.8,-558.5 408.8,-547.61 408.8,-537.54"/>
<polygon fill="black" stroke="black" points="410.55,-537.58 408.8,-532.58 407.05,-537.58 410.55,-537.58"/>
</g>
<!-- 70007 -->
<g id="node9" class="node">
<title>70007</title>
<g id="a_node9"><a xlink:href="HZ\0007.jpg" xlink:title="0|0" target="dynamic">
<polygon fill="none" stroke="black" stroke-width="0.3" points="456,-473.5 456,-531.1 513.6,-531.1 513.6,-473.5 456,-473.5"/>
<text text-anchor="middle" x="485" y="-515.9" font-family="GenWanMin TW TTF Medium" font-size="16.00">70007</text>
<polyline fill="none" stroke="black" stroke-width="0.3" points="456,-510.85 514,-510.85"/>
<text text-anchor="middle" x="485" y="-495.65" font-family="GenWanMin TW TTF Medium" font-size="16.00">千6_2</text>
<polyline fill="none" stroke="black" stroke-width="0.3" points="456,-490.6 514,-490.6"/>
<text text-anchor="middle" x="485" y="-475.4" font-family="GenWanMin TW TTF Medium" font-size="16.00">祉</text>
</a>
</g>
</g>
<!-- 60004&#45;&gt;70007 -->
<g id="edge8" class="edge">
<title>60004&#45;&gt;70007</title>
<path fill="none" stroke="black" d="M431.6,-568.12C439.94,-557.95 449.46,-546.36 458.11,-535.82"/>
<polygon fill="black" stroke="black" points="459.23,-537.21 461.05,-532.23 456.53,-534.99 459.23,-537.21"/>
</g>
<!-- 70018 -->
<g id="node13" class="node">
<title>70018</title>
<g id="a_node13"><a xlink:href="HZ\0008.jpg" xlink:title="0|0" target="dynamic">
<polygon fill="none" stroke="black" stroke-width="0.3" points="532,-473.5 532,-531.1 589.6,-531.1 589.6,-473.5 532,-473.5"/>
<text text-anchor="middle" x="561" y="-516.4" font-family="GenWanMin TW TTF Medium" font-size="16.00">70018</text>
<polyline fill="none" stroke="black" stroke-width="0.3" points="532,-511.85 590,-511.85"/>
<text text-anchor="middle" x="561" y="-497.15" font-family="GenWanMin TW TTF Medium" font-size="16.00">千15</text>
<polyline fill="none" stroke="black" stroke-width="0.3" points="532,-492.6 590,-492.6"/>
<text text-anchor="middle" x="561" y="-477.9" font-family="GenWanMin TW TTF Medium" font-size="16.00">0</text>
</a>
</g>
</g>
<!-- 60004&#45;&gt;70018 -->
<g id="edge12" class="edge">
<title>60004&#45;&gt;70018</title>
<path fill="none" stroke="black" d="M437.44,-573.66C440.54,-571.52 443.7,-569.46 446.8,-567.6 478.83,-548.34 490.77,-550.86 522.8,-531.6 524.16,-530.78 525.53,-529.93 526.89,-529.05"/>
<polygon fill="black" stroke="black" points="527.71,-530.61 530.9,-526.38 525.77,-527.7 527.71,-530.61"/>
</g>
<!-- 80022 -->
<g id="node17" class="node">
<title>80022</title>
<g id="a_node17"><a xlink:href="HZ\0010.jpg" xlink:title="刊誤千15|0" target="dynamic">
<polygon fill="none" stroke="black" stroke-width="0.3" points="380,-378.9 380,-436.5 437.6,-436.5 437.6,-378.9 380,-378.9"/>
<text text-anchor="middle" x="409" y="-421.3" font-family="GenWanMin TW TTF Medium" font-size="16.00">80022</text>
<polyline fill="none" stroke="black" stroke-width="0.3" points="380,-416.25 438,-416.25"/>
<text text-anchor="middle" x="409" y="-401.05" font-family="GenWanMin TW TTF Medium" font-size="16.00">萬15</text>
<polyline fill="none" stroke="black" stroke-width="0.3" points="380,-396 438,-396"/>
<text text-anchor="middle" x="409" y="-380.8" font-family="GenWanMin TW TTF Medium" font-size="16.00">建</text>
</a>
</g>
</g>
<!-- 70005&#45;&gt;80022 -->
<g id="edge16" class="edge">
<title>70005&#45;&gt;80022</title>
<path fill="none" stroke="black" d="M408.8,-473.52C408.8,-463.9 408.8,-453.01 408.8,-442.94"/>
<polygon fill="black" stroke="black" points="410.55,-442.98 408.8,-437.98 407.05,-442.98 410.55,-442.98"/>
</g>
<!-- 80023 -->
<g id="node18" class="node">
<title>80023</title>
<g id="a_node18"><a xlink:href="HZ\0010.jpg" xlink:title="刊誤千16|0" target="dynamic">
<polygon fill="none" stroke="black" stroke-width="0.3" points="456,-378.9 456,-436.5 513.6,-436.5 513.6,-378.9 456,-378.9"/>
<text text-anchor="middle" x="485" y="-421.3" font-family="GenWanMin TW TTF Medium" font-size="16.00">80023</text>
<polyline fill="none" stroke="black" stroke-width="0.3" points="456,-416.25 514,-416.25"/>
<text text-anchor="middle" x="485" y="-401.05" font-family="GenWanMin TW TTF Medium" font-size="16.00">萬16</text>
<polyline fill="none" stroke="black" stroke-width="0.3" points="456,-396 514,-396"/>
<text text-anchor="middle" x="485" y="-380.8" font-family="GenWanMin TW TTF Medium" font-size="16.00">裕</text>
</a>
</g>
</g>
<!-- 70007&#45;&gt;80023 -->
<g id="edge17" class="edge">
<title>70007&#45;&gt;80023</title>
<path fill="none" stroke="black" d="M484.8,-473.52C484.8,-463.9 484.8,-453.01 484.8,-442.94"/>
<polygon fill="black" stroke="black" points="486.55,-442.98 484.8,-437.98 483.05,-442.98 486.55,-442.98"/>
</g>
<!-- 80016 -->
<g id="node14" class="node">
<title>80016</title>
<g id="a_node14"><a xlink:href="HZ\0010.jpg" xlink:title="0|0" target="dynamic">
<polygon fill="none" stroke="black" stroke-width="0.3" points="76,-378.9 76,-436.5 133.6,-436.5 133.6,-378.9 76,-378.9"/>
<text text-anchor="middle" x="105" y="-421.3" font-family="GenWanMin TW TTF Medium" font-size="16.00">80016</text>
<polyline fill="none" stroke="black" stroke-width="0.3" points="76,-416.25 134,-416.25"/>
<text text-anchor="middle" x="105" y="-401.05" font-family="GenWanMin TW TTF Medium" font-size="16.00">萬5</text>
<polyline fill="none" stroke="black" stroke-width="0.3" points="76,-396 134,-396"/>
<text text-anchor="middle" x="105" y="-380.8" font-family="GenWanMin TW TTF Medium" font-size="16.00">昭</text>
</a>
</g>
</g>
<!-- 70009&#45;&gt;80016 -->
<g id="edge13" class="edge">
<title>70009&#45;&gt;80016</title>
<path fill="none" stroke="black" d="M131.4,-473.52C127.38,-463.72 122.81,-452.6 118.62,-442.37"/>
<polygon fill="black" stroke="black" points="120.29,-441.82 116.77,-437.86 117.05,-443.15 120.29,-441.82"/>
</g>
<!-- 80021 -->
<g id="node16" class="node">
<title>80021</title>
<g id="a_node16"><a xlink:href="HZ\0010.jpg" xlink:title="刊誤千11|0" target="dynamic">
<polygon fill="none" stroke="black" stroke-width="0.3" points="304,-378.9 304,-436.5 361.6,-436.5 361.6,-378.9 304,-378.9"/>
<text text-anchor="middle" x="333" y="-421.3" font-family="GenWanMin TW TTF Medium" font-size="16.00">80021</text>
<polyline fill="none" stroke="black" stroke-width="0.3" points="304,-416.25 362,-416.25"/>
<text text-anchor="middle" x="333" y="-401.05" font-family="GenWanMin TW TTF Medium" font-size="16.00">萬11</text>
<polyline fill="none" stroke="black" stroke-width="0.3" points="304,-396 362,-396"/>
<text text-anchor="middle" x="333" y="-380.8" font-family="GenWanMin TW TTF Medium" font-size="16.00">瑗</text>
</a>
</g>
</g>
<!-- 70011&#45;&gt;80021 -->
<g id="edge15" class="edge">
<title>70011&#45;&gt;80021</title>
<path fill="none" stroke="black" d="M332.8,-473.52C332.8,-463.9 332.8,-453.01 332.8,-442.94"/>
<polygon fill="black" stroke="black" points="334.55,-442.98 332.8,-437.98 331.05,-442.98 334.55,-442.98"/>
</g>
<!-- 80020 -->
<g id="node15" class="node">
<title>80020</title>
<g id="a_node15"><a xlink:href="HZ\0010.jpg" xlink:title="明國本刊誤千15，刊誤青龍頭|" target="dynamic">
<polygon fill="none" stroke="black" stroke-width="0.3" points="228,-378.9 228,-436.5 285.6,-436.5 285.6,-378.9 228,-378.9"/>
<text text-anchor="middle" x="257" y="-421.3" font-family="GenWanMin TW TTF Medium" font-size="16.00">80020</text>
<polyline fill="none" stroke="black" stroke-width="0.3" points="228,-416.25 286,-416.25"/>
<text text-anchor="middle" x="257" y="-401.05" font-family="GenWanMin TW TTF Medium" font-size="16.00">萬7</text>
<polyline fill="none" stroke="black" stroke-width="0.3" points="228,-396 286,-396"/>
<text text-anchor="middle" x="257" y="-380.8" font-family="GenWanMin TW TTF Medium" font-size="16.00">珊</text>
</a>
</g>
</g>
<!-- 70013&#45;&gt;80020 -->
<g id="edge14" class="edge">
<title>70013&#45;&gt;80020</title>
<path fill="none" stroke="black" d="M256.8,-473.52C256.8,-463.9 256.8,-453.01 256.8,-442.94"/>
<polygon fill="black" stroke="black" points="258.55,-442.98 256.8,-437.98 255.05,-442.98 258.55,-442.98"/>
</g>
<!-- 90015 -->
<g id="node19" class="node">
<title>90015</title>
<g id="a_node19"><a xlink:href="HZ\0012.jpg" xlink:title="0|0" target="dynamic">
<polygon fill="none" stroke="black" stroke-width="0.3" points="0,-284.3 0,-341.9 57.6,-341.9 57.6,-284.3 0,-284.3"/>
<text text-anchor="middle" x="29" y="-327.2" font-family="GenWanMin TW TTF Medium" font-size="16.00">90015</text>
<polyline fill="none" stroke="black" stroke-width="0.3" points="0,-322.65 58,-322.65"/>
<text text-anchor="middle" x="29" y="-307.95" font-family="GenWanMin TW TTF Medium" font-size="16.00">元3</text>
<polyline fill="none" stroke="black" stroke-width="0.3" points="0,-303.4 58,-303.4"/>
<text text-anchor="middle" x="29" y="-288.7" font-family="GenWanMin TW TTF Medium" font-size="16.00">0</text>
</a>
</g>
</g>
<!-- 80016&#45;&gt;90015 -->
<g id="edge18" class="edge">
<title>80016&#45;&gt;90015</title>
<path fill="none" stroke="black" d="M82,-378.92C73.66,-368.75 64.14,-357.16 55.49,-346.62"/>
<polygon fill="black" stroke="black" points="57.07,-345.79 52.55,-343.03 54.37,-348.01 57.07,-345.79"/>
</g>
<!-- 90018 -->
<g id="node22" class="node">
<title>90018</title>
<g id="a_node22"><a xlink:href="HZ\0012.jpg" xlink:title="有+攵|0" target="dynamic">
<polygon fill="none" stroke="black" stroke-width="0.3" points="76,-284.3 76,-341.9 133.6,-341.9 133.6,-284.3 76,-284.3"/>
<text text-anchor="middle" x="105" y="-326.7" font-family="GenWanMin TW TTF Medium" font-size="16.00">90018</text>
<polyline fill="none" stroke="black" stroke-width="0.3" points="76,-321.65 134,-321.65"/>
<text text-anchor="middle" x="105" y="-306.45" font-family="GenWanMin TW TTF Medium" font-size="16.00">元6</text>
<polyline fill="none" stroke="black" stroke-width="0.3" points="76,-301.4 134,-301.4"/>
<text text-anchor="middle" x="105" y="-286.2" font-family="GenWanMin TW TTF Medium" font-size="16.00">啟</text>
</a>
</g>
</g>
<!-- 80016&#45;&gt;90018 -->
<g id="edge21" class="edge">
<title>80016&#45;&gt;90018</title>
<path fill="none" stroke="black" d="M104.8,-378.92C104.8,-369.3 104.8,-358.41 104.8,-348.34"/>
<polygon fill="black" stroke="black" points="106.55,-348.38 104.8,-343.38 103.05,-348.38 106.55,-348.38"/>
</g>
<!-- 90016 -->
<g id="node20" class="node">
<title>90016</title>
<g id="a_node20"><a xlink:href="HZ\0012.jpg" xlink:title="0|0" target="dynamic">
<polygon fill="none" stroke="black" stroke-width="0.3" points="152,-284.3 152,-341.9 209.6,-341.9 209.6,-284.3 152,-284.3"/>
<text text-anchor="middle" x="181" y="-327.2" font-family="GenWanMin TW TTF Medium" font-size="16.00">90016</text>
<polyline fill="none" stroke="black" stroke-width="0.3" points="152,-322.65 210,-322.65"/>
<text text-anchor="middle" x="181" y="-307.95" font-family="GenWanMin TW TTF Medium" font-size="16.00">元4</text>
<polyline fill="none" stroke="black" stroke-width="0.3" points="152,-303.4 210,-303.4"/>
<text text-anchor="middle" x="181" y="-288.7" font-family="GenWanMin TW TTF Medium" font-size="16.00">0</text>
</a>
</g>
</g>
<!-- 80020&#45;&gt;90016 -->
<g id="edge19" class="edge">
<title>80020&#45;&gt;90016</title>
<path fill="none" stroke="black" d="M234,-378.92C225.66,-368.75 216.14,-357.16 207.49,-346.62"/>
<polygon fill="black" stroke="black" points="209.07,-345.79 204.55,-343.03 206.37,-348.01 209.07,-345.79"/>
</g>
<!-- 90020 -->
<g id="node24" class="node">
<title>90020</title>
<g id="a_node24"><a xlink:href="HZ\0012.jpg" xlink:title="明國本刊誤青龍頭|0" target="dynamic">
<polygon fill="none" stroke="black" stroke-width="0.3" points="228,-284.3 228,-341.9 285.6,-341.9 285.6,-284.3 228,-284.3"/>
<text text-anchor="middle" x="257" y="-327.2" font-family="GenWanMin TW TTF Medium" font-size="16.00">90020</text>
<polyline fill="none" stroke="black" stroke-width="0.3" points="228,-322.65 286,-322.65"/>
<text text-anchor="middle" x="257" y="-307.95" font-family="GenWanMin TW TTF Medium" font-size="16.00">元8</text>
<polyline fill="none" stroke="black" stroke-width="0.3" points="228,-303.4 286,-303.4"/>
<text text-anchor="middle" x="257" y="-288.7" font-family="GenWanMin TW TTF Medium" font-size="16.00">0</text>
</a>
</g>
</g>
<!-- 80020&#45;&gt;90020 -->
<g id="edge23" class="edge">
<title>80020&#45;&gt;90020</title>
<path fill="none" stroke="black" d="M256.8,-378.92C256.8,-369.3 256.8,-358.41 256.8,-348.34"/>
<polygon fill="black" stroke="black" points="258.55,-348.38 256.8,-343.38 255.05,-348.38 258.55,-348.38"/>
</g>
<!-- 90017 -->
<g id="node21" class="node">
<title>90017</title>
<g id="a_node21"><a xlink:href="HZ\0012.jpg" xlink:title="刊誤萬10|0" target="dynamic">
<polygon fill="none" stroke="black" stroke-width="0.3" points="304,-284.3 304,-341.9 361.6,-341.9 361.6,-284.3 304,-284.3"/>
<text text-anchor="middle" x="333" y="-327.2" font-family="GenWanMin TW TTF Medium" font-size="16.00">90017</text>
<polyline fill="none" stroke="black" stroke-width="0.3" points="304,-322.65 362,-322.65"/>
<text text-anchor="middle" x="333" y="-307.95" font-family="GenWanMin TW TTF Medium" font-size="16.00">元5</text>
<polyline fill="none" stroke="black" stroke-width="0.3" points="304,-303.4 362,-303.4"/>
<text text-anchor="middle" x="333" y="-288.7" font-family="GenWanMin TW TTF Medium" font-size="16.00">0</text>
</a>
</g>
</g>
<!-- 80021&#45;&gt;90017 -->
<g id="edge20" class="edge">
<title>80021&#45;&gt;90017</title>
<path fill="none" stroke="black" d="M332.8,-378.92C332.8,-369.3 332.8,-358.41 332.8,-348.34"/>
<polygon fill="black" stroke="black" points="334.55,-348.38 332.8,-343.38 331.05,-348.38 334.55,-348.38"/>
</g>
<!-- 90019 -->
<g id="node23" class="node">
<title>90019</title>
<g id="a_node23"><a xlink:href="HZ\0012.jpg" xlink:title="刊誤萬10|0" target="dynamic">
<polygon fill="none" stroke="black" stroke-width="0.3" points="380,-284.3 380,-341.9 437.6,-341.9 437.6,-284.3 380,-284.3"/>
<text text-anchor="middle" x="409" y="-326.7" font-family="GenWanMin TW TTF Medium" font-size="16.00">90019</text>
<polyline fill="none" stroke="black" stroke-width="0.3" points="380,-321.65 438,-321.65"/>
<text text-anchor="middle" x="409" y="-306.45" font-family="GenWanMin TW TTF Medium" font-size="16.00">元7</text>
<polyline fill="none" stroke="black" stroke-width="0.3" points="380,-301.4 438,-301.4"/>
<text text-anchor="middle" x="409" y="-286.2" font-family="GenWanMin TW TTF Medium" font-size="16.00">一清</text>
</a>
</g>
</g>
<!-- 80021&#45;&gt;90019 -->
<g id="edge22" class="edge">
<title>80021&#45;&gt;90019</title>
<path fill="none" stroke="black" d="M355.6,-378.92C363.94,-368.75 373.46,-357.16 382.11,-346.62"/>
<polygon fill="black" stroke="black" points="383.23,-348.01 385.05,-343.03 380.53,-345.79 383.23,-348.01"/>
</g>
<!-- 100006 -->
<g id="node25" class="node">
<title>100006</title>
<g id="a_node25"><a xlink:href="HZ\0014.jpg" xlink:title="0|0" target="dynamic">
<polygon fill="none" stroke="black" stroke-width="0.3" points="76,-189.7 76,-247.3 133.6,-247.3 133.6,-189.7 76,-189.7"/>
<text text-anchor="middle" x="105" y="-232.1" font-family="GenWanMin TW TTF Medium" font-size="16.00">100006</text>
<polyline fill="none" stroke="black" stroke-width="0.3" points="76,-227.05 134,-227.05"/>
<text text-anchor="middle" x="105" y="-211.85" font-family="GenWanMin TW TTF Medium" font-size="16.00">雲1</text>
<polyline fill="none" stroke="black" stroke-width="0.3" points="76,-206.8 134,-206.8"/>
<text text-anchor="middle" x="105" y="-191.6" font-family="GenWanMin TW TTF Medium" font-size="16.00">綰</text>
</a>
</g>
</g>
<!-- 90018&#45;&gt;100006 -->
<g id="edge24" class="edge">
<title>90018&#45;&gt;100006</title>
<path fill="none" stroke="black" d="M104.8,-284.32C104.8,-274.7 104.8,-263.81 104.8,-253.74"/>
<polygon fill="black" stroke="black" points="106.55,-253.78 104.8,-248.78 103.05,-253.78 106.55,-253.78"/>
</g>
<!-- 100008 -->
<g id="node26" class="node">
<title>100008</title>
<g id="a_node26"><a xlink:href="HZ\0014.jpg" xlink:title="245|0" target="dynamic">
<polygon fill="none" stroke="black" stroke-width="0.3" points="342,-189.7 342,-247.3 399.6,-247.3 399.6,-189.7 342,-189.7"/>
<text text-anchor="middle" x="371" y="-232.1" font-family="GenWanMin TW TTF Medium" font-size="16.00">100008</text>
<polyline fill="none" stroke="black" stroke-width="0.3" points="342,-227.05 400,-227.05"/>
<text text-anchor="middle" x="371" y="-211.85" font-family="GenWanMin TW TTF Medium" font-size="16.00">雲2_2</text>
<polyline fill="none" stroke="black" stroke-width="0.3" points="342,-206.8 400,-206.8"/>
<text text-anchor="middle" x="371" y="-191.6" font-family="GenWanMin TW TTF Medium" font-size="16.00">高</text>
</a>
</g>
</g>
<!-- 90019&#45;&gt;100008 -->
<g id="edge25" class="edge">
<title>90019&#45;&gt;100008</title>
<path fill="none" stroke="black" d="M397.4,-284.32C393.38,-274.52 388.81,-263.4 384.62,-253.17"/>
<polygon fill="black" stroke="black" points="386.29,-252.62 382.77,-248.66 383.05,-253.95 386.29,-252.62"/>
</g>
<!-- 100009 -->
<g id="node27" class="node">
<title>100009</title>
<g id="a_node27"><a xlink:href="HZ\0014.jpg" xlink:title="0|0" target="dynamic">
<polygon fill="none" stroke="black" stroke-width="0.3" points="418,-189.7 418,-247.3 475.6,-247.3 475.6,-189.7 418,-189.7"/>
<text text-anchor="middle" x="447" y="-232.1" font-family="GenWanMin TW TTF Medium" font-size="16.00">100009</text>
<polyline fill="none" stroke="black" stroke-width="0.3" points="418,-227.05 476,-227.05"/>
<text text-anchor="middle" x="447" y="-211.85" font-family="GenWanMin TW TTF Medium" font-size="16.00">雲3</text>
<polyline fill="none" stroke="black" stroke-width="0.3" points="418,-206.8 476,-206.8"/>
<text text-anchor="middle" x="447" y="-191.6" font-family="GenWanMin TW TTF Medium" font-size="16.00">危</text>
</a>
</g>
</g>
<!-- 90019&#45;&gt;100009 -->
<g id="edge26" class="edge">
<title>90019&#45;&gt;100009</title>
<path fill="none" stroke="black" d="M420.2,-284.32C424.22,-274.52 428.79,-263.4 432.98,-253.17"/>
<polygon fill="black" stroke="black" points="434.55,-253.95 434.83,-248.66 431.31,-252.62 434.55,-253.95"/>
</g>
<!-- 110008 -->
<g id="node28" class="node">
<title>110008</title>
<g id="a_node28"><a xlink:href="HZ\0016.jpg" xlink:title="0|0" target="dynamic">
<polygon fill="none" stroke="black" stroke-width="0.3" points="342,-95.1 342,-152.7 399.6,-152.7 399.6,-95.1 342,-95.1"/>
<text text-anchor="middle" x="371" y="-137.5" font-family="GenWanMin TW TTF Medium" font-size="16.00">110008</text>
<polyline fill="none" stroke="black" stroke-width="0.3" points="342,-132.45 400,-132.45"/>
<text text-anchor="middle" x="371" y="-117.25" font-family="GenWanMin TW TTF Medium" font-size="16.00">亨1</text>
<polyline fill="none" stroke="black" stroke-width="0.3" points="342,-112.2 400,-112.2"/>
<text text-anchor="middle" x="371" y="-97" font-family="GenWanMin TW TTF Medium" font-size="16.00">遂</text>
</a>
</g>
</g>
<!-- 100008&#45;&gt;110008 -->
<g id="edge27" class="edge">
<title>100008&#45;&gt;110008</title>
<path fill="none" stroke="black" d="M370.8,-189.72C370.8,-180.1 370.8,-169.21 370.8,-159.14"/>
<polygon fill="black" stroke="black" points="372.55,-159.18 370.8,-154.18 369.05,-159.18 372.55,-159.18"/>
</g>
<!-- 120014 -->
<g id="node29" class="node">
<title>120014</title>
<g id="a_node29"><a xlink:href="HZ\0019.jpg" xlink:title="刊誤亨2|0" target="dynamic">
<polygon fill="none" stroke="black" stroke-width="0.3" points="342,-0.5 342,-58.1 399.6,-58.1 399.6,-0.5 342,-0.5"/>
<text text-anchor="middle" x="371" y="-43.4" font-family="GenWanMin TW TTF Medium" font-size="16.00">120014</text>
<polyline fill="none" stroke="black" stroke-width="0.3" points="342,-38.85 400,-38.85"/>
<text text-anchor="middle" x="371" y="-24.15" font-family="GenWanMin TW TTF Medium" font-size="16.00">賢1</text>
<polyline fill="none" stroke="black" stroke-width="0.3" points="342,-19.6 400,-19.6"/>
<text text-anchor="middle" x="371" y="-4.9" font-family="GenWanMin TW TTF Medium" font-size="16.00">0</text>
</a>
</g>
</g>
<!-- 110008&#45;&gt;120014 -->
<g id="edge28" class="edge">
<title>110008&#45;&gt;120014</title>
<path fill="none" stroke="black" d="M370.8,-95.12C370.8,-85.5 370.8,-74.61 370.8,-64.54"/>
<polygon fill="black" stroke="black" points="372.55,-64.58 370.8,-59.58 369.05,-64.58 372.55,-64.58"/>
</g>
</g>
</svg>
