<?xml version="1.0" encoding="UTF-8" standalone="no"?>
<!DOCTYPE svg PUBLIC "-//W3C//DTD SVG 1.1//EN"
 "http://www.w3.org/Graphics/SVG/1.1/DTD/svg11.dtd">
<!-- Generated by graphviz version 12.2.1 (20241206.2353)
 -->
<!-- Pages: 1 -->
<svg width="543pt" height="596pt"
 viewBox="0.00 0.00 543.00 596.00" xmlns="http://www.w3.org/2000/svg" xmlns:xlink="http://www.w3.org/1999/xlink">
<g id="graph0" class="graph" transform="scale(1 1) rotate(0) translate(4 592)">
<polygon fill="white" stroke="none" points="-4,4 -4,-592 539,-592 539,4 -4,4"/>
<!-- 50002 -->
<g id="node1" class="node">
<title>50002</title>
<g id="a_node1"><a xlink:href="/docs/biography/行传/5/0002" xlink:title="编号：50002，運宗，車方&#45;&#45;&gt;楊樹角。点击查看详情">
<polygon fill="#f0f0f0" stroke="none" points="297.38,-567 297.38,-584 370.62,-584 370.62,-567 297.38,-567"/>
<polygon fill="none" stroke="darkred" points="297.38,-567 297.38,-584 370.62,-584 370.62,-567 297.38,-567"/>
<text text-anchor="start" x="323.5" y="-569.7" font-family="SimSun" font-size="14.00" fill="#8b0000">五2</text>
<polygon fill="#ffffff" stroke="none" points="297.38,-550 297.38,-567 370.62,-567 370.62,-550 297.38,-550"/>
<polygon fill="none" stroke="darkred" points="297.38,-550 297.38,-567 370.62,-567 370.62,-550 297.38,-550"/>
<text text-anchor="start" x="298.38" y="-552.7" font-family="SimSun" font-size="14.00" fill="#8b0000">【楊樹角】</text>
</a>
</g>
</g>
<!-- 60001 -->
<g id="node6" class="node">
<title>60001</title>
<g id="a_node6"><a xlink:href="/docs/biography/行传/6/0001" xlink:title="编号：60001，子昌，0。点击查看详情">
<polygon fill="#f0f0f0" stroke="none" points="142,-489 142,-506 192,-506 192,-489 142,-489"/>
<polygon fill="none" stroke="black" points="142,-489 142,-506 192,-506 192,-489 142,-489"/>
<text text-anchor="start" x="156.5" y="-491.7" font-family="SimSun" font-size="14.00">六1</text>
<polygon fill="#ffffff" stroke="none" points="142,-472 142,-489 192,-489 192,-472 142,-472"/>
<polygon fill="none" stroke="black" points="142,-472 142,-489 192,-489 192,-472 142,-472"/>
<text text-anchor="start" x="152.75" y="-474.7" font-family="SimSun" font-size="14.00">子昌</text>
</a>
</g>
</g>
<!-- 50002&#45;&gt;60001 -->
<g id="edge1" class="edge">
<title>50002&#45;&gt;60001</title>
<path fill="none" stroke="black" d="M289.63,-548.04C266.97,-538.61 238.81,-526.5 209.86,-512.75"/>
<polygon fill="black" stroke="black" points="211.5,-509.66 200.97,-508.48 208.47,-515.97 211.5,-509.66"/>
</g>
<!-- 60007 -->
<g id="node7" class="node">
<title>60007</title>
<g id="a_node7"><a xlink:href="/docs/biography/行传/6/0007" xlink:title="编号：60007，子檜，0。点击查看详情">
<polygon fill="#f0f0f0" stroke="none" points="410,-489 410,-506 460,-506 460,-489 410,-489"/>
<polygon fill="none" stroke="black" points="410,-489 410,-506 460,-506 460,-489 410,-489"/>
<text text-anchor="start" x="424.5" y="-491.7" font-family="SimSun" font-size="14.00">六9</text>
<polygon fill="#ffffff" stroke="none" points="410,-472 410,-489 460,-489 460,-472 410,-472"/>
<polygon fill="none" stroke="black" points="410,-472 410,-489 460,-489 460,-472 410,-472"/>
<text text-anchor="start" x="420.75" y="-474.7" font-family="SimSun" font-size="14.00">子檜</text>
</a>
</g>
</g>
<!-- 50002&#45;&gt;60007 -->
<g id="edge5" class="edge">
<title>50002&#45;&gt;60007</title>
<path fill="none" stroke="black" d="M360.54,-546.03C372.48,-537.04 386.76,-526.3 399.6,-516.64"/>
<polygon fill="black" stroke="black" points="401.55,-519.55 407.43,-510.74 397.34,-513.96 401.55,-519.55"/>
</g>
<!-- 60002 -->
<g id="node13" class="node">
<title>60002</title>
<g id="a_node13"><a xlink:href="/docs/biography/行传/6/0002" xlink:title="编号：60002，子端，0。点击查看详情">
<polygon fill="#f0f0f0" stroke="none" points="209,-489 209,-506 259,-506 259,-489 209,-489"/>
<polygon fill="none" stroke="black" points="209,-489 209,-506 259,-506 259,-489 209,-489"/>
<text text-anchor="start" x="223.5" y="-491.7" font-family="SimSun" font-size="14.00">六2</text>
<polygon fill="#ffffff" stroke="none" points="209,-472 209,-489 259,-489 259,-472 209,-472"/>
<polygon fill="none" stroke="black" points="209,-472 209,-489 259,-489 259,-472 209,-472"/>
<text text-anchor="start" x="219.75" y="-474.7" font-family="SimSun" font-size="14.00">子端</text>
</a>
</g>
</g>
<!-- 50002&#45;&gt;60002 -->
<g id="edge2" class="edge">
<title>50002&#45;&gt;60002</title>
<path fill="none" stroke="black" d="M307.73,-546.03C295.9,-537.04 281.77,-526.3 269.05,-516.64"/>
<polygon fill="black" stroke="black" points="271.38,-514.01 261.3,-510.75 267.15,-519.59 271.38,-514.01"/>
</g>
<!-- 60004 -->
<g id="node17" class="node">
<title>60004</title>
<g id="a_node17"><a xlink:href="/docs/biography/行传/6/0004" xlink:title="编号：60004，子森，0。点击查看详情">
<polygon fill="#f0f0f0" stroke="none" points="343,-489 343,-506 393,-506 393,-489 343,-489"/>
<polygon fill="none" stroke="black" points="343,-489 343,-506 393,-506 393,-489 343,-489"/>
<text text-anchor="start" x="357.5" y="-491.7" font-family="SimSun" font-size="14.00">六4</text>
<polygon fill="#ffffff" stroke="none" points="343,-472 343,-489 393,-489 393,-472 343,-472"/>
<polygon fill="none" stroke="black" points="343,-472 343,-489 393,-489 393,-472 343,-472"/>
<text text-anchor="start" x="353.75" y="-474.7" font-family="SimSun" font-size="14.00">子森</text>
</a>
</g>
</g>
<!-- 50002&#45;&gt;60004 -->
<g id="edge4" class="edge">
<title>50002&#45;&gt;60004</title>
<path fill="none" stroke="black" d="M342.93,-546.03C346.45,-538.18 350.56,-528.98 354.43,-520.34"/>
<polygon fill="black" stroke="black" points="357.62,-521.77 358.51,-511.22 351.23,-518.92 357.62,-521.77"/>
</g>
<!-- 60011 -->
<g id="node19" class="node">
<title>60011</title>
<g id="a_node19"><a xlink:href="/docs/biography/行传/6/0011" xlink:title="编号：60011，子彬，0。点击查看详情">
<polygon fill="#f0f0f0" stroke="none" points="477,-489 477,-506 527,-506 527,-489 477,-489"/>
<polygon fill="none" stroke="black" points="477,-489 477,-506 527,-506 527,-489 477,-489"/>
<text text-anchor="start" x="488.12" y="-491.7" font-family="SimSun" font-size="14.00">六12</text>
<polygon fill="#ffffff" stroke="none" points="477,-472 477,-489 527,-489 527,-472 477,-472"/>
<polygon fill="none" stroke="black" points="477,-472 477,-489 527,-489 527,-472 477,-472"/>
<text text-anchor="start" x="487.75" y="-474.7" font-family="SimSun" font-size="14.00">子彬</text>
</a>
</g>
</g>
<!-- 50002&#45;&gt;60011 -->
<g id="edge6" class="edge">
<title>50002&#45;&gt;60011</title>
<path fill="none" stroke="black" d="M378.42,-548.2C401.3,-538.77 429.8,-526.61 459.04,-512.79"/>
<polygon fill="black" stroke="black" points="460.52,-515.96 468.03,-508.48 457.5,-509.64 460.52,-515.96"/>
</g>
<!-- 60003 -->
<g id="node29" class="node">
<title>60003</title>
<g id="a_node29"><a xlink:href="/docs/biography/行传/6/0003" xlink:title="编号：60003，子華，0。点击查看详情">
<polygon fill="#f0f0f0" stroke="none" points="276,-489 276,-506 326,-506 326,-489 276,-489"/>
<polygon fill="none" stroke="black" points="276,-489 276,-506 326,-506 326,-489 276,-489"/>
<text text-anchor="start" x="290.5" y="-491.7" font-family="SimSun" font-size="14.00">六3</text>
<polygon fill="#ffffff" stroke="none" points="276,-472 276,-489 326,-489 326,-472 276,-472"/>
<polygon fill="none" stroke="black" points="276,-472 276,-489 326,-489 326,-472 276,-472"/>
<text text-anchor="start" x="286.75" y="-474.7" font-family="SimSun" font-size="14.00">子華</text>
</a>
</g>
</g>
<!-- 50002&#45;&gt;60003 -->
<g id="edge3" class="edge">
<title>50002&#45;&gt;60003</title>
<path fill="none" stroke="black" d="M325.33,-546.03C321.92,-538.18 317.93,-528.98 314.18,-520.34"/>
<polygon fill="black" stroke="black" points="317.41,-519 310.22,-511.22 310.99,-521.79 317.41,-519"/>
</g>
<!-- 70013 -->
<g id="node2" class="node">
<title>70013</title>
<g id="a_node2"><a xlink:href="/docs/biography/行传/7/0013" xlink:title="编号：70013，羅，0。点击查看详情">
<polygon fill="#f0f0f0" stroke="none" points="209,-411 209,-428 259,-428 259,-411 209,-411"/>
<polygon fill="none" stroke="black" points="209,-411 209,-428 259,-428 259,-411 209,-411"/>
<text text-anchor="start" x="220.12" y="-413.7" font-family="SimSun" font-size="14.00">千11</text>
<polygon fill="#ffffff" stroke="none" points="209,-394 209,-411 259,-411 259,-394 209,-394"/>
<polygon fill="none" stroke="black" points="209,-394 209,-411 259,-411 259,-394 209,-394"/>
<text text-anchor="start" x="226.88" y="-396.7" font-family="SimSun" font-size="14.00">羅</text>
</a>
</g>
</g>
<!-- 80020 -->
<g id="node12" class="node">
<title>80020</title>
<g id="a_node12"><a xlink:href="/docs/biography/行传/8/0020" xlink:title="编号：80020，珊，0。点击查看详情">
<polygon fill="#f0f0f0" stroke="none" points="209,-333 209,-350 259,-350 259,-333 209,-333"/>
<polygon fill="none" stroke="black" points="209,-333 209,-350 259,-350 259,-333 209,-333"/>
<text text-anchor="start" x="223.5" y="-335.7" font-family="SimSun" font-size="14.00">萬7</text>
<polygon fill="#ffffff" stroke="none" points="209,-316 209,-333 259,-333 259,-316 209,-316"/>
<polygon fill="none" stroke="black" points="209,-316 209,-333 259,-333 259,-316 209,-316"/>
<text text-anchor="start" x="226.88" y="-318.7" font-family="SimSun" font-size="14.00">珊</text>
</a>
</g>
</g>
<!-- 70013&#45;&gt;80020 -->
<g id="edge7" class="edge">
<title>70013&#45;&gt;80020</title>
<path fill="none" stroke="black" d="M234,-390.03C234,-382.44 234,-373.6 234,-365.21"/>
<polygon fill="black" stroke="black" points="237.5,-365.35 234,-355.35 230.5,-365.35 237.5,-365.35"/>
</g>
<!-- 90017 -->
<g id="node3" class="node">
<title>90017</title>
<g id="a_node3"><a xlink:href="/docs/biography/行传/9/0017" xlink:title="编号：90017，，0。点击查看详情">
<polygon fill="#f0f0f0" stroke="none" points="276,-255 276,-272 326,-272 326,-255 276,-255"/>
<polygon fill="none" stroke="black" points="276,-255 276,-272 326,-272 326,-255 276,-255"/>
<text text-anchor="start" x="290.5" y="-257.7" font-family="SimSun" font-size="14.00">元5</text>
<polygon fill="#ffffff" stroke="none" points="276,-238 276,-255 326,-255 326,-238 276,-238"/>
<polygon fill="none" stroke="black" points="276,-238 276,-255 326,-255 326,-238 276,-238"/>
<text text-anchor="start" x="297.62" y="-240.7" font-family="SimSun" font-size="14.00"> </text>
</a>
</g>
</g>
<!-- 100009 -->
<g id="node4" class="node">
<title>100009</title>
<g id="a_node4"><a xlink:href="/docs/biography/行传/10/0009" xlink:title="编号：100009，危，0。点击查看详情">
<polygon fill="#f0f0f0" stroke="none" points="376,-177 376,-194 426,-194 426,-177 376,-177"/>
<polygon fill="none" stroke="black" points="376,-177 376,-194 426,-194 426,-177 376,-177"/>
<text text-anchor="start" x="390.5" y="-179.7" font-family="SimSun" font-size="14.00">雲3</text>
<polygon fill="#ffffff" stroke="none" points="376,-160 376,-177 426,-177 426,-160 376,-160"/>
<polygon fill="none" stroke="black" points="376,-160 376,-177 426,-177 426,-160 376,-160"/>
<text text-anchor="start" x="393.88" y="-162.7" font-family="SimSun" font-size="14.00">危</text>
</a>
</g>
</g>
<!-- 120014 -->
<g id="node5" class="node">
<title>120014</title>
<g id="a_node5"><a xlink:href="/docs/biography/行传/12/0014" xlink:title="编号：120014，，0。点击查看详情">
<polygon fill="#f0f0f0" stroke="none" points="309,-21 309,-38 359,-38 359,-21 309,-21"/>
<polygon fill="none" stroke="black" points="309,-21 309,-38 359,-38 359,-21 309,-21"/>
<text text-anchor="start" x="323.5" y="-23.7" font-family="SimSun" font-size="14.00">賢1</text>
<polygon fill="#ffffff" stroke="none" points="309,-4 309,-21 359,-21 359,-4 309,-4"/>
<polygon fill="none" stroke="black" points="309,-4 309,-21 359,-21 359,-4 309,-4"/>
<text text-anchor="start" x="330.62" y="-6.7" font-family="SimSun" font-size="14.00"> </text>
</a>
</g>
</g>
<!-- 70005 -->
<g id="node8" class="node">
<title>70005</title>
<g id="a_node8"><a xlink:href="/docs/biography/行传/7/0005" xlink:title="编号：70005，初，0。点击查看详情">
<polygon fill="#f0f0f0" stroke="none" points="343,-411 343,-428 393,-428 393,-411 343,-411"/>
<polygon fill="none" stroke="black" points="343,-411 343,-428 393,-428 393,-411 343,-411"/>
<text text-anchor="start" x="357.5" y="-413.7" font-family="SimSun" font-size="14.00">千5</text>
<polygon fill="#ffffff" stroke="none" points="343,-394 343,-411 393,-411 393,-394 343,-394"/>
<polygon fill="none" stroke="black" points="343,-394 343,-411 393,-411 393,-394 343,-394"/>
<text text-anchor="start" x="360.88" y="-396.7" font-family="SimSun" font-size="14.00">初</text>
</a>
</g>
</g>
<!-- 80022 -->
<g id="node21" class="node">
<title>80022</title>
<g id="a_node21"><a xlink:href="/docs/biography/行传/8/0022" xlink:title="编号：80022，建，0。点击查看详情">
<polygon fill="#f0f0f0" stroke="none" points="343,-333 343,-350 393,-350 393,-333 343,-333"/>
<polygon fill="none" stroke="black" points="343,-333 343,-350 393,-350 393,-333 343,-333"/>
<text text-anchor="start" x="354.12" y="-335.7" font-family="SimSun" font-size="14.00">萬15</text>
<polygon fill="#ffffff" stroke="none" points="343,-316 343,-333 393,-333 393,-316 343,-316"/>
<polygon fill="none" stroke="black" points="343,-316 343,-333 393,-333 393,-316 343,-316"/>
<text text-anchor="start" x="360.88" y="-318.7" font-family="SimSun" font-size="14.00">建</text>
</a>
</g>
</g>
<!-- 70005&#45;&gt;80022 -->
<g id="edge8" class="edge">
<title>70005&#45;&gt;80022</title>
<path fill="none" stroke="black" d="M368,-390.03C368,-382.44 368,-373.6 368,-365.21"/>
<polygon fill="black" stroke="black" points="371.5,-365.35 368,-355.35 364.5,-365.35 371.5,-365.35"/>
</g>
<!-- 70011 -->
<g id="node9" class="node">
<title>70011</title>
<g id="a_node9"><a xlink:href="/docs/biography/行传/7/0011" xlink:title="编号：70011，洪，0。点击查看详情">
<polygon fill="#f0f0f0" stroke="none" points="276,-411 276,-428 326,-428 326,-411 276,-411"/>
<polygon fill="none" stroke="black" points="276,-411 276,-428 326,-428 326,-411 276,-411"/>
<text text-anchor="start" x="287.12" y="-413.7" font-family="SimSun" font-size="14.00">千10</text>
<polygon fill="#ffffff" stroke="none" points="276,-394 276,-411 326,-411 326,-394 276,-394"/>
<polygon fill="none" stroke="black" points="276,-394 276,-411 326,-411 326,-394 276,-394"/>
<text text-anchor="start" x="293.88" y="-396.7" font-family="SimSun" font-size="14.00">洪</text>
</a>
</g>
</g>
<!-- 80021 -->
<g id="node18" class="node">
<title>80021</title>
<g id="a_node18"><a xlink:href="/docs/biography/行传/8/0021" xlink:title="编号：80021，瑗，0。点击查看详情">
<polygon fill="#f0f0f0" stroke="none" points="276,-333 276,-350 326,-350 326,-333 276,-333"/>
<polygon fill="none" stroke="black" points="276,-333 276,-350 326,-350 326,-333 276,-333"/>
<text text-anchor="start" x="287.12" y="-335.7" font-family="SimSun" font-size="14.00">萬11</text>
<polygon fill="#ffffff" stroke="none" points="276,-316 276,-333 326,-333 326,-316 276,-316"/>
<polygon fill="none" stroke="black" points="276,-316 276,-333 326,-333 326,-316 276,-316"/>
<text text-anchor="start" x="293.88" y="-318.7" font-family="SimSun" font-size="14.00">瑗</text>
</a>
</g>
</g>
<!-- 70011&#45;&gt;80021 -->
<g id="edge9" class="edge">
<title>70011&#45;&gt;80021</title>
<path fill="none" stroke="black" d="M301,-390.03C301,-382.44 301,-373.6 301,-365.21"/>
<polygon fill="black" stroke="black" points="304.5,-365.35 301,-355.35 297.5,-365.35 304.5,-365.35"/>
</g>
<!-- 100008 -->
<g id="node10" class="node">
<title>100008</title>
<g id="a_node10"><a xlink:href="/docs/biography/行传/10/0008" xlink:title="编号：100008，高，0。点击查看详情">
<polygon fill="#f0f0f0" stroke="none" points="309,-177 309,-194 359,-194 359,-177 309,-177"/>
<polygon fill="none" stroke="black" points="309,-177 309,-194 359,-194 359,-177 309,-177"/>
<text text-anchor="start" x="316.75" y="-179.7" font-family="SimSun" font-size="14.00">雲2_2</text>
<polygon fill="#ffffff" stroke="none" points="309,-160 309,-177 359,-177 359,-160 309,-160"/>
<polygon fill="none" stroke="black" points="309,-160 309,-177 359,-177 359,-160 309,-160"/>
<text text-anchor="start" x="326.88" y="-162.7" font-family="SimSun" font-size="14.00">高</text>
</a>
</g>
</g>
<!-- 110008 -->
<g id="node15" class="node">
<title>110008</title>
<g id="a_node15"><a xlink:href="/docs/biography/行传/11/0008" xlink:title="编号：110008，遂，0。点击查看详情">
<polygon fill="#f0f0f0" stroke="none" points="309,-99 309,-116 359,-116 359,-99 309,-99"/>
<polygon fill="none" stroke="black" points="309,-99 309,-116 359,-116 359,-99 309,-99"/>
<text text-anchor="start" x="323.5" y="-101.7" font-family="SimSun" font-size="14.00">亨1</text>
<polygon fill="#ffffff" stroke="none" points="309,-82 309,-99 359,-99 359,-82 309,-82"/>
<polygon fill="none" stroke="black" points="309,-82 309,-99 359,-99 359,-82 309,-82"/>
<text text-anchor="start" x="326.88" y="-84.7" font-family="SimSun" font-size="14.00">遂</text>
</a>
</g>
</g>
<!-- 100008&#45;&gt;110008 -->
<g id="edge10" class="edge">
<title>100008&#45;&gt;110008</title>
<path fill="none" stroke="black" d="M334,-156.03C334,-148.44 334,-139.6 334,-131.21"/>
<polygon fill="black" stroke="black" points="337.5,-131.35 334,-121.35 330.5,-131.35 337.5,-131.35"/>
</g>
<!-- 100006 -->
<g id="node11" class="node">
<title>100006</title>
<g id="a_node11"><a xlink:href="/docs/biography/行传/10/0006" xlink:title="编号：100006，綰，0。点击查看详情">
<polygon fill="#f0f0f0" stroke="none" points="75,-177 75,-194 125,-194 125,-177 75,-177"/>
<polygon fill="none" stroke="black" points="75,-177 75,-194 125,-194 125,-177 75,-177"/>
<text text-anchor="start" x="89.5" y="-179.7" font-family="SimSun" font-size="14.00">雲1</text>
<polygon fill="#ffffff" stroke="none" points="75,-160 75,-177 125,-177 125,-160 75,-160"/>
<polygon fill="none" stroke="black" points="75,-160 75,-177 125,-177 125,-160 75,-160"/>
<text text-anchor="start" x="92.88" y="-162.7" font-family="SimSun" font-size="14.00">綰</text>
</a>
</g>
</g>
<!-- 90016 -->
<g id="node25" class="node">
<title>90016</title>
<g id="a_node25"><a xlink:href="/docs/biography/行传/9/0016" xlink:title="编号：90016，，0。点击查看详情">
<polygon fill="#f0f0f0" stroke="none" points="142,-255 142,-272 192,-272 192,-255 142,-255"/>
<polygon fill="none" stroke="black" points="142,-255 142,-272 192,-272 192,-255 142,-255"/>
<text text-anchor="start" x="156.5" y="-257.7" font-family="SimSun" font-size="14.00">元4</text>
<polygon fill="#ffffff" stroke="none" points="142,-238 142,-255 192,-255 192,-238 142,-238"/>
<polygon fill="none" stroke="black" points="142,-238 142,-255 192,-255 192,-238 142,-238"/>
<text text-anchor="start" x="163.62" y="-240.7" font-family="SimSun" font-size="14.00"> </text>
</a>
</g>
</g>
<!-- 80020&#45;&gt;90016 -->
<g id="edge11" class="edge">
<title>80020&#45;&gt;90016</title>
<path fill="none" stroke="black" d="M216.4,-312.03C208.93,-303.57 200.1,-293.55 191.98,-284.34"/>
<polygon fill="black" stroke="black" points="194.73,-282.16 185.49,-276.97 189.47,-286.79 194.73,-282.16"/>
</g>
<!-- 90020 -->
<g id="node27" class="node">
<title>90020</title>
<g id="a_node27"><a xlink:href="/docs/biography/行传/9/0020" xlink:title="编号：90020，，0。点击查看详情">
<polygon fill="#f0f0f0" stroke="none" points="209,-255 209,-272 259,-272 259,-255 209,-255"/>
<polygon fill="none" stroke="black" points="209,-255 209,-272 259,-272 259,-255 209,-255"/>
<text text-anchor="start" x="223.5" y="-257.7" font-family="SimSun" font-size="14.00">元8</text>
<polygon fill="#ffffff" stroke="none" points="209,-238 209,-255 259,-255 259,-238 209,-238"/>
<polygon fill="none" stroke="black" points="209,-238 209,-255 259,-255 259,-238 209,-238"/>
<text text-anchor="start" x="230.62" y="-240.7" font-family="SimSun" font-size="14.00"> </text>
</a>
</g>
</g>
<!-- 80020&#45;&gt;90020 -->
<g id="edge12" class="edge">
<title>80020&#45;&gt;90020</title>
<path fill="none" stroke="black" d="M234,-312.03C234,-304.44 234,-295.6 234,-287.21"/>
<polygon fill="black" stroke="black" points="237.5,-287.35 234,-277.35 230.5,-287.35 237.5,-287.35"/>
</g>
<!-- 60002&#45;&gt;70013 -->
<g id="edge14" class="edge">
<title>60002&#45;&gt;70013</title>
<path fill="none" stroke="black" d="M234,-468.03C234,-460.44 234,-451.6 234,-443.21"/>
<polygon fill="black" stroke="black" points="237.5,-443.35 234,-433.35 230.5,-443.35 237.5,-443.35"/>
</g>
<!-- 70009 -->
<g id="node24" class="node">
<title>70009</title>
<g id="a_node24"><a xlink:href="/docs/biography/行传/7/0009" xlink:title="编号：70009，進，0。点击查看详情">
<polygon fill="#f0f0f0" stroke="none" points="109,-411 109,-428 159,-428 159,-411 109,-411"/>
<polygon fill="none" stroke="black" points="109,-411 109,-428 159,-428 159,-411 109,-411"/>
<text text-anchor="start" x="123.5" y="-413.7" font-family="SimSun" font-size="14.00">千8</text>
<polygon fill="#ffffff" stroke="none" points="109,-394 109,-411 159,-411 159,-394 109,-394"/>
<polygon fill="none" stroke="black" points="109,-394 109,-411 159,-411 159,-394 109,-394"/>
<text text-anchor="start" x="126.88" y="-396.7" font-family="SimSun" font-size="14.00">進</text>
</a>
</g>
</g>
<!-- 60002&#45;&gt;70009 -->
<g id="edge13" class="edge">
<title>60002&#45;&gt;70009</title>
<path fill="none" stroke="black" d="M207.73,-468.03C195.9,-459.04 181.77,-448.3 169.05,-438.64"/>
<polygon fill="black" stroke="black" points="171.38,-436.01 161.3,-432.75 167.15,-441.59 171.38,-436.01"/>
</g>
<!-- 80023 -->
<g id="node14" class="node">
<title>80023</title>
<g id="a_node14"><a xlink:href="/docs/biography/行传/8/0023" xlink:title="编号：80023，裕，0。点击查看详情">
<polygon fill="#f0f0f0" stroke="none" points="410,-333 410,-350 460,-350 460,-333 410,-333"/>
<polygon fill="none" stroke="black" points="410,-333 410,-350 460,-350 460,-333 410,-333"/>
<text text-anchor="start" x="421.12" y="-335.7" font-family="SimSun" font-size="14.00">萬16</text>
<polygon fill="#ffffff" stroke="none" points="410,-316 410,-333 460,-333 460,-316 410,-316"/>
<polygon fill="none" stroke="black" points="410,-316 410,-333 460,-333 460,-316 410,-316"/>
<text text-anchor="start" x="427.88" y="-318.7" font-family="SimSun" font-size="14.00">裕</text>
</a>
</g>
</g>
<!-- 110008&#45;&gt;120014 -->
<g id="edge15" class="edge">
<title>110008&#45;&gt;120014</title>
<path fill="none" stroke="black" d="M334,-78.03C334,-70.44 334,-61.6 334,-53.21"/>
<polygon fill="black" stroke="black" points="337.5,-53.35 334,-43.35 330.5,-53.35 337.5,-53.35"/>
</g>
<!-- 70018 -->
<g id="node16" class="node">
<title>70018</title>
<g id="a_node16"><a xlink:href="/docs/biography/行传/7/0018" xlink:title="编号：70018，，0。点击查看详情">
<polygon fill="#f0f0f0" stroke="none" points="477,-411 477,-428 527,-428 527,-411 477,-411"/>
<polygon fill="none" stroke="black" points="477,-411 477,-428 527,-428 527,-411 477,-411"/>
<text text-anchor="start" x="488.12" y="-413.7" font-family="SimSun" font-size="14.00">千15</text>
<polygon fill="#ffffff" stroke="none" points="477,-394 477,-411 527,-411 527,-394 477,-394"/>
<polygon fill="none" stroke="black" points="477,-394 477,-411 527,-411 527,-394 477,-394"/>
<text text-anchor="start" x="498.62" y="-396.7" font-family="SimSun" font-size="14.00"> </text>
</a>
</g>
</g>
<!-- 60004&#45;&gt;70005 -->
<g id="edge16" class="edge">
<title>60004&#45;&gt;70005</title>
<path fill="none" stroke="black" d="M368,-468.03C368,-460.44 368,-451.6 368,-443.21"/>
<polygon fill="black" stroke="black" points="371.5,-443.35 368,-433.35 364.5,-443.35 371.5,-443.35"/>
</g>
<!-- 60004&#45;&gt;70018 -->
<g id="edge18" class="edge">
<title>60004&#45;&gt;70018</title>
<path fill="none" stroke="black" d="M400.78,-469.41C418.38,-459.43 440.29,-447 459.22,-436.26"/>
<polygon fill="black" stroke="black" points="460.81,-439.39 467.78,-431.41 457.35,-433.3 460.81,-439.39"/>
</g>
<!-- 70007 -->
<g id="node20" class="node">
<title>70007</title>
<g id="a_node20"><a xlink:href="/docs/biography/行传/7/0007" xlink:title="编号：70007，祉，0。点击查看详情">
<polygon fill="#f0f0f0" stroke="none" points="410,-411 410,-428 460,-428 460,-411 410,-411"/>
<polygon fill="none" stroke="black" points="410,-411 410,-428 460,-428 460,-411 410,-411"/>
<text text-anchor="start" x="417.75" y="-413.7" font-family="SimSun" font-size="14.00">千6_2</text>
<polygon fill="#ffffff" stroke="none" points="410,-394 410,-411 460,-411 460,-394 410,-394"/>
<polygon fill="none" stroke="black" points="410,-394 410,-411 460,-411 460,-394 410,-394"/>
<text text-anchor="start" x="427.88" y="-396.7" font-family="SimSun" font-size="14.00">祉</text>
</a>
</g>
</g>
<!-- 60004&#45;&gt;70007 -->
<g id="edge17" class="edge">
<title>60004&#45;&gt;70007</title>
<path fill="none" stroke="black" d="M385.6,-468.03C393.07,-459.57 401.9,-449.55 410.02,-440.34"/>
<polygon fill="black" stroke="black" points="412.53,-442.79 416.51,-432.97 407.27,-438.16 412.53,-442.79"/>
</g>
<!-- 80021&#45;&gt;90017 -->
<g id="edge19" class="edge">
<title>80021&#45;&gt;90017</title>
<path fill="none" stroke="black" d="M301,-312.03C301,-304.44 301,-295.6 301,-287.21"/>
<polygon fill="black" stroke="black" points="304.5,-287.35 301,-277.35 297.5,-287.35 304.5,-287.35"/>
</g>
<!-- 90019 -->
<g id="node22" class="node">
<title>90019</title>
<g id="a_node22"><a xlink:href="/docs/biography/行传/9/0019" xlink:title="编号：90019，一清，0。点击查看详情">
<polygon fill="#f0f0f0" stroke="none" points="343,-255 343,-272 393,-272 393,-255 343,-255"/>
<polygon fill="none" stroke="black" points="343,-255 343,-272 393,-272 393,-255 343,-255"/>
<text text-anchor="start" x="357.5" y="-257.7" font-family="SimSun" font-size="14.00">元7</text>
<polygon fill="#ffffff" stroke="none" points="343,-238 343,-255 393,-255 393,-238 343,-238"/>
<polygon fill="none" stroke="black" points="343,-238 343,-255 393,-255 393,-238 343,-238"/>
<text text-anchor="start" x="353.75" y="-240.7" font-family="SimSun" font-size="14.00">一清</text>
</a>
</g>
</g>
<!-- 80021&#45;&gt;90019 -->
<g id="edge20" class="edge">
<title>80021&#45;&gt;90019</title>
<path fill="none" stroke="black" d="M318.6,-312.03C326.07,-303.57 334.9,-293.55 343.02,-284.34"/>
<polygon fill="black" stroke="black" points="345.53,-286.79 349.51,-276.97 340.27,-282.16 345.53,-286.79"/>
</g>
<!-- 70007&#45;&gt;80023 -->
<g id="edge21" class="edge">
<title>70007&#45;&gt;80023</title>
<path fill="none" stroke="black" d="M435,-390.03C435,-382.44 435,-373.6 435,-365.21"/>
<polygon fill="black" stroke="black" points="438.5,-365.35 435,-355.35 431.5,-365.35 438.5,-365.35"/>
</g>
<!-- 90019&#45;&gt;100009 -->
<g id="edge23" class="edge">
<title>90019&#45;&gt;100009</title>
<path fill="none" stroke="black" d="M376.67,-234.03C380.08,-226.18 384.07,-216.98 387.82,-208.34"/>
<polygon fill="black" stroke="black" points="391.01,-209.79 391.78,-199.22 384.59,-207 391.01,-209.79"/>
</g>
<!-- 90019&#45;&gt;100008 -->
<g id="edge22" class="edge">
<title>90019&#45;&gt;100008</title>
<path fill="none" stroke="black" d="M359.07,-234.03C355.55,-226.18 351.44,-216.98 347.57,-208.34"/>
<polygon fill="black" stroke="black" points="350.77,-206.92 343.49,-199.22 344.38,-209.77 350.77,-206.92"/>
</g>
<!-- 90015 -->
<g id="node23" class="node">
<title>90015</title>
<g id="a_node23"><a xlink:href="/docs/biography/行传/9/0015" xlink:title="编号：90015，，0。点击查看详情">
<polygon fill="#f0f0f0" stroke="none" points="8,-255 8,-272 58,-272 58,-255 8,-255"/>
<polygon fill="none" stroke="black" points="8,-255 8,-272 58,-272 58,-255 8,-255"/>
<text text-anchor="start" x="22.5" y="-257.7" font-family="SimSun" font-size="14.00">元3</text>
<polygon fill="#ffffff" stroke="none" points="8,-238 8,-255 58,-255 58,-238 8,-238"/>
<polygon fill="none" stroke="black" points="8,-238 8,-255 58,-255 58,-238 8,-238"/>
<text text-anchor="start" x="29.62" y="-240.7" font-family="SimSun" font-size="14.00"> </text>
</a>
</g>
</g>
<!-- 80016 -->
<g id="node28" class="node">
<title>80016</title>
<g id="a_node28"><a xlink:href="/docs/biography/行传/8/0016" xlink:title="编号：80016，昭，0。点击查看详情">
<polygon fill="#f0f0f0" stroke="none" points="75,-333 75,-350 125,-350 125,-333 75,-333"/>
<polygon fill="none" stroke="black" points="75,-333 75,-350 125,-350 125,-333 75,-333"/>
<text text-anchor="start" x="89.5" y="-335.7" font-family="SimSun" font-size="14.00">萬5</text>
<polygon fill="#ffffff" stroke="none" points="75,-316 75,-333 125,-333 125,-316 75,-316"/>
<polygon fill="none" stroke="black" points="75,-316 75,-333 125,-333 125,-316 75,-316"/>
<text text-anchor="start" x="92.88" y="-318.7" font-family="SimSun" font-size="14.00">昭</text>
</a>
</g>
</g>
<!-- 70009&#45;&gt;80016 -->
<g id="edge24" class="edge">
<title>70009&#45;&gt;80016</title>
<path fill="none" stroke="black" d="M125.07,-390.03C121.55,-382.18 117.44,-372.98 113.57,-364.34"/>
<polygon fill="black" stroke="black" points="116.77,-362.92 109.49,-355.22 110.38,-365.77 116.77,-362.92"/>
</g>
<!-- 90018 -->
<g id="node26" class="node">
<title>90018</title>
<g id="a_node26"><a xlink:href="/docs/biography/行传/9/0018" xlink:title="编号：90018，啟，0。点击查看详情">
<polygon fill="#f0f0f0" stroke="none" points="75,-255 75,-272 125,-272 125,-255 75,-255"/>
<polygon fill="none" stroke="black" points="75,-255 75,-272 125,-272 125,-255 75,-255"/>
<text text-anchor="start" x="89.5" y="-257.7" font-family="SimSun" font-size="14.00">元6</text>
<polygon fill="#ffffff" stroke="none" points="75,-238 75,-255 125,-255 125,-238 75,-238"/>
<polygon fill="none" stroke="black" points="75,-238 75,-255 125,-255 125,-238 75,-238"/>
<text text-anchor="start" x="92.88" y="-240.7" font-family="SimSun" font-size="14.00">啟</text>
</a>
</g>
</g>
<!-- 90018&#45;&gt;100006 -->
<g id="edge25" class="edge">
<title>90018&#45;&gt;100006</title>
<path fill="none" stroke="black" d="M100,-234.03C100,-226.44 100,-217.6 100,-209.21"/>
<polygon fill="black" stroke="black" points="103.5,-209.35 100,-199.35 96.5,-209.35 103.5,-209.35"/>
</g>
<!-- 80016&#45;&gt;90015 -->
<g id="edge26" class="edge">
<title>80016&#45;&gt;90015</title>
<path fill="none" stroke="black" d="M82.4,-312.03C74.93,-303.57 66.1,-293.55 57.98,-284.34"/>
<polygon fill="black" stroke="black" points="60.73,-282.16 51.49,-276.97 55.47,-286.79 60.73,-282.16"/>
</g>
<!-- 80016&#45;&gt;90018 -->
<g id="edge27" class="edge">
<title>80016&#45;&gt;90018</title>
<path fill="none" stroke="black" d="M100,-312.03C100,-304.44 100,-295.6 100,-287.21"/>
<polygon fill="black" stroke="black" points="103.5,-287.35 100,-277.35 96.5,-287.35 103.5,-287.35"/>
</g>
<!-- 60003&#45;&gt;70011 -->
<g id="edge28" class="edge">
<title>60003&#45;&gt;70011</title>
<path fill="none" stroke="black" d="M301,-468.03C301,-460.44 301,-451.6 301,-443.21"/>
<polygon fill="black" stroke="black" points="304.5,-443.35 301,-433.35 297.5,-443.35 304.5,-443.35"/>
</g>
</g>
</svg>
