<?xml version="1.0" encoding="UTF-8" standalone="no"?>
<!DOCTYPE svg PUBLIC "-//W3C//DTD SVG 1.1//EN"
 "http://www.w3.org/Graphics/SVG/1.1/DTD/svg11.dtd">
<!-- Generated by graphviz version 11.0.0 (20240428.1522)
 -->
<!-- Title: main Pages: 1 -->
<svg width="446pt" height="953pt"
 viewBox="0.00 0.00 445.60 953.00" xmlns="http://www.w3.org/2000/svg" xmlns:xlink="http://www.w3.org/1999/xlink">
<g id="graph0" class="graph" transform="scale(1 1) rotate(0) translate(4 949)">
<title>main</title>
<!-- 50014 -->
<g id="node1" class="node">
<title>50014</title>
<g id="a_node1"><a xlink:href="HZ\0005.jpg" xlink:title="0|車方&#45;&#45;&gt;檀石" target="dynamic">
<polygon fill="none" stroke="black" stroke-width="0.3" points="171,-872.5 171,-944.5 228.6,-944.5 228.6,-872.5 171,-872.5"/>
<text text-anchor="middle" x="199.62" y="-930.3" font-family="GenWanMin TW TTF Medium" font-size="16.00">50014</text>
<polyline fill="none" stroke="black" stroke-width="0.3" points="171,-927.75 228.25,-927.75"/>
<text text-anchor="middle" x="199.62" y="-913.55" font-family="GenWanMin TW TTF Medium" font-size="16.00">五27</text>
<polyline fill="none" stroke="black" stroke-width="0.3" points="171,-908.75 228.25,-908.75"/>
<text text-anchor="middle" x="199.62" y="-895.05" font-family="GenWanMin TW TTF Medium" font-size="16.00">汝功</text>
<polyline fill="none" stroke="black" stroke-width="0.3" points="171,-890.75 228.25,-890.75"/>
<text text-anchor="middle" x="199.62" y="-876.55" font-family="GenWanMin TW TTF Medium" font-size="16.00">檀石</text>
</a>
</g>
</g>
<!-- 60012 -->
<g id="node2" class="node">
<title>60012</title>
<g id="a_node2"><a xlink:href="HZ\0006.jpg" xlink:title="0|0" target="dynamic">
<polygon fill="none" stroke="black" stroke-width="0.3" points="133,-763.5 133,-835.5 190.6,-835.5 190.6,-763.5 133,-763.5"/>
<text text-anchor="middle" x="161.62" y="-821.3" font-family="GenWanMin TW TTF Medium" font-size="16.00">60012</text>
<polyline fill="none" stroke="black" stroke-width="0.3" points="133,-818.75 190.25,-818.75"/>
<text text-anchor="middle" x="161.62" y="-804.55" font-family="GenWanMin TW TTF Medium" font-size="16.00">六13</text>
<polyline fill="none" stroke="black" stroke-width="0.3" points="133,-799.75 190.25,-799.75"/>
<text text-anchor="middle" x="161.62" y="-786.05" font-family="GenWanMin TW TTF Medium" font-size="16.00">一遇</text>
<polyline fill="none" stroke="black" stroke-width="0.3" points="133,-781.75 190.25,-781.75"/>
<text text-anchor="middle" x="161.62" y="-767.55" font-family="GenWanMin TW TTF Medium" font-size="16.00">檀石</text>
</a>
</g>
</g>
<!-- 50014&#45;&gt;60012 -->
<g id="edge1" class="edge">
<title>50014&#45;&gt;60012</title>
<path fill="none" stroke="black" d="M187.46,-872.76C183.91,-862.76 180.01,-851.76 176.34,-841.43"/>
<polygon fill="black" stroke="black" points="178.03,-840.98 174.71,-836.86 174.74,-842.16 178.03,-840.98"/>
</g>
<!-- 60016 -->
<g id="node3" class="node">
<title>60016</title>
<g id="a_node3"><a xlink:href="HZ\0006.jpg" xlink:title="刊誤溪下|0" target="dynamic">
<polygon fill="none" stroke="black" stroke-width="0.3" points="247,-763.5 247,-835.5 304.6,-835.5 304.6,-763.5 247,-763.5"/>
<text text-anchor="middle" x="275.62" y="-821.3" font-family="GenWanMin TW TTF Medium" font-size="16.00">60016</text>
<polyline fill="none" stroke="black" stroke-width="0.3" points="247,-818.75 304.25,-818.75"/>
<text text-anchor="middle" x="275.62" y="-804.55" font-family="GenWanMin TW TTF Medium" font-size="16.00">六16</text>
<polyline fill="none" stroke="black" stroke-width="0.3" points="247,-799.75 304.25,-799.75"/>
<text text-anchor="middle" x="275.62" y="-786.05" font-family="GenWanMin TW TTF Medium" font-size="16.00">執禮</text>
<polyline fill="none" stroke="black" stroke-width="0.3" points="247,-781.75 304.25,-781.75"/>
<text text-anchor="middle" x="275.62" y="-767.55" font-family="GenWanMin TW TTF Medium" font-size="16.00">檀石</text>
</a>
</g>
</g>
<!-- 50014&#45;&gt;60016 -->
<g id="edge2" class="edge">
<title>50014&#45;&gt;60016</title>
<path fill="none" stroke="black" d="M224.48,-872.76C231.78,-862.48 239.83,-851.15 247.35,-840.56"/>
<polygon fill="black" stroke="black" points="248.64,-841.76 250.11,-836.67 245.79,-839.73 248.64,-841.76"/>
</g>
<!-- 70020 -->
<g id="node4" class="node">
<title>70020</title>
<g id="a_node4"><a xlink:href="HZ\0008.jpg" xlink:title="0|0" target="dynamic">
<polygon fill="none" stroke="black" stroke-width="0.3" points="0,-654.5 0,-726.5 57.6,-726.5 57.6,-654.5 0,-654.5"/>
<text text-anchor="middle" x="28.62" y="-712.3" font-family="GenWanMin TW TTF Medium" font-size="16.00">70020</text>
<polyline fill="none" stroke="black" stroke-width="0.3" points="0,-709.75 57.25,-709.75"/>
<text text-anchor="middle" x="28.62" y="-695.55" font-family="GenWanMin TW TTF Medium" font-size="16.00">千17</text>
<polyline fill="none" stroke="black" stroke-width="0.3" points="0,-690.75 57.25,-690.75"/>
<text text-anchor="middle" x="28.62" y="-677.05" font-family="GenWanMin TW TTF Medium" font-size="16.00">棐</text>
<polyline fill="none" stroke="black" stroke-width="0.3" points="0,-672.75 57.25,-672.75"/>
<text text-anchor="middle" x="28.62" y="-658.55" font-family="GenWanMin TW TTF Medium" font-size="16.00">檀石</text>
</a>
</g>
</g>
<!-- 60012&#45;&gt;70020 -->
<g id="edge3" class="edge">
<title>60012&#45;&gt;70020</title>
<path fill="none" stroke="black" d="M133.34,-778.3C114.15,-764.38 88.46,-745.18 66.8,-727 65.28,-725.72 63.74,-724.4 62.19,-723.06"/>
<polygon fill="black" stroke="black" points="63.6,-721.96 58.69,-719.96 61.28,-724.59 63.6,-721.96"/>
</g>
<!-- 70024 -->
<g id="node5" class="node">
<title>70024</title>
<g id="a_node5"><a xlink:href="HZ\0008.jpg" xlink:title="240|0" target="dynamic">
<polygon fill="none" stroke="black" stroke-width="0.3" points="76,-654.5 76,-726.5 133.6,-726.5 133.6,-654.5 76,-654.5"/>
<text text-anchor="middle" x="104.62" y="-712.3" font-family="GenWanMin TW TTF Medium" font-size="16.00">70024</text>
<polyline fill="none" stroke="black" stroke-width="0.3" points="76,-709.75 133.25,-709.75"/>
<text text-anchor="middle" x="104.62" y="-695.55" font-family="GenWanMin TW TTF Medium" font-size="16.00">千20</text>
<polyline fill="none" stroke="black" stroke-width="0.3" points="76,-690.75 133.25,-690.75"/>
<text text-anchor="middle" x="104.62" y="-677.05" font-family="GenWanMin TW TTF Medium" font-size="16.00">杲</text>
<polyline fill="none" stroke="black" stroke-width="0.3" points="76,-672.75 133.25,-672.75"/>
<text text-anchor="middle" x="104.62" y="-658.55" font-family="GenWanMin TW TTF Medium" font-size="16.00">檀石</text>
</a>
</g>
</g>
<!-- 60012&#45;&gt;70024 -->
<g id="edge4" class="edge">
<title>60012&#45;&gt;70024</title>
<path fill="none" stroke="black" d="M143.29,-763.76C137.92,-753.67 132,-742.56 126.45,-732.14"/>
<polygon fill="black" stroke="black" points="128.02,-731.36 124.12,-727.77 124.93,-733 128.02,-731.36"/>
</g>
<!-- 70028 -->
<g id="node7" class="node">
<title>70028</title>
<g id="a_node7"><a xlink:href="HZ\0009.jpg" xlink:title="0|0" target="dynamic">
<polygon fill="none" stroke="black" stroke-width="0.3" points="152,-654.5 152,-726.5 209.6,-726.5 209.6,-654.5 152,-654.5"/>
<text text-anchor="middle" x="180.88" y="-712.3" font-family="GenWanMin TW TTF Medium" font-size="16.00">70028</text>
<polyline fill="none" stroke="black" stroke-width="0.3" points="152,-709.75 209.75,-709.75"/>
<text text-anchor="middle" x="180.88" y="-695.55" font-family="GenWanMin TW TTF Medium" font-size="16.00">千23_2</text>
<polyline fill="none" stroke="black" stroke-width="0.3" points="152,-690.75 209.75,-690.75"/>
<text text-anchor="middle" x="180.88" y="-677.05" font-family="GenWanMin TW TTF Medium" font-size="16.00">集</text>
<polyline fill="none" stroke="black" stroke-width="0.3" points="152,-672.75 209.75,-672.75"/>
<text text-anchor="middle" x="180.88" y="-658.55" font-family="GenWanMin TW TTF Medium" font-size="16.00">檀石</text>
</a>
</g>
</g>
<!-- 60012&#45;&gt;70028 -->
<g id="edge6" class="edge">
<title>60012&#45;&gt;70028</title>
<path fill="none" stroke="black" d="M167.97,-763.76C169.73,-753.86 171.66,-742.97 173.48,-732.72"/>
<polygon fill="black" stroke="black" points="175.18,-733.15 174.33,-727.92 171.74,-732.54 175.18,-733.15"/>
</g>
<!-- 70026 -->
<g id="node6" class="node">
<title>70026</title>
<g id="a_node6"><a xlink:href="HZ\0008.jpg" xlink:title="0|0" target="dynamic">
<polygon fill="none" stroke="black" stroke-width="0.3" points="228,-654.5 228,-726.5 285.6,-726.5 285.6,-654.5 228,-654.5"/>
<text text-anchor="middle" x="256.62" y="-712.3" font-family="GenWanMin TW TTF Medium" font-size="16.00">70026</text>
<polyline fill="none" stroke="black" stroke-width="0.3" points="228,-709.75 285.25,-709.75"/>
<text text-anchor="middle" x="256.62" y="-695.55" font-family="GenWanMin TW TTF Medium" font-size="16.00">千22</text>
<polyline fill="none" stroke="black" stroke-width="0.3" points="228,-690.75 285.25,-690.75"/>
<text text-anchor="middle" x="256.62" y="-677.05" font-family="GenWanMin TW TTF Medium" font-size="16.00">概</text>
<polyline fill="none" stroke="black" stroke-width="0.3" points="228,-672.75 285.25,-672.75"/>
<text text-anchor="middle" x="256.62" y="-658.55" font-family="GenWanMin TW TTF Medium" font-size="16.00">檀石</text>
</a>
</g>
</g>
<!-- 60016&#45;&gt;70026 -->
<g id="edge5" class="edge">
<title>60016&#45;&gt;70026</title>
<path fill="none" stroke="black" d="M269.63,-763.76C267.87,-753.86 265.94,-742.97 264.12,-732.72"/>
<polygon fill="black" stroke="black" points="265.86,-732.54 263.27,-727.92 262.42,-733.15 265.86,-732.54"/>
</g>
<!-- 70029 -->
<g id="node8" class="node">
<title>70029</title>
<g id="a_node8"><a xlink:href="HZ\0009.jpg" xlink:title="0|0" target="dynamic">
<polygon fill="none" stroke="black" stroke-width="0.3" points="304,-654.5 304,-726.5 361.6,-726.5 361.6,-654.5 304,-654.5"/>
<text text-anchor="middle" x="332.62" y="-712.3" font-family="GenWanMin TW TTF Medium" font-size="16.00">70029</text>
<polyline fill="none" stroke="black" stroke-width="0.3" points="304,-709.75 361.25,-709.75"/>
<text text-anchor="middle" x="332.62" y="-695.55" font-family="GenWanMin TW TTF Medium" font-size="16.00">千24</text>
<polyline fill="none" stroke="black" stroke-width="0.3" points="304,-690.75 361.25,-690.75"/>
<text text-anchor="middle" x="332.62" y="-677.05" font-family="GenWanMin TW TTF Medium" font-size="16.00">梁</text>
<polyline fill="none" stroke="black" stroke-width="0.3" points="304,-672.75 361.25,-672.75"/>
<text text-anchor="middle" x="332.62" y="-658.55" font-family="GenWanMin TW TTF Medium" font-size="16.00">檀石</text>
</a>
</g>
</g>
<!-- 60016&#45;&gt;70029 -->
<g id="edge7" class="edge">
<title>60016&#45;&gt;70029</title>
<path fill="none" stroke="black" d="M294.31,-763.76C299.68,-753.67 305.6,-742.56 311.15,-732.14"/>
<polygon fill="black" stroke="black" points="312.67,-733 313.48,-727.77 309.58,-731.36 312.67,-733"/>
</g>
<!-- 70034 -->
<g id="node9" class="node">
<title>70034</title>
<g id="a_node9"><a xlink:href="HZ\0009.jpg" xlink:title="0|0" target="dynamic">
<polygon fill="none" stroke="black" stroke-width="0.3" points="380,-654.5 380,-726.5 437.6,-726.5 437.6,-654.5 380,-654.5"/>
<text text-anchor="middle" x="408.62" y="-712.3" font-family="GenWanMin TW TTF Medium" font-size="16.00">70034</text>
<polyline fill="none" stroke="black" stroke-width="0.3" points="380,-709.75 437.25,-709.75"/>
<text text-anchor="middle" x="408.62" y="-695.55" font-family="GenWanMin TW TTF Medium" font-size="16.00">千31</text>
<polyline fill="none" stroke="black" stroke-width="0.3" points="380,-690.75 437.25,-690.75"/>
<text text-anchor="middle" x="408.62" y="-677.05" font-family="GenWanMin TW TTF Medium" font-size="16.00">采</text>
<polyline fill="none" stroke="black" stroke-width="0.3" points="380,-672.75 437.25,-672.75"/>
<text text-anchor="middle" x="408.62" y="-658.55" font-family="GenWanMin TW TTF Medium" font-size="16.00">檀石</text>
</a>
</g>
</g>
<!-- 60016&#45;&gt;70034 -->
<g id="edge8" class="edge">
<title>60016&#45;&gt;70034</title>
<path fill="none" stroke="black" d="M304.26,-778.3C323.45,-764.38 349.14,-745.18 370.8,-727 372.32,-725.72 373.86,-724.4 375.41,-723.06"/>
<polygon fill="black" stroke="black" points="376.32,-724.59 378.91,-719.96 374,-721.96 376.32,-724.59"/>
</g>
<!-- 80024 -->
<g id="node10" class="node">
<title>80024</title>
<g id="a_node10"><a xlink:href="HZ\0010.jpg" xlink:title="0|檀石&#45;&#45;&gt;前宅" target="dynamic">
<polygon fill="none" stroke="black" stroke-width="0.3" points="0,-545.5 0,-617.5 57.6,-617.5 57.6,-545.5 0,-545.5"/>
<text text-anchor="middle" x="28.62" y="-603.3" font-family="GenWanMin TW TTF Medium" font-size="16.00">80024</text>
<polyline fill="none" stroke="black" stroke-width="0.3" points="0,-600.75 57.25,-600.75"/>
<text text-anchor="middle" x="28.62" y="-586.55" font-family="GenWanMin TW TTF Medium" font-size="16.00">文1</text>
<polyline fill="none" stroke="black" stroke-width="0.3" points="0,-581.75 57.25,-581.75"/>
<text text-anchor="middle" x="28.62" y="-568.05" font-family="GenWanMin TW TTF Medium" font-size="16.00">根</text>
<polyline fill="none" stroke="black" stroke-width="0.3" points="0,-563.75 57.25,-563.75"/>
<text text-anchor="middle" x="28.62" y="-549.55" font-family="GenWanMin TW TTF Medium" font-size="16.00">前宅</text>
</a>
</g>
</g>
<!-- 70020&#45;&gt;80024 -->
<g id="edge9" class="edge">
<title>70020&#45;&gt;80024</title>
<path fill="none" stroke="black" d="M28.8,-654.76C28.8,-644.86 28.8,-633.97 28.8,-623.72"/>
<polygon fill="black" stroke="black" points="30.55,-623.95 28.8,-618.95 27.05,-623.95 30.55,-623.95"/>
</g>
<!-- 80028 -->
<g id="node11" class="node">
<title>80028</title>
<g id="a_node11"><a xlink:href="HZ\0010.jpg" xlink:title="0|檀石&#45;&#45;&gt;後宅" target="dynamic">
<polygon fill="none" stroke="black" stroke-width="0.3" points="76,-545.5 76,-617.5 133.6,-617.5 133.6,-545.5 76,-545.5"/>
<text text-anchor="middle" x="104.62" y="-603.3" font-family="GenWanMin TW TTF Medium" font-size="16.00">80028</text>
<polyline fill="none" stroke="black" stroke-width="0.3" points="76,-600.75 133.25,-600.75"/>
<text text-anchor="middle" x="104.62" y="-586.55" font-family="GenWanMin TW TTF Medium" font-size="16.00">文4</text>
<polyline fill="none" stroke="black" stroke-width="0.3" points="76,-581.75 133.25,-581.75"/>
<text text-anchor="middle" x="104.62" y="-568.05" font-family="GenWanMin TW TTF Medium" font-size="16.00">公舉</text>
<polyline fill="none" stroke="black" stroke-width="0.3" points="76,-563.75 133.25,-563.75"/>
<text text-anchor="middle" x="104.62" y="-549.55" font-family="GenWanMin TW TTF Medium" font-size="16.00">後宅</text>
</a>
</g>
</g>
<!-- 70024&#45;&gt;80028 -->
<g id="edge10" class="edge">
<title>70024&#45;&gt;80028</title>
<path fill="none" stroke="black" d="M104.8,-654.76C104.8,-644.86 104.8,-633.97 104.8,-623.72"/>
<polygon fill="black" stroke="black" points="106.55,-623.95 104.8,-618.95 103.05,-623.95 106.55,-623.95"/>
</g>
<!-- 80031 -->
<g id="node12" class="node">
<title>80031</title>
<g id="a_node12"><a xlink:href="HZ\0011.jpg" xlink:title="0|0" target="dynamic">
<polygon fill="none" stroke="black" stroke-width="0.3" points="228,-545.5 228,-617.5 285.6,-617.5 285.6,-545.5 228,-545.5"/>
<text text-anchor="middle" x="256.62" y="-603.3" font-family="GenWanMin TW TTF Medium" font-size="16.00">80031</text>
<polyline fill="none" stroke="black" stroke-width="0.3" points="228,-600.75 285.25,-600.75"/>
<text text-anchor="middle" x="256.62" y="-586.55" font-family="GenWanMin TW TTF Medium" font-size="16.00">文7</text>
<polyline fill="none" stroke="black" stroke-width="0.3" points="228,-581.75 285.25,-581.75"/>
<text text-anchor="middle" x="256.62" y="-568.05" font-family="GenWanMin TW TTF Medium" font-size="16.00">愈</text>
<polyline fill="none" stroke="black" stroke-width="0.3" points="228,-563.75 285.25,-563.75"/>
<text text-anchor="middle" x="256.62" y="-549.55" font-family="GenWanMin TW TTF Medium" font-size="16.00">檀石</text>
</a>
</g>
</g>
<!-- 70026&#45;&gt;80031 -->
<g id="edge11" class="edge">
<title>70026&#45;&gt;80031</title>
<path fill="none" stroke="black" d="M256.8,-654.76C256.8,-644.86 256.8,-633.97 256.8,-623.72"/>
<polygon fill="black" stroke="black" points="258.55,-623.95 256.8,-618.95 255.05,-623.95 258.55,-623.95"/>
</g>
<!-- 80033 -->
<g id="node13" class="node">
<title>80033</title>
<g id="a_node13"><a xlink:href="HZ\0011.jpg" xlink:title="0|0" target="dynamic">
<polygon fill="none" stroke="black" stroke-width="0.3" points="152,-545.5 152,-617.5 209.6,-617.5 209.6,-545.5 152,-545.5"/>
<text text-anchor="middle" x="180.62" y="-602.8" font-family="GenWanMin TW TTF Medium" font-size="16.00">80033</text>
<polyline fill="none" stroke="black" stroke-width="0.3" points="152,-599.75 209.25,-599.75"/>
<text text-anchor="middle" x="180.62" y="-585.55" font-family="GenWanMin TW TTF Medium" font-size="16.00">文9</text>
<polyline fill="none" stroke="black" stroke-width="0.3" points="152,-580.75 209.25,-580.75"/>
<text text-anchor="middle" x="180.62" y="-566.55" font-family="GenWanMin TW TTF Medium" font-size="16.00"> </text>
<polyline fill="none" stroke="black" stroke-width="0.3" points="152,-564 209.25,-564"/>
<text text-anchor="middle" x="180.62" y="-549.8" font-family="GenWanMin TW TTF Medium" font-size="16.00">檀石</text>
</a>
</g>
</g>
<!-- 70028&#45;&gt;80033 -->
<g id="edge12" class="edge">
<title>70028&#45;&gt;80033</title>
<path fill="none" stroke="black" d="M180.8,-654.76C180.8,-644.86 180.8,-633.97 180.8,-623.72"/>
<polygon fill="black" stroke="black" points="182.55,-623.95 180.8,-618.95 179.05,-623.95 182.55,-623.95"/>
</g>
<!-- 80035 -->
<g id="node14" class="node">
<title>80035</title>
<g id="a_node14"><a xlink:href="HZ\0011.jpg" xlink:title="0|0" target="dynamic">
<polygon fill="none" stroke="black" stroke-width="0.3" points="380,-545.5 380,-617.5 437.6,-617.5 437.6,-545.5 380,-545.5"/>
<text text-anchor="middle" x="408.62" y="-603.3" font-family="GenWanMin TW TTF Medium" font-size="16.00">80035</text>
<polyline fill="none" stroke="black" stroke-width="0.3" points="380,-600.75 437.25,-600.75"/>
<text text-anchor="middle" x="408.62" y="-586.55" font-family="GenWanMin TW TTF Medium" font-size="16.00">文11</text>
<polyline fill="none" stroke="black" stroke-width="0.3" points="380,-581.75 437.25,-581.75"/>
<text text-anchor="middle" x="408.62" y="-568.05" font-family="GenWanMin TW TTF Medium" font-size="16.00">勝</text>
<polyline fill="none" stroke="black" stroke-width="0.3" points="380,-563.75 437.25,-563.75"/>
<text text-anchor="middle" x="408.62" y="-549.55" font-family="GenWanMin TW TTF Medium" font-size="16.00">檀石</text>
</a>
</g>
</g>
<!-- 70034&#45;&gt;80035 -->
<g id="edge13" class="edge">
<title>70034&#45;&gt;80035</title>
<path fill="none" stroke="black" d="M408.8,-654.76C408.8,-644.86 408.8,-633.97 408.8,-623.72"/>
<polygon fill="black" stroke="black" points="410.55,-623.95 408.8,-618.95 407.05,-623.95 410.55,-623.95"/>
</g>
<!-- 90033 -->
<g id="node15" class="node">
<title>90033</title>
<g id="a_node15"><a xlink:href="HZ\0013.jpg" xlink:title="244|0" target="dynamic">
<polygon fill="grey" stroke="black" stroke-width="0.3" points="0,-436.5 0,-508.5 57.6,-508.5 57.6,-436.5 0,-436.5"/>
<text text-anchor="middle" x="28.62" y="-494.3" font-family="GenWanMin TW TTF Medium" font-size="16.00" fill="darkgreen">90033</text>
<polyline fill="none" stroke="black" stroke-width="0.3" points="0,-491.75 57.25,-491.75"/>
<text text-anchor="middle" x="28.62" y="-477.55" font-family="GenWanMin TW TTF Medium" font-size="16.00" fill="darkgreen">崇1</text>
<polyline fill="none" stroke="black" stroke-width="0.3" points="0,-472.75 57.25,-472.75"/>
<text text-anchor="middle" x="28.62" y="-459.05" font-family="GenWanMin TW TTF Medium" font-size="16.00" fill="darkgreen">應清</text>
<polyline fill="none" stroke="black" stroke-width="0.3" points="0,-454.75 57.25,-454.75"/>
<text text-anchor="middle" x="28.62" y="-440.55" font-family="GenWanMin TW TTF Medium" font-size="16.00" fill="darkgreen">前宅</text>
</a>
</g>
</g>
<!-- 80024&#45;&gt;90033 -->
<g id="edge14" class="edge">
<title>80024&#45;&gt;90033</title>
<path fill="none" stroke="black" d="M28.8,-545.76C28.8,-535.86 28.8,-524.97 28.8,-514.72"/>
<polygon fill="black" stroke="black" points="30.55,-514.95 28.8,-509.95 27.05,-514.95 30.55,-514.95"/>
</g>
<!-- 90035 -->
<g id="node16" class="node">
<title>90035</title>
<g id="a_node16"><a xlink:href="HZ\0013.jpg" xlink:title="0|0" target="dynamic">
<polygon fill="grey" stroke="black" stroke-width="0.3" points="76,-436.5 76,-508.5 133.6,-508.5 133.6,-436.5 76,-436.5"/>
<text text-anchor="middle" x="104.62" y="-494.3" font-family="GenWanMin TW TTF Medium" font-size="16.00" fill="darkgreen">90035</text>
<polyline fill="none" stroke="black" stroke-width="0.3" points="76,-491.75 133.25,-491.75"/>
<text text-anchor="middle" x="104.62" y="-477.55" font-family="GenWanMin TW TTF Medium" font-size="16.00" fill="darkgreen">崇3</text>
<polyline fill="none" stroke="black" stroke-width="0.3" points="76,-472.75 133.25,-472.75"/>
<text text-anchor="middle" x="104.62" y="-459.05" font-family="GenWanMin TW TTF Medium" font-size="16.00" fill="darkgreen">夢魁</text>
<polyline fill="none" stroke="black" stroke-width="0.3" points="76,-454.75 133.25,-454.75"/>
<text text-anchor="middle" x="104.62" y="-440.55" font-family="GenWanMin TW TTF Medium" font-size="16.00" fill="darkgreen">後宅</text>
</a>
</g>
</g>
<!-- 80028&#45;&gt;90035 -->
<g id="edge15" class="edge">
<title>80028&#45;&gt;90035</title>
<path fill="none" stroke="black" d="M104.8,-545.76C104.8,-535.86 104.8,-524.97 104.8,-514.72"/>
<polygon fill="black" stroke="black" points="106.55,-514.95 104.8,-509.95 103.05,-514.95 106.55,-514.95"/>
</g>
<!-- 90038 -->
<g id="node17" class="node">
<title>90038</title>
<g id="a_node17"><a xlink:href="HZ\0013.jpg" xlink:title="0|0" target="dynamic">
<polygon fill="none" stroke="black" stroke-width="0.3" points="152,-436.5 152,-508.5 209.6,-508.5 209.6,-436.5 152,-436.5"/>
<text text-anchor="middle" x="180.62" y="-494.3" font-family="GenWanMin TW TTF Medium" font-size="16.00">90038</text>
<polyline fill="none" stroke="black" stroke-width="0.3" points="152,-491.75 209.25,-491.75"/>
<text text-anchor="middle" x="180.62" y="-477.55" font-family="GenWanMin TW TTF Medium" font-size="16.00">崇6</text>
<polyline fill="none" stroke="black" stroke-width="0.3" points="152,-472.75 209.25,-472.75"/>
<text text-anchor="middle" x="180.62" y="-459.05" font-family="GenWanMin TW TTF Medium" font-size="16.00">文昌</text>
<polyline fill="none" stroke="black" stroke-width="0.3" points="152,-454.75 209.25,-454.75"/>
<text text-anchor="middle" x="180.62" y="-440.55" font-family="GenWanMin TW TTF Medium" font-size="16.00">後宅</text>
</a>
</g>
</g>
<!-- 80028&#45;&gt;90038 -->
<g id="edge16" class="edge">
<title>80028&#45;&gt;90038</title>
<path fill="none" stroke="black" d="M129.48,-545.76C136.78,-535.48 144.83,-524.15 152.35,-513.56"/>
<polygon fill="black" stroke="black" points="153.64,-514.76 155.11,-509.67 150.79,-512.73 153.64,-514.76"/>
</g>
<!-- 90044 -->
<g id="node18" class="node">
<title>90044</title>
<g id="a_node18"><a xlink:href="HZ\0014.jpg" xlink:title="0|0" target="dynamic">
<polygon fill="none" stroke="black" stroke-width="0.3" points="228,-436.5 228,-508.5 285.6,-508.5 285.6,-436.5 228,-436.5"/>
<text text-anchor="middle" x="256.62" y="-494.3" font-family="GenWanMin TW TTF Medium" font-size="16.00">90044</text>
<polyline fill="none" stroke="black" stroke-width="0.3" points="228,-491.75 285.25,-491.75"/>
<text text-anchor="middle" x="256.62" y="-477.55" font-family="GenWanMin TW TTF Medium" font-size="16.00">仁2</text>
<polyline fill="none" stroke="black" stroke-width="0.3" points="228,-472.75 285.25,-472.75"/>
<text text-anchor="middle" x="256.62" y="-459.05" font-family="GenWanMin TW TTF Medium" font-size="16.00">鑾</text>
<polyline fill="none" stroke="black" stroke-width="0.3" points="228,-454.75 285.25,-454.75"/>
<text text-anchor="middle" x="256.62" y="-440.55" font-family="GenWanMin TW TTF Medium" font-size="16.00">檀石</text>
</a>
</g>
</g>
<!-- 80031&#45;&gt;90044 -->
<g id="edge17" class="edge">
<title>80031&#45;&gt;90044</title>
<path fill="none" stroke="black" d="M256.8,-545.76C256.8,-535.86 256.8,-524.97 256.8,-514.72"/>
<polygon fill="black" stroke="black" points="258.55,-514.95 256.8,-509.95 255.05,-514.95 258.55,-514.95"/>
</g>
<!-- 100032 -->
<g id="node19" class="node">
<title>100032</title>
<g id="a_node19"><a xlink:href="HZ\0016.jpg" xlink:title="0|0" target="dynamic">
<polygon fill="none" stroke="black" stroke-width="0.3" points="152,-327.5 152,-399.5 209.6,-399.5 209.6,-327.5 152,-327.5"/>
<text text-anchor="middle" x="181.25" y="-385.3" font-family="GenWanMin TW TTF Medium" font-size="16.00">100032</text>
<polyline fill="none" stroke="black" stroke-width="0.3" points="152,-382.75 210.5,-382.75"/>
<text text-anchor="middle" x="181.25" y="-368.55" font-family="GenWanMin TW TTF Medium" font-size="16.00">德1</text>
<polyline fill="none" stroke="black" stroke-width="0.3" points="152,-363.75 210.5,-363.75"/>
<text text-anchor="middle" x="181.25" y="-350.05" font-family="GenWanMin TW TTF Medium" font-size="16.00">香</text>
<polyline fill="none" stroke="black" stroke-width="0.3" points="152,-345.75 210.5,-345.75"/>
<text text-anchor="middle" x="181.25" y="-331.55" font-family="GenWanMin TW TTF Medium" font-size="16.00">檀石</text>
</a>
</g>
</g>
<!-- 90044&#45;&gt;100032 -->
<g id="edge18" class="edge">
<title>90044&#45;&gt;100032</title>
<path fill="none" stroke="black" d="M232.12,-436.76C224.82,-426.48 216.77,-415.15 209.25,-404.56"/>
<polygon fill="black" stroke="black" points="210.81,-403.73 206.49,-400.67 207.96,-405.76 210.81,-403.73"/>
</g>
<!-- 100033 -->
<g id="node20" class="node">
<title>100033</title>
<g id="a_node20"><a xlink:href="HZ\0016.jpg" xlink:title="刊誤仁1|0" target="dynamic">
<polygon fill="none" stroke="black" stroke-width="0.3" points="228,-327.5 228,-399.5 285.6,-399.5 285.6,-327.5 228,-327.5"/>
<text text-anchor="middle" x="257.25" y="-385.3" font-family="GenWanMin TW TTF Medium" font-size="16.00">100033</text>
<polyline fill="none" stroke="black" stroke-width="0.3" points="228,-382.75 286.5,-382.75"/>
<text text-anchor="middle" x="257.25" y="-368.55" font-family="GenWanMin TW TTF Medium" font-size="16.00">德2</text>
<polyline fill="none" stroke="black" stroke-width="0.3" points="228,-363.75 286.5,-363.75"/>
<text text-anchor="middle" x="257.25" y="-350.05" font-family="GenWanMin TW TTF Medium" font-size="16.00">玉</text>
<polyline fill="none" stroke="black" stroke-width="0.3" points="228,-345.75 286.5,-345.75"/>
<text text-anchor="middle" x="257.25" y="-331.55" font-family="GenWanMin TW TTF Medium" font-size="16.00">檀石</text>
</a>
</g>
</g>
<!-- 90044&#45;&gt;100033 -->
<g id="edge19" class="edge">
<title>90044&#45;&gt;100033</title>
<path fill="none" stroke="black" d="M256.8,-436.76C256.8,-426.86 256.8,-415.97 256.8,-405.72"/>
<polygon fill="black" stroke="black" points="258.55,-405.95 256.8,-400.95 255.05,-405.95 258.55,-405.95"/>
</g>
<!-- 100034 -->
<g id="node21" class="node">
<title>100034</title>
<g id="a_node21"><a xlink:href="HZ\0016.jpg" xlink:title="刊誤仁1|0" target="dynamic">
<polygon fill="none" stroke="black" stroke-width="0.3" points="304,-327.5 304,-399.5 361.6,-399.5 361.6,-327.5 304,-327.5"/>
<text text-anchor="middle" x="333.25" y="-384.8" font-family="GenWanMin TW TTF Medium" font-size="16.00">100034</text>
<polyline fill="none" stroke="black" stroke-width="0.3" points="304,-381.75 362.5,-381.75"/>
<text text-anchor="middle" x="333.25" y="-367.55" font-family="GenWanMin TW TTF Medium" font-size="16.00">德3</text>
<polyline fill="none" stroke="black" stroke-width="0.3" points="304,-362.75 362.5,-362.75"/>
<text text-anchor="middle" x="333.25" y="-348.55" font-family="GenWanMin TW TTF Medium" font-size="16.00"> </text>
<polyline fill="none" stroke="black" stroke-width="0.3" points="304,-346 362.5,-346"/>
<text text-anchor="middle" x="333.25" y="-331.8" font-family="GenWanMin TW TTF Medium" font-size="16.00">檀石</text>
</a>
</g>
</g>
<!-- 90044&#45;&gt;100034 -->
<g id="edge20" class="edge">
<title>90044&#45;&gt;100034</title>
<path fill="none" stroke="black" d="M281.48,-436.76C288.78,-426.48 296.83,-415.15 304.35,-404.56"/>
<polygon fill="black" stroke="black" points="305.64,-405.76 307.11,-400.67 302.79,-403.73 305.64,-405.76"/>
</g>
<!-- 110033 -->
<g id="node22" class="node">
<title>110033</title>
<g id="a_node22"><a xlink:href="HZ\0018.jpg" xlink:title="0|0" target="dynamic">
<polygon fill="none" stroke="black" stroke-width="0.3" points="152,-218.5 152,-290.5 209.6,-290.5 209.6,-218.5 152,-218.5"/>
<text text-anchor="middle" x="181.25" y="-276.3" font-family="GenWanMin TW TTF Medium" font-size="16.00">110033</text>
<polyline fill="none" stroke="black" stroke-width="0.3" points="152,-273.75 210.5,-273.75"/>
<text text-anchor="middle" x="181.25" y="-259.55" font-family="GenWanMin TW TTF Medium" font-size="16.00">禮1</text>
<polyline fill="none" stroke="black" stroke-width="0.3" points="152,-254.75 210.5,-254.75"/>
<text text-anchor="middle" x="181.25" y="-241.05" font-family="GenWanMin TW TTF Medium" font-size="16.00">毛</text>
<polyline fill="none" stroke="black" stroke-width="0.3" points="152,-236.75 210.5,-236.75"/>
<text text-anchor="middle" x="181.25" y="-222.55" font-family="GenWanMin TW TTF Medium" font-size="16.00">檀石</text>
</a>
</g>
</g>
<!-- 100032&#45;&gt;110033 -->
<g id="edge21" class="edge">
<title>100032&#45;&gt;110033</title>
<path fill="none" stroke="black" d="M180.8,-327.76C180.8,-317.86 180.8,-306.97 180.8,-296.72"/>
<polygon fill="black" stroke="black" points="182.55,-296.95 180.8,-291.95 179.05,-296.95 182.55,-296.95"/>
</g>
<!-- 110034 -->
<g id="node23" class="node">
<title>110034</title>
<g id="a_node23"><a xlink:href="HZ\0018.jpg" xlink:title="0|0" target="dynamic">
<polygon fill="none" stroke="black" stroke-width="0.3" points="228,-218.5 228,-290.5 285.6,-290.5 285.6,-218.5 228,-218.5"/>
<text text-anchor="middle" x="257.25" y="-276.3" font-family="GenWanMin TW TTF Medium" font-size="16.00">110034</text>
<polyline fill="none" stroke="black" stroke-width="0.3" points="228,-273.75 286.5,-273.75"/>
<text text-anchor="middle" x="257.25" y="-259.55" font-family="GenWanMin TW TTF Medium" font-size="16.00">智3</text>
<polyline fill="none" stroke="black" stroke-width="0.3" points="228,-254.75 286.5,-254.75"/>
<text text-anchor="middle" x="257.25" y="-241.05" font-family="GenWanMin TW TTF Medium" font-size="16.00">石</text>
<polyline fill="none" stroke="black" stroke-width="0.3" points="228,-236.75 286.5,-236.75"/>
<text text-anchor="middle" x="257.25" y="-222.55" font-family="GenWanMin TW TTF Medium" font-size="16.00">檀石</text>
</a>
</g>
</g>
<!-- 100033&#45;&gt;110034 -->
<g id="edge22" class="edge">
<title>100033&#45;&gt;110034</title>
<path fill="none" stroke="black" d="M256.8,-327.76C256.8,-317.86 256.8,-306.97 256.8,-296.72"/>
<polygon fill="black" stroke="black" points="258.55,-296.95 256.8,-291.95 255.05,-296.95 258.55,-296.95"/>
</g>
<!-- 110035 -->
<g id="node24" class="node">
<title>110035</title>
<g id="a_node24"><a xlink:href="HZ\0018.jpg" xlink:title="0|0" target="dynamic">
<polygon fill="none" stroke="black" stroke-width="0.3" points="304,-218.5 304,-290.5 361.6,-290.5 361.6,-218.5 304,-218.5"/>
<text text-anchor="middle" x="333.25" y="-276.3" font-family="GenWanMin TW TTF Medium" font-size="16.00">110035</text>
<polyline fill="none" stroke="black" stroke-width="0.3" points="304,-273.75 362.5,-273.75"/>
<text text-anchor="middle" x="333.25" y="-259.55" font-family="GenWanMin TW TTF Medium" font-size="16.00">智5</text>
<polyline fill="none" stroke="black" stroke-width="0.3" points="304,-254.75 362.5,-254.75"/>
<text text-anchor="middle" x="333.25" y="-241.05" font-family="GenWanMin TW TTF Medium" font-size="16.00">中</text>
<polyline fill="none" stroke="black" stroke-width="0.3" points="304,-236.75 362.5,-236.75"/>
<text text-anchor="middle" x="333.25" y="-222.55" font-family="GenWanMin TW TTF Medium" font-size="16.00">檀石</text>
</a>
</g>
</g>
<!-- 100034&#45;&gt;110035 -->
<g id="edge23" class="edge">
<title>100034&#45;&gt;110035</title>
<path fill="none" stroke="black" d="M332.8,-327.76C332.8,-317.86 332.8,-306.97 332.8,-296.72"/>
<polygon fill="black" stroke="black" points="334.55,-296.95 332.8,-291.95 331.05,-296.95 334.55,-296.95"/>
</g>
<!-- 120051 -->
<g id="node25" class="node">
<title>120051</title>
<g id="a_node25"><a xlink:href="HZ\0022.jpg" xlink:title="0|0" target="dynamic">
<polygon fill="none" stroke="black" stroke-width="0.3" points="228,-109.5 228,-181.5 285.6,-181.5 285.6,-109.5 228,-109.5"/>
<text text-anchor="middle" x="257.25" y="-167.3" font-family="GenWanMin TW TTF Medium" font-size="16.00">120051</text>
<polyline fill="none" stroke="black" stroke-width="0.3" points="228,-164.75 286.5,-164.75"/>
<text text-anchor="middle" x="257.25" y="-150.55" font-family="GenWanMin TW TTF Medium" font-size="16.00">起1</text>
<polyline fill="none" stroke="black" stroke-width="0.3" points="228,-145.75 286.5,-145.75"/>
<text text-anchor="middle" x="257.25" y="-132.05" font-family="GenWanMin TW TTF Medium" font-size="16.00">卓</text>
<polyline fill="none" stroke="black" stroke-width="0.3" points="228,-127.75 286.5,-127.75"/>
<text text-anchor="middle" x="257.25" y="-113.55" font-family="GenWanMin TW TTF Medium" font-size="16.00">檀石</text>
</a>
</g>
</g>
<!-- 110034&#45;&gt;120051 -->
<g id="edge24" class="edge">
<title>110034&#45;&gt;120051</title>
<path fill="none" stroke="black" d="M256.8,-218.76C256.8,-208.86 256.8,-197.97 256.8,-187.72"/>
<polygon fill="black" stroke="black" points="258.55,-187.95 256.8,-182.95 255.05,-187.95 258.55,-187.95"/>
</g>
<!-- 120052 -->
<g id="node26" class="node">
<title>120052</title>
<g id="a_node26"><a xlink:href="HZ\0022.jpg" xlink:title="0|0" target="dynamic">
<polygon fill="none" stroke="black" stroke-width="0.3" points="304,-109.5 304,-181.5 361.6,-181.5 361.6,-109.5 304,-109.5"/>
<text text-anchor="middle" x="333.25" y="-167.3" font-family="GenWanMin TW TTF Medium" font-size="16.00">120052</text>
<polyline fill="none" stroke="black" stroke-width="0.3" points="304,-164.75 362.5,-164.75"/>
<text text-anchor="middle" x="333.25" y="-150.55" font-family="GenWanMin TW TTF Medium" font-size="16.00">起5</text>
<polyline fill="none" stroke="black" stroke-width="0.3" points="304,-145.75 362.5,-145.75"/>
<text text-anchor="middle" x="333.25" y="-132.05" font-family="GenWanMin TW TTF Medium" font-size="16.00">立</text>
<polyline fill="none" stroke="black" stroke-width="0.3" points="304,-127.75 362.5,-127.75"/>
<text text-anchor="middle" x="333.25" y="-113.55" font-family="GenWanMin TW TTF Medium" font-size="16.00">檀石</text>
</a>
</g>
</g>
<!-- 110035&#45;&gt;120052 -->
<g id="edge25" class="edge">
<title>110035&#45;&gt;120052</title>
<path fill="none" stroke="black" d="M332.8,-218.76C332.8,-208.86 332.8,-197.97 332.8,-187.72"/>
<polygon fill="black" stroke="black" points="334.55,-187.95 332.8,-182.95 331.05,-187.95 334.55,-187.95"/>
</g>
<!-- 130061 -->
<g id="node27" class="node">
<title>130061</title>
<g id="a_node27"><a xlink:href="HZ\0027.jpg" xlink:title="0|0" target="dynamic">
<polygon fill="none" stroke="black" stroke-width="0.3" points="190,-0.5 190,-72.5 247.6,-72.5 247.6,-0.5 190,-0.5"/>
<text text-anchor="middle" x="219.25" y="-58.3" font-family="GenWanMin TW TTF Medium" font-size="16.00">130061</text>
<polyline fill="none" stroke="black" stroke-width="0.3" points="190,-55.75 248.5,-55.75"/>
<text text-anchor="middle" x="219.25" y="-41.55" font-family="GenWanMin TW TTF Medium" font-size="16.00">禧1</text>
<polyline fill="none" stroke="black" stroke-width="0.3" points="190,-36.75 248.5,-36.75"/>
<text text-anchor="middle" x="219.25" y="-23.05" font-family="GenWanMin TW TTF Medium" font-size="16.00">希</text>
<polyline fill="none" stroke="black" stroke-width="0.3" points="190,-18.75 248.5,-18.75"/>
<text text-anchor="middle" x="219.25" y="-4.55" font-family="GenWanMin TW TTF Medium" font-size="16.00">檀石</text>
</a>
</g>
</g>
<!-- 120051&#45;&gt;130061 -->
<g id="edge26" class="edge">
<title>120051&#45;&gt;130061</title>
<path fill="none" stroke="black" d="M244.46,-109.76C240.91,-99.76 237.01,-88.76 233.34,-78.43"/>
<polygon fill="black" stroke="black" points="235.03,-77.98 231.71,-73.86 231.74,-79.16 235.03,-77.98"/>
</g>
<!-- 130062 -->
<g id="node28" class="node">
<title>130062</title>
<g id="a_node28"><a xlink:href="HZ\0027.jpg" xlink:title="0|0" target="dynamic">
<polygon fill="none" stroke="black" stroke-width="0.3" points="266,-0.5 266,-72.5 323.6,-72.5 323.6,-0.5 266,-0.5"/>
<text text-anchor="middle" x="295.25" y="-58.3" font-family="GenWanMin TW TTF Medium" font-size="16.00">130062</text>
<polyline fill="none" stroke="black" stroke-width="0.3" points="266,-55.75 324.5,-55.75"/>
<text text-anchor="middle" x="295.25" y="-41.55" font-family="GenWanMin TW TTF Medium" font-size="16.00">禧2</text>
<polyline fill="none" stroke="black" stroke-width="0.3" points="266,-36.75 324.5,-36.75"/>
<text text-anchor="middle" x="295.25" y="-23.05" font-family="GenWanMin TW TTF Medium" font-size="16.00">貞</text>
<polyline fill="none" stroke="black" stroke-width="0.3" points="266,-18.75 324.5,-18.75"/>
<text text-anchor="middle" x="295.25" y="-4.55" font-family="GenWanMin TW TTF Medium" font-size="16.00">檀石</text>
</a>
</g>
</g>
<!-- 120051&#45;&gt;130062 -->
<g id="edge27" class="edge">
<title>120051&#45;&gt;130062</title>
<path fill="none" stroke="black" d="M269.14,-109.76C272.69,-99.76 276.59,-88.76 280.26,-78.43"/>
<polygon fill="black" stroke="black" points="281.86,-79.16 281.89,-73.86 278.57,-77.98 281.86,-79.16"/>
</g>
</g>
</svg>
