<?xml version="1.0" encoding="UTF-8" standalone="no"?>
<!DOCTYPE svg PUBLIC "-//W3C//DTD SVG 1.1//EN"
 "http://www.w3.org/Graphics/SVG/1.1/DTD/svg11.dtd">
<!-- Generated by graphviz version 12.2.1 (20241206.2353)
 -->
<!-- Title: main Pages: 1 -->
<svg width="446pt" height="953pt"
 viewBox="0.00 0.00 445.60 953.00" xmlns="http://www.w3.org/2000/svg" xmlns:xlink="http://www.w3.org/1999/xlink">
<g id="graph0" class="graph" transform="scale(1 1) rotate(0) translate(4 949)">
<title>main</title>
<!-- 50014 -->
<g id="node1" class="node">
<title>50014</title>
<g id="a_node1"><a xlink:href="HZ\0005.jpg" xlink:title="0|車方&#45;&#45;&gt;檀石" target="dynamic">
<polygon fill="green" stroke="black" stroke-width="0.3" points="171,-872.5 171,-944.5 228.6,-944.5 228.6,-872.5 171,-872.5"/>
<text text-anchor="middle" x="200" y="-929.3" font-family="宋体" font-size="16.00">50014</text>
<polyline fill="none" stroke="black" stroke-width="0.3" points="171,-924.25 229,-924.25"/>
<text text-anchor="middle" x="200" y="-909.55" font-family="宋体" font-size="16.00">五27</text>
<polyline fill="none" stroke="black" stroke-width="0.3" points="171,-905 229,-905"/>
<text text-anchor="middle" x="200" y="-890.3" font-family="宋体" font-size="16.00">汝功</text>
<polyline fill="none" stroke="black" stroke-width="0.3" points="171,-888.75 229,-888.75"/>
<text text-anchor="middle" x="200" y="-874.05" font-family="宋体" font-size="16.00">檀石</text>
</a>
</g>
</g>
<!-- 60012 -->
<g id="node2" class="node">
<title>60012</title>
<g id="a_node2"><a xlink:href="HZ\0006.jpg" xlink:title="0|0" target="dynamic">
<polygon fill="none" stroke="black" stroke-width="0.3" points="133,-763.5 133,-835.5 190.6,-835.5 190.6,-763.5 133,-763.5"/>
<text text-anchor="middle" x="162" y="-820.3" font-family="宋体" font-size="16.00">60012</text>
<polyline fill="none" stroke="black" stroke-width="0.3" points="133,-815.25 191,-815.25"/>
<text text-anchor="middle" x="162" y="-800.55" font-family="宋体" font-size="16.00">六13</text>
<polyline fill="none" stroke="black" stroke-width="0.3" points="133,-796 191,-796"/>
<text text-anchor="middle" x="162" y="-781.3" font-family="宋体" font-size="16.00">一遇</text>
<polyline fill="none" stroke="black" stroke-width="0.3" points="133,-779.75 191,-779.75"/>
<text text-anchor="middle" x="162" y="-765.05" font-family="宋体" font-size="16.00">檀石</text>
</a>
</g>
</g>
<!-- 50014&#45;&gt;60012 -->
<g id="edge1" class="edge">
<title>50014&#45;&gt;60012</title>
<path fill="none" stroke="black" d="M187.46,-872.76C183.91,-862.76 180.01,-851.76 176.34,-841.43"/>
<polygon fill="black" stroke="black" points="178.03,-840.98 174.71,-836.86 174.74,-842.16 178.03,-840.98"/>
</g>
<!-- 60016 -->
<g id="node3" class="node">
<title>60016</title>
<g id="a_node3"><a xlink:href="HZ\0006.jpg" xlink:title="刊誤溪下|0" target="dynamic">
<polygon fill="none" stroke="black" stroke-width="0.3" points="247,-763.5 247,-835.5 304.6,-835.5 304.6,-763.5 247,-763.5"/>
<text text-anchor="middle" x="276" y="-820.3" font-family="宋体" font-size="16.00">60016</text>
<polyline fill="none" stroke="black" stroke-width="0.3" points="247,-815.25 305,-815.25"/>
<text text-anchor="middle" x="276" y="-800.55" font-family="宋体" font-size="16.00">六16</text>
<polyline fill="none" stroke="black" stroke-width="0.3" points="247,-796 305,-796"/>
<text text-anchor="middle" x="276" y="-781.3" font-family="宋体" font-size="16.00">執禮</text>
<polyline fill="none" stroke="black" stroke-width="0.3" points="247,-779.75 305,-779.75"/>
<text text-anchor="middle" x="276" y="-765.05" font-family="宋体" font-size="16.00">檀石</text>
</a>
</g>
</g>
<!-- 50014&#45;&gt;60016 -->
<g id="edge2" class="edge">
<title>50014&#45;&gt;60016</title>
<path fill="none" stroke="black" d="M224.48,-872.76C231.78,-862.48 239.83,-851.15 247.35,-840.56"/>
<polygon fill="black" stroke="black" points="248.64,-841.76 250.11,-836.67 245.79,-839.73 248.64,-841.76"/>
</g>
<!-- 70020 -->
<g id="node4" class="node">
<title>70020</title>
<g id="a_node4"><a xlink:href="HZ\0008.jpg" xlink:title="0|0" target="dynamic">
<polygon fill="none" stroke="black" stroke-width="0.3" points="0,-654.5 0,-726.5 57.6,-726.5 57.6,-654.5 0,-654.5"/>
<text text-anchor="middle" x="29" y="-711.3" font-family="宋体" font-size="16.00">70020</text>
<polyline fill="none" stroke="black" stroke-width="0.3" points="0,-706.25 58,-706.25"/>
<text text-anchor="middle" x="29" y="-691.55" font-family="宋体" font-size="16.00">千17</text>
<polyline fill="none" stroke="black" stroke-width="0.3" points="0,-687 58,-687"/>
<text text-anchor="middle" x="29" y="-672.3" font-family="宋体" font-size="16.00">棐</text>
<polyline fill="none" stroke="black" stroke-width="0.3" points="0,-670.75 58,-670.75"/>
<text text-anchor="middle" x="29" y="-656.05" font-family="宋体" font-size="16.00">檀石</text>
</a>
</g>
</g>
<!-- 60012&#45;&gt;70020 -->
<g id="edge3" class="edge">
<title>60012&#45;&gt;70020</title>
<path fill="none" stroke="black" d="M133.34,-778.3C114.15,-764.38 88.46,-745.18 66.8,-727 65.28,-725.72 63.74,-724.4 62.19,-723.06"/>
<polygon fill="black" stroke="black" points="63.6,-721.96 58.69,-719.96 61.28,-724.59 63.6,-721.96"/>
</g>
<!-- 70024 -->
<g id="node5" class="node">
<title>70024</title>
<g id="a_node5"><a xlink:href="HZ\0008.jpg" xlink:title="240|0" target="dynamic">
<polygon fill="none" stroke="black" stroke-width="0.3" points="76,-654.5 76,-726.5 133.6,-726.5 133.6,-654.5 76,-654.5"/>
<text text-anchor="middle" x="105" y="-711.3" font-family="宋体" font-size="16.00">70024</text>
<polyline fill="none" stroke="black" stroke-width="0.3" points="76,-706.25 134,-706.25"/>
<text text-anchor="middle" x="105" y="-691.55" font-family="宋体" font-size="16.00">千20</text>
<polyline fill="none" stroke="black" stroke-width="0.3" points="76,-687 134,-687"/>
<text text-anchor="middle" x="105" y="-672.3" font-family="宋体" font-size="16.00">杲</text>
<polyline fill="none" stroke="black" stroke-width="0.3" points="76,-670.75 134,-670.75"/>
<text text-anchor="middle" x="105" y="-656.05" font-family="宋体" font-size="16.00">檀石</text>
</a>
</g>
</g>
<!-- 60012&#45;&gt;70024 -->
<g id="edge4" class="edge">
<title>60012&#45;&gt;70024</title>
<path fill="none" stroke="black" d="M143.29,-763.76C137.92,-753.67 132,-742.56 126.45,-732.14"/>
<polygon fill="black" stroke="black" points="128.02,-731.36 124.12,-727.77 124.93,-733 128.02,-731.36"/>
</g>
<!-- 70028 -->
<g id="node7" class="node">
<title>70028</title>
<g id="a_node7"><a xlink:href="HZ\0009.jpg" xlink:title="0|0" target="dynamic">
<polygon fill="none" stroke="black" stroke-width="0.3" points="152,-654.5 152,-726.5 209.6,-726.5 209.6,-654.5 152,-654.5"/>
<text text-anchor="middle" x="180.88" y="-711.3" font-family="宋体" font-size="16.00">70028</text>
<polyline fill="none" stroke="black" stroke-width="0.3" points="152,-706.25 209.75,-706.25"/>
<text text-anchor="middle" x="180.88" y="-691.55" font-family="宋体" font-size="16.00">千23_2</text>
<polyline fill="none" stroke="black" stroke-width="0.3" points="152,-687 209.75,-687"/>
<text text-anchor="middle" x="180.88" y="-672.3" font-family="宋体" font-size="16.00">集</text>
<polyline fill="none" stroke="black" stroke-width="0.3" points="152,-670.75 209.75,-670.75"/>
<text text-anchor="middle" x="180.88" y="-656.05" font-family="宋体" font-size="16.00">檀石</text>
</a>
</g>
</g>
<!-- 60012&#45;&gt;70028 -->
<g id="edge6" class="edge">
<title>60012&#45;&gt;70028</title>
<path fill="none" stroke="black" d="M167.97,-763.76C169.73,-753.86 171.66,-742.97 173.48,-732.72"/>
<polygon fill="black" stroke="black" points="175.18,-733.15 174.33,-727.92 171.74,-732.54 175.18,-733.15"/>
</g>
<!-- 70026 -->
<g id="node6" class="node">
<title>70026</title>
<g id="a_node6"><a xlink:href="HZ\0008.jpg" xlink:title="0|0" target="dynamic">
<polygon fill="none" stroke="black" stroke-width="0.3" points="228,-654.5 228,-726.5 285.6,-726.5 285.6,-654.5 228,-654.5"/>
<text text-anchor="middle" x="257" y="-711.3" font-family="宋体" font-size="16.00">70026</text>
<polyline fill="none" stroke="black" stroke-width="0.3" points="228,-706.25 286,-706.25"/>
<text text-anchor="middle" x="257" y="-691.55" font-family="宋体" font-size="16.00">千22</text>
<polyline fill="none" stroke="black" stroke-width="0.3" points="228,-687 286,-687"/>
<text text-anchor="middle" x="257" y="-672.3" font-family="宋体" font-size="16.00">概</text>
<polyline fill="none" stroke="black" stroke-width="0.3" points="228,-670.75 286,-670.75"/>
<text text-anchor="middle" x="257" y="-656.05" font-family="宋体" font-size="16.00">檀石</text>
</a>
</g>
</g>
<!-- 60016&#45;&gt;70026 -->
<g id="edge5" class="edge">
<title>60016&#45;&gt;70026</title>
<path fill="none" stroke="black" d="M269.63,-763.76C267.87,-753.86 265.94,-742.97 264.12,-732.72"/>
<polygon fill="black" stroke="black" points="265.86,-732.54 263.27,-727.92 262.42,-733.15 265.86,-732.54"/>
</g>
<!-- 70029 -->
<g id="node8" class="node">
<title>70029</title>
<g id="a_node8"><a xlink:href="HZ\0009.jpg" xlink:title="0|0" target="dynamic">
<polygon fill="none" stroke="black" stroke-width="0.3" points="304,-654.5 304,-726.5 361.6,-726.5 361.6,-654.5 304,-654.5"/>
<text text-anchor="middle" x="333" y="-711.3" font-family="宋体" font-size="16.00">70029</text>
<polyline fill="none" stroke="black" stroke-width="0.3" points="304,-706.25 362,-706.25"/>
<text text-anchor="middle" x="333" y="-691.55" font-family="宋体" font-size="16.00">千24</text>
<polyline fill="none" stroke="black" stroke-width="0.3" points="304,-687 362,-687"/>
<text text-anchor="middle" x="333" y="-672.3" font-family="宋体" font-size="16.00">梁</text>
<polyline fill="none" stroke="black" stroke-width="0.3" points="304,-670.75 362,-670.75"/>
<text text-anchor="middle" x="333" y="-656.05" font-family="宋体" font-size="16.00">檀石</text>
</a>
</g>
</g>
<!-- 60016&#45;&gt;70029 -->
<g id="edge7" class="edge">
<title>60016&#45;&gt;70029</title>
<path fill="none" stroke="black" d="M294.31,-763.76C299.68,-753.67 305.6,-742.56 311.15,-732.14"/>
<polygon fill="black" stroke="black" points="312.67,-733 313.48,-727.77 309.58,-731.36 312.67,-733"/>
</g>
<!-- 70034 -->
<g id="node9" class="node">
<title>70034</title>
<g id="a_node9"><a xlink:href="HZ\0009.jpg" xlink:title="0|0" target="dynamic">
<polygon fill="none" stroke="black" stroke-width="0.3" points="380,-654.5 380,-726.5 437.6,-726.5 437.6,-654.5 380,-654.5"/>
<text text-anchor="middle" x="409" y="-711.3" font-family="宋体" font-size="16.00">70034</text>
<polyline fill="none" stroke="black" stroke-width="0.3" points="380,-706.25 438,-706.25"/>
<text text-anchor="middle" x="409" y="-691.55" font-family="宋体" font-size="16.00">千31</text>
<polyline fill="none" stroke="black" stroke-width="0.3" points="380,-687 438,-687"/>
<text text-anchor="middle" x="409" y="-672.3" font-family="宋体" font-size="16.00">采</text>
<polyline fill="none" stroke="black" stroke-width="0.3" points="380,-670.75 438,-670.75"/>
<text text-anchor="middle" x="409" y="-656.05" font-family="宋体" font-size="16.00">檀石</text>
</a>
</g>
</g>
<!-- 60016&#45;&gt;70034 -->
<g id="edge8" class="edge">
<title>60016&#45;&gt;70034</title>
<path fill="none" stroke="black" d="M304.26,-778.3C323.45,-764.38 349.14,-745.18 370.8,-727 372.32,-725.72 373.86,-724.4 375.41,-723.06"/>
<polygon fill="black" stroke="black" points="376.32,-724.59 378.91,-719.96 374,-721.96 376.32,-724.59"/>
</g>
<!-- 80024 -->
<g id="node24" class="node">
<title>80024</title>
<g id="a_node24"><a xlink:title="0|檀石&#45;&#45;&gt;前宅">
<polygon fill="grey" stroke="black" stroke-width="0.3" points="0,-545.5 0,-617.5 57.6,-617.5 57.6,-545.5 0,-545.5"/>
<text text-anchor="middle" x="29" y="-602.3" font-family="宋体" font-size="16.00" fill="darkgreen">80024</text>
<polyline fill="none" stroke="black" stroke-width="0.3" points="0,-597.25 58,-597.25"/>
<text text-anchor="middle" x="29" y="-582.55" font-family="宋体" font-size="16.00" fill="darkgreen">文1</text>
<polyline fill="none" stroke="black" stroke-width="0.3" points="0,-578 58,-578"/>
<text text-anchor="middle" x="29" y="-563.3" font-family="宋体" font-size="16.00" fill="darkgreen">根</text>
<polyline fill="none" stroke="black" stroke-width="0.3" points="0,-561.75 58,-561.75"/>
<text text-anchor="middle" x="29" y="-547.05" font-family="宋体" font-size="16.00" fill="darkgreen">前宅</text>
</a>
</g>
</g>
<!-- 70020&#45;&gt;80024 -->
<g id="edge23" class="edge">
<title>70020&#45;&gt;80024</title>
<path fill="none" stroke="black" d="M28.8,-654.76C28.8,-644.86 28.8,-633.97 28.8,-623.72"/>
<polygon fill="black" stroke="black" points="30.55,-623.95 28.8,-618.95 27.05,-623.95 30.55,-623.95"/>
</g>
<!-- 80028 -->
<g id="node25" class="node">
<title>80028</title>
<g id="a_node25"><a xlink:title="0|檀石&#45;&#45;&gt;後宅">
<polygon fill="grey" stroke="black" stroke-width="0.3" points="76,-545.5 76,-617.5 133.6,-617.5 133.6,-545.5 76,-545.5"/>
<text text-anchor="middle" x="105" y="-602.3" font-family="宋体" font-size="16.00" fill="darkgreen">80028</text>
<polyline fill="none" stroke="black" stroke-width="0.3" points="76,-597.25 134,-597.25"/>
<text text-anchor="middle" x="105" y="-582.55" font-family="宋体" font-size="16.00" fill="darkgreen">文4</text>
<polyline fill="none" stroke="black" stroke-width="0.3" points="76,-578 134,-578"/>
<text text-anchor="middle" x="105" y="-563.3" font-family="宋体" font-size="16.00" fill="darkgreen">公舉</text>
<polyline fill="none" stroke="black" stroke-width="0.3" points="76,-561.75 134,-561.75"/>
<text text-anchor="middle" x="105" y="-547.05" font-family="宋体" font-size="16.00" fill="darkgreen">後宅</text>
</a>
</g>
</g>
<!-- 70024&#45;&gt;80028 -->
<g id="edge24" class="edge">
<title>70024&#45;&gt;80028</title>
<path fill="none" stroke="black" d="M104.8,-654.76C104.8,-644.86 104.8,-633.97 104.8,-623.72"/>
<polygon fill="black" stroke="black" points="106.55,-623.95 104.8,-618.95 103.05,-623.95 106.55,-623.95"/>
</g>
<!-- 80031 -->
<g id="node10" class="node">
<title>80031</title>
<g id="a_node10"><a xlink:href="HZ\0011.jpg" xlink:title="0|0" target="dynamic">
<polygon fill="none" stroke="black" stroke-width="0.3" points="228,-545.5 228,-617.5 285.6,-617.5 285.6,-545.5 228,-545.5"/>
<text text-anchor="middle" x="257" y="-602.3" font-family="宋体" font-size="16.00">80031</text>
<polyline fill="none" stroke="black" stroke-width="0.3" points="228,-597.25 286,-597.25"/>
<text text-anchor="middle" x="257" y="-582.55" font-family="宋体" font-size="16.00">文7</text>
<polyline fill="none" stroke="black" stroke-width="0.3" points="228,-578 286,-578"/>
<text text-anchor="middle" x="257" y="-563.3" font-family="宋体" font-size="16.00">愈</text>
<polyline fill="none" stroke="black" stroke-width="0.3" points="228,-561.75 286,-561.75"/>
<text text-anchor="middle" x="257" y="-547.05" font-family="宋体" font-size="16.00">檀石</text>
</a>
</g>
</g>
<!-- 70026&#45;&gt;80031 -->
<g id="edge9" class="edge">
<title>70026&#45;&gt;80031</title>
<path fill="none" stroke="black" d="M256.8,-654.76C256.8,-644.86 256.8,-633.97 256.8,-623.72"/>
<polygon fill="black" stroke="black" points="258.55,-623.95 256.8,-618.95 255.05,-623.95 258.55,-623.95"/>
</g>
<!-- 80033 -->
<g id="node11" class="node">
<title>80033</title>
<g id="a_node11"><a xlink:href="HZ\0011.jpg" xlink:title="0|0" target="dynamic">
<polygon fill="none" stroke="black" stroke-width="0.3" points="152,-545.5 152,-617.5 209.6,-617.5 209.6,-545.5 152,-545.5"/>
<text text-anchor="middle" x="181" y="-602.8" font-family="宋体" font-size="16.00">80033</text>
<polyline fill="none" stroke="black" stroke-width="0.3" points="152,-598.25 210,-598.25"/>
<text text-anchor="middle" x="181" y="-584.05" font-family="宋体" font-size="16.00">文9</text>
<polyline fill="none" stroke="black" stroke-width="0.3" points="152,-580 210,-580"/>
<text text-anchor="middle" x="181" y="-565.3" font-family="宋体" font-size="16.00">0</text>
<polyline fill="none" stroke="black" stroke-width="0.3" points="152,-560.75 210,-560.75"/>
<text text-anchor="middle" x="181" y="-546.55" font-family="宋体" font-size="16.00">檀石</text>
</a>
</g>
</g>
<!-- 70028&#45;&gt;80033 -->
<g id="edge10" class="edge">
<title>70028&#45;&gt;80033</title>
<path fill="none" stroke="black" d="M180.8,-654.76C180.8,-644.86 180.8,-633.97 180.8,-623.72"/>
<polygon fill="black" stroke="black" points="182.55,-623.95 180.8,-618.95 179.05,-623.95 182.55,-623.95"/>
</g>
<!-- 80035 -->
<g id="node12" class="node">
<title>80035</title>
<g id="a_node12"><a xlink:href="HZ\0011.jpg" xlink:title="0|0" target="dynamic">
<polygon fill="none" stroke="black" stroke-width="0.3" points="380,-545.5 380,-617.5 437.6,-617.5 437.6,-545.5 380,-545.5"/>
<text text-anchor="middle" x="409" y="-602.3" font-family="宋体" font-size="16.00">80035</text>
<polyline fill="none" stroke="black" stroke-width="0.3" points="380,-597.25 438,-597.25"/>
<text text-anchor="middle" x="409" y="-582.55" font-family="宋体" font-size="16.00">文11</text>
<polyline fill="none" stroke="black" stroke-width="0.3" points="380,-578 438,-578"/>
<text text-anchor="middle" x="409" y="-563.3" font-family="宋体" font-size="16.00">勝</text>
<polyline fill="none" stroke="black" stroke-width="0.3" points="380,-561.75 438,-561.75"/>
<text text-anchor="middle" x="409" y="-547.05" font-family="宋体" font-size="16.00">檀石</text>
</a>
</g>
</g>
<!-- 70034&#45;&gt;80035 -->
<g id="edge11" class="edge">
<title>70034&#45;&gt;80035</title>
<path fill="none" stroke="black" d="M408.8,-654.76C408.8,-644.86 408.8,-633.97 408.8,-623.72"/>
<polygon fill="black" stroke="black" points="410.55,-623.95 408.8,-618.95 407.05,-623.95 410.55,-623.95"/>
</g>
<!-- 90044 -->
<g id="node13" class="node">
<title>90044</title>
<g id="a_node13"><a xlink:href="HZ\0014.jpg" xlink:title="0|0" target="dynamic">
<polygon fill="none" stroke="black" stroke-width="0.3" points="228,-436.5 228,-508.5 285.6,-508.5 285.6,-436.5 228,-436.5"/>
<text text-anchor="middle" x="257" y="-493.3" font-family="宋体" font-size="16.00">90044</text>
<polyline fill="none" stroke="black" stroke-width="0.3" points="228,-488.25 286,-488.25"/>
<text text-anchor="middle" x="257" y="-473.55" font-family="宋体" font-size="16.00">仁2</text>
<polyline fill="none" stroke="black" stroke-width="0.3" points="228,-469 286,-469"/>
<text text-anchor="middle" x="257" y="-454.3" font-family="宋体" font-size="16.00">鑾</text>
<polyline fill="none" stroke="black" stroke-width="0.3" points="228,-452.75 286,-452.75"/>
<text text-anchor="middle" x="257" y="-438.05" font-family="宋体" font-size="16.00">檀石</text>
</a>
</g>
</g>
<!-- 80031&#45;&gt;90044 -->
<g id="edge12" class="edge">
<title>80031&#45;&gt;90044</title>
<path fill="none" stroke="black" d="M256.8,-545.76C256.8,-535.86 256.8,-524.97 256.8,-514.72"/>
<polygon fill="black" stroke="black" points="258.55,-514.95 256.8,-509.95 255.05,-514.95 258.55,-514.95"/>
</g>
<!-- 100032 -->
<g id="node14" class="node">
<title>100032</title>
<g id="a_node14"><a xlink:href="HZ\0016.jpg" xlink:title="0|0" target="dynamic">
<polygon fill="none" stroke="black" stroke-width="0.3" points="152,-327.5 152,-399.5 209.6,-399.5 209.6,-327.5 152,-327.5"/>
<text text-anchor="middle" x="181" y="-384.3" font-family="宋体" font-size="16.00">100032</text>
<polyline fill="none" stroke="black" stroke-width="0.3" points="152,-379.25 210,-379.25"/>
<text text-anchor="middle" x="181" y="-364.55" font-family="宋体" font-size="16.00">德1</text>
<polyline fill="none" stroke="black" stroke-width="0.3" points="152,-360 210,-360"/>
<text text-anchor="middle" x="181" y="-345.3" font-family="宋体" font-size="16.00">香</text>
<polyline fill="none" stroke="black" stroke-width="0.3" points="152,-343.75 210,-343.75"/>
<text text-anchor="middle" x="181" y="-329.05" font-family="宋体" font-size="16.00">檀石</text>
</a>
</g>
</g>
<!-- 90044&#45;&gt;100032 -->
<g id="edge13" class="edge">
<title>90044&#45;&gt;100032</title>
<path fill="none" stroke="black" d="M232.12,-436.76C224.82,-426.48 216.77,-415.15 209.25,-404.56"/>
<polygon fill="black" stroke="black" points="210.81,-403.73 206.49,-400.67 207.96,-405.76 210.81,-403.73"/>
</g>
<!-- 100033 -->
<g id="node15" class="node">
<title>100033</title>
<g id="a_node15"><a xlink:href="HZ\0016.jpg" xlink:title="刊誤仁1|0" target="dynamic">
<polygon fill="none" stroke="black" stroke-width="0.3" points="228,-327.5 228,-399.5 285.6,-399.5 285.6,-327.5 228,-327.5"/>
<text text-anchor="middle" x="257" y="-384.3" font-family="宋体" font-size="16.00">100033</text>
<polyline fill="none" stroke="black" stroke-width="0.3" points="228,-379.25 286,-379.25"/>
<text text-anchor="middle" x="257" y="-364.55" font-family="宋体" font-size="16.00">德2</text>
<polyline fill="none" stroke="black" stroke-width="0.3" points="228,-360 286,-360"/>
<text text-anchor="middle" x="257" y="-345.3" font-family="宋体" font-size="16.00">玉</text>
<polyline fill="none" stroke="black" stroke-width="0.3" points="228,-343.75 286,-343.75"/>
<text text-anchor="middle" x="257" y="-329.05" font-family="宋体" font-size="16.00">檀石</text>
</a>
</g>
</g>
<!-- 90044&#45;&gt;100033 -->
<g id="edge14" class="edge">
<title>90044&#45;&gt;100033</title>
<path fill="none" stroke="black" d="M256.8,-436.76C256.8,-426.86 256.8,-415.97 256.8,-405.72"/>
<polygon fill="black" stroke="black" points="258.55,-405.95 256.8,-400.95 255.05,-405.95 258.55,-405.95"/>
</g>
<!-- 100034 -->
<g id="node16" class="node">
<title>100034</title>
<g id="a_node16"><a xlink:href="HZ\0016.jpg" xlink:title="刊誤仁1|0" target="dynamic">
<polygon fill="none" stroke="black" stroke-width="0.3" points="304,-327.5 304,-399.5 361.6,-399.5 361.6,-327.5 304,-327.5"/>
<text text-anchor="middle" x="333" y="-384.8" font-family="宋体" font-size="16.00">100034</text>
<polyline fill="none" stroke="black" stroke-width="0.3" points="304,-380.25 362,-380.25"/>
<text text-anchor="middle" x="333" y="-366.05" font-family="宋体" font-size="16.00">德3</text>
<polyline fill="none" stroke="black" stroke-width="0.3" points="304,-362 362,-362"/>
<text text-anchor="middle" x="333" y="-347.3" font-family="宋体" font-size="16.00">0</text>
<polyline fill="none" stroke="black" stroke-width="0.3" points="304,-342.75 362,-342.75"/>
<text text-anchor="middle" x="333" y="-328.55" font-family="宋体" font-size="16.00">檀石</text>
</a>
</g>
</g>
<!-- 90044&#45;&gt;100034 -->
<g id="edge15" class="edge">
<title>90044&#45;&gt;100034</title>
<path fill="none" stroke="black" d="M281.48,-436.76C288.78,-426.48 296.83,-415.15 304.35,-404.56"/>
<polygon fill="black" stroke="black" points="305.64,-405.76 307.11,-400.67 302.79,-403.73 305.64,-405.76"/>
</g>
<!-- 110033 -->
<g id="node17" class="node">
<title>110033</title>
<g id="a_node17"><a xlink:href="HZ\0018.jpg" xlink:title="0|0" target="dynamic">
<polygon fill="none" stroke="black" stroke-width="0.3" points="152,-218.5 152,-290.5 209.6,-290.5 209.6,-218.5 152,-218.5"/>
<text text-anchor="middle" x="181" y="-275.3" font-family="宋体" font-size="16.00">110033</text>
<polyline fill="none" stroke="black" stroke-width="0.3" points="152,-270.25 210,-270.25"/>
<text text-anchor="middle" x="181" y="-255.55" font-family="宋体" font-size="16.00">禮1</text>
<polyline fill="none" stroke="black" stroke-width="0.3" points="152,-251 210,-251"/>
<text text-anchor="middle" x="181" y="-236.3" font-family="宋体" font-size="16.00">毛</text>
<polyline fill="none" stroke="black" stroke-width="0.3" points="152,-234.75 210,-234.75"/>
<text text-anchor="middle" x="181" y="-220.05" font-family="宋体" font-size="16.00">檀石</text>
</a>
</g>
</g>
<!-- 100032&#45;&gt;110033 -->
<g id="edge16" class="edge">
<title>100032&#45;&gt;110033</title>
<path fill="none" stroke="black" d="M180.8,-327.76C180.8,-317.86 180.8,-306.97 180.8,-296.72"/>
<polygon fill="black" stroke="black" points="182.55,-296.95 180.8,-291.95 179.05,-296.95 182.55,-296.95"/>
</g>
<!-- 110034 -->
<g id="node18" class="node">
<title>110034</title>
<g id="a_node18"><a xlink:href="HZ\0018.jpg" xlink:title="0|0" target="dynamic">
<polygon fill="none" stroke="black" stroke-width="0.3" points="228,-218.5 228,-290.5 285.6,-290.5 285.6,-218.5 228,-218.5"/>
<text text-anchor="middle" x="257" y="-275.3" font-family="宋体" font-size="16.00">110034</text>
<polyline fill="none" stroke="black" stroke-width="0.3" points="228,-270.25 286,-270.25"/>
<text text-anchor="middle" x="257" y="-255.55" font-family="宋体" font-size="16.00">智3</text>
<polyline fill="none" stroke="black" stroke-width="0.3" points="228,-251 286,-251"/>
<text text-anchor="middle" x="257" y="-236.3" font-family="宋体" font-size="16.00">石</text>
<polyline fill="none" stroke="black" stroke-width="0.3" points="228,-234.75 286,-234.75"/>
<text text-anchor="middle" x="257" y="-220.05" font-family="宋体" font-size="16.00">檀石</text>
</a>
</g>
</g>
<!-- 100033&#45;&gt;110034 -->
<g id="edge17" class="edge">
<title>100033&#45;&gt;110034</title>
<path fill="none" stroke="black" d="M256.8,-327.76C256.8,-317.86 256.8,-306.97 256.8,-296.72"/>
<polygon fill="black" stroke="black" points="258.55,-296.95 256.8,-291.95 255.05,-296.95 258.55,-296.95"/>
</g>
<!-- 110035 -->
<g id="node19" class="node">
<title>110035</title>
<g id="a_node19"><a xlink:href="HZ\0018.jpg" xlink:title="0|0" target="dynamic">
<polygon fill="none" stroke="black" stroke-width="0.3" points="304,-218.5 304,-290.5 361.6,-290.5 361.6,-218.5 304,-218.5"/>
<text text-anchor="middle" x="333" y="-275.3" font-family="宋体" font-size="16.00">110035</text>
<polyline fill="none" stroke="black" stroke-width="0.3" points="304,-270.25 362,-270.25"/>
<text text-anchor="middle" x="333" y="-255.55" font-family="宋体" font-size="16.00">智5</text>
<polyline fill="none" stroke="black" stroke-width="0.3" points="304,-251 362,-251"/>
<text text-anchor="middle" x="333" y="-236.3" font-family="宋体" font-size="16.00">中</text>
<polyline fill="none" stroke="black" stroke-width="0.3" points="304,-234.75 362,-234.75"/>
<text text-anchor="middle" x="333" y="-220.05" font-family="宋体" font-size="16.00">檀石</text>
</a>
</g>
</g>
<!-- 100034&#45;&gt;110035 -->
<g id="edge18" class="edge">
<title>100034&#45;&gt;110035</title>
<path fill="none" stroke="black" d="M332.8,-327.76C332.8,-317.86 332.8,-306.97 332.8,-296.72"/>
<polygon fill="black" stroke="black" points="334.55,-296.95 332.8,-291.95 331.05,-296.95 334.55,-296.95"/>
</g>
<!-- 120051 -->
<g id="node20" class="node">
<title>120051</title>
<g id="a_node20"><a xlink:href="HZ\0022.jpg" xlink:title="0|0" target="dynamic">
<polygon fill="none" stroke="black" stroke-width="0.3" points="228,-109.5 228,-181.5 285.6,-181.5 285.6,-109.5 228,-109.5"/>
<text text-anchor="middle" x="257" y="-166.3" font-family="宋体" font-size="16.00">120051</text>
<polyline fill="none" stroke="black" stroke-width="0.3" points="228,-161.25 286,-161.25"/>
<text text-anchor="middle" x="257" y="-146.55" font-family="宋体" font-size="16.00">起1</text>
<polyline fill="none" stroke="black" stroke-width="0.3" points="228,-142 286,-142"/>
<text text-anchor="middle" x="257" y="-127.3" font-family="宋体" font-size="16.00">卓</text>
<polyline fill="none" stroke="black" stroke-width="0.3" points="228,-125.75 286,-125.75"/>
<text text-anchor="middle" x="257" y="-111.05" font-family="宋体" font-size="16.00">檀石</text>
</a>
</g>
</g>
<!-- 110034&#45;&gt;120051 -->
<g id="edge19" class="edge">
<title>110034&#45;&gt;120051</title>
<path fill="none" stroke="black" d="M256.8,-218.76C256.8,-208.86 256.8,-197.97 256.8,-187.72"/>
<polygon fill="black" stroke="black" points="258.55,-187.95 256.8,-182.95 255.05,-187.95 258.55,-187.95"/>
</g>
<!-- 120052 -->
<g id="node21" class="node">
<title>120052</title>
<g id="a_node21"><a xlink:href="HZ\0022.jpg" xlink:title="0|0" target="dynamic">
<polygon fill="none" stroke="black" stroke-width="0.3" points="304,-109.5 304,-181.5 361.6,-181.5 361.6,-109.5 304,-109.5"/>
<text text-anchor="middle" x="333" y="-166.3" font-family="宋体" font-size="16.00">120052</text>
<polyline fill="none" stroke="black" stroke-width="0.3" points="304,-161.25 362,-161.25"/>
<text text-anchor="middle" x="333" y="-146.55" font-family="宋体" font-size="16.00">起5</text>
<polyline fill="none" stroke="black" stroke-width="0.3" points="304,-142 362,-142"/>
<text text-anchor="middle" x="333" y="-127.3" font-family="宋体" font-size="16.00">立</text>
<polyline fill="none" stroke="black" stroke-width="0.3" points="304,-125.75 362,-125.75"/>
<text text-anchor="middle" x="333" y="-111.05" font-family="宋体" font-size="16.00">檀石</text>
</a>
</g>
</g>
<!-- 110035&#45;&gt;120052 -->
<g id="edge20" class="edge">
<title>110035&#45;&gt;120052</title>
<path fill="none" stroke="black" d="M332.8,-218.76C332.8,-208.86 332.8,-197.97 332.8,-187.72"/>
<polygon fill="black" stroke="black" points="334.55,-187.95 332.8,-182.95 331.05,-187.95 334.55,-187.95"/>
</g>
<!-- 130061 -->
<g id="node22" class="node">
<title>130061</title>
<g id="a_node22"><a xlink:href="HZ\0027.jpg" xlink:title="0|0" target="dynamic">
<polygon fill="none" stroke="black" stroke-width="0.3" points="190,-0.5 190,-72.5 247.6,-72.5 247.6,-0.5 190,-0.5"/>
<text text-anchor="middle" x="219" y="-57.3" font-family="宋体" font-size="16.00">130061</text>
<polyline fill="none" stroke="black" stroke-width="0.3" points="190,-52.25 248,-52.25"/>
<text text-anchor="middle" x="219" y="-37.55" font-family="宋体" font-size="16.00">禧1</text>
<polyline fill="none" stroke="black" stroke-width="0.3" points="190,-33 248,-33"/>
<text text-anchor="middle" x="219" y="-18.3" font-family="宋体" font-size="16.00">希</text>
<polyline fill="none" stroke="black" stroke-width="0.3" points="190,-16.75 248,-16.75"/>
<text text-anchor="middle" x="219" y="-2.05" font-family="宋体" font-size="16.00">檀石</text>
</a>
</g>
</g>
<!-- 120051&#45;&gt;130061 -->
<g id="edge21" class="edge">
<title>120051&#45;&gt;130061</title>
<path fill="none" stroke="black" d="M244.46,-109.76C240.91,-99.76 237.01,-88.76 233.34,-78.43"/>
<polygon fill="black" stroke="black" points="235.03,-77.98 231.71,-73.86 231.74,-79.16 235.03,-77.98"/>
</g>
<!-- 130062 -->
<g id="node23" class="node">
<title>130062</title>
<g id="a_node23"><a xlink:href="HZ\0027.jpg" xlink:title="0|0" target="dynamic">
<polygon fill="none" stroke="black" stroke-width="0.3" points="266,-0.5 266,-72.5 323.6,-72.5 323.6,-0.5 266,-0.5"/>
<text text-anchor="middle" x="295" y="-57.3" font-family="宋体" font-size="16.00">130062</text>
<polyline fill="none" stroke="black" stroke-width="0.3" points="266,-52.25 324,-52.25"/>
<text text-anchor="middle" x="295" y="-37.55" font-family="宋体" font-size="16.00">禧2</text>
<polyline fill="none" stroke="black" stroke-width="0.3" points="266,-33 324,-33"/>
<text text-anchor="middle" x="295" y="-18.3" font-family="宋体" font-size="16.00">貞</text>
<polyline fill="none" stroke="black" stroke-width="0.3" points="266,-16.75 324,-16.75"/>
<text text-anchor="middle" x="295" y="-2.05" font-family="宋体" font-size="16.00">檀石</text>
</a>
</g>
</g>
<!-- 120051&#45;&gt;130062 -->
<g id="edge22" class="edge">
<title>120051&#45;&gt;130062</title>
<path fill="none" stroke="black" d="M269.14,-109.76C272.69,-99.76 276.59,-88.76 280.26,-78.43"/>
<polygon fill="black" stroke="black" points="281.86,-79.16 281.89,-73.86 278.57,-77.98 281.86,-79.16"/>
</g>
</g>
</svg>
