<?xml version="1.0" encoding="UTF-8" standalone="no"?>
<!DOCTYPE svg PUBLIC "-//W3C//DTD SVG 1.1//EN"
 "http://www.w3.org/Graphics/SVG/1.1/DTD/svg11.dtd">
<!-- Generated by graphviz version 12.2.1 (20241206.2353)
 -->
<!-- Pages: 1 -->
<svg width="427pt" height="674pt"
 viewBox="0.00 0.00 426.50 674.00" xmlns="http://www.w3.org/2000/svg" xmlns:xlink="http://www.w3.org/1999/xlink">
<g id="graph0" class="graph" transform="scale(1 1) rotate(0) translate(4 670)">
<polygon fill="white" stroke="none" points="-4,4 -4,-670 422.5,-670 422.5,4 -4,4"/>
<!-- 70034 -->
<g id="node1" class="node">
<title>70034</title>
<g id="a_node1"><a xlink:href="/docs/biography/行传/7/0034" xlink:title="编号：70034，采，0。点击查看详情">
<polygon fill="#f0f0f0" stroke="none" points="360.5,-489 360.5,-506 410.5,-506 410.5,-489 360.5,-489"/>
<polygon fill="none" stroke="black" points="360.5,-489 360.5,-506 410.5,-506 410.5,-489 360.5,-489"/>
<text text-anchor="start" x="371.62" y="-491.7" font-family="SimSun" font-size="14.00">千31</text>
<polygon fill="#ffffff" stroke="none" points="360.5,-472 360.5,-489 410.5,-489 410.5,-472 360.5,-472"/>
<polygon fill="none" stroke="black" points="360.5,-472 360.5,-489 410.5,-489 410.5,-472 360.5,-472"/>
<text text-anchor="start" x="378.38" y="-474.7" font-family="SimSun" font-size="14.00">采</text>
</a>
</g>
</g>
<!-- 80035 -->
<g id="node13" class="node">
<title>80035</title>
<g id="a_node13"><a xlink:href="/docs/biography/行传/8/0035" xlink:title="编号：80035，勝，0。点击查看详情">
<polygon fill="#f0f0f0" stroke="none" points="360.5,-411 360.5,-428 410.5,-428 410.5,-411 360.5,-411"/>
<polygon fill="none" stroke="black" points="360.5,-411 360.5,-428 410.5,-428 410.5,-411 360.5,-411"/>
<text text-anchor="start" x="371.62" y="-413.7" font-family="SimSun" font-size="14.00">文11</text>
<polygon fill="#ffffff" stroke="none" points="360.5,-394 360.5,-411 410.5,-411 410.5,-394 360.5,-394"/>
<polygon fill="none" stroke="black" points="360.5,-394 360.5,-411 410.5,-411 410.5,-394 360.5,-394"/>
<text text-anchor="start" x="378.38" y="-396.7" font-family="SimSun" font-size="14.00">勝</text>
</a>
</g>
</g>
<!-- 70034&#45;&gt;80035 -->
<g id="edge1" class="edge">
<title>70034&#45;&gt;80035</title>
<path fill="none" stroke="black" d="M385.5,-468.03C385.5,-460.44 385.5,-451.6 385.5,-443.21"/>
<polygon fill="black" stroke="black" points="389,-443.35 385.5,-433.35 382,-443.35 389,-443.35"/>
</g>
<!-- 60012 -->
<g id="node2" class="node">
<title>60012</title>
<g id="a_node2"><a xlink:href="/docs/biography/行传/6/0012" xlink:title="编号：60012，一遇，0。点击查看详情">
<polygon fill="#f0f0f0" stroke="none" points="142.5,-567 142.5,-584 192.5,-584 192.5,-567 142.5,-567"/>
<polygon fill="none" stroke="black" points="142.5,-567 142.5,-584 192.5,-584 192.5,-567 142.5,-567"/>
<text text-anchor="start" x="153.62" y="-569.7" font-family="SimSun" font-size="14.00">六13</text>
<polygon fill="#ffffff" stroke="none" points="142.5,-550 142.5,-567 192.5,-567 192.5,-550 142.5,-550"/>
<polygon fill="none" stroke="black" points="142.5,-550 142.5,-567 192.5,-567 192.5,-550 142.5,-550"/>
<text text-anchor="start" x="153.25" y="-552.7" font-family="SimSun" font-size="14.00">一遇</text>
</a>
</g>
</g>
<!-- 70024 -->
<g id="node7" class="node">
<title>70024</title>
<g id="a_node7"><a xlink:href="/docs/biography/行传/7/0024" xlink:title="编号：70024，杲，0。点击查看详情">
<polygon fill="#f0f0f0" stroke="none" points="89.5,-489 89.5,-506 139.5,-506 139.5,-489 89.5,-489"/>
<polygon fill="none" stroke="black" points="89.5,-489 89.5,-506 139.5,-506 139.5,-489 89.5,-489"/>
<text text-anchor="start" x="100.62" y="-491.7" font-family="SimSun" font-size="14.00">千20</text>
<polygon fill="#ffffff" stroke="none" points="89.5,-472 89.5,-489 139.5,-489 139.5,-472 89.5,-472"/>
<polygon fill="none" stroke="black" points="89.5,-472 89.5,-489 139.5,-489 139.5,-472 89.5,-472"/>
<text text-anchor="start" x="107.38" y="-474.7" font-family="SimSun" font-size="14.00">杲</text>
</a>
</g>
</g>
<!-- 60012&#45;&gt;70024 -->
<g id="edge3" class="edge">
<title>60012&#45;&gt;70024</title>
<path fill="none" stroke="black" d="M153.57,-546.03C147.85,-537.83 141.12,-528.17 134.86,-519.19"/>
<polygon fill="black" stroke="black" points="137.79,-517.28 129.2,-511.08 132.05,-521.28 137.79,-517.28"/>
</g>
<!-- 70020 -->
<g id="node9" class="node">
<title>70020</title>
<g id="a_node9"><a xlink:href="/docs/biography/行传/7/0020" xlink:title="编号：70020，棐，0。点击查看详情">
<polygon fill="#f0f0f0" stroke="none" points="18.5,-489 18.5,-506 68.5,-506 68.5,-489 18.5,-489"/>
<polygon fill="none" stroke="black" points="18.5,-489 18.5,-506 68.5,-506 68.5,-489 18.5,-489"/>
<text text-anchor="start" x="29.62" y="-491.7" font-family="SimSun" font-size="14.00">千17</text>
<polygon fill="#ffffff" stroke="none" points="18.5,-472 18.5,-489 68.5,-489 68.5,-472 18.5,-472"/>
<polygon fill="none" stroke="black" points="18.5,-472 18.5,-489 68.5,-489 68.5,-472 18.5,-472"/>
<text text-anchor="start" x="36.38" y="-474.7" font-family="SimSun" font-size="14.00">棐</text>
</a>
</g>
</g>
<!-- 60012&#45;&gt;70020 -->
<g id="edge2" class="edge">
<title>60012&#45;&gt;70020</title>
<path fill="none" stroke="black" d="M134.92,-546.03C119.83,-536.78 101.71,-525.67 85.59,-515.8"/>
<polygon fill="black" stroke="black" points="87.51,-512.87 77.15,-510.63 83.85,-518.84 87.51,-512.87"/>
</g>
<!-- 70028 -->
<g id="node20" class="node">
<title>70028</title>
<g id="a_node20"><a xlink:href="/docs/biography/行传/7/0028" xlink:title="编号：70028，集，0。点击查看详情">
<polygon fill="#f0f0f0" stroke="none" points="158.5,-489 158.5,-506 208.5,-506 208.5,-489 158.5,-489"/>
<polygon fill="none" stroke="black" points="158.5,-489 158.5,-506 208.5,-506 208.5,-489 158.5,-489"/>
<text text-anchor="start" x="162.88" y="-491.7" font-family="SimSun" font-size="14.00">千23_2</text>
<polygon fill="#ffffff" stroke="none" points="158.5,-472 158.5,-489 208.5,-489 208.5,-472 158.5,-472"/>
<polygon fill="none" stroke="black" points="158.5,-472 158.5,-489 208.5,-489 208.5,-472 158.5,-472"/>
<text text-anchor="start" x="176.38" y="-474.7" font-family="SimSun" font-size="14.00">集</text>
</a>
</g>
</g>
<!-- 60012&#45;&gt;70028 -->
<g id="edge4" class="edge">
<title>60012&#45;&gt;70028</title>
<path fill="none" stroke="black" d="M171.7,-546.03C173.32,-538.35 175.21,-529.39 176.99,-520.92"/>
<polygon fill="black" stroke="black" points="180.38,-521.82 179.01,-511.32 173.53,-520.38 180.38,-521.82"/>
</g>
<!-- 80033 -->
<g id="node3" class="node">
<title>80033</title>
<g id="a_node3"><a xlink:href="/docs/biography/行传/8/0033" xlink:title="编号：80033，，0。点击查看详情">
<polygon fill="#f0f0f0" stroke="none" points="160.5,-411 160.5,-428 210.5,-428 210.5,-411 160.5,-411"/>
<polygon fill="none" stroke="black" points="160.5,-411 160.5,-428 210.5,-428 210.5,-411 160.5,-411"/>
<text text-anchor="start" x="175" y="-413.7" font-family="SimSun" font-size="14.00">文9</text>
<polygon fill="#ffffff" stroke="none" points="160.5,-394 160.5,-411 210.5,-411 210.5,-394 160.5,-394"/>
<polygon fill="none" stroke="black" points="160.5,-394 160.5,-411 210.5,-411 210.5,-394 160.5,-394"/>
<text text-anchor="start" x="182.12" y="-396.7" font-family="SimSun" font-size="14.00"> </text>
</a>
</g>
</g>
<!-- 80031 -->
<g id="node4" class="node">
<title>80031</title>
<g id="a_node4"><a xlink:href="/docs/biography/行传/8/0031" xlink:title="编号：80031，愈，0。点击查看详情">
<polygon fill="#f0f0f0" stroke="none" points="227.5,-411 227.5,-428 277.5,-428 277.5,-411 227.5,-411"/>
<polygon fill="none" stroke="black" points="227.5,-411 227.5,-428 277.5,-428 277.5,-411 227.5,-411"/>
<text text-anchor="start" x="242" y="-413.7" font-family="SimSun" font-size="14.00">文7</text>
<polygon fill="#ffffff" stroke="none" points="227.5,-394 227.5,-411 277.5,-411 277.5,-394 227.5,-394"/>
<polygon fill="none" stroke="black" points="227.5,-394 227.5,-411 277.5,-411 277.5,-394 227.5,-394"/>
<text text-anchor="start" x="245.38" y="-396.7" font-family="SimSun" font-size="14.00">愈</text>
</a>
</g>
</g>
<!-- 90044 -->
<g id="node14" class="node">
<title>90044</title>
<g id="a_node14"><a xlink:href="/docs/biography/行传/9/0044" xlink:title="编号：90044，鑾，0。点击查看详情">
<polygon fill="#f0f0f0" stroke="none" points="227.5,-333 227.5,-350 277.5,-350 277.5,-333 227.5,-333"/>
<polygon fill="none" stroke="black" points="227.5,-333 227.5,-350 277.5,-350 277.5,-333 227.5,-333"/>
<text text-anchor="start" x="242" y="-335.7" font-family="SimSun" font-size="14.00">仁2</text>
<polygon fill="#ffffff" stroke="none" points="227.5,-316 227.5,-333 277.5,-333 277.5,-316 227.5,-316"/>
<polygon fill="none" stroke="black" points="227.5,-316 227.5,-333 277.5,-333 277.5,-316 227.5,-316"/>
<text text-anchor="start" x="245.38" y="-318.7" font-family="SimSun" font-size="14.00">鑾</text>
</a>
</g>
</g>
<!-- 80031&#45;&gt;90044 -->
<g id="edge5" class="edge">
<title>80031&#45;&gt;90044</title>
<path fill="none" stroke="black" d="M252.5,-390.03C252.5,-382.44 252.5,-373.6 252.5,-365.21"/>
<polygon fill="black" stroke="black" points="256,-365.35 252.5,-355.35 249,-365.35 256,-365.35"/>
</g>
<!-- 60016 -->
<g id="node5" class="node">
<title>60016</title>
<g id="a_node5"><a xlink:href="/docs/biography/行传/6/0016" xlink:title="编号：60016，執禮，0。点击查看详情">
<polygon fill="#f0f0f0" stroke="none" points="242.5,-567 242.5,-584 292.5,-584 292.5,-567 242.5,-567"/>
<polygon fill="none" stroke="black" points="242.5,-567 242.5,-584 292.5,-584 292.5,-567 242.5,-567"/>
<text text-anchor="start" x="253.62" y="-569.7" font-family="SimSun" font-size="14.00">六16</text>
<polygon fill="#ffffff" stroke="none" points="242.5,-550 242.5,-567 292.5,-567 292.5,-550 242.5,-550"/>
<polygon fill="none" stroke="black" points="242.5,-550 242.5,-567 292.5,-567 292.5,-550 242.5,-550"/>
<text text-anchor="start" x="253.25" y="-552.7" font-family="SimSun" font-size="14.00">執禮</text>
</a>
</g>
</g>
<!-- 60016&#45;&gt;70034 -->
<g id="edge8" class="edge">
<title>60016&#45;&gt;70034</title>
<path fill="none" stroke="black" d="M298.5,-546.03C312.87,-536.78 330.11,-525.67 345.45,-515.8"/>
<polygon fill="black" stroke="black" points="346.92,-519.01 353.43,-510.65 343.13,-513.13 346.92,-519.01"/>
</g>
<!-- 70029 -->
<g id="node18" class="node">
<title>70029</title>
<g id="a_node18"><a xlink:href="/docs/biography/行传/7/0029" xlink:title="编号：70029，梁，0。点击查看详情">
<polygon fill="#f0f0f0" stroke="none" points="293.5,-489 293.5,-506 343.5,-506 343.5,-489 293.5,-489"/>
<polygon fill="none" stroke="black" points="293.5,-489 293.5,-506 343.5,-506 343.5,-489 293.5,-489"/>
<text text-anchor="start" x="304.62" y="-491.7" font-family="SimSun" font-size="14.00">千24</text>
<polygon fill="#ffffff" stroke="none" points="293.5,-472 293.5,-489 343.5,-489 343.5,-472 293.5,-472"/>
<polygon fill="none" stroke="black" points="293.5,-472 293.5,-489 343.5,-489 343.5,-472 293.5,-472"/>
<text text-anchor="start" x="311.38" y="-474.7" font-family="SimSun" font-size="14.00">梁</text>
</a>
</g>
</g>
<!-- 60016&#45;&gt;70029 -->
<g id="edge7" class="edge">
<title>60016&#45;&gt;70029</title>
<path fill="none" stroke="black" d="M280.9,-546.03C286.4,-537.83 292.89,-528.17 298.91,-519.19"/>
<polygon fill="black" stroke="black" points="301.68,-521.35 304.35,-511.09 295.87,-517.44 301.68,-521.35"/>
</g>
<!-- 70026 -->
<g id="node24" class="node">
<title>70026</title>
<g id="a_node24"><a xlink:href="/docs/biography/行传/7/0026" xlink:title="编号：70026，概，0。点击查看详情">
<polygon fill="#f0f0f0" stroke="none" points="226.5,-489 226.5,-506 276.5,-506 276.5,-489 226.5,-489"/>
<polygon fill="none" stroke="black" points="226.5,-489 226.5,-506 276.5,-506 276.5,-489 226.5,-489"/>
<text text-anchor="start" x="237.62" y="-491.7" font-family="SimSun" font-size="14.00">千22</text>
<polygon fill="#ffffff" stroke="none" points="226.5,-472 226.5,-489 276.5,-489 276.5,-472 226.5,-472"/>
<polygon fill="none" stroke="black" points="226.5,-472 226.5,-489 276.5,-489 276.5,-472 226.5,-472"/>
<text text-anchor="start" x="244.38" y="-474.7" font-family="SimSun" font-size="14.00">概</text>
</a>
</g>
</g>
<!-- 60016&#45;&gt;70026 -->
<g id="edge6" class="edge">
<title>60016&#45;&gt;70026</title>
<path fill="none" stroke="black" d="M263.3,-546.03C261.68,-538.35 259.79,-529.39 258.01,-520.92"/>
<polygon fill="black" stroke="black" points="261.47,-520.38 255.99,-511.32 254.62,-521.82 261.47,-520.38"/>
</g>
<!-- 80028 -->
<g id="node6" class="node">
<title>80028</title>
<g id="a_node6"><a xlink:href="/docs/biography/行传/8/0028" xlink:title="编号：80028，公舉，檀石&#45;&#45;&gt;後宅。点击查看详情">
<polygon fill="#f0f0f0" stroke="none" points="84,-411 84,-428 143,-428 143,-411 84,-411"/>
<polygon fill="none" stroke="darkred" points="84,-411 84,-428 143,-428 143,-411 84,-411"/>
<text text-anchor="start" x="103" y="-413.7" font-family="SimSun" font-size="14.00" fill="#8b0000">文4</text>
<polygon fill="#ffffff" stroke="none" points="84,-394 84,-411 143,-411 143,-394 84,-394"/>
<polygon fill="none" stroke="darkred" points="84,-394 84,-411 143,-411 143,-394 84,-394"/>
<text text-anchor="start" x="85" y="-396.7" font-family="SimSun" font-size="14.00" fill="#8b0000">【後宅】</text>
</a>
</g>
</g>
<!-- 70024&#45;&gt;80028 -->
<g id="edge9" class="edge">
<title>70024&#45;&gt;80028</title>
<path fill="none" stroke="black" d="M114.24,-468.03C114.14,-460.44 114.02,-451.6 113.91,-443.21"/>
<polygon fill="black" stroke="black" points="117.41,-443.3 113.78,-433.35 110.41,-443.39 117.41,-443.3"/>
</g>
<!-- 100032 -->
<g id="node8" class="node">
<title>100032</title>
<g id="a_node8"><a xlink:href="/docs/biography/行传/10/0032" xlink:title="编号：100032，香，0。点击查看详情">
<polygon fill="#f0f0f0" stroke="none" points="160.5,-255 160.5,-272 210.5,-272 210.5,-255 160.5,-255"/>
<polygon fill="none" stroke="black" points="160.5,-255 160.5,-272 210.5,-272 210.5,-255 160.5,-255"/>
<text text-anchor="start" x="175" y="-257.7" font-family="SimSun" font-size="14.00">德1</text>
<polygon fill="#ffffff" stroke="none" points="160.5,-238 160.5,-255 210.5,-255 210.5,-238 160.5,-238"/>
<polygon fill="none" stroke="black" points="160.5,-238 160.5,-255 210.5,-255 210.5,-238 160.5,-238"/>
<text text-anchor="start" x="178.38" y="-240.7" font-family="SimSun" font-size="14.00">香</text>
</a>
</g>
</g>
<!-- 110033 -->
<g id="node11" class="node">
<title>110033</title>
<g id="a_node11"><a xlink:href="/docs/biography/行传/11/0033" xlink:title="编号：110033，毛，0。点击查看详情">
<polygon fill="#f0f0f0" stroke="none" points="160.5,-177 160.5,-194 210.5,-194 210.5,-177 160.5,-177"/>
<polygon fill="none" stroke="black" points="160.5,-177 160.5,-194 210.5,-194 210.5,-177 160.5,-177"/>
<text text-anchor="start" x="175" y="-179.7" font-family="SimSun" font-size="14.00">禮1</text>
<polygon fill="#ffffff" stroke="none" points="160.5,-160 160.5,-177 210.5,-177 210.5,-160 160.5,-160"/>
<polygon fill="none" stroke="black" points="160.5,-160 160.5,-177 210.5,-177 210.5,-160 160.5,-160"/>
<text text-anchor="start" x="178.38" y="-162.7" font-family="SimSun" font-size="14.00">毛</text>
</a>
</g>
</g>
<!-- 100032&#45;&gt;110033 -->
<g id="edge10" class="edge">
<title>100032&#45;&gt;110033</title>
<path fill="none" stroke="black" d="M185.5,-234.03C185.5,-226.44 185.5,-217.6 185.5,-209.21"/>
<polygon fill="black" stroke="black" points="189,-209.35 185.5,-199.35 182,-209.35 189,-209.35"/>
</g>
<!-- 80024 -->
<g id="node15" class="node">
<title>80024</title>
<g id="a_node15"><a xlink:href="/docs/biography/行传/8/0024" xlink:title="编号：80024，根，檀石&#45;&#45;&gt;前宅。点击查看详情">
<polygon fill="#f0f0f0" stroke="none" points="8,-411 8,-428 67,-428 67,-411 8,-411"/>
<polygon fill="none" stroke="darkred" points="8,-411 8,-428 67,-428 67,-411 8,-411"/>
<text text-anchor="start" x="27" y="-413.7" font-family="SimSun" font-size="14.00" fill="#8b0000">文1</text>
<polygon fill="#ffffff" stroke="none" points="8,-394 8,-411 67,-411 67,-394 8,-394"/>
<polygon fill="none" stroke="darkred" points="8,-394 8,-411 67,-411 67,-394 8,-394"/>
<text text-anchor="start" x="9" y="-396.7" font-family="SimSun" font-size="14.00" fill="#8b0000">【前宅】</text>
</a>
</g>
</g>
<!-- 70020&#45;&gt;80024 -->
<g id="edge11" class="edge">
<title>70020&#45;&gt;80024</title>
<path fill="none" stroke="black" d="M41.92,-468.03C41.32,-460.44 40.63,-451.6 39.96,-443.21"/>
<polygon fill="black" stroke="black" points="43.46,-443.04 39.19,-433.34 36.48,-443.59 43.46,-443.04"/>
</g>
<!-- 100033 -->
<g id="node10" class="node">
<title>100033</title>
<g id="a_node10"><a xlink:href="/docs/biography/行传/10/0033" xlink:title="编号：100033，玉，0。点击查看详情">
<polygon fill="#f0f0f0" stroke="none" points="227.5,-255 227.5,-272 277.5,-272 277.5,-255 227.5,-255"/>
<polygon fill="none" stroke="black" points="227.5,-255 227.5,-272 277.5,-272 277.5,-255 227.5,-255"/>
<text text-anchor="start" x="242" y="-257.7" font-family="SimSun" font-size="14.00">德2</text>
<polygon fill="#ffffff" stroke="none" points="227.5,-238 227.5,-255 277.5,-255 277.5,-238 227.5,-238"/>
<polygon fill="none" stroke="black" points="227.5,-238 227.5,-255 277.5,-255 277.5,-238 227.5,-238"/>
<text text-anchor="start" x="245.38" y="-240.7" font-family="SimSun" font-size="14.00">玉</text>
</a>
</g>
</g>
<!-- 110034 -->
<g id="node19" class="node">
<title>110034</title>
<g id="a_node19"><a xlink:href="/docs/biography/行传/11/0034" xlink:title="编号：110034，石，0。点击查看详情">
<polygon fill="#f0f0f0" stroke="none" points="227.5,-177 227.5,-194 277.5,-194 277.5,-177 227.5,-177"/>
<polygon fill="none" stroke="black" points="227.5,-177 227.5,-194 277.5,-194 277.5,-177 227.5,-177"/>
<text text-anchor="start" x="242" y="-179.7" font-family="SimSun" font-size="14.00">智3</text>
<polygon fill="#ffffff" stroke="none" points="227.5,-160 227.5,-177 277.5,-177 277.5,-160 227.5,-160"/>
<polygon fill="none" stroke="black" points="227.5,-160 227.5,-177 277.5,-177 277.5,-160 227.5,-160"/>
<text text-anchor="start" x="245.38" y="-162.7" font-family="SimSun" font-size="14.00">石</text>
</a>
</g>
</g>
<!-- 100033&#45;&gt;110034 -->
<g id="edge12" class="edge">
<title>100033&#45;&gt;110034</title>
<path fill="none" stroke="black" d="M252.5,-234.03C252.5,-226.44 252.5,-217.6 252.5,-209.21"/>
<polygon fill="black" stroke="black" points="256,-209.35 252.5,-199.35 249,-209.35 256,-209.35"/>
</g>
<!-- 130061 -->
<g id="node12" class="node">
<title>130061</title>
<g id="a_node12"><a xlink:href="/docs/biography/行传/13/0061" xlink:title="编号：130061，希，0。点击查看详情">
<polygon fill="#f0f0f0" stroke="none" points="194.5,-21 194.5,-38 244.5,-38 244.5,-21 194.5,-21"/>
<polygon fill="none" stroke="black" points="194.5,-21 194.5,-38 244.5,-38 244.5,-21 194.5,-21"/>
<text text-anchor="start" x="209" y="-23.7" font-family="SimSun" font-size="14.00">禧1</text>
<polygon fill="#ffffff" stroke="none" points="194.5,-4 194.5,-21 244.5,-21 244.5,-4 194.5,-4"/>
<polygon fill="none" stroke="black" points="194.5,-4 194.5,-21 244.5,-21 244.5,-4 194.5,-4"/>
<text text-anchor="start" x="212.38" y="-6.7" font-family="SimSun" font-size="14.00">希</text>
</a>
</g>
</g>
<!-- 90044&#45;&gt;100032 -->
<g id="edge13" class="edge">
<title>90044&#45;&gt;100032</title>
<path fill="none" stroke="black" d="M234.9,-312.03C227.43,-303.57 218.6,-293.55 210.48,-284.34"/>
<polygon fill="black" stroke="black" points="213.23,-282.16 203.99,-276.97 207.97,-286.79 213.23,-282.16"/>
</g>
<!-- 90044&#45;&gt;100033 -->
<g id="edge14" class="edge">
<title>90044&#45;&gt;100033</title>
<path fill="none" stroke="black" d="M252.5,-312.03C252.5,-304.44 252.5,-295.6 252.5,-287.21"/>
<polygon fill="black" stroke="black" points="256,-287.35 252.5,-277.35 249,-287.35 256,-287.35"/>
</g>
<!-- 100034 -->
<g id="node25" class="node">
<title>100034</title>
<g id="a_node25"><a xlink:href="/docs/biography/行传/10/0034" xlink:title="编号：100034，，0。点击查看详情">
<polygon fill="#f0f0f0" stroke="none" points="294.5,-255 294.5,-272 344.5,-272 344.5,-255 294.5,-255"/>
<polygon fill="none" stroke="black" points="294.5,-255 294.5,-272 344.5,-272 344.5,-255 294.5,-255"/>
<text text-anchor="start" x="309" y="-257.7" font-family="SimSun" font-size="14.00">德3</text>
<polygon fill="#ffffff" stroke="none" points="294.5,-238 294.5,-255 344.5,-255 344.5,-238 294.5,-238"/>
<polygon fill="none" stroke="black" points="294.5,-238 294.5,-255 344.5,-255 344.5,-238 294.5,-238"/>
<text text-anchor="start" x="316.12" y="-240.7" font-family="SimSun" font-size="14.00"> </text>
</a>
</g>
</g>
<!-- 90044&#45;&gt;100034 -->
<g id="edge15" class="edge">
<title>90044&#45;&gt;100034</title>
<path fill="none" stroke="black" d="M270.1,-312.03C277.57,-303.57 286.4,-293.55 294.52,-284.34"/>
<polygon fill="black" stroke="black" points="297.03,-286.79 301.01,-276.97 291.77,-282.16 297.03,-286.79"/>
</g>
<!-- 120051 -->
<g id="node16" class="node">
<title>120051</title>
<g id="a_node16"><a xlink:href="/docs/biography/行传/12/0051" xlink:title="编号：120051，卓，0。点击查看详情">
<polygon fill="#f0f0f0" stroke="none" points="227.5,-99 227.5,-116 277.5,-116 277.5,-99 227.5,-99"/>
<polygon fill="none" stroke="black" points="227.5,-99 227.5,-116 277.5,-116 277.5,-99 227.5,-99"/>
<text text-anchor="start" x="242" y="-101.7" font-family="SimSun" font-size="14.00">起1</text>
<polygon fill="#ffffff" stroke="none" points="227.5,-82 227.5,-99 277.5,-99 277.5,-82 227.5,-82"/>
<polygon fill="none" stroke="black" points="227.5,-82 227.5,-99 277.5,-99 277.5,-82 227.5,-82"/>
<text text-anchor="start" x="245.38" y="-84.7" font-family="SimSun" font-size="14.00">卓</text>
</a>
</g>
</g>
<!-- 120051&#45;&gt;130061 -->
<g id="edge16" class="edge">
<title>120051&#45;&gt;130061</title>
<path fill="none" stroke="black" d="M243.83,-78.03C240.42,-70.18 236.43,-60.98 232.68,-52.34"/>
<polygon fill="black" stroke="black" points="235.91,-51 228.72,-43.22 229.49,-53.79 235.91,-51"/>
</g>
<!-- 130062 -->
<g id="node22" class="node">
<title>130062</title>
<g id="a_node22"><a xlink:href="/docs/biography/行传/13/0062" xlink:title="编号：130062，貞，0。点击查看详情">
<polygon fill="#f0f0f0" stroke="none" points="261.5,-21 261.5,-38 311.5,-38 311.5,-21 261.5,-21"/>
<polygon fill="none" stroke="black" points="261.5,-21 261.5,-38 311.5,-38 311.5,-21 261.5,-21"/>
<text text-anchor="start" x="276" y="-23.7" font-family="SimSun" font-size="14.00">禧2</text>
<polygon fill="#ffffff" stroke="none" points="261.5,-4 261.5,-21 311.5,-21 311.5,-4 261.5,-4"/>
<polygon fill="none" stroke="black" points="261.5,-4 261.5,-21 311.5,-21 311.5,-4 261.5,-4"/>
<text text-anchor="start" x="279.38" y="-6.7" font-family="SimSun" font-size="14.00">貞</text>
</a>
</g>
</g>
<!-- 120051&#45;&gt;130062 -->
<g id="edge17" class="edge">
<title>120051&#45;&gt;130062</title>
<path fill="none" stroke="black" d="M261.43,-78.03C264.95,-70.18 269.06,-60.98 272.93,-52.34"/>
<polygon fill="black" stroke="black" points="276.12,-53.77 277.01,-43.22 269.73,-50.92 276.12,-53.77"/>
</g>
<!-- 110035 -->
<g id="node17" class="node">
<title>110035</title>
<g id="a_node17"><a xlink:href="/docs/biography/行传/11/0035" xlink:title="编号：110035，中，0。点击查看详情">
<polygon fill="#f0f0f0" stroke="none" points="294.5,-177 294.5,-194 344.5,-194 344.5,-177 294.5,-177"/>
<polygon fill="none" stroke="black" points="294.5,-177 294.5,-194 344.5,-194 344.5,-177 294.5,-177"/>
<text text-anchor="start" x="309" y="-179.7" font-family="SimSun" font-size="14.00">智5</text>
<polygon fill="#ffffff" stroke="none" points="294.5,-160 294.5,-177 344.5,-177 344.5,-160 294.5,-160"/>
<polygon fill="none" stroke="black" points="294.5,-160 294.5,-177 344.5,-177 344.5,-160 294.5,-160"/>
<text text-anchor="start" x="312.38" y="-162.7" font-family="SimSun" font-size="14.00">中</text>
</a>
</g>
</g>
<!-- 120052 -->
<g id="node21" class="node">
<title>120052</title>
<g id="a_node21"><a xlink:href="/docs/biography/行传/12/0052" xlink:title="编号：120052，立，0。点击查看详情">
<polygon fill="#f0f0f0" stroke="none" points="294.5,-99 294.5,-116 344.5,-116 344.5,-99 294.5,-99"/>
<polygon fill="none" stroke="black" points="294.5,-99 294.5,-116 344.5,-116 344.5,-99 294.5,-99"/>
<text text-anchor="start" x="309" y="-101.7" font-family="SimSun" font-size="14.00">起5</text>
<polygon fill="#ffffff" stroke="none" points="294.5,-82 294.5,-99 344.5,-99 344.5,-82 294.5,-82"/>
<polygon fill="none" stroke="black" points="294.5,-82 294.5,-99 344.5,-99 344.5,-82 294.5,-82"/>
<text text-anchor="start" x="312.38" y="-84.7" font-family="SimSun" font-size="14.00">立</text>
</a>
</g>
</g>
<!-- 110035&#45;&gt;120052 -->
<g id="edge18" class="edge">
<title>110035&#45;&gt;120052</title>
<path fill="none" stroke="black" d="M319.5,-156.03C319.5,-148.44 319.5,-139.6 319.5,-131.21"/>
<polygon fill="black" stroke="black" points="323,-131.35 319.5,-121.35 316,-131.35 323,-131.35"/>
</g>
<!-- 110034&#45;&gt;120051 -->
<g id="edge19" class="edge">
<title>110034&#45;&gt;120051</title>
<path fill="none" stroke="black" d="M252.5,-156.03C252.5,-148.44 252.5,-139.6 252.5,-131.21"/>
<polygon fill="black" stroke="black" points="256,-131.35 252.5,-121.35 249,-131.35 256,-131.35"/>
</g>
<!-- 70028&#45;&gt;80033 -->
<g id="edge20" class="edge">
<title>70028&#45;&gt;80033</title>
<path fill="none" stroke="black" d="M184.03,-468.03C184.23,-460.44 184.46,-451.6 184.68,-443.21"/>
<polygon fill="black" stroke="black" points="188.17,-443.44 184.94,-433.35 181.18,-443.25 188.17,-443.44"/>
</g>
<!-- 50014 -->
<g id="node23" class="node">
<title>50014</title>
<g id="a_node23"><a xlink:href="/docs/biography/行传/5/0014" xlink:title="编号：50014，汝功，車方&#45;&#45;&gt;檀石。点击查看详情">
<polygon fill="#f0f0f0" stroke="none" points="171,-645 171,-662 230,-662 230,-645 171,-645"/>
<polygon fill="none" stroke="darkred" points="171,-645 171,-662 230,-662 230,-645 171,-645"/>
<text text-anchor="start" x="186.62" y="-647.7" font-family="SimSun" font-size="14.00" fill="#8b0000">五27</text>
<polygon fill="#ffffff" stroke="none" points="171,-628 171,-645 230,-645 230,-628 171,-628"/>
<polygon fill="none" stroke="darkred" points="171,-628 171,-645 230,-645 230,-628 171,-628"/>
<text text-anchor="start" x="172" y="-630.7" font-family="SimSun" font-size="14.00" fill="#8b0000">【檀石】</text>
</a>
</g>
</g>
<!-- 50014&#45;&gt;60012 -->
<g id="edge21" class="edge">
<title>50014&#45;&gt;60012</title>
<path fill="none" stroke="black" d="M191.83,-624.03C188.42,-616.18 184.43,-606.98 180.68,-598.34"/>
<polygon fill="black" stroke="black" points="183.91,-597 176.72,-589.22 177.49,-599.79 183.91,-597"/>
</g>
<!-- 50014&#45;&gt;60016 -->
<g id="edge22" class="edge">
<title>50014&#45;&gt;60016</title>
<path fill="none" stroke="black" d="M218.1,-624.03C225.57,-615.57 234.4,-605.55 242.52,-596.34"/>
<polygon fill="black" stroke="black" points="245.03,-598.79 249.01,-588.97 239.77,-594.16 245.03,-598.79"/>
</g>
<!-- 70026&#45;&gt;80031 -->
<g id="edge23" class="edge">
<title>70026&#45;&gt;80031</title>
<path fill="none" stroke="black" d="M251.76,-468.03C251.86,-460.44 251.98,-451.6 252.09,-443.21"/>
<polygon fill="black" stroke="black" points="255.59,-443.39 252.22,-433.35 248.59,-443.3 255.59,-443.39"/>
</g>
<!-- 100034&#45;&gt;110035 -->
<g id="edge24" class="edge">
<title>100034&#45;&gt;110035</title>
<path fill="none" stroke="black" d="M319.5,-234.03C319.5,-226.44 319.5,-217.6 319.5,-209.21"/>
<polygon fill="black" stroke="black" points="323,-209.35 319.5,-199.35 316,-209.35 323,-209.35"/>
</g>
</g>
</svg>
