<?xml version="1.0" encoding="UTF-8" standalone="no"?>
<!DOCTYPE svg PUBLIC "-//W3C//DTD SVG 1.1//EN"
 "http://www.w3.org/Graphics/SVG/1.1/DTD/svg11.dtd">
<!-- Generated by graphviz version 11.0.0 (20240428.1522)
 -->
<!-- Title: main Pages: 1 -->
<svg width="484pt" height="953pt"
 viewBox="0.00 0.00 483.60 953.00" xmlns="http://www.w3.org/2000/svg" xmlns:xlink="http://www.w3.org/1999/xlink">
<g id="graph0" class="graph" transform="scale(1 1) rotate(0) translate(4 949)">
<title>main</title>
<!-- 10001 -->
<g id="node1" class="node">
<title>10001</title>
<g id="a_node1"><a xlink:href="HZ\0002.jpg" xlink:title="0|0" target="dynamic">
<polygon fill="none" stroke="black" stroke-width="0.3" points="152,-872.5 152,-944.5 209.6,-944.5 209.6,-872.5 152,-872.5"/>
<text text-anchor="middle" x="180.62" y="-929.8" font-family="GenWanMin TW TTF Medium" font-size="16.00">10001</text>
<polyline fill="none" stroke="black" stroke-width="0.3" points="152,-926.75 209.25,-926.75"/>
<text text-anchor="middle" x="180.62" y="-912.55" font-family="GenWanMin TW TTF Medium" font-size="16.00">一10</text>
<polyline fill="none" stroke="black" stroke-width="0.3" points="152,-907.75 209.25,-907.75"/>
<text text-anchor="middle" x="180.62" y="-893.55" font-family="GenWanMin TW TTF Medium" font-size="16.00">碩</text>
<polyline fill="none" stroke="black" stroke-width="0.3" points="152,-888.75 209.25,-888.75"/>
<text text-anchor="middle" x="180.62" y="-874.55" font-family="GenWanMin TW TTF Medium" font-size="16.00">0</text>
</a>
</g>
</g>
<!-- 20001 -->
<g id="node2" class="node">
<title>20001</title>
<g id="a_node2"><a xlink:href="HZ\0003.jpg" xlink:title="235|0" target="dynamic">
<polygon fill="green" stroke="black" stroke-width="0.3" points="152,-763.5 152,-835.5 209.6,-835.5 209.6,-763.5 152,-763.5"/>
<text text-anchor="middle" x="180.62" y="-821.3" font-family="GenWanMin TW TTF Medium" font-size="16.00">20001</text>
<polyline fill="none" stroke="black" stroke-width="0.3" points="152,-818.75 209.25,-818.75"/>
<text text-anchor="middle" x="180.62" y="-804.55" font-family="GenWanMin TW TTF Medium" font-size="16.00">二28</text>
<polyline fill="none" stroke="black" stroke-width="0.3" points="152,-799.75 209.25,-799.75"/>
<text text-anchor="middle" x="180.62" y="-786.05" font-family="GenWanMin TW TTF Medium" font-size="16.00">唐</text>
<polyline fill="none" stroke="black" stroke-width="0.3" points="152,-781.75 209.25,-781.75"/>
<text text-anchor="middle" x="180.62" y="-767.55" font-family="GenWanMin TW TTF Medium" font-size="16.00">湖田</text>
</a>
</g>
</g>
<!-- 10001&#45;&gt;20001 -->
<g id="edge1" class="edge">
<title>10001&#45;&gt;20001</title>
<path fill="none" stroke="black" d="M180.8,-872.76C180.8,-862.86 180.8,-851.97 180.8,-841.72"/>
<polygon fill="black" stroke="black" points="182.55,-841.95 180.8,-836.95 179.05,-841.95 182.55,-841.95"/>
</g>
<!-- 30001 -->
<g id="node3" class="node">
<title>30001</title>
<g id="a_node3"><a xlink:href="HZ\0003.jpg" xlink:title="0|0" target="dynamic">
<polygon fill="green" stroke="black" stroke-width="0.3" points="152,-654.5 152,-726.5 209.6,-726.5 209.6,-654.5 152,-654.5"/>
<text text-anchor="middle" x="180.62" y="-712.3" font-family="GenWanMin TW TTF Medium" font-size="16.00">30001</text>
<polyline fill="none" stroke="black" stroke-width="0.3" points="152,-709.75 209.25,-709.75"/>
<text text-anchor="middle" x="180.62" y="-695.55" font-family="GenWanMin TW TTF Medium" font-size="16.00">三67</text>
<polyline fill="none" stroke="black" stroke-width="0.3" points="152,-690.75 209.25,-690.75"/>
<text text-anchor="middle" x="180.62" y="-677.05" font-family="GenWanMin TW TTF Medium" font-size="16.00">瑣</text>
<polyline fill="none" stroke="black" stroke-width="0.3" points="152,-672.75 209.25,-672.75"/>
<text text-anchor="middle" x="180.62" y="-658.55" font-family="GenWanMin TW TTF Medium" font-size="16.00">車方</text>
</a>
</g>
</g>
<!-- 20001&#45;&gt;30001 -->
<g id="edge2" class="edge">
<title>20001&#45;&gt;30001</title>
<path fill="none" stroke="black" d="M180.8,-763.76C180.8,-753.86 180.8,-742.97 180.8,-732.72"/>
<polygon fill="black" stroke="black" points="182.55,-732.95 180.8,-727.95 179.05,-732.95 182.55,-732.95"/>
</g>
<!-- 40001 -->
<g id="node4" class="node">
<title>40001</title>
<g id="a_node4"><a xlink:href="HZ\0003.jpg" xlink:title="1子靈沼出家|0" target="dynamic">
<polygon fill="green" stroke="black" stroke-width="0.3" points="0,-545.5 0,-617.5 57.6,-617.5 57.6,-545.5 0,-545.5"/>
<text text-anchor="middle" x="29.12" y="-603.3" font-family="GenWanMin TW TTF Medium" font-size="16.00">40001</text>
<polyline fill="none" stroke="black" stroke-width="0.3" points="0,-600.75 58.25,-600.75"/>
<text text-anchor="middle" x="29.12" y="-586.55" font-family="GenWanMin TW TTF Medium" font-size="16.00">四28</text>
<polyline fill="none" stroke="black" stroke-width="0.3" points="0,-581.75 58.25,-581.75"/>
<text text-anchor="middle" x="29.12" y="-568.05" font-family="GenWanMin TW TTF Medium" font-size="16.00">琪</text>
<polyline fill="none" stroke="black" stroke-width="0.3" points="0,-563.75 58.25,-563.75"/>
<text text-anchor="middle" x="29.12" y="-549.55" font-family="GenWanMin TW TTF Medium" font-size="16.00">溪下祖</text>
</a>
</g>
</g>
<!-- 30001&#45;&gt;40001 -->
<g id="edge3" class="edge">
<title>30001&#45;&gt;40001</title>
<path fill="none" stroke="black" d="M152.16,-673.59C128.48,-659.97 94.39,-639.23 66.8,-618 65.23,-616.79 63.64,-615.52 62.06,-614.22"/>
<polygon fill="black" stroke="black" points="63.44,-613.1 58.5,-611.21 61.18,-615.77 63.44,-613.1"/>
</g>
<!-- 40002 -->
<g id="node5" class="node">
<title>40002</title>
<g id="a_node5"><a xlink:href="HZ\0003.jpg" xlink:title="0|0" target="dynamic">
<polygon fill="green" stroke="black" stroke-width="0.3" points="76,-545.5 76,-617.5 133.6,-617.5 133.6,-545.5 76,-545.5"/>
<text text-anchor="middle" x="104.62" y="-603.3" font-family="GenWanMin TW TTF Medium" font-size="16.00">40002</text>
<polyline fill="none" stroke="black" stroke-width="0.3" points="76,-600.75 133.25,-600.75"/>
<text text-anchor="middle" x="104.62" y="-586.55" font-family="GenWanMin TW TTF Medium" font-size="16.00">四35</text>
<polyline fill="none" stroke="black" stroke-width="0.3" points="76,-581.75 133.25,-581.75"/>
<text text-anchor="middle" x="104.62" y="-568.05" font-family="GenWanMin TW TTF Medium" font-size="16.00">彥</text>
<polyline fill="none" stroke="black" stroke-width="0.3" points="76,-563.75 133.25,-563.75"/>
<text text-anchor="middle" x="104.62" y="-549.55" font-family="GenWanMin TW TTF Medium" font-size="16.00">寺前</text>
</a>
</g>
</g>
<!-- 30001&#45;&gt;40002 -->
<g id="edge4" class="edge">
<title>30001&#45;&gt;40002</title>
<path fill="none" stroke="black" d="M156.12,-654.76C148.82,-644.48 140.77,-633.15 133.25,-622.56"/>
<polygon fill="black" stroke="black" points="134.81,-621.73 130.49,-618.67 131.96,-623.76 134.81,-621.73"/>
</g>
<!-- 40003 -->
<g id="node6" class="node">
<title>40003</title>
<g id="a_node6"><a xlink:href="HZ\0003.jpg" xlink:title="0|遷居暨陽三都白門從外祖方姓" target="dynamic">
<polygon fill="green" stroke="black" stroke-width="0.3" points="152,-545.5 152,-617.5 209.6,-617.5 209.6,-545.5 152,-545.5"/>
<text text-anchor="middle" x="180.62" y="-602.8" font-family="GenWanMin TW TTF Medium" font-size="16.00">40003</text>
<polyline fill="none" stroke="black" stroke-width="0.3" points="152,-599.75 209.25,-599.75"/>
<text text-anchor="middle" x="180.62" y="-585.55" font-family="GenWanMin TW TTF Medium" font-size="16.00">四41</text>
<polyline fill="none" stroke="black" stroke-width="0.3" points="152,-580.75 209.25,-580.75"/>
<text text-anchor="middle" x="180.62" y="-566.55" font-family="GenWanMin TW TTF Medium" font-size="16.00">臧</text>
<polyline fill="none" stroke="black" stroke-width="0.3" points="152,-561.75 209.25,-561.75"/>
<text text-anchor="middle" x="180.62" y="-547.55" font-family="GenWanMin TW TTF Medium" font-size="16.00">0</text>
</a>
</g>
</g>
<!-- 30001&#45;&gt;40003 -->
<g id="edge5" class="edge">
<title>30001&#45;&gt;40003</title>
<path fill="none" stroke="black" d="M180.8,-654.76C180.8,-644.86 180.8,-633.97 180.8,-623.72"/>
<polygon fill="black" stroke="black" points="182.55,-623.95 180.8,-618.95 179.05,-623.95 182.55,-623.95"/>
</g>
<!-- 40004 -->
<g id="node7" class="node">
<title>40004</title>
<g id="a_node7"><a xlink:href="HZ\0003.jpg" xlink:title="刊誤楊樹角|0" target="dynamic">
<polygon fill="none" stroke="black" stroke-width="0.3" points="228,-545.5 228,-617.5 285.6,-617.5 285.6,-545.5 228,-545.5"/>
<text text-anchor="middle" x="256.62" y="-603.3" font-family="GenWanMin TW TTF Medium" font-size="16.00">40004</text>
<polyline fill="none" stroke="black" stroke-width="0.3" points="228,-600.75 285.25,-600.75"/>
<text text-anchor="middle" x="256.62" y="-586.55" font-family="GenWanMin TW TTF Medium" font-size="16.00">四43</text>
<polyline fill="none" stroke="black" stroke-width="0.3" points="228,-581.75 285.25,-581.75"/>
<text text-anchor="middle" x="256.62" y="-568.05" font-family="GenWanMin TW TTF Medium" font-size="16.00">遹</text>
<polyline fill="none" stroke="black" stroke-width="0.3" points="228,-563.75 285.25,-563.75"/>
<text text-anchor="middle" x="256.62" y="-549.55" font-family="GenWanMin TW TTF Medium" font-size="16.00">車方</text>
</a>
</g>
</g>
<!-- 30001&#45;&gt;40004 -->
<g id="edge6" class="edge">
<title>30001&#45;&gt;40004</title>
<path fill="none" stroke="black" d="M205.48,-654.76C212.78,-644.48 220.83,-633.15 228.35,-622.56"/>
<polygon fill="black" stroke="black" points="229.64,-623.76 231.11,-618.67 226.79,-621.73 229.64,-623.76"/>
</g>
<!-- 40005 -->
<g id="node8" class="node">
<title>40005</title>
<g id="a_node8"><a xlink:href="HZ\0004.jpg" xlink:title="0|遷居桐廬下石埠從外祖方姓" target="dynamic">
<polygon fill="green" stroke="black" stroke-width="0.3" points="304,-545.5 304,-617.5 361.6,-617.5 361.6,-545.5 304,-545.5"/>
<text text-anchor="middle" x="332.62" y="-602.8" font-family="GenWanMin TW TTF Medium" font-size="16.00">40005</text>
<polyline fill="none" stroke="black" stroke-width="0.3" points="304,-599.75 361.25,-599.75"/>
<text text-anchor="middle" x="332.62" y="-585.55" font-family="GenWanMin TW TTF Medium" font-size="16.00">四44</text>
<polyline fill="none" stroke="black" stroke-width="0.3" points="304,-580.75 361.25,-580.75"/>
<text text-anchor="middle" x="332.62" y="-566.55" font-family="GenWanMin TW TTF Medium" font-size="16.00">逸</text>
<polyline fill="none" stroke="black" stroke-width="0.3" points="304,-561.75 361.25,-561.75"/>
<text text-anchor="middle" x="332.62" y="-547.55" font-family="GenWanMin TW TTF Medium" font-size="16.00">0</text>
</a>
</g>
</g>
<!-- 30001&#45;&gt;40005 -->
<g id="edge7" class="edge">
<title>30001&#45;&gt;40005</title>
<path fill="none" stroke="black" d="M209.44,-673.59C233.12,-659.97 267.21,-639.23 294.8,-618 296.37,-616.79 297.96,-615.52 299.54,-614.22"/>
<polygon fill="black" stroke="black" points="300.42,-615.77 303.1,-611.21 298.16,-613.1 300.42,-615.77"/>
</g>
<!-- 50002 -->
<g id="node9" class="node">
<title>50002</title>
<g id="a_node9"><a xlink:href="HZ\0004.jpg" xlink:title="1子子達出家|車方&#45;&#45;&gt;楊樹角" target="dynamic">
<polygon fill="green" stroke="black" stroke-width="0.3" points="38,-436.5 38,-508.5 95.6,-508.5 95.6,-436.5 38,-436.5"/>
<text text-anchor="middle" x="67.12" y="-494.3" font-family="GenWanMin TW TTF Medium" font-size="16.00">50002</text>
<polyline fill="none" stroke="black" stroke-width="0.3" points="38,-491.75 96.25,-491.75"/>
<text text-anchor="middle" x="67.12" y="-477.55" font-family="GenWanMin TW TTF Medium" font-size="16.00">五2</text>
<polyline fill="none" stroke="black" stroke-width="0.3" points="38,-472.75 96.25,-472.75"/>
<text text-anchor="middle" x="67.12" y="-459.05" font-family="GenWanMin TW TTF Medium" font-size="16.00">運宗</text>
<polyline fill="none" stroke="black" stroke-width="0.3" points="38,-454.75 96.25,-454.75"/>
<text text-anchor="middle" x="67.12" y="-440.55" font-family="GenWanMin TW TTF Medium" font-size="16.00">楊樹角</text>
</a>
</g>
</g>
<!-- 40004&#45;&gt;50002 -->
<g id="edge8" class="edge">
<title>40004&#45;&gt;50002</title>
<path fill="none" stroke="black" d="M228.4,-551.56C225.3,-549.15 222.07,-546.91 218.8,-545 172.92,-518.2 150.68,-535.8 104.8,-509 103.27,-508.1 101.74,-507.14 100.24,-506.11"/>
<polygon fill="black" stroke="black" points="101.5,-504.86 96.43,-503.33 99.43,-507.69 101.5,-504.86"/>
</g>
<!-- 50007 -->
<g id="node10" class="node">
<title>50007</title>
<g id="a_node10"><a xlink:href="HZ\0004.jpg" xlink:title="1字道明出家|車方&#45;&#45;&gt;墻下" target="dynamic">
<polygon fill="green" stroke="black" stroke-width="0.3" points="114,-436.5 114,-508.5 171.6,-508.5 171.6,-436.5 114,-436.5"/>
<text text-anchor="middle" x="142.62" y="-494.3" font-family="GenWanMin TW TTF Medium" font-size="16.00">50007</text>
<polyline fill="none" stroke="black" stroke-width="0.3" points="114,-491.75 171.25,-491.75"/>
<text text-anchor="middle" x="142.62" y="-477.55" font-family="GenWanMin TW TTF Medium" font-size="16.00">五14</text>
<polyline fill="none" stroke="black" stroke-width="0.3" points="114,-472.75 171.25,-472.75"/>
<text text-anchor="middle" x="142.62" y="-459.05" font-family="GenWanMin TW TTF Medium" font-size="16.00">麒</text>
<polyline fill="none" stroke="black" stroke-width="0.3" points="114,-454.75 171.25,-454.75"/>
<text text-anchor="middle" x="142.62" y="-440.55" font-family="GenWanMin TW TTF Medium" font-size="16.00">墻下</text>
</a>
</g>
</g>
<!-- 40004&#45;&gt;50007 -->
<g id="edge9" class="edge">
<title>40004&#45;&gt;50007</title>
<path fill="none" stroke="black" d="M228.03,-553.5C212.24,-538.67 192.57,-520.21 176.11,-504.76"/>
<polygon fill="black" stroke="black" points="177.5,-503.67 172.66,-501.53 175.11,-506.23 177.5,-503.67"/>
</g>
<!-- 50010 -->
<g id="node11" class="node">
<title>50010</title>
<g id="a_node11"><a xlink:href="HZ\0004.jpg" xlink:title="0|車方&#45;&#45;&gt;司紀宅" target="dynamic">
<polygon fill="green" stroke="black" stroke-width="0.3" points="190,-436.5 190,-508.5 247.6,-508.5 247.6,-436.5 190,-436.5"/>
<text text-anchor="middle" x="219.12" y="-494.3" font-family="GenWanMin TW TTF Medium" font-size="16.00">50010</text>
<polyline fill="none" stroke="black" stroke-width="0.3" points="190,-491.75 248.25,-491.75"/>
<text text-anchor="middle" x="219.12" y="-477.55" font-family="GenWanMin TW TTF Medium" font-size="16.00">五20</text>
<polyline fill="none" stroke="black" stroke-width="0.3" points="190,-472.75 248.25,-472.75"/>
<text text-anchor="middle" x="219.12" y="-459.05" font-family="GenWanMin TW TTF Medium" font-size="16.00">汝能</text>
<polyline fill="none" stroke="black" stroke-width="0.3" points="190,-454.75 248.25,-454.75"/>
<text text-anchor="middle" x="219.12" y="-440.55" font-family="GenWanMin TW TTF Medium" font-size="16.00">司紀宅</text>
</a>
</g>
</g>
<!-- 40004&#45;&gt;50010 -->
<g id="edge10" class="edge">
<title>40004&#45;&gt;50010</title>
<path fill="none" stroke="black" d="M244.46,-545.76C240.91,-535.76 237.01,-524.76 233.34,-514.43"/>
<polygon fill="black" stroke="black" points="235.03,-513.98 231.71,-509.86 231.74,-515.16 235.03,-513.98"/>
</g>
<!-- 50012 -->
<g id="node12" class="node">
<title>50012</title>
<g id="a_node12"><a xlink:href="HZ\0005.jpg" xlink:title="0|0" target="dynamic">
<polygon fill="none" stroke="black" stroke-width="0.3" points="266,-436.5 266,-508.5 323.6,-508.5 323.6,-436.5 266,-436.5"/>
<text text-anchor="middle" x="294.62" y="-494.3" font-family="GenWanMin TW TTF Medium" font-size="16.00">50012</text>
<polyline fill="none" stroke="black" stroke-width="0.3" points="266,-491.75 323.25,-491.75"/>
<text text-anchor="middle" x="294.62" y="-477.55" font-family="GenWanMin TW TTF Medium" font-size="16.00">五23</text>
<polyline fill="none" stroke="black" stroke-width="0.3" points="266,-472.75 323.25,-472.75"/>
<text text-anchor="middle" x="294.62" y="-459.05" font-family="GenWanMin TW TTF Medium" font-size="16.00">麟</text>
<polyline fill="none" stroke="black" stroke-width="0.3" points="266,-454.75 323.25,-454.75"/>
<text text-anchor="middle" x="294.62" y="-440.55" font-family="GenWanMin TW TTF Medium" font-size="16.00">車方</text>
</a>
</g>
</g>
<!-- 40004&#45;&gt;50012 -->
<g id="edge11" class="edge">
<title>40004&#45;&gt;50012</title>
<path fill="none" stroke="black" d="M269.14,-545.76C272.69,-535.76 276.59,-524.76 280.26,-514.43"/>
<polygon fill="black" stroke="black" points="281.86,-515.16 281.89,-509.86 278.57,-513.98 281.86,-515.16"/>
</g>
<!-- 50014 -->
<g id="node13" class="node">
<title>50014</title>
<g id="a_node13"><a xlink:href="HZ\0005.jpg" xlink:title="0|車方&#45;&#45;&gt;檀石" target="dynamic">
<polygon fill="green" stroke="black" stroke-width="0.3" points="342,-436.5 342,-508.5 399.6,-508.5 399.6,-436.5 342,-436.5"/>
<text text-anchor="middle" x="370.62" y="-494.3" font-family="GenWanMin TW TTF Medium" font-size="16.00">50014</text>
<polyline fill="none" stroke="black" stroke-width="0.3" points="342,-491.75 399.25,-491.75"/>
<text text-anchor="middle" x="370.62" y="-477.55" font-family="GenWanMin TW TTF Medium" font-size="16.00">五27</text>
<polyline fill="none" stroke="black" stroke-width="0.3" points="342,-472.75 399.25,-472.75"/>
<text text-anchor="middle" x="370.62" y="-459.05" font-family="GenWanMin TW TTF Medium" font-size="16.00">汝功</text>
<polyline fill="none" stroke="black" stroke-width="0.3" points="342,-454.75 399.25,-454.75"/>
<text text-anchor="middle" x="370.62" y="-440.55" font-family="GenWanMin TW TTF Medium" font-size="16.00">檀石</text>
</a>
</g>
</g>
<!-- 40004&#45;&gt;50014 -->
<g id="edge12" class="edge">
<title>40004&#45;&gt;50014</title>
<path fill="none" stroke="black" d="M285.57,-553.5C301.36,-538.67 321.03,-520.21 337.49,-504.76"/>
<polygon fill="black" stroke="black" points="338.49,-506.23 340.94,-501.53 336.1,-503.67 338.49,-506.23"/>
</g>
<!-- 50015 -->
<g id="node14" class="node">
<title>50015</title>
<g id="a_node14"><a xlink:href="HZ\0005.jpg" xlink:title="0|車方&#45;&#45;&gt;青龍頭" target="dynamic">
<polygon fill="green" stroke="black" stroke-width="0.3" points="418,-436.5 418,-508.5 475.6,-508.5 475.6,-436.5 418,-436.5"/>
<text text-anchor="middle" x="447.12" y="-494.3" font-family="GenWanMin TW TTF Medium" font-size="16.00">50015</text>
<polyline fill="none" stroke="black" stroke-width="0.3" points="418,-491.75 476.25,-491.75"/>
<text text-anchor="middle" x="447.12" y="-477.55" font-family="GenWanMin TW TTF Medium" font-size="16.00">五29</text>
<polyline fill="none" stroke="black" stroke-width="0.3" points="418,-472.75 476.25,-472.75"/>
<text text-anchor="middle" x="447.12" y="-459.05" font-family="GenWanMin TW TTF Medium" font-size="16.00">汝才</text>
<polyline fill="none" stroke="black" stroke-width="0.3" points="418,-454.75 476.25,-454.75"/>
<text text-anchor="middle" x="447.12" y="-440.55" font-family="GenWanMin TW TTF Medium" font-size="16.00">青龍頭</text>
</a>
</g>
</g>
<!-- 40004&#45;&gt;50015 -->
<g id="edge13" class="edge">
<title>40004&#45;&gt;50015</title>
<path fill="none" stroke="black" d="M285.2,-551.56C288.3,-549.15 291.53,-546.91 294.8,-545 340.68,-518.2 362.92,-535.8 408.8,-509 410.33,-508.1 411.86,-507.14 413.36,-506.11"/>
<polygon fill="black" stroke="black" points="414.17,-507.69 417.17,-503.33 412.1,-504.86 414.17,-507.69"/>
</g>
<!-- 60013 -->
<g id="node15" class="node">
<title>60013</title>
<g id="a_node15"><a xlink:href="HZ\0006.jpg" xlink:title="0|0" target="dynamic">
<polygon fill="none" stroke="black" stroke-width="0.3" points="266,-327.5 266,-399.5 323.6,-399.5 323.6,-327.5 266,-327.5"/>
<text text-anchor="middle" x="294.62" y="-385.3" font-family="GenWanMin TW TTF Medium" font-size="16.00">60013</text>
<polyline fill="none" stroke="black" stroke-width="0.3" points="266,-382.75 323.25,-382.75"/>
<text text-anchor="middle" x="294.62" y="-368.55" font-family="GenWanMin TW TTF Medium" font-size="16.00">六14</text>
<polyline fill="none" stroke="black" stroke-width="0.3" points="266,-363.75 323.25,-363.75"/>
<text text-anchor="middle" x="294.62" y="-350.05" font-family="GenWanMin TW TTF Medium" font-size="16.00">珝</text>
<polyline fill="none" stroke="black" stroke-width="0.3" points="266,-345.75 323.25,-345.75"/>
<text text-anchor="middle" x="294.62" y="-331.55" font-family="GenWanMin TW TTF Medium" font-size="16.00">車方</text>
</a>
</g>
</g>
<!-- 50012&#45;&gt;60013 -->
<g id="edge14" class="edge">
<title>50012&#45;&gt;60013</title>
<path fill="none" stroke="black" d="M294.8,-436.76C294.8,-426.86 294.8,-415.97 294.8,-405.72"/>
<polygon fill="black" stroke="black" points="296.55,-405.95 294.8,-400.95 293.05,-405.95 296.55,-405.95"/>
</g>
<!-- 70027 -->
<g id="node16" class="node">
<title>70027</title>
<g id="a_node16"><a xlink:href="HZ\0009.jpg" xlink:title="0|0" target="dynamic">
<polygon fill="none" stroke="black" stroke-width="0.3" points="266,-218.5 266,-290.5 323.6,-290.5 323.6,-218.5 266,-218.5"/>
<text text-anchor="middle" x="294.62" y="-276.3" font-family="GenWanMin TW TTF Medium" font-size="16.00">70027</text>
<polyline fill="none" stroke="black" stroke-width="0.3" points="266,-273.75 323.25,-273.75"/>
<text text-anchor="middle" x="294.62" y="-259.55" font-family="GenWanMin TW TTF Medium" font-size="16.00">千23</text>
<polyline fill="none" stroke="black" stroke-width="0.3" points="266,-254.75 323.25,-254.75"/>
<text text-anchor="middle" x="294.62" y="-241.05" font-family="GenWanMin TW TTF Medium" font-size="16.00">穎</text>
<polyline fill="none" stroke="black" stroke-width="0.3" points="266,-236.75 323.25,-236.75"/>
<text text-anchor="middle" x="294.62" y="-222.55" font-family="GenWanMin TW TTF Medium" font-size="16.00">車方</text>
</a>
</g>
</g>
<!-- 60013&#45;&gt;70027 -->
<g id="edge15" class="edge">
<title>60013&#45;&gt;70027</title>
<path fill="none" stroke="black" d="M294.8,-327.76C294.8,-317.86 294.8,-306.97 294.8,-296.72"/>
<polygon fill="black" stroke="black" points="296.55,-296.95 294.8,-291.95 293.05,-296.95 296.55,-296.95"/>
</g>
<!-- 80029 -->
<g id="node17" class="node">
<title>80029</title>
<g id="a_node17"><a xlink:href="HZ\0011.jpg" xlink:title="242|0" target="dynamic">
<polygon fill="none" stroke="black" stroke-width="0.3" points="266,-109.5 266,-181.5 323.6,-181.5 323.6,-109.5 266,-109.5"/>
<text text-anchor="middle" x="294.62" y="-167.3" font-family="GenWanMin TW TTF Medium" font-size="16.00">80029</text>
<polyline fill="none" stroke="black" stroke-width="0.3" points="266,-164.75 323.25,-164.75"/>
<text text-anchor="middle" x="294.62" y="-150.55" font-family="GenWanMin TW TTF Medium" font-size="16.00">文5</text>
<polyline fill="none" stroke="black" stroke-width="0.3" points="266,-145.75 323.25,-145.75"/>
<text text-anchor="middle" x="294.62" y="-132.05" font-family="GenWanMin TW TTF Medium" font-size="16.00">雄</text>
<polyline fill="none" stroke="black" stroke-width="0.3" points="266,-127.75 323.25,-127.75"/>
<text text-anchor="middle" x="294.62" y="-113.55" font-family="GenWanMin TW TTF Medium" font-size="16.00">車方</text>
</a>
</g>
</g>
<!-- 70027&#45;&gt;80029 -->
<g id="edge16" class="edge">
<title>70027&#45;&gt;80029</title>
<path fill="none" stroke="black" d="M294.8,-218.76C294.8,-208.86 294.8,-197.97 294.8,-187.72"/>
<polygon fill="black" stroke="black" points="296.55,-187.95 294.8,-182.95 293.05,-187.95 296.55,-187.95"/>
</g>
<!-- 90030 -->
<g id="node18" class="node">
<title>90030</title>
<g id="a_node18"><a xlink:href="HZ\0013.jpg" xlink:title="0|車方&#45;&#45;&gt;上宅" target="dynamic">
<polygon fill="green" stroke="black" stroke-width="0.3" points="190,-0.5 190,-72.5 247.6,-72.5 247.6,-0.5 190,-0.5"/>
<text text-anchor="middle" x="218.62" y="-58.3" font-family="GenWanMin TW TTF Medium" font-size="16.00">90030</text>
<polyline fill="none" stroke="black" stroke-width="0.3" points="190,-55.75 247.25,-55.75"/>
<text text-anchor="middle" x="218.62" y="-41.55" font-family="GenWanMin TW TTF Medium" font-size="16.00">登1</text>
<polyline fill="none" stroke="black" stroke-width="0.3" points="190,-36.75 247.25,-36.75"/>
<text text-anchor="middle" x="218.62" y="-23.05" font-family="GenWanMin TW TTF Medium" font-size="16.00">元愷</text>
<polyline fill="none" stroke="black" stroke-width="0.3" points="190,-18.75 247.25,-18.75"/>
<text text-anchor="middle" x="218.62" y="-4.55" font-family="GenWanMin TW TTF Medium" font-size="16.00">上宅</text>
</a>
</g>
</g>
<!-- 80029&#45;&gt;90030 -->
<g id="edge17" class="edge">
<title>80029&#45;&gt;90030</title>
<path fill="none" stroke="black" d="M270.12,-109.76C262.82,-99.48 254.77,-88.15 247.25,-77.56"/>
<polygon fill="black" stroke="black" points="248.81,-76.73 244.49,-73.67 245.96,-78.76 248.81,-76.73"/>
</g>
<!-- 90031 -->
<g id="node19" class="node">
<title>90031</title>
<g id="a_node19"><a xlink:href="HZ\0013.jpg" xlink:title="0|車方&#45;&#45;&gt;湖山" target="dynamic">
<polygon fill="green" stroke="black" stroke-width="0.3" points="266,-0.5 266,-72.5 323.6,-72.5 323.6,-0.5 266,-0.5"/>
<text text-anchor="middle" x="294.62" y="-58.3" font-family="GenWanMin TW TTF Medium" font-size="16.00">90031</text>
<polyline fill="none" stroke="black" stroke-width="0.3" points="266,-55.75 323.25,-55.75"/>
<text text-anchor="middle" x="294.62" y="-41.55" font-family="GenWanMin TW TTF Medium" font-size="16.00">登2</text>
<polyline fill="none" stroke="black" stroke-width="0.3" points="266,-36.75 323.25,-36.75"/>
<text text-anchor="middle" x="294.62" y="-23.05" font-family="GenWanMin TW TTF Medium" font-size="16.00">元德</text>
<polyline fill="none" stroke="black" stroke-width="0.3" points="266,-18.75 323.25,-18.75"/>
<text text-anchor="middle" x="294.62" y="-4.55" font-family="GenWanMin TW TTF Medium" font-size="16.00">湖山</text>
</a>
</g>
</g>
<!-- 80029&#45;&gt;90031 -->
<g id="edge18" class="edge">
<title>80029&#45;&gt;90031</title>
<path fill="none" stroke="black" d="M294.8,-109.76C294.8,-99.86 294.8,-88.97 294.8,-78.72"/>
<polygon fill="black" stroke="black" points="296.55,-78.95 294.8,-73.95 293.05,-78.95 296.55,-78.95"/>
</g>
<!-- 90032 -->
<g id="node20" class="node">
<title>90032</title>
<g id="a_node20"><a xlink:href="HZ\0013.jpg" xlink:title="0|0" target="dynamic">
<polygon fill="none" stroke="black" stroke-width="0.3" points="342,-0.5 342,-72.5 399.6,-72.5 399.6,-0.5 342,-0.5"/>
<text text-anchor="middle" x="370.62" y="-58.3" font-family="GenWanMin TW TTF Medium" font-size="16.00">90032</text>
<polyline fill="none" stroke="black" stroke-width="0.3" points="342,-55.75 399.25,-55.75"/>
<text text-anchor="middle" x="370.62" y="-41.55" font-family="GenWanMin TW TTF Medium" font-size="16.00">登3</text>
<polyline fill="none" stroke="black" stroke-width="0.3" points="342,-36.75 399.25,-36.75"/>
<text text-anchor="middle" x="370.62" y="-23.05" font-family="GenWanMin TW TTF Medium" font-size="16.00">應紀</text>
<polyline fill="none" stroke="black" stroke-width="0.3" points="342,-18.75 399.25,-18.75"/>
<text text-anchor="middle" x="370.62" y="-4.55" font-family="GenWanMin TW TTF Medium" font-size="16.00">車方</text>
</a>
</g>
</g>
<!-- 80029&#45;&gt;90032 -->
<g id="edge19" class="edge">
<title>80029&#45;&gt;90032</title>
<path fill="none" stroke="black" d="M319.48,-109.76C326.78,-99.48 334.83,-88.15 342.35,-77.56"/>
<polygon fill="black" stroke="black" points="343.64,-78.76 345.11,-73.67 340.79,-76.73 343.64,-78.76"/>
</g>
</g>
</svg>
