<?xml version="1.0" encoding="UTF-8" standalone="no"?>
<!DOCTYPE svg PUBLIC "-//W3C//DTD SVG 1.1//EN"
 "http://www.w3.org/Graphics/SVG/1.1/DTD/svg11.dtd">
<!-- Generated by graphviz version 12.2.1 (20241206.2353)
 -->
<!-- Pages: 1 -->
<svg width="811pt" height="674pt"
 viewBox="0.00 0.00 811.00 674.00" xmlns="http://www.w3.org/2000/svg" xmlns:xlink="http://www.w3.org/1999/xlink">
<g id="graph0" class="graph" transform="scale(1 1) rotate(0) translate(4 670)">
<polygon fill="white" stroke="none" points="-4,4 -4,-670 807,-670 807,4 -4,4"/>
<!-- 80025 -->
<g id="node1" class="node">
<title>80025</title>
<g id="a_node1"><a xlink:href="/docs/biography/行传/8/0025" xlink:title="编号：80025，★，湻祐元年由司紀宅析居富春大源黃彈。点击查看详情">
<polygon fill="#f0f0f0" stroke="none" points="376,-411 376,-428 426,-428 426,-411 376,-411"/>
<polygon fill="none" stroke="black" points="376,-411 376,-428 426,-428 426,-411 376,-411"/>
<text text-anchor="start" x="383.38" y="-413.7" font-family="SimSun" font-size="14.00">文1又</text>
<polygon fill="#ffffff" stroke="none" points="376,-394 376,-411 426,-411 426,-394 376,-394"/>
<polygon fill="none" stroke="black" points="376,-394 376,-411 426,-411 426,-394 376,-394"/>
<text text-anchor="start" x="393.88" y="-396.7" font-family="SimSun" font-size="14.00">★</text>
</a>
</g>
</g>
<!-- 110019 -->
<g id="node2" class="node">
<title>110019</title>
<g id="a_node2"><a xlink:href="/docs/biography/行传/11/0019" xlink:title="编号：110019，倪，0。点击查看详情">
<polygon fill="#f0f0f0" stroke="none" points="142,-177 142,-194 192,-194 192,-177 142,-177"/>
<polygon fill="none" stroke="black" points="142,-177 142,-194 192,-194 192,-177 142,-177"/>
<text text-anchor="start" x="156.5" y="-179.7" font-family="SimSun" font-size="14.00">茂6</text>
<polygon fill="#ffffff" stroke="none" points="142,-160 142,-177 192,-177 192,-160 142,-160"/>
<polygon fill="none" stroke="black" points="142,-160 142,-177 192,-177 192,-160 142,-160"/>
<text text-anchor="start" x="159.88" y="-162.7" font-family="SimSun" font-size="14.00">倪</text>
</a>
</g>
</g>
<!-- 130038 -->
<g id="node3" class="node">
<title>130038</title>
<g id="a_node3"><a xlink:href="/docs/biography/行传/13/0038" xlink:title="编号：130038，，0。点击查看详情">
<polygon fill="#f0f0f0" stroke="none" points="745,-21 745,-38 795,-38 795,-21 745,-21"/>
<polygon fill="none" stroke="black" points="745,-21 745,-38 795,-38 795,-21 745,-21"/>
<text text-anchor="start" x="759.5" y="-23.7" font-family="SimSun" font-size="14.00">庸3</text>
<polygon fill="#ffffff" stroke="none" points="745,-4 745,-21 795,-21 795,-4 745,-4"/>
<polygon fill="none" stroke="black" points="745,-4 745,-21 795,-21 795,-4 745,-4"/>
<text text-anchor="start" x="766.62" y="-6.7" font-family="SimSun" font-size="14.00"> </text>
</a>
</g>
</g>
<!-- 120032 -->
<g id="node4" class="node">
<title>120032</title>
<g id="a_node4"><a xlink:href="/docs/biography/行传/12/0032" xlink:title="编号：120032，濱，0。点击查看详情">
<polygon fill="#f0f0f0" stroke="none" points="611,-99 611,-116 661,-116 661,-99 611,-99"/>
<polygon fill="none" stroke="black" points="611,-99 611,-116 661,-116 661,-99 611,-99"/>
<text text-anchor="start" x="625.5" y="-101.7" font-family="SimSun" font-size="14.00">良9</text>
<polygon fill="#ffffff" stroke="none" points="611,-82 611,-99 661,-99 661,-82 611,-82"/>
<polygon fill="none" stroke="black" points="611,-82 611,-99 661,-99 661,-82 611,-82"/>
<text text-anchor="start" x="628.88" y="-84.7" font-family="SimSun" font-size="14.00">濱</text>
</a>
</g>
</g>
<!-- 80027 -->
<g id="node5" class="node">
<title>80027</title>
<g id="a_node5"><a xlink:href="/docs/biography/行传/8/0027" xlink:title="编号：80027，紀，0。点击查看详情">
<polygon fill="#f0f0f0" stroke="none" points="175,-411 175,-428 225,-428 225,-411 175,-411"/>
<polygon fill="none" stroke="black" points="175,-411 175,-428 225,-428 225,-411 175,-411"/>
<text text-anchor="start" x="189.5" y="-413.7" font-family="SimSun" font-size="14.00">文3</text>
<polygon fill="#ffffff" stroke="none" points="175,-394 175,-411 225,-411 225,-394 175,-394"/>
<polygon fill="none" stroke="black" points="175,-394 175,-411 225,-411 225,-394 175,-394"/>
<text text-anchor="start" x="192.88" y="-396.7" font-family="SimSun" font-size="14.00">紀</text>
</a>
</g>
</g>
<!-- 90037 -->
<g id="node19" class="node">
<title>90037</title>
<g id="a_node19"><a xlink:href="/docs/biography/行传/9/0037" xlink:title="编号：90037，粛，0。点击查看详情">
<polygon fill="#f0f0f0" stroke="none" points="175,-333 175,-350 225,-350 225,-333 175,-333"/>
<polygon fill="none" stroke="black" points="175,-333 175,-350 225,-350 225,-333 175,-333"/>
<text text-anchor="start" x="189.5" y="-335.7" font-family="SimSun" font-size="14.00">崇5</text>
<polygon fill="#ffffff" stroke="none" points="175,-316 175,-333 225,-333 225,-316 175,-316"/>
<polygon fill="none" stroke="black" points="175,-316 175,-333 225,-333 225,-316 175,-316"/>
<text text-anchor="start" x="192.88" y="-318.7" font-family="SimSun" font-size="14.00">粛</text>
</a>
</g>
</g>
<!-- 80027&#45;&gt;90037 -->
<g id="edge1" class="edge">
<title>80027&#45;&gt;90037</title>
<path fill="none" stroke="black" d="M200,-390.03C200,-382.44 200,-373.6 200,-365.21"/>
<polygon fill="black" stroke="black" points="203.5,-365.35 200,-355.35 196.5,-365.35 203.5,-365.35"/>
</g>
<!-- 100019 -->
<g id="node6" class="node">
<title>100019</title>
<g id="a_node6"><a xlink:href="/docs/biography/行传/10/0019" xlink:title="编号：100019，嶠，0。点击查看详情">
<polygon fill="#f0f0f0" stroke="none" points="75,-255 75,-272 125,-272 125,-255 75,-255"/>
<polygon fill="none" stroke="black" points="75,-255 75,-272 125,-272 125,-255 75,-255"/>
<text text-anchor="start" x="89.5" y="-257.7" font-family="SimSun" font-size="14.00">福8</text>
<polygon fill="#ffffff" stroke="none" points="75,-238 75,-255 125,-255 125,-238 75,-238"/>
<polygon fill="none" stroke="black" points="75,-238 75,-255 125,-255 125,-238 75,-238"/>
<text text-anchor="start" x="92.88" y="-240.7" font-family="SimSun" font-size="14.00">嶠</text>
</a>
</g>
</g>
<!-- 110020 -->
<g id="node38" class="node">
<title>110020</title>
<g id="a_node38"><a xlink:href="/docs/biography/行传/11/0020" xlink:title="编号：110020，位，0。点击查看详情">
<polygon fill="#f0f0f0" stroke="none" points="8,-177 8,-194 58,-194 58,-177 8,-177"/>
<polygon fill="none" stroke="black" points="8,-177 8,-194 58,-194 58,-177 8,-177"/>
<text text-anchor="start" x="22.5" y="-179.7" font-family="SimSun" font-size="14.00">茂7</text>
<polygon fill="#ffffff" stroke="none" points="8,-160 8,-177 58,-177 58,-160 8,-160"/>
<polygon fill="none" stroke="black" points="8,-160 8,-177 58,-177 58,-160 8,-160"/>
<text text-anchor="start" x="25.88" y="-162.7" font-family="SimSun" font-size="14.00">位</text>
</a>
</g>
</g>
<!-- 100019&#45;&gt;110020 -->
<g id="edge2" class="edge">
<title>100019&#45;&gt;110020</title>
<path fill="none" stroke="black" d="M82.4,-234.03C74.93,-225.57 66.1,-215.55 57.98,-206.34"/>
<polygon fill="black" stroke="black" points="60.73,-204.16 51.49,-198.97 55.47,-208.79 60.73,-204.16"/>
</g>
<!-- 110022 -->
<g id="node44" class="node">
<title>110022</title>
<g id="a_node44"><a xlink:href="/docs/biography/行传/11/0022" xlink:title="编号：110022，喜，0。点击查看详情">
<polygon fill="#f0f0f0" stroke="none" points="75,-177 75,-194 125,-194 125,-177 75,-177"/>
<polygon fill="none" stroke="black" points="75,-177 75,-194 125,-194 125,-177 75,-177"/>
<text text-anchor="start" x="89.5" y="-179.7" font-family="SimSun" font-size="14.00">茂9</text>
<polygon fill="#ffffff" stroke="none" points="75,-160 75,-177 125,-177 125,-160 75,-160"/>
<polygon fill="none" stroke="black" points="75,-160 75,-177 125,-177 125,-160 75,-160"/>
<text text-anchor="start" x="92.88" y="-162.7" font-family="SimSun" font-size="14.00">喜</text>
</a>
</g>
</g>
<!-- 100019&#45;&gt;110022 -->
<g id="edge3" class="edge">
<title>100019&#45;&gt;110022</title>
<path fill="none" stroke="black" d="M100,-234.03C100,-226.44 100,-217.6 100,-209.21"/>
<polygon fill="black" stroke="black" points="103.5,-209.35 100,-199.35 96.5,-209.35 103.5,-209.35"/>
</g>
<!-- 120031 -->
<g id="node7" class="node">
<title>120031</title>
<g id="a_node7"><a xlink:href="/docs/biography/行传/12/0031" xlink:title="编号：120031，方，0。点击查看详情">
<polygon fill="#f0f0f0" stroke="none" points="8,-99 8,-116 58,-116 58,-99 8,-99"/>
<polygon fill="none" stroke="black" points="8,-99 8,-116 58,-116 58,-99 8,-99"/>
<text text-anchor="start" x="22.5" y="-101.7" font-family="SimSun" font-size="14.00">良8</text>
<polygon fill="#ffffff" stroke="none" points="8,-82 8,-99 58,-99 58,-82 8,-82"/>
<polygon fill="none" stroke="black" points="8,-82 8,-99 58,-99 58,-82 8,-82"/>
<text text-anchor="start" x="25.88" y="-84.7" font-family="SimSun" font-size="14.00">方</text>
</a>
</g>
</g>
<!-- 60009 -->
<g id="node8" class="node">
<title>60009</title>
<g id="a_node8"><a xlink:href="/docs/biography/行传/6/0009" xlink:title="编号：60009，時聘，0。点击查看详情">
<polygon fill="#f0f0f0" stroke="none" points="209,-567 209,-584 259,-584 259,-567 209,-567"/>
<polygon fill="none" stroke="black" points="209,-567 209,-584 259,-584 259,-567 209,-567"/>
<text text-anchor="start" x="213.38" y="-569.7" font-family="SimSun" font-size="14.00">六10_2</text>
<polygon fill="#ffffff" stroke="none" points="209,-550 209,-567 259,-567 259,-550 209,-550"/>
<polygon fill="none" stroke="black" points="209,-550 209,-567 259,-567 259,-550 209,-550"/>
<text text-anchor="start" x="219.75" y="-552.7" font-family="SimSun" font-size="14.00">時聘</text>
</a>
</g>
</g>
<!-- 70015 -->
<g id="node9" class="node">
<title>70015</title>
<g id="a_node9"><a xlink:href="/docs/biography/行传/7/0015" xlink:title="编号：70015，儒，0。点击查看详情">
<polygon fill="#f0f0f0" stroke="none" points="108,-489 108,-506 158,-506 158,-489 108,-489"/>
<polygon fill="none" stroke="black" points="108,-489 108,-506 158,-506 158,-489 108,-489"/>
<text text-anchor="start" x="119.12" y="-491.7" font-family="SimSun" font-size="14.00">千12</text>
<polygon fill="#ffffff" stroke="none" points="108,-472 108,-489 158,-489 158,-472 108,-472"/>
<polygon fill="none" stroke="black" points="108,-472 108,-489 158,-489 158,-472 108,-472"/>
<text text-anchor="start" x="125.88" y="-474.7" font-family="SimSun" font-size="14.00">儒</text>
</a>
</g>
</g>
<!-- 60009&#45;&gt;70015 -->
<g id="edge4" class="edge">
<title>60009&#45;&gt;70015</title>
<path fill="none" stroke="black" d="M207.46,-546.03C195.52,-537.04 181.24,-526.3 168.4,-516.64"/>
<polygon fill="black" stroke="black" points="170.66,-513.96 160.57,-510.74 166.45,-519.55 170.66,-513.96"/>
</g>
<!-- 70025 -->
<g id="node18" class="node">
<title>70025</title>
<g id="a_node18"><a xlink:href="/docs/biography/行传/7/0025" xlink:title="编号：70025，昌，0。点击查看详情">
<polygon fill="#f0f0f0" stroke="none" points="242,-489 242,-506 292,-506 292,-489 242,-489"/>
<polygon fill="none" stroke="black" points="242,-489 242,-506 292,-506 292,-489 242,-489"/>
<text text-anchor="start" x="253.12" y="-491.7" font-family="SimSun" font-size="14.00">千21</text>
<polygon fill="#ffffff" stroke="none" points="242,-472 242,-489 292,-489 292,-472 242,-472"/>
<polygon fill="none" stroke="black" points="242,-472 242,-489 292,-489 292,-472 242,-472"/>
<text text-anchor="start" x="259.88" y="-474.7" font-family="SimSun" font-size="14.00">昌</text>
</a>
</g>
</g>
<!-- 60009&#45;&gt;70025 -->
<g id="edge6" class="edge">
<title>60009&#45;&gt;70025</title>
<path fill="none" stroke="black" d="M242.67,-546.03C246.08,-538.18 250.07,-528.98 253.82,-520.34"/>
<polygon fill="black" stroke="black" points="257.01,-521.79 257.78,-511.22 250.59,-519 257.01,-521.79"/>
</g>
<!-- 70016 -->
<g id="node43" class="node">
<title>70016</title>
<g id="a_node43"><a xlink:href="/docs/biography/行传/7/0016" xlink:title="编号：70016，英，0。点击查看详情">
<polygon fill="#f0f0f0" stroke="none" points="175,-489 175,-506 225,-506 225,-489 175,-489"/>
<polygon fill="none" stroke="black" points="175,-489 175,-506 225,-506 225,-489 175,-489"/>
<text text-anchor="start" x="186.12" y="-491.7" font-family="SimSun" font-size="14.00">千13</text>
<polygon fill="#ffffff" stroke="none" points="175,-472 175,-489 225,-489 225,-472 175,-472"/>
<polygon fill="none" stroke="black" points="175,-472 175,-489 225,-489 225,-472 175,-472"/>
<text text-anchor="start" x="192.88" y="-474.7" font-family="SimSun" font-size="14.00">英</text>
</a>
</g>
</g>
<!-- 60009&#45;&gt;70016 -->
<g id="edge5" class="edge">
<title>60009&#45;&gt;70016</title>
<path fill="none" stroke="black" d="M225.07,-546.03C221.55,-538.18 217.44,-528.98 213.57,-520.34"/>
<polygon fill="black" stroke="black" points="216.77,-518.92 209.49,-511.22 210.38,-521.77 216.77,-518.92"/>
</g>
<!-- 80036 -->
<g id="node33" class="node">
<title>80036</title>
<g id="a_node33"><a xlink:href="/docs/biography/行传/8/0036" xlink:title="编号：80036，演，0。点击查看详情">
<polygon fill="#f0f0f0" stroke="none" points="108,-411 108,-428 158,-428 158,-411 108,-411"/>
<polygon fill="none" stroke="black" points="108,-411 108,-428 158,-428 158,-411 108,-411"/>
<text text-anchor="start" x="119.12" y="-413.7" font-family="SimSun" font-size="14.00">文25</text>
<polygon fill="#ffffff" stroke="none" points="108,-394 108,-411 158,-411 158,-394 108,-394"/>
<polygon fill="none" stroke="black" points="108,-394 108,-411 158,-411 158,-394 108,-394"/>
<text text-anchor="start" x="125.88" y="-396.7" font-family="SimSun" font-size="14.00">演</text>
</a>
</g>
</g>
<!-- 70015&#45;&gt;80036 -->
<g id="edge7" class="edge">
<title>70015&#45;&gt;80036</title>
<path fill="none" stroke="black" d="M133,-468.03C133,-460.44 133,-451.6 133,-443.21"/>
<polygon fill="black" stroke="black" points="136.5,-443.35 133,-433.35 129.5,-443.35 136.5,-443.35"/>
</g>
<!-- 60010 -->
<g id="node10" class="node">
<title>60010</title>
<g id="a_node10"><a xlink:href="/docs/biography/行传/6/0010" xlink:title="编号：60010，，0。点击查看详情">
<polygon fill="#f0f0f0" stroke="none" points="309,-567 309,-584 359,-584 359,-567 309,-567"/>
<polygon fill="none" stroke="black" points="309,-567 309,-584 359,-584 359,-567 309,-567"/>
<text text-anchor="start" x="320.12" y="-569.7" font-family="SimSun" font-size="14.00">六11</text>
<polygon fill="#ffffff" stroke="none" points="309,-550 309,-567 359,-567 359,-550 309,-550"/>
<polygon fill="none" stroke="black" points="309,-550 309,-567 359,-567 359,-550 309,-550"/>
<text text-anchor="start" x="330.62" y="-552.7" font-family="SimSun" font-size="14.00"> </text>
</a>
</g>
</g>
<!-- 70035 -->
<g id="node26" class="node">
<title>70035</title>
<g id="a_node26"><a xlink:href="/docs/biography/行传/7/0035" xlink:title="编号：70035，，0。点击查看详情">
<polygon fill="#f0f0f0" stroke="none" points="376,-489 376,-506 426,-506 426,-489 376,-489"/>
<polygon fill="none" stroke="black" points="376,-489 376,-506 426,-506 426,-489 376,-489"/>
<text text-anchor="start" x="383.75" y="-491.7" font-family="SimSun" font-size="14.00">千9_2</text>
<polygon fill="#ffffff" stroke="none" points="376,-472 376,-489 426,-489 426,-472 376,-472"/>
<polygon fill="none" stroke="black" points="376,-472 376,-489 426,-489 426,-472 376,-472"/>
<text text-anchor="start" x="397.62" y="-474.7" font-family="SimSun" font-size="14.00"> </text>
</a>
</g>
</g>
<!-- 60010&#45;&gt;70035 -->
<g id="edge9" class="edge">
<title>60010&#45;&gt;70035</title>
<path fill="none" stroke="black" d="M351.6,-546.03C359.07,-537.57 367.9,-527.55 376.02,-518.34"/>
<polygon fill="black" stroke="black" points="378.53,-520.79 382.51,-510.97 373.27,-516.16 378.53,-520.79"/>
</g>
<!-- 70019 -->
<g id="node45" class="node">
<title>70019</title>
<g id="a_node45"><a xlink:href="/docs/biography/行传/7/0019" xlink:title="编号：70019，，0。点击查看详情">
<polygon fill="#f0f0f0" stroke="none" points="309,-489 309,-506 359,-506 359,-489 309,-489"/>
<polygon fill="none" stroke="black" points="309,-489 309,-506 359,-506 359,-489 309,-489"/>
<text text-anchor="start" x="320.12" y="-491.7" font-family="SimSun" font-size="14.00">千16</text>
<polygon fill="#ffffff" stroke="none" points="309,-472 309,-489 359,-489 359,-472 309,-472"/>
<polygon fill="none" stroke="black" points="309,-472 309,-489 359,-489 359,-472 309,-472"/>
<text text-anchor="start" x="330.62" y="-474.7" font-family="SimSun" font-size="14.00"> </text>
</a>
</g>
</g>
<!-- 60010&#45;&gt;70019 -->
<g id="edge8" class="edge">
<title>60010&#45;&gt;70019</title>
<path fill="none" stroke="black" d="M334,-546.03C334,-538.44 334,-529.6 334,-521.21"/>
<polygon fill="black" stroke="black" points="337.5,-521.35 334,-511.35 330.5,-521.35 337.5,-521.35"/>
</g>
<!-- 100014 -->
<g id="node11" class="node">
<title>100014</title>
<g id="a_node11"><a xlink:href="/docs/biography/行传/10/0014" xlink:title="编号：100014，祈，0。点击查看详情">
<polygon fill="#f0f0f0" stroke="none" points="276,-255 276,-272 326,-272 326,-255 276,-255"/>
<polygon fill="none" stroke="black" points="276,-255 276,-272 326,-272 326,-255 276,-255"/>
<text text-anchor="start" x="290.5" y="-257.7" font-family="SimSun" font-size="14.00">福3</text>
<polygon fill="#ffffff" stroke="none" points="276,-238 276,-255 326,-255 326,-238 276,-238"/>
<polygon fill="none" stroke="black" points="276,-238 276,-255 326,-255 326,-238 276,-238"/>
<text text-anchor="start" x="293.88" y="-240.7" font-family="SimSun" font-size="14.00">祈</text>
</a>
</g>
</g>
<!-- 110015 -->
<g id="node28" class="node">
<title>110015</title>
<g id="a_node28"><a xlink:href="/docs/biography/行传/11/0015" xlink:title="编号：110015，必大，0。点击查看详情">
<polygon fill="#f0f0f0" stroke="none" points="276,-177 276,-194 326,-194 326,-177 276,-177"/>
<polygon fill="none" stroke="black" points="276,-177 276,-194 326,-194 326,-177 276,-177"/>
<text text-anchor="start" x="290.5" y="-179.7" font-family="SimSun" font-size="14.00">茂2</text>
<polygon fill="#ffffff" stroke="none" points="276,-160 276,-177 326,-177 326,-160 276,-160"/>
<polygon fill="none" stroke="black" points="276,-160 276,-177 326,-177 326,-160 276,-160"/>
<text text-anchor="start" x="286.75" y="-162.7" font-family="SimSun" font-size="14.00">必大</text>
</a>
</g>
</g>
<!-- 100014&#45;&gt;110015 -->
<g id="edge10" class="edge">
<title>100014&#45;&gt;110015</title>
<path fill="none" stroke="black" d="M301,-234.03C301,-226.44 301,-217.6 301,-209.21"/>
<polygon fill="black" stroke="black" points="304.5,-209.35 301,-199.35 297.5,-209.35 304.5,-209.35"/>
</g>
<!-- 120033 -->
<g id="node12" class="node">
<title>120033</title>
<g id="a_node12"><a xlink:href="/docs/biography/行传/12/0033" xlink:title="编号：120033，河，0。点击查看详情">
<polygon fill="#f0f0f0" stroke="none" points="678,-99 678,-116 728,-116 728,-99 678,-99"/>
<polygon fill="none" stroke="black" points="678,-99 678,-116 728,-116 728,-99 678,-99"/>
<text text-anchor="start" x="689.12" y="-101.7" font-family="SimSun" font-size="14.00">良11</text>
<polygon fill="#ffffff" stroke="none" points="678,-82 678,-99 728,-99 728,-82 678,-82"/>
<polygon fill="none" stroke="black" points="678,-82 678,-99 728,-99 728,-82 678,-82"/>
<text text-anchor="start" x="695.88" y="-84.7" font-family="SimSun" font-size="14.00">河</text>
</a>
</g>
</g>
<!-- 120033&#45;&gt;130038 -->
<g id="edge13" class="edge">
<title>120033&#45;&gt;130038</title>
<path fill="none" stroke="black" d="M720.6,-78.03C728.07,-69.57 736.9,-59.55 745.02,-50.34"/>
<polygon fill="black" stroke="black" points="747.53,-52.79 751.51,-42.97 742.27,-48.16 747.53,-52.79"/>
</g>
<!-- 130036 -->
<g id="node14" class="node">
<title>130036</title>
<g id="a_node14"><a xlink:href="/docs/biography/行传/13/0036" xlink:title="编号：130036，，0。点击查看详情">
<polygon fill="#f0f0f0" stroke="none" points="611,-21 611,-38 661,-38 661,-21 611,-21"/>
<polygon fill="none" stroke="black" points="611,-21 611,-38 661,-38 661,-21 611,-21"/>
<text text-anchor="start" x="625.5" y="-23.7" font-family="SimSun" font-size="14.00">庸1</text>
<polygon fill="#ffffff" stroke="none" points="611,-4 611,-21 661,-21 661,-4 611,-4"/>
<polygon fill="none" stroke="black" points="611,-4 611,-21 661,-21 661,-4 611,-4"/>
<text text-anchor="start" x="632.62" y="-6.7" font-family="SimSun" font-size="14.00"> </text>
</a>
</g>
</g>
<!-- 120033&#45;&gt;130036 -->
<g id="edge11" class="edge">
<title>120033&#45;&gt;130036</title>
<path fill="none" stroke="black" d="M685.4,-78.03C677.93,-69.57 669.1,-59.55 660.98,-50.34"/>
<polygon fill="black" stroke="black" points="663.73,-48.16 654.49,-42.97 658.47,-52.79 663.73,-48.16"/>
</g>
<!-- 130037 -->
<g id="node42" class="node">
<title>130037</title>
<g id="a_node42"><a xlink:href="/docs/biography/行传/13/0037" xlink:title="编号：130037，，0。点击查看详情">
<polygon fill="#f0f0f0" stroke="none" points="678,-21 678,-38 728,-38 728,-21 678,-21"/>
<polygon fill="none" stroke="black" points="678,-21 678,-38 728,-38 728,-21 678,-21"/>
<text text-anchor="start" x="692.5" y="-23.7" font-family="SimSun" font-size="14.00">庸2</text>
<polygon fill="#ffffff" stroke="none" points="678,-4 678,-21 728,-21 728,-4 678,-4"/>
<polygon fill="none" stroke="black" points="678,-4 678,-21 728,-21 728,-4 678,-4"/>
<text text-anchor="start" x="699.62" y="-6.7" font-family="SimSun" font-size="14.00"> </text>
</a>
</g>
</g>
<!-- 120033&#45;&gt;130037 -->
<g id="edge12" class="edge">
<title>120033&#45;&gt;130037</title>
<path fill="none" stroke="black" d="M703,-78.03C703,-70.44 703,-61.6 703,-53.21"/>
<polygon fill="black" stroke="black" points="706.5,-53.35 703,-43.35 699.5,-53.35 706.5,-53.35"/>
</g>
<!-- 120025 -->
<g id="node13" class="node">
<title>120025</title>
<g id="a_node13"><a xlink:href="/docs/biography/行传/12/0025" xlink:title="编号：120025，洙，0。点击查看详情">
<polygon fill="#f0f0f0" stroke="none" points="209,-99 209,-116 259,-116 259,-99 209,-99"/>
<polygon fill="none" stroke="black" points="209,-99 209,-116 259,-116 259,-99 209,-99"/>
<text text-anchor="start" x="223.5" y="-101.7" font-family="SimSun" font-size="14.00">良1</text>
<polygon fill="#ffffff" stroke="none" points="209,-82 209,-99 259,-99 259,-82 209,-82"/>
<polygon fill="none" stroke="black" points="209,-82 209,-99 259,-99 259,-82 209,-82"/>
<text text-anchor="start" x="226.88" y="-84.7" font-family="SimSun" font-size="14.00">洙</text>
</a>
</g>
</g>
<!-- 130032 -->
<g id="node17" class="node">
<title>130032</title>
<g id="a_node17"><a xlink:href="/docs/biography/行传/13/0032" xlink:title="编号：130032，，0。点击查看详情">
<polygon fill="#f0f0f0" stroke="none" points="142,-21 142,-38 192,-38 192,-21 142,-21"/>
<polygon fill="none" stroke="black" points="142,-21 142,-38 192,-38 192,-21 142,-21"/>
<text text-anchor="start" x="156.5" y="-23.7" font-family="SimSun" font-size="14.00">振1</text>
<polygon fill="#ffffff" stroke="none" points="142,-4 142,-21 192,-21 192,-4 142,-4"/>
<polygon fill="none" stroke="black" points="142,-4 142,-21 192,-21 192,-4 142,-4"/>
<text text-anchor="start" x="163.62" y="-6.7" font-family="SimSun" font-size="14.00"> </text>
</a>
</g>
</g>
<!-- 120025&#45;&gt;130032 -->
<g id="edge14" class="edge">
<title>120025&#45;&gt;130032</title>
<path fill="none" stroke="black" d="M216.4,-78.03C208.93,-69.57 200.1,-59.55 191.98,-50.34"/>
<polygon fill="black" stroke="black" points="194.73,-48.16 185.49,-42.97 189.47,-52.79 194.73,-48.16"/>
</g>
<!-- 130033 -->
<g id="node31" class="node">
<title>130033</title>
<g id="a_node31"><a xlink:href="/docs/biography/行传/13/0033" xlink:title="编号：130033，，0。点击查看详情">
<polygon fill="#f0f0f0" stroke="none" points="209,-21 209,-38 259,-38 259,-21 209,-21"/>
<polygon fill="none" stroke="black" points="209,-21 209,-38 259,-38 259,-21 209,-21"/>
<text text-anchor="start" x="223.5" y="-23.7" font-family="SimSun" font-size="14.00">振3</text>
<polygon fill="#ffffff" stroke="none" points="209,-4 209,-21 259,-21 259,-4 209,-4"/>
<polygon fill="none" stroke="black" points="209,-4 209,-21 259,-21 259,-4 209,-4"/>
<text text-anchor="start" x="230.62" y="-6.7" font-family="SimSun" font-size="14.00"> </text>
</a>
</g>
</g>
<!-- 120025&#45;&gt;130033 -->
<g id="edge15" class="edge">
<title>120025&#45;&gt;130033</title>
<path fill="none" stroke="black" d="M234,-78.03C234,-70.44 234,-61.6 234,-53.21"/>
<polygon fill="black" stroke="black" points="237.5,-53.35 234,-43.35 230.5,-53.35 237.5,-53.35"/>
</g>
<!-- 120034 -->
<g id="node15" class="node">
<title>120034</title>
<g id="a_node15"><a xlink:href="/docs/biography/行传/12/0034" xlink:title="编号：120034，，0。点击查看详情">
<polygon fill="#f0f0f0" stroke="none" points="75,-99 75,-116 125,-116 125,-99 75,-99"/>
<polygon fill="none" stroke="black" points="75,-99 75,-116 125,-116 125,-99 75,-99"/>
<text text-anchor="start" x="89.5" y="-101.7" font-family="SimSun" font-size="14.00">澤2</text>
<polygon fill="#ffffff" stroke="none" points="75,-82 75,-99 125,-99 125,-82 75,-82"/>
<polygon fill="none" stroke="black" points="75,-82 75,-99 125,-99 125,-82 75,-82"/>
<text text-anchor="start" x="96.62" y="-84.7" font-family="SimSun" font-size="14.00"> </text>
</a>
</g>
</g>
<!-- 100025 -->
<g id="node16" class="node">
<title>100025</title>
<g id="a_node16"><a xlink:href="/docs/biography/行传/10/0025" xlink:title="编号：100025，元，0。点击查看详情">
<polygon fill="#f0f0f0" stroke="none" points="142,-255 142,-272 192,-272 192,-255 142,-255"/>
<polygon fill="none" stroke="black" points="142,-255 142,-272 192,-272 192,-255 142,-255"/>
<text text-anchor="start" x="153.12" y="-257.7" font-family="SimSun" font-size="14.00">福14</text>
<polygon fill="#ffffff" stroke="none" points="142,-238 142,-255 192,-255 192,-238 142,-238"/>
<polygon fill="none" stroke="black" points="142,-238 142,-255 192,-255 192,-238 142,-238"/>
<text text-anchor="start" x="159.88" y="-240.7" font-family="SimSun" font-size="14.00">元</text>
</a>
</g>
</g>
<!-- 100025&#45;&gt;110019 -->
<g id="edge16" class="edge">
<title>100025&#45;&gt;110019</title>
<path fill="none" stroke="black" d="M167,-234.03C167,-226.44 167,-217.6 167,-209.21"/>
<polygon fill="black" stroke="black" points="170.5,-209.35 167,-199.35 163.5,-209.35 170.5,-209.35"/>
</g>
<!-- 80026 -->
<g id="node36" class="node">
<title>80026</title>
<g id="a_node36"><a xlink:href="/docs/biography/行传/8/0026" xlink:title="编号：80026，綢，0。点击查看详情">
<polygon fill="#f0f0f0" stroke="none" points="276,-411 276,-428 326,-428 326,-411 276,-411"/>
<polygon fill="none" stroke="black" points="276,-411 276,-428 326,-428 326,-411 276,-411"/>
<text text-anchor="start" x="290.5" y="-413.7" font-family="SimSun" font-size="14.00">文2</text>
<polygon fill="#ffffff" stroke="none" points="276,-394 276,-411 326,-411 326,-394 276,-394"/>
<polygon fill="none" stroke="black" points="276,-394 276,-411 326,-411 326,-394 276,-394"/>
<text text-anchor="start" x="293.88" y="-396.7" font-family="SimSun" font-size="14.00">綢</text>
</a>
</g>
</g>
<!-- 70025&#45;&gt;80026 -->
<g id="edge17" class="edge">
<title>70025&#45;&gt;80026</title>
<path fill="none" stroke="black" d="M275.93,-468.03C279.45,-460.18 283.56,-450.98 287.43,-442.34"/>
<polygon fill="black" stroke="black" points="290.62,-443.77 291.51,-433.22 284.23,-440.92 290.62,-443.77"/>
</g>
<!-- 90037&#45;&gt;100019 -->
<g id="edge18" class="edge">
<title>90037&#45;&gt;100019</title>
<path fill="none" stroke="black" d="M173.73,-312.03C161.9,-303.04 147.77,-292.3 135.05,-282.64"/>
<polygon fill="black" stroke="black" points="137.38,-280.01 127.3,-276.75 133.15,-285.59 137.38,-280.01"/>
</g>
<!-- 90037&#45;&gt;100025 -->
<g id="edge19" class="edge">
<title>90037&#45;&gt;100025</title>
<path fill="none" stroke="black" d="M191.33,-312.03C187.92,-304.18 183.93,-294.98 180.18,-286.34"/>
<polygon fill="black" stroke="black" points="183.41,-285 176.22,-277.22 176.99,-287.79 183.41,-285"/>
</g>
<!-- 100029 -->
<g id="node30" class="node">
<title>100029</title>
<g id="a_node30"><a xlink:href="/docs/biography/行传/10/0029" xlink:title="编号：100029，章，0。点击查看详情">
<polygon fill="#f0f0f0" stroke="none" points="209,-255 209,-272 259,-272 259,-255 209,-255"/>
<polygon fill="none" stroke="black" points="209,-255 209,-272 259,-272 259,-255 209,-255"/>
<text text-anchor="start" x="220.12" y="-257.7" font-family="SimSun" font-size="14.00">福18</text>
<polygon fill="#ffffff" stroke="none" points="209,-238 209,-255 259,-255 259,-238 209,-238"/>
<polygon fill="none" stroke="black" points="209,-238 209,-255 259,-255 259,-238 209,-238"/>
<text text-anchor="start" x="226.88" y="-240.7" font-family="SimSun" font-size="14.00">章</text>
</a>
</g>
</g>
<!-- 90037&#45;&gt;100029 -->
<g id="edge20" class="edge">
<title>90037&#45;&gt;100029</title>
<path fill="none" stroke="black" d="M208.93,-312.03C212.45,-304.18 216.56,-294.98 220.43,-286.34"/>
<polygon fill="black" stroke="black" points="223.62,-287.77 224.51,-277.22 217.23,-284.92 223.62,-287.77"/>
</g>
<!-- 90034 -->
<g id="node20" class="node">
<title>90034</title>
<g id="a_node20"><a xlink:href="/docs/biography/行传/9/0034" xlink:title="编号：90034，潛，0。点击查看详情">
<polygon fill="#f0f0f0" stroke="none" points="276,-333 276,-350 326,-350 326,-333 276,-333"/>
<polygon fill="none" stroke="black" points="276,-333 276,-350 326,-350 326,-333 276,-333"/>
<text text-anchor="start" x="290.5" y="-335.7" font-family="SimSun" font-size="14.00">崇2</text>
<polygon fill="#ffffff" stroke="none" points="276,-316 276,-333 326,-333 326,-316 276,-316"/>
<polygon fill="none" stroke="black" points="276,-316 276,-333 326,-333 326,-316 276,-316"/>
<text text-anchor="start" x="293.88" y="-318.7" font-family="SimSun" font-size="14.00">潛</text>
</a>
</g>
</g>
<!-- 90034&#45;&gt;100014 -->
<g id="edge21" class="edge">
<title>90034&#45;&gt;100014</title>
<path fill="none" stroke="black" d="M301,-312.03C301,-304.44 301,-295.6 301,-287.21"/>
<polygon fill="black" stroke="black" points="304.5,-287.35 301,-277.35 297.5,-287.35 304.5,-287.35"/>
</g>
<!-- 100016 -->
<g id="node23" class="node">
<title>100016</title>
<g id="a_node23"><a xlink:href="/docs/biography/行传/10/0016" xlink:title="编号：100016，宗，0。点击查看详情">
<polygon fill="#f0f0f0" stroke="none" points="443,-255 443,-272 493,-272 493,-255 443,-255"/>
<polygon fill="none" stroke="black" points="443,-255 443,-272 493,-272 493,-255 443,-255"/>
<text text-anchor="start" x="457.5" y="-257.7" font-family="SimSun" font-size="14.00">福5</text>
<polygon fill="#ffffff" stroke="none" points="443,-238 443,-255 493,-255 493,-238 443,-238"/>
<polygon fill="none" stroke="black" points="443,-238 443,-255 493,-255 493,-238 443,-238"/>
<text text-anchor="start" x="460.88" y="-240.7" font-family="SimSun" font-size="14.00">宗</text>
</a>
</g>
</g>
<!-- 90034&#45;&gt;100016 -->
<g id="edge22" class="edge">
<title>90034&#45;&gt;100016</title>
<path fill="none" stroke="black" d="M333.99,-316.98C359.95,-305.17 396.35,-288.61 424.66,-275.72"/>
<polygon fill="black" stroke="black" points="426.05,-278.94 433.7,-271.61 423.15,-272.57 426.05,-278.94"/>
</g>
<!-- 50010 -->
<g id="node21" class="node">
<title>50010</title>
<g id="a_node21"><a xlink:href="/docs/biography/行传/5/0010" xlink:title="编号：50010，汝能，車方&#45;&#45;&gt;司紀宅。点击查看详情">
<polygon fill="#f0f0f0" stroke="none" points="230.38,-645 230.38,-662 303.62,-662 303.62,-645 230.38,-645"/>
<polygon fill="none" stroke="darkred" points="230.38,-645 230.38,-662 303.62,-662 303.62,-645 230.38,-645"/>
<text text-anchor="start" x="253.12" y="-647.7" font-family="SimSun" font-size="14.00" fill="#8b0000">五20</text>
<polygon fill="#ffffff" stroke="none" points="230.38,-628 230.38,-645 303.62,-645 303.62,-628 230.38,-628"/>
<polygon fill="none" stroke="darkred" points="230.38,-628 230.38,-645 303.62,-645 303.62,-628 230.38,-628"/>
<text text-anchor="start" x="231.38" y="-630.7" font-family="SimSun" font-size="14.00" fill="#8b0000">【司紀宅】</text>
</a>
</g>
</g>
<!-- 50010&#45;&gt;60009 -->
<g id="edge23" class="edge">
<title>50010&#45;&gt;60009</title>
<path fill="none" stroke="black" d="M258.33,-624.03C254.92,-616.18 250.93,-606.98 247.18,-598.34"/>
<polygon fill="black" stroke="black" points="250.41,-597 243.22,-589.22 243.99,-599.79 250.41,-597"/>
</g>
<!-- 50010&#45;&gt;60010 -->
<g id="edge24" class="edge">
<title>50010&#45;&gt;60010</title>
<path fill="none" stroke="black" d="M284.6,-624.03C292.07,-615.57 300.9,-605.55 309.02,-596.34"/>
<polygon fill="black" stroke="black" points="311.53,-598.79 315.51,-588.97 306.27,-594.16 311.53,-598.79"/>
</g>
<!-- 120030 -->
<g id="node22" class="node">
<title>120030</title>
<g id="a_node22"><a xlink:href="/docs/biography/行传/12/0030" xlink:title="编号：120030，，0。点击查看详情">
<polygon fill="#f0f0f0" stroke="none" points="343,-99 343,-116 393,-116 393,-99 343,-99"/>
<polygon fill="none" stroke="black" points="343,-99 343,-116 393,-116 393,-99 343,-99"/>
<text text-anchor="start" x="357.5" y="-101.7" font-family="SimSun" font-size="14.00">良7</text>
<polygon fill="#ffffff" stroke="none" points="343,-82 343,-99 393,-99 393,-82 343,-82"/>
<polygon fill="none" stroke="black" points="343,-82 343,-99 393,-99 393,-82 343,-82"/>
<text text-anchor="start" x="364.62" y="-84.7" font-family="SimSun" font-size="14.00"> </text>
</a>
</g>
</g>
<!-- 130035 -->
<g id="node37" class="node">
<title>130035</title>
<g id="a_node37"><a xlink:href="/docs/biography/行传/13/0035" xlink:title="编号：130035，，0。点击查看详情">
<polygon fill="#f0f0f0" stroke="none" points="343,-21 343,-38 393,-38 393,-21 343,-21"/>
<polygon fill="none" stroke="black" points="343,-21 343,-38 393,-38 393,-21 343,-21"/>
<text text-anchor="start" x="357.5" y="-23.7" font-family="SimSun" font-size="14.00">奇1</text>
<polygon fill="#ffffff" stroke="none" points="343,-4 343,-21 393,-21 393,-4 343,-4"/>
<polygon fill="none" stroke="black" points="343,-4 343,-21 393,-21 393,-4 343,-4"/>
<text text-anchor="start" x="364.62" y="-6.7" font-family="SimSun" font-size="14.00"> </text>
</a>
</g>
</g>
<!-- 120030&#45;&gt;130035 -->
<g id="edge25" class="edge">
<title>120030&#45;&gt;130035</title>
<path fill="none" stroke="black" d="M368,-78.03C368,-70.44 368,-61.6 368,-53.21"/>
<polygon fill="black" stroke="black" points="371.5,-53.35 368,-43.35 364.5,-53.35 371.5,-53.35"/>
</g>
<!-- 110017 -->
<g id="node34" class="node">
<title>110017</title>
<g id="a_node34"><a xlink:href="/docs/biography/行传/11/0017" xlink:title="编号：110017，周，0。点击查看详情">
<polygon fill="#f0f0f0" stroke="none" points="477,-177 477,-194 527,-194 527,-177 477,-177"/>
<polygon fill="none" stroke="black" points="477,-177 477,-194 527,-194 527,-177 477,-177"/>
<text text-anchor="start" x="491.5" y="-179.7" font-family="SimSun" font-size="14.00">茂4</text>
<polygon fill="#ffffff" stroke="none" points="477,-160 477,-177 527,-177 527,-160 477,-160"/>
<polygon fill="none" stroke="black" points="477,-160 477,-177 527,-177 527,-160 477,-160"/>
<text text-anchor="start" x="494.88" y="-162.7" font-family="SimSun" font-size="14.00">周</text>
</a>
</g>
</g>
<!-- 100016&#45;&gt;110017 -->
<g id="edge27" class="edge">
<title>100016&#45;&gt;110017</title>
<path fill="none" stroke="black" d="M476.93,-234.03C480.45,-226.18 484.56,-216.98 488.43,-208.34"/>
<polygon fill="black" stroke="black" points="491.62,-209.77 492.51,-199.22 485.23,-206.92 491.62,-209.77"/>
</g>
<!-- 110018 -->
<g id="node35" class="node">
<title>110018</title>
<g id="a_node35"><a xlink:href="/docs/biography/行传/11/0018" xlink:title="编号：110018，洋，0。点击查看详情">
<polygon fill="#f0f0f0" stroke="none" points="611,-177 611,-194 661,-194 661,-177 611,-177"/>
<polygon fill="none" stroke="black" points="611,-177 611,-194 661,-194 661,-177 611,-177"/>
<text text-anchor="start" x="625.5" y="-179.7" font-family="SimSun" font-size="14.00">茂5</text>
<polygon fill="#ffffff" stroke="none" points="611,-160 611,-177 661,-177 661,-160 611,-160"/>
<polygon fill="none" stroke="black" points="611,-160 611,-177 661,-177 661,-160 611,-160"/>
<text text-anchor="start" x="628.88" y="-162.7" font-family="SimSun" font-size="14.00">洋</text>
</a>
</g>
</g>
<!-- 100016&#45;&gt;110018 -->
<g id="edge28" class="edge">
<title>100016&#45;&gt;110018</title>
<path fill="none" stroke="black" d="M500.79,-239.17C527.07,-227.28 564.16,-210.5 592.85,-197.52"/>
<polygon fill="black" stroke="black" points="593.96,-200.86 601.63,-193.55 591.07,-194.48 593.96,-200.86"/>
</g>
<!-- 110016 -->
<g id="node40" class="node">
<title>110016</title>
<g id="a_node40"><a xlink:href="/docs/biography/行传/11/0016" xlink:title="编号：110016，，0。点击查看详情">
<polygon fill="#f0f0f0" stroke="none" points="410,-177 410,-194 460,-194 460,-177 410,-177"/>
<polygon fill="none" stroke="black" points="410,-177 410,-194 460,-194 460,-177 410,-177"/>
<text text-anchor="start" x="424.5" y="-179.7" font-family="SimSun" font-size="14.00">茂3</text>
<polygon fill="#ffffff" stroke="none" points="410,-160 410,-177 460,-177 460,-160 410,-160"/>
<polygon fill="none" stroke="black" points="410,-160 410,-177 460,-177 460,-160 410,-160"/>
<text text-anchor="start" x="431.62" y="-162.7" font-family="SimSun" font-size="14.00"> </text>
</a>
</g>
</g>
<!-- 100016&#45;&gt;110016 -->
<g id="edge26" class="edge">
<title>100016&#45;&gt;110016</title>
<path fill="none" stroke="black" d="M459.33,-234.03C455.92,-226.18 451.93,-216.98 448.18,-208.34"/>
<polygon fill="black" stroke="black" points="451.41,-207 444.22,-199.22 444.99,-209.79 451.41,-207"/>
</g>
<!-- 90036 -->
<g id="node24" class="node">
<title>90036</title>
<g id="a_node24"><a xlink:href="/docs/biography/行传/9/0036" xlink:title="编号：90036，，0。点击查看详情">
<polygon fill="#f0f0f0" stroke="none" points="108,-333 108,-350 158,-350 158,-333 108,-333"/>
<polygon fill="none" stroke="black" points="108,-333 108,-350 158,-350 158,-333 108,-333"/>
<text text-anchor="start" x="122.5" y="-335.7" font-family="SimSun" font-size="14.00">崇4</text>
<polygon fill="#ffffff" stroke="none" points="108,-316 108,-333 158,-333 158,-316 108,-316"/>
<polygon fill="none" stroke="black" points="108,-316 108,-333 158,-333 158,-316 108,-316"/>
<text text-anchor="start" x="129.62" y="-318.7" font-family="SimSun" font-size="14.00"> </text>
</a>
</g>
</g>
<!-- 120029 -->
<g id="node25" class="node">
<title>120029</title>
<g id="a_node25"><a xlink:href="/docs/biography/行传/12/0029" xlink:title="编号：120029，汶，0。点击查看详情">
<polygon fill="#f0f0f0" stroke="none" points="544,-99 544,-116 594,-116 594,-99 544,-99"/>
<polygon fill="none" stroke="black" points="544,-99 544,-116 594,-116 594,-99 544,-99"/>
<text text-anchor="start" x="558.5" y="-101.7" font-family="SimSun" font-size="14.00">良6</text>
<polygon fill="#ffffff" stroke="none" points="544,-82 544,-99 594,-99 594,-82 544,-82"/>
<polygon fill="none" stroke="black" points="544,-82 544,-99 594,-99 594,-82 544,-82"/>
<text text-anchor="start" x="561.88" y="-84.7" font-family="SimSun" font-size="14.00">汶</text>
</a>
</g>
</g>
<!-- 70035&#45;&gt;80025 -->
<g id="edge29" class="edge">
<title>70035&#45;&gt;80025</title>
<path fill="none" stroke="black" d="M401,-468.03C401,-460.44 401,-451.6 401,-443.21"/>
<polygon fill="black" stroke="black" points="404.5,-443.35 401,-433.35 397.5,-443.35 404.5,-443.35"/>
</g>
<!-- 120026 -->
<g id="node27" class="node">
<title>120026</title>
<g id="a_node27"><a xlink:href="/docs/biography/行传/12/0026" xlink:title="编号：120026，，0。点击查看详情">
<polygon fill="#f0f0f0" stroke="none" points="276,-99 276,-116 326,-116 326,-99 276,-99"/>
<polygon fill="none" stroke="black" points="276,-99 276,-116 326,-116 326,-99 276,-99"/>
<text text-anchor="start" x="290.5" y="-101.7" font-family="SimSun" font-size="14.00">良3</text>
<polygon fill="#ffffff" stroke="none" points="276,-82 276,-99 326,-99 326,-82 276,-82"/>
<polygon fill="none" stroke="black" points="276,-82 276,-99 326,-99 326,-82 276,-82"/>
<text text-anchor="start" x="297.62" y="-84.7" font-family="SimSun" font-size="14.00"> </text>
</a>
</g>
</g>
<!-- 130034 -->
<g id="node32" class="node">
<title>130034</title>
<g id="a_node32"><a xlink:href="/docs/biography/行传/13/0034" xlink:title="编号：130034，，0。点击查看详情">
<polygon fill="#f0f0f0" stroke="none" points="276,-21 276,-38 326,-38 326,-21 276,-21"/>
<polygon fill="none" stroke="black" points="276,-21 276,-38 326,-38 326,-21 276,-21"/>
<text text-anchor="start" x="290.5" y="-23.7" font-family="SimSun" font-size="14.00">振4</text>
<polygon fill="#ffffff" stroke="none" points="276,-4 276,-21 326,-21 326,-4 276,-4"/>
<polygon fill="none" stroke="black" points="276,-4 276,-21 326,-21 326,-4 276,-4"/>
<text text-anchor="start" x="297.62" y="-6.7" font-family="SimSun" font-size="14.00"> </text>
</a>
</g>
</g>
<!-- 120026&#45;&gt;130034 -->
<g id="edge30" class="edge">
<title>120026&#45;&gt;130034</title>
<path fill="none" stroke="black" d="M301,-78.03C301,-70.44 301,-61.6 301,-53.21"/>
<polygon fill="black" stroke="black" points="304.5,-53.35 301,-43.35 297.5,-53.35 304.5,-53.35"/>
</g>
<!-- 110015&#45;&gt;120025 -->
<g id="edge31" class="edge">
<title>110015&#45;&gt;120025</title>
<path fill="none" stroke="black" d="M283.4,-156.03C275.93,-147.57 267.1,-137.55 258.98,-128.34"/>
<polygon fill="black" stroke="black" points="261.73,-126.16 252.49,-120.97 256.47,-130.79 261.73,-126.16"/>
</g>
<!-- 110015&#45;&gt;120030 -->
<g id="edge33" class="edge">
<title>110015&#45;&gt;120030</title>
<path fill="none" stroke="black" d="M318.6,-156.03C326.07,-147.57 334.9,-137.55 343.02,-128.34"/>
<polygon fill="black" stroke="black" points="345.53,-130.79 349.51,-120.97 340.27,-126.16 345.53,-130.79"/>
</g>
<!-- 110015&#45;&gt;120026 -->
<g id="edge32" class="edge">
<title>110015&#45;&gt;120026</title>
<path fill="none" stroke="black" d="M301,-156.03C301,-148.44 301,-139.6 301,-131.21"/>
<polygon fill="black" stroke="black" points="304.5,-131.35 301,-121.35 297.5,-131.35 304.5,-131.35"/>
</g>
<!-- 120028 -->
<g id="node29" class="node">
<title>120028</title>
<g id="a_node29"><a xlink:href="/docs/biography/行传/12/0028" xlink:title="编号：120028，，0。点击查看详情">
<polygon fill="#f0f0f0" stroke="none" points="410,-99 410,-116 460,-116 460,-99 410,-99"/>
<polygon fill="none" stroke="black" points="410,-99 410,-116 460,-116 460,-99 410,-99"/>
<text text-anchor="start" x="424.5" y="-101.7" font-family="SimSun" font-size="14.00">良5</text>
<polygon fill="#ffffff" stroke="none" points="410,-82 410,-99 460,-99 460,-82 410,-82"/>
<polygon fill="none" stroke="black" points="410,-82 410,-99 460,-99 460,-82 410,-82"/>
<text text-anchor="start" x="431.62" y="-84.7" font-family="SimSun" font-size="14.00"> </text>
</a>
</g>
</g>
<!-- 80036&#45;&gt;90036 -->
<g id="edge34" class="edge">
<title>80036&#45;&gt;90036</title>
<path fill="none" stroke="black" d="M133,-390.03C133,-382.44 133,-373.6 133,-365.21"/>
<polygon fill="black" stroke="black" points="136.5,-365.35 133,-355.35 129.5,-365.35 136.5,-365.35"/>
</g>
<!-- 110017&#45;&gt;120029 -->
<g id="edge36" class="edge">
<title>110017&#45;&gt;120029</title>
<path fill="none" stroke="black" d="M519.6,-156.03C527.07,-147.57 535.9,-137.55 544.02,-128.34"/>
<polygon fill="black" stroke="black" points="546.53,-130.79 550.51,-120.97 541.27,-126.16 546.53,-130.79"/>
</g>
<!-- 120027 -->
<g id="node41" class="node">
<title>120027</title>
<g id="a_node41"><a xlink:href="/docs/biography/行传/12/0027" xlink:title="编号：120027，，0。点击查看详情">
<polygon fill="#f0f0f0" stroke="none" points="477,-99 477,-116 527,-116 527,-99 477,-99"/>
<polygon fill="none" stroke="black" points="477,-99 477,-116 527,-116 527,-99 477,-99"/>
<text text-anchor="start" x="491.5" y="-101.7" font-family="SimSun" font-size="14.00">良4</text>
<polygon fill="#ffffff" stroke="none" points="477,-82 477,-99 527,-99 527,-82 477,-82"/>
<polygon fill="none" stroke="black" points="477,-82 477,-99 527,-99 527,-82 477,-82"/>
<text text-anchor="start" x="498.62" y="-84.7" font-family="SimSun" font-size="14.00"> </text>
</a>
</g>
</g>
<!-- 110017&#45;&gt;120027 -->
<g id="edge35" class="edge">
<title>110017&#45;&gt;120027</title>
<path fill="none" stroke="black" d="M502,-156.03C502,-148.44 502,-139.6 502,-131.21"/>
<polygon fill="black" stroke="black" points="505.5,-131.35 502,-121.35 498.5,-131.35 505.5,-131.35"/>
</g>
<!-- 110018&#45;&gt;120032 -->
<g id="edge37" class="edge">
<title>110018&#45;&gt;120032</title>
<path fill="none" stroke="black" d="M636,-156.03C636,-148.44 636,-139.6 636,-131.21"/>
<polygon fill="black" stroke="black" points="639.5,-131.35 636,-121.35 632.5,-131.35 639.5,-131.35"/>
</g>
<!-- 110018&#45;&gt;120033 -->
<g id="edge38" class="edge">
<title>110018&#45;&gt;120033</title>
<path fill="none" stroke="black" d="M653.6,-156.03C661.07,-147.57 669.9,-137.55 678.02,-128.34"/>
<polygon fill="black" stroke="black" points="680.53,-130.79 684.51,-120.97 675.27,-126.16 680.53,-130.79"/>
</g>
<!-- 80026&#45;&gt;90034 -->
<g id="edge39" class="edge">
<title>80026&#45;&gt;90034</title>
<path fill="none" stroke="black" d="M301,-390.03C301,-382.44 301,-373.6 301,-365.21"/>
<polygon fill="black" stroke="black" points="304.5,-365.35 301,-355.35 297.5,-365.35 304.5,-365.35"/>
</g>
<!-- 110020&#45;&gt;120031 -->
<g id="edge40" class="edge">
<title>110020&#45;&gt;120031</title>
<path fill="none" stroke="black" d="M33,-156.03C33,-148.44 33,-139.6 33,-131.21"/>
<polygon fill="black" stroke="black" points="36.5,-131.35 33,-121.35 29.5,-131.35 36.5,-131.35"/>
</g>
<!-- 120035 -->
<g id="node39" class="node">
<title>120035</title>
<g id="a_node39"><a xlink:href="/docs/biography/行传/12/0035" xlink:title="编号：120035，，0。点击查看详情">
<polygon fill="#f0f0f0" stroke="none" points="142,-99 142,-116 192,-116 192,-99 142,-99"/>
<polygon fill="none" stroke="black" points="142,-99 142,-116 192,-116 192,-99 142,-99"/>
<text text-anchor="start" x="156.5" y="-101.7" font-family="SimSun" font-size="14.00">澤4</text>
<polygon fill="#ffffff" stroke="none" points="142,-82 142,-99 192,-99 192,-82 142,-82"/>
<polygon fill="none" stroke="black" points="142,-82 142,-99 192,-99 192,-82 142,-82"/>
<text text-anchor="start" x="163.62" y="-84.7" font-family="SimSun" font-size="14.00"> </text>
</a>
</g>
</g>
<!-- 110016&#45;&gt;120028 -->
<g id="edge41" class="edge">
<title>110016&#45;&gt;120028</title>
<path fill="none" stroke="black" d="M435,-156.03C435,-148.44 435,-139.6 435,-131.21"/>
<polygon fill="black" stroke="black" points="438.5,-131.35 435,-121.35 431.5,-131.35 438.5,-131.35"/>
</g>
<!-- 70016&#45;&gt;80027 -->
<g id="edge42" class="edge">
<title>70016&#45;&gt;80027</title>
<path fill="none" stroke="black" d="M200,-468.03C200,-460.44 200,-451.6 200,-443.21"/>
<polygon fill="black" stroke="black" points="203.5,-443.35 200,-433.35 196.5,-443.35 203.5,-443.35"/>
</g>
<!-- 110022&#45;&gt;120034 -->
<g id="edge43" class="edge">
<title>110022&#45;&gt;120034</title>
<path fill="none" stroke="black" d="M100,-156.03C100,-148.44 100,-139.6 100,-131.21"/>
<polygon fill="black" stroke="black" points="103.5,-131.35 100,-121.35 96.5,-131.35 103.5,-131.35"/>
</g>
<!-- 110022&#45;&gt;120035 -->
<g id="edge44" class="edge">
<title>110022&#45;&gt;120035</title>
<path fill="none" stroke="black" d="M117.6,-156.03C125.07,-147.57 133.9,-137.55 142.02,-128.34"/>
<polygon fill="black" stroke="black" points="144.53,-130.79 148.51,-120.97 139.27,-126.16 144.53,-130.79"/>
</g>
</g>
</svg>
