<?xml version="1.0" encoding="UTF-8" standalone="no"?>
<!DOCTYPE svg PUBLIC "-//W3C//DTD SVG 1.1//EN"
 "http://www.w3.org/Graphics/SVG/1.1/DTD/svg11.dtd">
<!-- Generated by graphviz version 12.2.1 (20241206.2353)
 -->
<!-- Pages: 1 -->
<svg width="612pt" height="853pt"
 viewBox="0.00 0.00 612.00 853.25" xmlns="http://www.w3.org/2000/svg" xmlns:xlink="http://www.w3.org/1999/xlink">
<g id="graph0" class="graph" transform="scale(1 1) rotate(0) translate(4 849.25)">
<polygon fill="white" stroke="none" points="-4,4 -4,-849.25 608,-849.25 608,4 -4,4"/>
<!-- 130008 -->
<g id="node1" class="node">
<title>130008</title>
<g id="a_node1"><a xlink:href="/docs/biography/行传/13/0008" xlink:title="编号：130008，，0。点击查看详情">
<polygon fill="#f0f0f0" stroke="none" points="477,-100 477,-117 527,-117 527,-100 477,-100"/>
<polygon fill="none" stroke="black" points="477,-100 477,-117 527,-117 527,-100 477,-100"/>
<text text-anchor="start" x="488.12" y="-102.7" font-family="SimSun" font-size="14.00">瓊10</text>
<polygon fill="#ffffff" stroke="none" points="477,-83 477,-100 527,-100 527,-83 477,-83"/>
<polygon fill="none" stroke="black" points="477,-83 477,-100 527,-100 527,-83 477,-83"/>
<text text-anchor="start" x="498.62" y="-85.7" font-family="SimSun" font-size="14.00"> </text>
</a>
</g>
</g>
<!-- 50001 -->
<g id="node2" class="node">
<title>50001</title>
<g id="a_node2"><a xlink:href="/docs/biography/行传/5/0001" xlink:title="编号：50001，勝，0。点击查看详情">
<polygon fill="#f0f0f0" stroke="none" points="288,-745.25 288,-762.25 338,-762.25 338,-745.25 288,-745.25"/>
<polygon fill="none" stroke="black" points="288,-745.25 288,-762.25 338,-762.25 338,-745.25 288,-745.25"/>
<text text-anchor="start" x="302.5" y="-747.95" font-family="SimSun" font-size="14.00">五1</text>
<polygon fill="#ffffff" stroke="none" points="288,-728.25 288,-745.25 338,-745.25 338,-728.25 288,-728.25"/>
<polygon fill="none" stroke="black" points="288,-728.25 288,-745.25 338,-745.25 338,-728.25 288,-728.25"/>
<text text-anchor="start" x="305.88" y="-730.95" font-family="SimSun" font-size="14.00">勝</text>
</a>
</g>
</g>
<!-- 60017 -->
<g id="node29" class="node">
<title>60017</title>
<g id="a_node29"><a xlink:href="/docs/biography/行传/6/0017" xlink:title="编号：60017，𤧊，0。点击查看详情">
<polygon fill="#f0f0f0" stroke="none" points="337,-652.62 337,-669.62 387,-669.62 387,-652.62 337,-652.62"/>
<polygon fill="none" stroke="black" points="337,-652.62 337,-669.62 387,-669.62 387,-652.62 337,-652.62"/>
<text text-anchor="start" x="348.12" y="-655.33" font-family="SimSun" font-size="14.00">六17</text>
<polygon fill="#ffffff" stroke="none" points="337,-636.38 337,-652.62 387,-652.62 387,-636.38 337,-636.38"/>
<polygon fill="none" stroke="black" points="337,-636.38 337,-652.62 387,-652.62 387,-636.38 337,-636.38"/>
<text text-anchor="start" x="350" y="-638.33" font-family="SimSun" font-size="14.00">𤧊</text>
</a>
</g>
</g>
<!-- 50001&#45;&gt;60017 -->
<g id="edge3" class="edge">
<title>50001&#45;&gt;60017</title>
<path fill="none" stroke="black" d="M323.63,-724.67C330.18,-712.6 338.7,-696.91 346.05,-683.38"/>
<polygon fill="black" stroke="black" points="348.97,-685.33 350.67,-674.87 342.82,-681.99 348.97,-685.33"/>
</g>
<!-- 60019 -->
<g id="node38" class="node">
<title>60019</title>
<g id="a_node38"><a xlink:href="/docs/biography/行传/6/0019" xlink:title="编号：60019，璨，0。点击查看详情">
<polygon fill="#f0f0f0" stroke="none" points="438,-653 438,-670 488,-670 488,-653 438,-653"/>
<polygon fill="none" stroke="black" points="438,-653 438,-670 488,-670 488,-653 438,-653"/>
<text text-anchor="start" x="449.12" y="-655.7" font-family="SimSun" font-size="14.00">六19</text>
<polygon fill="#ffffff" stroke="none" points="438,-636 438,-653 488,-653 488,-636 438,-636"/>
<polygon fill="none" stroke="black" points="438,-636 438,-653 488,-653 488,-636 438,-636"/>
<text text-anchor="start" x="455.88" y="-638.7" font-family="SimSun" font-size="14.00">璨</text>
</a>
</g>
</g>
<!-- 50001&#45;&gt;60019 -->
<g id="edge4" class="edge">
<title>50001&#45;&gt;60019</title>
<path fill="none" stroke="black" d="M345.92,-724.44C367.8,-711.28 396.75,-693.86 420.39,-679.64"/>
<polygon fill="black" stroke="black" points="422.1,-682.69 428.86,-674.54 418.49,-676.7 422.1,-682.69"/>
</g>
<!-- 60008 -->
<g id="node40" class="node">
<title>60008</title>
<g id="a_node40"><a xlink:href="/docs/biography/行传/6/0008" xlink:title="编号：60008，瑋，0。点击查看详情">
<polygon fill="#f0f0f0" stroke="none" points="270,-653 270,-670 320,-670 320,-653 270,-653"/>
<polygon fill="none" stroke="black" points="270,-653 270,-670 320,-670 320,-653 270,-653"/>
<text text-anchor="start" x="281.12" y="-655.7" font-family="SimSun" font-size="14.00">六10</text>
<polygon fill="#ffffff" stroke="none" points="270,-636 270,-653 320,-653 320,-636 270,-636"/>
<polygon fill="none" stroke="black" points="270,-636 270,-653 320,-653 320,-636 270,-636"/>
<text text-anchor="start" x="287.88" y="-638.7" font-family="SimSun" font-size="14.00">瑋</text>
</a>
</g>
</g>
<!-- 50001&#45;&gt;60008 -->
<g id="edge2" class="edge">
<title>50001&#45;&gt;60008</title>
<path fill="none" stroke="black" d="M309.09,-724.67C306.78,-713.04 303.78,-698.04 301.15,-684.85"/>
<polygon fill="black" stroke="black" points="304.64,-684.46 299.26,-675.34 297.78,-685.83 304.64,-684.46"/>
</g>
<!-- 60013 -->
<g id="node42" class="node">
<title>60013</title>
<polygon fill="#f0f0f0" stroke="none" points="203,-653 203,-670 253,-670 253,-653 203,-653"/>
<polygon fill="none" stroke="gray" points="203,-653 203,-670 253,-670 253,-653 203,-653"/>
<text text-anchor="start" x="214.12" y="-655.7" font-family="SimSun" font-size="14.00" fill="#808080">六14</text>
<polygon fill="#ffffff" stroke="none" points="203,-636 203,-653 253,-653 253,-636 203,-636"/>
<polygon fill="none" stroke="gray" points="203,-636 203,-653 253,-653 253,-636 203,-636"/>
<text text-anchor="start" x="220.88" y="-638.7" font-family="SimSun" font-size="14.00" fill="#808080">珝</text>
</g>
<!-- 50001&#45;&gt;60013 -->
<g id="edge1" class="edge">
<title>50001&#45;&gt;60013</title>
<path fill="none" stroke="gray" stroke-dasharray="5,2" d="M288.17,-724.6C281.53,-718.94 274.53,-712.57 268.5,-706.25 261.55,-698.97 254.62,-690.54 248.49,-682.61"/>
<polygon fill="gray" stroke="gray" points="251.45,-680.72 242.64,-674.84 245.86,-684.93 251.45,-680.72"/>
<text text-anchor="middle" x="285.75" y="-692.95" font-family="Times New Roman,serif" font-size="14.00" fill="gray">出继</text>
</g>
<!-- 70023 -->
<g id="node3" class="node">
<title>70023</title>
<g id="a_node3"><a xlink:href="/docs/biography/行传/7/0023" xlink:title="编号：70023，燒，0。点击查看详情">
<polygon fill="#f0f0f0" stroke="none" points="505,-574 505,-591 555,-591 555,-574 505,-574"/>
<polygon fill="none" stroke="black" points="505,-574 505,-591 555,-591 555,-574 505,-574"/>
<text text-anchor="start" x="516.12" y="-576.7" font-family="SimSun" font-size="14.00">千19</text>
<polygon fill="#ffffff" stroke="none" points="505,-557 505,-574 555,-574 555,-557 505,-557"/>
<polygon fill="none" stroke="black" points="505,-557 505,-574 555,-574 555,-557 505,-557"/>
<text text-anchor="start" x="522.88" y="-559.7" font-family="SimSun" font-size="14.00">燒</text>
</a>
</g>
</g>
<!-- 80019 -->
<g id="node17" class="node">
<title>80019</title>
<g id="a_node17"><a xlink:href="/docs/biography/行传/8/0019" xlink:title="编号：80019，，0。点击查看详情">
<polygon fill="#f0f0f0" stroke="none" points="546,-495 546,-512 596,-512 596,-495 546,-495"/>
<polygon fill="none" stroke="black" points="546,-495 546,-512 596,-512 596,-495 546,-495"/>
<text text-anchor="start" x="553.75" y="-497.7" font-family="SimSun" font-size="14.00">萬6_2</text>
<polygon fill="#ffffff" stroke="none" points="546,-478 546,-495 596,-495 596,-478 546,-478"/>
<polygon fill="none" stroke="black" points="546,-478 546,-495 596,-495 596,-478 546,-478"/>
<text text-anchor="start" x="567.62" y="-480.7" font-family="SimSun" font-size="14.00"> </text>
</a>
</g>
</g>
<!-- 70023&#45;&gt;80019 -->
<g id="edge6" class="edge">
<title>70023&#45;&gt;80019</title>
<path fill="none" stroke="black" d="M540.56,-553.17C545.01,-544.82 550.28,-534.92 555.17,-525.72"/>
<polygon fill="black" stroke="black" points="558.16,-527.57 559.77,-517.1 551.98,-524.28 558.16,-527.57"/>
</g>
<!-- 80011 -->
<g id="node36" class="node">
<title>80011</title>
<g id="a_node36"><a xlink:href="/docs/biography/行传/8/0011" xlink:title="编号：80011，，0。点击查看详情">
<polygon fill="#f0f0f0" stroke="none" points="479,-495 479,-512 529,-512 529,-495 479,-495"/>
<polygon fill="none" stroke="black" points="479,-495 479,-512 529,-512 529,-495 479,-495"/>
<text text-anchor="start" x="493.5" y="-497.7" font-family="SimSun" font-size="14.00">萬2</text>
<polygon fill="#ffffff" stroke="none" points="479,-478 479,-495 529,-495 529,-478 479,-478"/>
<polygon fill="none" stroke="black" points="479,-478 479,-495 529,-495 529,-478 479,-478"/>
<text text-anchor="start" x="500.62" y="-480.7" font-family="SimSun" font-size="14.00"> </text>
</a>
</g>
</g>
<!-- 70023&#45;&gt;80011 -->
<g id="edge5" class="edge">
<title>70023&#45;&gt;80011</title>
<path fill="none" stroke="black" d="M523.3,-553.17C520.57,-545.09 517.36,-535.55 514.34,-526.62"/>
<polygon fill="black" stroke="black" points="517.67,-525.55 511.16,-517.2 511.04,-527.79 517.67,-525.55"/>
</g>
<!-- 90026 -->
<g id="node4" class="node">
<title>90026</title>
<g id="a_node4"><a xlink:href="/docs/biography/行传/9/0026" xlink:title="编号：90026，，0。点击查看详情">
<polygon fill="#f0f0f0" stroke="none" points="245,-416 245,-433 295,-433 295,-416 245,-416"/>
<polygon fill="none" stroke="black" points="245,-416 245,-433 295,-433 295,-416 245,-416"/>
<text text-anchor="start" x="252.75" y="-418.7" font-family="SimSun" font-size="14.00">曾5_3</text>
<polygon fill="#ffffff" stroke="none" points="245,-399 245,-416 295,-416 295,-399 245,-399"/>
<polygon fill="none" stroke="black" points="245,-399 245,-416 295,-416 295,-399 245,-399"/>
<text text-anchor="start" x="266.62" y="-401.7" font-family="SimSun" font-size="14.00"> </text>
</a>
</g>
</g>
<!-- 120001 -->
<g id="node5" class="node">
<title>120001</title>
<g id="a_node5"><a xlink:href="/docs/biography/行传/12/0001" xlink:title="编号：120001，瑗，0。点击查看详情">
<polygon fill="#f0f0f0" stroke="none" points="75,-179 75,-196 125,-196 125,-179 75,-179"/>
<polygon fill="none" stroke="black" points="75,-179 75,-196 125,-196 125,-179 75,-179"/>
<text text-anchor="start" x="89.5" y="-181.7" font-family="SimSun" font-size="14.00">怡1</text>
<polygon fill="#ffffff" stroke="none" points="75,-162 75,-179 125,-179 125,-162 75,-162"/>
<polygon fill="none" stroke="black" points="75,-162 75,-179 125,-179 125,-162 75,-162"/>
<text text-anchor="start" x="92.88" y="-164.7" font-family="SimSun" font-size="14.00">瑗</text>
</a>
</g>
</g>
<!-- 130002 -->
<g id="node8" class="node">
<title>130002</title>
<g id="a_node8"><a xlink:href="/docs/biography/行传/13/0002" xlink:title="编号：130002，珍，0。点击查看详情">
<polygon fill="#f0f0f0" stroke="none" points="75,-100 75,-117 125,-117 125,-100 75,-100"/>
<polygon fill="none" stroke="black" points="75,-100 75,-117 125,-117 125,-100 75,-100"/>
<text text-anchor="start" x="89.5" y="-102.7" font-family="SimSun" font-size="14.00">瓊2</text>
<polygon fill="#ffffff" stroke="none" points="75,-83 75,-100 125,-100 125,-83 75,-83"/>
<polygon fill="none" stroke="black" points="75,-83 75,-100 125,-100 125,-83 75,-83"/>
<text text-anchor="start" x="92.88" y="-85.7" font-family="SimSun" font-size="14.00">珍</text>
</a>
</g>
</g>
<!-- 120001&#45;&gt;130002 -->
<g id="edge8" class="edge">
<title>120001&#45;&gt;130002</title>
<path fill="none" stroke="black" d="M100,-158.17C100,-150.27 100,-140.98 100,-132.21"/>
<polygon fill="black" stroke="black" points="103.5,-132.28 100,-122.28 96.5,-132.28 103.5,-132.28"/>
</g>
<!-- 130001 -->
<g id="node24" class="node">
<title>130001</title>
<g id="a_node24"><a xlink:href="/docs/biography/行传/13/0001" xlink:title="编号：130001，惠，0。点击查看详情">
<polygon fill="#f0f0f0" stroke="none" points="8,-100 8,-117 58,-117 58,-100 8,-100"/>
<polygon fill="none" stroke="black" points="8,-100 8,-117 58,-117 58,-100 8,-100"/>
<text text-anchor="start" x="22.5" y="-102.7" font-family="SimSun" font-size="14.00">瓊1</text>
<polygon fill="#ffffff" stroke="none" points="8,-83 8,-100 58,-100 58,-83 8,-83"/>
<polygon fill="none" stroke="black" points="8,-83 8,-100 58,-100 58,-83 8,-83"/>
<text text-anchor="start" x="25.88" y="-85.7" font-family="SimSun" font-size="14.00">惠</text>
</a>
</g>
</g>
<!-- 120001&#45;&gt;130001 -->
<g id="edge7" class="edge">
<title>120001&#45;&gt;130001</title>
<path fill="none" stroke="black" d="M82.75,-158.17C75.09,-149.37 65.93,-138.85 57.58,-129.25"/>
<polygon fill="black" stroke="black" points="60.39,-127.15 51.19,-121.9 55.11,-131.75 60.39,-127.15"/>
</g>
<!-- 110002 -->
<g id="node6" class="node">
<title>110002</title>
<g id="a_node6"><a xlink:href="/docs/biography/行传/11/0002" xlink:title="编号：110002，文從，0。点击查看详情">
<polygon fill="#f0f0f0" stroke="none" points="175,-258 175,-275 225,-275 225,-258 175,-258"/>
<polygon fill="none" stroke="black" points="175,-258 175,-275 225,-275 225,-258 175,-258"/>
<text text-anchor="start" x="189.5" y="-260.7" font-family="SimSun" font-size="14.00">清2</text>
<polygon fill="#ffffff" stroke="none" points="175,-241 175,-258 225,-258 225,-241 175,-241"/>
<polygon fill="none" stroke="black" points="175,-241 175,-258 225,-258 225,-241 175,-241"/>
<text text-anchor="start" x="185.75" y="-243.7" font-family="SimSun" font-size="14.00">文從</text>
</a>
</g>
</g>
<!-- 120002 -->
<g id="node23" class="node">
<title>120002</title>
<g id="a_node23"><a xlink:href="/docs/biography/行传/12/0002" xlink:title="编号：120002，魁，0。点击查看详情">
<polygon fill="#f0f0f0" stroke="none" points="175,-179 175,-196 225,-196 225,-179 175,-179"/>
<polygon fill="none" stroke="black" points="175,-179 175,-196 225,-196 225,-179 175,-179"/>
<text text-anchor="start" x="189.5" y="-181.7" font-family="SimSun" font-size="14.00">怡6</text>
<polygon fill="#ffffff" stroke="none" points="175,-162 175,-179 225,-179 225,-162 175,-162"/>
<polygon fill="none" stroke="black" points="175,-162 175,-179 225,-179 225,-162 175,-162"/>
<text text-anchor="start" x="192.88" y="-164.7" font-family="SimSun" font-size="14.00">魁</text>
</a>
</g>
</g>
<!-- 110002&#45;&gt;120002 -->
<g id="edge9" class="edge">
<title>110002&#45;&gt;120002</title>
<path fill="none" stroke="black" d="M200,-237.17C200,-229.27 200,-219.98 200,-211.21"/>
<polygon fill="black" stroke="black" points="203.5,-211.28 200,-201.28 196.5,-211.28 203.5,-211.28"/>
</g>
<!-- 130003 -->
<g id="node7" class="node">
<title>130003</title>
<g id="a_node7"><a xlink:href="/docs/biography/行传/13/0003" xlink:title="编号：130003，，0。点击查看详情">
<polygon fill="#f0f0f0" stroke="none" points="142,-100 142,-117 192,-117 192,-100 142,-100"/>
<polygon fill="none" stroke="black" points="142,-100 142,-117 192,-117 192,-100 142,-100"/>
<text text-anchor="start" x="156.5" y="-102.7" font-family="SimSun" font-size="14.00">瓊3</text>
<polygon fill="#ffffff" stroke="none" points="142,-83 142,-100 192,-100 192,-83 142,-83"/>
<polygon fill="none" stroke="black" points="142,-83 142,-100 192,-100 192,-83 142,-83"/>
<text text-anchor="start" x="163.62" y="-85.7" font-family="SimSun" font-size="14.00"> </text>
</a>
</g>
</g>
<!-- 80014 -->
<g id="node9" class="node">
<title>80014</title>
<g id="a_node9"><a xlink:href="/docs/biography/行传/8/0014" xlink:title="编号：80014，逕，0。点击查看详情">
<polygon fill="#f0f0f0" stroke="none" points="312,-495 312,-512 362,-512 362,-495 312,-495"/>
<polygon fill="none" stroke="black" points="312,-495 312,-512 362,-512 362,-495 312,-495"/>
<text text-anchor="start" x="326.5" y="-497.7" font-family="SimSun" font-size="14.00">萬4</text>
<polygon fill="#ffffff" stroke="none" points="312,-478 312,-495 362,-495 362,-478 312,-478"/>
<polygon fill="none" stroke="black" points="312,-478 312,-495 362,-495 362,-478 312,-478"/>
<text text-anchor="start" x="329.88" y="-480.7" font-family="SimSun" font-size="14.00">逕</text>
</a>
</g>
</g>
<!-- 70003 -->
<g id="node10" class="node">
<title>70003</title>
<g id="a_node10"><a xlink:href="/docs/biography/行传/7/0003" xlink:title="编号：70003，照，0。点击查看详情">
<polygon fill="#f0f0f0" stroke="none" points="228,-574 228,-591 278,-591 278,-574 228,-574"/>
<polygon fill="none" stroke="black" points="228,-574 228,-591 278,-591 278,-574 228,-574"/>
<text text-anchor="start" x="242.5" y="-576.7" font-family="SimSun" font-size="14.00">千3</text>
<polygon fill="#ffffff" stroke="none" points="228,-557 228,-574 278,-574 278,-557 228,-557"/>
<polygon fill="none" stroke="black" points="228,-557 228,-574 278,-574 278,-557 228,-557"/>
<text text-anchor="start" x="245.88" y="-559.7" font-family="SimSun" font-size="14.00">照</text>
</a>
</g>
</g>
<!-- 80010 -->
<g id="node27" class="node">
<title>80010</title>
<g id="a_node27"><a xlink:href="/docs/biography/行传/8/0010" xlink:title="编号：80010，範，0。点击查看详情">
<polygon fill="#f0f0f0" stroke="none" points="178,-495 178,-512 228,-512 228,-495 178,-495"/>
<polygon fill="none" stroke="black" points="178,-495 178,-512 228,-512 228,-495 178,-495"/>
<text text-anchor="start" x="185.38" y="-497.7" font-family="SimSun" font-size="14.00">萬1又</text>
<polygon fill="#ffffff" stroke="none" points="178,-478 178,-495 228,-495 228,-478 178,-478"/>
<polygon fill="none" stroke="black" points="178,-478 178,-495 228,-495 228,-478 178,-478"/>
<text text-anchor="start" x="195.88" y="-480.7" font-family="SimSun" font-size="14.00">範</text>
</a>
</g>
</g>
<!-- 70003&#45;&gt;80010 -->
<g id="edge10" class="edge">
<title>70003&#45;&gt;80010</title>
<path fill="none" stroke="black" d="M240.12,-553.17C234.58,-544.64 227.99,-534.49 221.92,-525.13"/>
<polygon fill="black" stroke="black" points="225.04,-523.51 216.66,-517.03 219.17,-527.32 225.04,-523.51"/>
</g>
<!-- 50004 -->
<g id="node11" class="node">
<title>50004</title>
<g id="a_node11"><a xlink:href="/docs/biography/行传/5/0004" xlink:title="编号：50004，順，0。点击查看详情">
<polygon fill="#f0f0f0" stroke="none" points="355,-745.25 355,-762.25 405,-762.25 405,-745.25 355,-745.25"/>
<polygon fill="none" stroke="black" points="355,-745.25 355,-762.25 405,-762.25 405,-745.25 355,-745.25"/>
<text text-anchor="start" x="369.5" y="-747.95" font-family="SimSun" font-size="14.00">五5</text>
<polygon fill="#ffffff" stroke="none" points="355,-728.25 355,-745.25 405,-745.25 405,-728.25 355,-728.25"/>
<polygon fill="none" stroke="black" points="355,-728.25 355,-745.25 405,-745.25 405,-728.25 355,-728.25"/>
<text text-anchor="start" x="372.88" y="-730.95" font-family="SimSun" font-size="14.00">順</text>
</a>
</g>
</g>
<!-- 40001 -->
<g id="node12" class="node">
<title>40001</title>
<g id="a_node12"><a xlink:href="/docs/biography/行传/4/0001" xlink:title="编号：40001，琪，0。点击查看详情">
<polygon fill="#f0f0f0" stroke="none" points="343.38,-824.25 343.38,-841.25 416.62,-841.25 416.62,-824.25 343.38,-824.25"/>
<polygon fill="none" stroke="darkred" points="343.38,-824.25 343.38,-841.25 416.62,-841.25 416.62,-824.25 343.38,-824.25"/>
<text text-anchor="start" x="366.12" y="-826.95" font-family="SimSun" font-size="14.00" fill="#8b0000">四28</text>
<polygon fill="#ffffff" stroke="none" points="343.38,-807.25 343.38,-824.25 416.62,-824.25 416.62,-807.25 343.38,-807.25"/>
<polygon fill="none" stroke="darkred" points="343.38,-807.25 343.38,-824.25 416.62,-824.25 416.62,-807.25 343.38,-807.25"/>
<text text-anchor="start" x="344.38" y="-809.95" font-family="SimSun" font-size="14.00" fill="#8b0000">【溪下祖】</text>
</a>
</g>
</g>
<!-- 40001&#45;&gt;50001 -->
<g id="edge11" class="edge">
<title>40001&#45;&gt;50001</title>
<path fill="none" stroke="black" d="M362.75,-803.42C355.09,-794.62 345.93,-784.1 337.58,-774.5"/>
<polygon fill="black" stroke="black" points="340.39,-772.4 331.19,-767.15 335.11,-777 340.39,-772.4"/>
</g>
<!-- 40001&#45;&gt;50004 -->
<g id="edge12" class="edge">
<title>40001&#45;&gt;50004</title>
<path fill="none" stroke="black" d="M380,-803.42C380,-795.52 380,-786.23 380,-777.46"/>
<polygon fill="black" stroke="black" points="383.5,-777.53 380,-767.53 376.5,-777.53 383.5,-777.53"/>
</g>
<!-- 50009 -->
<g id="node33" class="node">
<title>50009</title>
<g id="a_node33"><a xlink:href="/docs/biography/行传/5/0009" xlink:title="编号：50009，勤，0。点击查看详情">
<polygon fill="#f0f0f0" stroke="none" points="422,-745.25 422,-762.25 472,-762.25 472,-745.25 422,-745.25"/>
<polygon fill="none" stroke="black" points="422,-745.25 422,-762.25 472,-762.25 472,-745.25 422,-745.25"/>
<text text-anchor="start" x="433.12" y="-747.95" font-family="SimSun" font-size="14.00">五19</text>
<polygon fill="#ffffff" stroke="none" points="422,-728.25 422,-745.25 472,-745.25 472,-728.25 422,-728.25"/>
<polygon fill="none" stroke="black" points="422,-728.25 422,-745.25 472,-745.25 472,-728.25 422,-728.25"/>
<text text-anchor="start" x="439.88" y="-730.95" font-family="SimSun" font-size="14.00">勤</text>
</a>
</g>
</g>
<!-- 40001&#45;&gt;50009 -->
<g id="edge13" class="edge">
<title>40001&#45;&gt;50009</title>
<path fill="none" stroke="black" d="M397.25,-803.42C404.91,-794.62 414.07,-784.1 422.42,-774.5"/>
<polygon fill="black" stroke="black" points="424.89,-777 428.81,-767.15 419.61,-772.4 424.89,-777"/>
</g>
<!-- 130007 -->
<g id="node13" class="node">
<title>130007</title>
<g id="a_node13"><a xlink:href="/docs/biography/行传/13/0007" xlink:title="编号：130007，武，0。点击查看详情">
<polygon fill="#f0f0f0" stroke="none" points="343,-100 343,-117 393,-117 393,-100 343,-100"/>
<polygon fill="none" stroke="black" points="343,-100 343,-117 393,-117 393,-100 343,-100"/>
<text text-anchor="start" x="357.5" y="-102.7" font-family="SimSun" font-size="14.00">瓊8</text>
<polygon fill="#ffffff" stroke="none" points="343,-83 343,-100 393,-100 393,-83 343,-83"/>
<polygon fill="none" stroke="black" points="343,-83 343,-100 393,-100 393,-83 343,-83"/>
<text text-anchor="start" x="360.88" y="-85.7" font-family="SimSun" font-size="14.00">武</text>
</a>
</g>
</g>
<!-- 140001 -->
<g id="node16" class="node">
<title>140001</title>
<g id="a_node16"><a xlink:href="/docs/biography/行传/14/0001" xlink:title="编号：140001，壬，0。点击查看详情">
<polygon fill="#f0f0f0" stroke="none" points="309,-21 309,-38 359,-38 359,-21 309,-21"/>
<polygon fill="none" stroke="black" points="309,-21 309,-38 359,-38 359,-21 309,-21"/>
<text text-anchor="start" x="323.5" y="-23.7" font-family="SimSun" font-size="14.00">壬1</text>
<polygon fill="#ffffff" stroke="none" points="309,-4 309,-21 359,-21 359,-4 309,-4"/>
<polygon fill="none" stroke="black" points="309,-4 309,-21 359,-21 359,-4 309,-4"/>
<text text-anchor="start" x="326.88" y="-6.7" font-family="SimSun" font-size="14.00">壬</text>
</a>
</g>
</g>
<!-- 130007&#45;&gt;140001 -->
<g id="edge14" class="edge">
<title>130007&#45;&gt;140001</title>
<path fill="none" stroke="black" d="M359.24,-79.17C355.6,-70.91 351.28,-61.13 347.26,-52.02"/>
<polygon fill="black" stroke="black" points="350.58,-50.88 343.34,-43.15 344.18,-53.71 350.58,-50.88"/>
</g>
<!-- 140002 -->
<g id="node26" class="node">
<title>140002</title>
<g id="a_node26"><a xlink:href="/docs/biography/行传/14/0002" xlink:title="编号：140002，牙，0。点击查看详情">
<polygon fill="#f0f0f0" stroke="none" points="376,-21 376,-38 426,-38 426,-21 376,-21"/>
<polygon fill="none" stroke="black" points="376,-21 376,-38 426,-38 426,-21 376,-21"/>
<text text-anchor="start" x="390.5" y="-23.7" font-family="SimSun" font-size="14.00">壬2</text>
<polygon fill="#ffffff" stroke="none" points="376,-4 376,-21 426,-21 426,-4 376,-4"/>
<polygon fill="none" stroke="black" points="376,-4 376,-21 426,-21 426,-4 376,-4"/>
<text text-anchor="start" x="393.88" y="-6.7" font-family="SimSun" font-size="14.00">牙</text>
</a>
</g>
</g>
<!-- 130007&#45;&gt;140002 -->
<g id="edge15" class="edge">
<title>130007&#45;&gt;140002</title>
<path fill="none" stroke="black" d="M376.5,-79.17C380,-71 384.14,-61.34 388.01,-52.32"/>
<polygon fill="black" stroke="black" points="391.21,-53.72 391.93,-43.15 384.78,-50.97 391.21,-53.72"/>
</g>
<!-- 100001 -->
<g id="node14" class="node">
<title>100001</title>
<g id="a_node14"><a xlink:href="/docs/biography/行传/10/0001" xlink:title="编号：100001，瑛，0。点击查看详情">
<polygon fill="#f0f0f0" stroke="none" points="108,-337 108,-354 158,-354 158,-337 108,-337"/>
<polygon fill="none" stroke="black" points="108,-337 108,-354 158,-354 158,-337 108,-337"/>
<text text-anchor="start" x="122.5" y="-339.7" font-family="SimSun" font-size="14.00">寧6</text>
<polygon fill="#ffffff" stroke="none" points="108,-320 108,-337 158,-337 158,-320 108,-320"/>
<polygon fill="none" stroke="black" points="108,-320 108,-337 158,-337 158,-320 108,-320"/>
<text text-anchor="start" x="125.88" y="-322.7" font-family="SimSun" font-size="14.00">瑛</text>
</a>
</g>
</g>
<!-- 130005 -->
<g id="node15" class="node">
<title>130005</title>
<g id="a_node15"><a xlink:href="/docs/biography/行传/13/0005" xlink:title="编号：130005，，0。点击查看详情">
<polygon fill="#f0f0f0" stroke="none" points="276,-100 276,-117 326,-117 326,-100 276,-100"/>
<polygon fill="none" stroke="black" points="276,-100 276,-117 326,-117 326,-100 276,-100"/>
<text text-anchor="start" x="290.5" y="-102.7" font-family="SimSun" font-size="14.00">瓊5</text>
<polygon fill="#ffffff" stroke="none" points="276,-83 276,-100 326,-100 326,-83 276,-83"/>
<polygon fill="none" stroke="black" points="276,-83 276,-100 326,-100 326,-83 276,-83"/>
<text text-anchor="start" x="297.62" y="-85.7" font-family="SimSun" font-size="14.00"> </text>
</a>
</g>
</g>
<!-- 90001 -->
<g id="node18" class="node">
<title>90001</title>
<g id="a_node18"><a xlink:href="/docs/biography/行传/9/0001" xlink:title="编号：90001，顯，0。点击查看详情">
<polygon fill="#f0f0f0" stroke="none" points="111,-416 111,-433 161,-433 161,-416 111,-416"/>
<polygon fill="none" stroke="black" points="111,-416 111,-433 161,-433 161,-416 111,-416"/>
<text text-anchor="start" x="125.5" y="-418.7" font-family="SimSun" font-size="14.00">宗1</text>
<polygon fill="#ffffff" stroke="none" points="111,-399 111,-416 161,-416 161,-399 111,-399"/>
<polygon fill="none" stroke="black" points="111,-399 111,-416 161,-416 161,-399 111,-399"/>
<text text-anchor="start" x="128.88" y="-401.7" font-family="SimSun" font-size="14.00">顯</text>
</a>
</g>
</g>
<!-- 90001&#45;&gt;100001 -->
<g id="edge16" class="edge">
<title>90001&#45;&gt;100001</title>
<path fill="none" stroke="black" d="M135.23,-395.17C134.92,-387.27 134.56,-377.98 134.22,-369.21"/>
<polygon fill="black" stroke="black" points="137.72,-369.13 133.83,-359.27 130.72,-369.4 137.72,-369.13"/>
</g>
<!-- 100002 -->
<g id="node30" class="node">
<title>100002</title>
<g id="a_node30"><a xlink:href="/docs/biography/行传/10/0002" xlink:title="编号：100002，琇，0。点击查看详情">
<polygon fill="#f0f0f0" stroke="none" points="175,-337 175,-354 225,-354 225,-337 175,-337"/>
<polygon fill="none" stroke="black" points="175,-337 175,-354 225,-354 225,-337 175,-337"/>
<text text-anchor="start" x="189.5" y="-339.7" font-family="SimSun" font-size="14.00">寧7</text>
<polygon fill="#ffffff" stroke="none" points="175,-320 175,-337 225,-337 225,-320 175,-320"/>
<polygon fill="none" stroke="black" points="175,-320 175,-337 225,-337 225,-320 175,-320"/>
<text text-anchor="start" x="192.88" y="-322.7" font-family="SimSun" font-size="14.00">琇</text>
</a>
</g>
</g>
<!-- 90001&#45;&gt;100002 -->
<g id="edge17" class="edge">
<title>90001&#45;&gt;100002</title>
<path fill="none" stroke="black" d="M152.48,-395.17C159.72,-386.46 168.36,-376.06 176.28,-366.54"/>
<polygon fill="black" stroke="black" points="178.91,-368.85 182.61,-358.93 173.52,-364.38 178.91,-368.85"/>
</g>
<!-- 110001 -->
<g id="node19" class="node">
<title>110001</title>
<g id="a_node19"><a xlink:href="/docs/biography/行传/11/0001" xlink:title="编号：110001，文循，0。点击查看详情">
<polygon fill="#f0f0f0" stroke="none" points="108,-258 108,-275 158,-275 158,-258 108,-258"/>
<polygon fill="none" stroke="black" points="108,-258 108,-275 158,-275 158,-258 108,-258"/>
<text text-anchor="start" x="122.5" y="-260.7" font-family="SimSun" font-size="14.00">清1</text>
<polygon fill="#ffffff" stroke="none" points="108,-241 108,-258 158,-258 158,-241 108,-241"/>
<polygon fill="none" stroke="black" points="108,-241 108,-258 158,-258 158,-241 108,-241"/>
<text text-anchor="start" x="118.75" y="-243.7" font-family="SimSun" font-size="14.00">文循</text>
</a>
</g>
</g>
<!-- 110001&#45;&gt;120001 -->
<g id="edge18" class="edge">
<title>110001&#45;&gt;120001</title>
<path fill="none" stroke="black" d="M124.5,-237.17C121,-229 116.86,-219.34 112.99,-210.32"/>
<polygon fill="black" stroke="black" points="116.22,-208.97 109.07,-201.15 109.79,-211.72 116.22,-208.97"/>
</g>
<!-- 130004 -->
<g id="node20" class="node">
<title>130004</title>
<g id="a_node20"><a xlink:href="/docs/biography/行传/13/0004" xlink:title="编号：130004，，0。点击查看详情">
<polygon fill="#f0f0f0" stroke="none" points="209,-100 209,-117 259,-117 259,-100 209,-100"/>
<polygon fill="none" stroke="black" points="209,-100 209,-117 259,-117 259,-100 209,-100"/>
<text text-anchor="start" x="223.5" y="-102.7" font-family="SimSun" font-size="14.00">瓊4</text>
<polygon fill="#ffffff" stroke="none" points="209,-83 209,-100 259,-100 259,-83 209,-83"/>
<polygon fill="none" stroke="black" points="209,-83 209,-100 259,-100 259,-83 209,-83"/>
<text text-anchor="start" x="230.62" y="-85.7" font-family="SimSun" font-size="14.00"> </text>
</a>
</g>
</g>
<!-- 110003 -->
<g id="node21" class="node">
<title>110003</title>
<g id="a_node21"><a xlink:href="/docs/biography/行传/11/0003" xlink:title="编号：110003，文行，0。点击查看详情">
<polygon fill="#f0f0f0" stroke="none" points="294,-258 294,-275 344,-275 344,-258 294,-258"/>
<polygon fill="none" stroke="black" points="294,-258 294,-275 344,-275 344,-258 294,-258"/>
<text text-anchor="start" x="308.5" y="-260.7" font-family="SimSun" font-size="14.00">清4</text>
<polygon fill="#ffffff" stroke="none" points="294,-241 294,-258 344,-258 344,-241 294,-241"/>
<polygon fill="none" stroke="black" points="294,-241 294,-258 344,-258 344,-241 294,-241"/>
<text text-anchor="start" x="304.75" y="-243.7" font-family="SimSun" font-size="14.00">文行</text>
</a>
</g>
</g>
<!-- 120004 -->
<g id="node25" class="node">
<title>120004</title>
<g id="a_node25"><a xlink:href="/docs/biography/行传/12/0004" xlink:title="编号：120004，艮，0。点击查看详情">
<polygon fill="#f0f0f0" stroke="none" points="410,-179 410,-196 460,-196 460,-179 410,-179"/>
<polygon fill="none" stroke="black" points="410,-179 410,-196 460,-196 460,-179 410,-179"/>
<text text-anchor="start" x="424.5" y="-181.7" font-family="SimSun" font-size="14.00">安4</text>
<polygon fill="#ffffff" stroke="none" points="410,-162 410,-179 460,-179 460,-162 410,-162"/>
<polygon fill="none" stroke="black" points="410,-162 410,-179 460,-179 460,-162 410,-162"/>
<text text-anchor="start" x="427.88" y="-164.7" font-family="SimSun" font-size="14.00">艮</text>
</a>
</g>
</g>
<!-- 110003&#45;&gt;120004 -->
<g id="edge20" class="edge">
<title>110003&#45;&gt;120004</title>
<path fill="none" stroke="black" d="M348.87,-237.17C363.22,-227.65 380.59,-216.12 395.96,-205.92"/>
<polygon fill="black" stroke="black" points="397.57,-209.05 403.97,-200.6 393.7,-203.21 397.57,-209.05"/>
</g>
<!-- 120003 -->
<g id="node32" class="node">
<title>120003</title>
<g id="a_node32"><a xlink:href="/docs/biography/行传/12/0003" xlink:title="编号：120003，毛，0。点击查看详情">
<polygon fill="#f0f0f0" stroke="none" points="294,-179 294,-196 344,-196 344,-179 294,-179"/>
<polygon fill="none" stroke="black" points="294,-179 294,-196 344,-196 344,-179 294,-179"/>
<text text-anchor="start" x="308.5" y="-181.7" font-family="SimSun" font-size="14.00">安3</text>
<polygon fill="#ffffff" stroke="none" points="294,-162 294,-179 344,-179 344,-162 294,-162"/>
<polygon fill="none" stroke="black" points="294,-162 294,-179 344,-179 344,-162 294,-162"/>
<text text-anchor="start" x="311.88" y="-164.7" font-family="SimSun" font-size="14.00">毛</text>
</a>
</g>
</g>
<!-- 110003&#45;&gt;120003 -->
<g id="edge19" class="edge">
<title>110003&#45;&gt;120003</title>
<path fill="none" stroke="black" d="M319,-237.17C319,-229.27 319,-219.98 319,-211.21"/>
<polygon fill="black" stroke="black" points="322.5,-211.28 319,-201.28 315.5,-211.28 322.5,-211.28"/>
</g>
<!-- 70022 -->
<g id="node22" class="node">
<title>70022</title>
<g id="a_node22"><a xlink:href="/docs/biography/行传/7/0022" xlink:title="编号：70022，燈，0。点击查看详情">
<polygon fill="#f0f0f0" stroke="none" points="371,-574 371,-591 421,-591 421,-574 371,-574"/>
<polygon fill="none" stroke="black" points="371,-574 371,-591 421,-591 421,-574 371,-574"/>
<text text-anchor="start" x="382.12" y="-576.7" font-family="SimSun" font-size="14.00">千18</text>
<polygon fill="#ffffff" stroke="none" points="371,-557 371,-574 421,-574 421,-557 371,-557"/>
<polygon fill="none" stroke="black" points="371,-557 371,-574 421,-574 421,-557 371,-557"/>
<text text-anchor="start" x="388.88" y="-559.7" font-family="SimSun" font-size="14.00">燈</text>
</a>
</g>
</g>
<!-- 120002&#45;&gt;130003 -->
<g id="edge21" class="edge">
<title>120002&#45;&gt;130003</title>
<path fill="none" stroke="black" d="M191.5,-158.17C188,-150 183.86,-140.34 179.99,-131.32"/>
<polygon fill="black" stroke="black" points="183.22,-129.97 176.07,-122.15 176.79,-132.72 183.22,-129.97"/>
</g>
<!-- 120002&#45;&gt;130004 -->
<g id="edge22" class="edge">
<title>120002&#45;&gt;130004</title>
<path fill="none" stroke="black" d="M208.76,-158.17C212.4,-149.91 216.72,-140.13 220.74,-131.02"/>
<polygon fill="black" stroke="black" points="223.82,-132.71 224.66,-122.15 217.42,-129.88 223.82,-132.71"/>
</g>
<!-- 120004&#45;&gt;130008 -->
<g id="edge24" class="edge">
<title>120004&#45;&gt;130008</title>
<path fill="none" stroke="black" d="M452.25,-158.17C459.91,-149.37 469.07,-138.85 477.42,-129.25"/>
<polygon fill="black" stroke="black" points="479.89,-131.75 483.81,-121.9 474.61,-127.15 479.89,-131.75"/>
</g>
<!-- 130006 -->
<g id="node31" class="node">
<title>130006</title>
<g id="a_node31"><a xlink:href="/docs/biography/行传/13/0006" xlink:title="编号：130006，捨，0。点击查看详情">
<polygon fill="#f0f0f0" stroke="none" points="410,-100 410,-117 460,-117 460,-100 410,-100"/>
<polygon fill="none" stroke="black" points="410,-100 410,-117 460,-117 460,-100 410,-100"/>
<text text-anchor="start" x="424.5" y="-102.7" font-family="SimSun" font-size="14.00">瓊6</text>
<polygon fill="#ffffff" stroke="none" points="410,-83 410,-100 460,-100 460,-83 410,-83"/>
<polygon fill="none" stroke="black" points="410,-83 410,-100 460,-100 460,-83 410,-83"/>
<text text-anchor="start" x="427.88" y="-85.7" font-family="SimSun" font-size="14.00">捨</text>
</a>
</g>
</g>
<!-- 120004&#45;&gt;130006 -->
<g id="edge23" class="edge">
<title>120004&#45;&gt;130006</title>
<path fill="none" stroke="black" d="M435,-158.17C435,-150.27 435,-140.98 435,-132.21"/>
<polygon fill="black" stroke="black" points="438.5,-132.28 435,-122.28 431.5,-132.28 438.5,-132.28"/>
</g>
<!-- 80010&#45;&gt;90001 -->
<g id="edge25" class="edge">
<title>80010&#45;&gt;90001</title>
<path fill="none" stroke="black" d="M185.75,-474.17C178.09,-465.37 168.93,-454.85 160.58,-445.25"/>
<polygon fill="black" stroke="black" points="163.39,-443.15 154.19,-437.9 158.11,-447.75 163.39,-443.15"/>
</g>
<!-- 90002 -->
<g id="node41" class="node">
<title>90002</title>
<g id="a_node41"><a xlink:href="/docs/biography/行传/9/0002" xlink:title="编号：90002，，0。点击查看详情">
<polygon fill="#f0f0f0" stroke="none" points="178,-416 178,-433 228,-433 228,-416 178,-416"/>
<polygon fill="none" stroke="black" points="178,-416 178,-433 228,-433 228,-416 178,-416"/>
<text text-anchor="start" x="192.5" y="-418.7" font-family="SimSun" font-size="14.00">宗2</text>
<polygon fill="#ffffff" stroke="none" points="178,-399 178,-416 228,-416 228,-399 178,-399"/>
<polygon fill="none" stroke="black" points="178,-399 178,-416 228,-416 228,-399 178,-399"/>
<text text-anchor="start" x="199.62" y="-401.7" font-family="SimSun" font-size="14.00"> </text>
</a>
</g>
</g>
<!-- 80010&#45;&gt;90002 -->
<g id="edge26" class="edge">
<title>80010&#45;&gt;90002</title>
<path fill="none" stroke="black" d="M203,-474.17C203,-466.27 203,-456.98 203,-448.21"/>
<polygon fill="black" stroke="black" points="206.5,-448.28 203,-438.28 199.5,-448.28 206.5,-448.28"/>
</g>
<!-- 70004 -->
<g id="node28" class="node">
<title>70004</title>
<g id="a_node28"><a xlink:href="/docs/biography/行传/7/0004" xlink:title="编号：70004，，0。点击查看详情">
<polygon fill="#f0f0f0" stroke="none" points="438,-574 438,-591 488,-591 488,-574 438,-574"/>
<polygon fill="none" stroke="black" points="438,-574 438,-591 488,-591 488,-574 438,-574"/>
<text text-anchor="start" x="452.5" y="-576.7" font-family="SimSun" font-size="14.00">千4</text>
<polygon fill="#ffffff" stroke="none" points="438,-557 438,-574 488,-574 488,-557 438,-557"/>
<polygon fill="none" stroke="black" points="438,-557 438,-574 488,-574 488,-557 438,-557"/>
<text text-anchor="start" x="459.62" y="-559.7" font-family="SimSun" font-size="14.00"> </text>
</a>
</g>
</g>
<!-- 60017&#45;&gt;70022 -->
<g id="edge28" class="edge">
<title>60017&#45;&gt;70022</title>
<path fill="none" stroke="black" d="M370.58,-632.57C374.23,-624.31 378.57,-614.48 382.62,-605.3"/>
<polygon fill="black" stroke="black" points="385.74,-606.91 386.57,-596.35 379.33,-604.08 385.74,-606.91"/>
</g>
<!-- 70021 -->
<g id="node35" class="node">
<title>70021</title>
<g id="a_node35"><a xlink:href="/docs/biography/行传/7/0021" xlink:title="编号：70021，煬，0。点击查看详情">
<polygon fill="#f0f0f0" stroke="none" points="304,-574 304,-591 354,-591 354,-574 304,-574"/>
<polygon fill="none" stroke="black" points="304,-574 304,-591 354,-591 354,-574 304,-574"/>
<text text-anchor="start" x="308.38" y="-576.7" font-family="SimSun" font-size="14.00">千17_2</text>
<polygon fill="#ffffff" stroke="none" points="304,-557 304,-574 354,-574 354,-557 304,-557"/>
<polygon fill="none" stroke="black" points="304,-557 304,-574 354,-574 354,-557 304,-557"/>
<text text-anchor="start" x="321.88" y="-559.7" font-family="SimSun" font-size="14.00">煬</text>
</a>
</g>
</g>
<!-- 60017&#45;&gt;70021 -->
<g id="edge27" class="edge">
<title>60017&#45;&gt;70021</title>
<path fill="none" stroke="black" d="M353.67,-632.57C350.13,-624.31 345.92,-614.48 341.99,-605.3"/>
<polygon fill="black" stroke="black" points="345.31,-604.16 338.15,-596.35 338.87,-606.92 345.31,-604.16"/>
</g>
<!-- 100002&#45;&gt;110002 -->
<g id="edge30" class="edge">
<title>100002&#45;&gt;110002</title>
<path fill="none" stroke="black" d="M200,-316.17C200,-308.27 200,-298.98 200,-290.21"/>
<polygon fill="black" stroke="black" points="203.5,-290.28 200,-280.28 196.5,-290.28 203.5,-290.28"/>
</g>
<!-- 100002&#45;&gt;110001 -->
<g id="edge29" class="edge">
<title>100002&#45;&gt;110001</title>
<path fill="none" stroke="black" d="M182.75,-316.17C175.09,-307.37 165.93,-296.85 157.58,-287.25"/>
<polygon fill="black" stroke="black" points="160.39,-285.15 151.19,-279.9 155.11,-289.75 160.39,-285.15"/>
</g>
<!-- 100002&#45;&gt;110003 -->
<g id="edge31" class="edge">
<title>100002&#45;&gt;110003</title>
<path fill="none" stroke="black" d="M230.65,-316.17C245.36,-306.65 263.18,-295.12 278.95,-284.92"/>
<polygon fill="black" stroke="black" points="280.69,-287.96 287.19,-279.58 276.89,-282.08 280.69,-287.96"/>
</g>
<!-- 120003&#45;&gt;130007 -->
<g id="edge33" class="edge">
<title>120003&#45;&gt;130007</title>
<path fill="none" stroke="black" d="M331.62,-158.17C336.99,-149.73 343.37,-139.7 349.27,-130.43"/>
<polygon fill="black" stroke="black" points="352.2,-132.35 354.61,-122.04 346.29,-128.6 352.2,-132.35"/>
</g>
<!-- 120003&#45;&gt;130005 -->
<g id="edge32" class="edge">
<title>120003&#45;&gt;130005</title>
<path fill="none" stroke="black" d="M314.36,-158.17C312.5,-150.18 310.3,-140.77 308.23,-131.91"/>
<polygon fill="black" stroke="black" points="311.65,-131.18 305.96,-122.24 304.83,-132.77 311.65,-131.18"/>
</g>
<!-- 90029 -->
<g id="node34" class="node">
<title>90029</title>
<g id="a_node34"><a xlink:href="/docs/biography/行传/9/0029" xlink:title="编号：90029，★，析居富陽大源。点击查看详情">
<polygon fill="#f0f0f0" stroke="none" points="379,-416 379,-433 429,-433 429,-416 379,-416"/>
<polygon fill="none" stroke="black" points="379,-416 379,-433 429,-433 429,-416 379,-416"/>
<text text-anchor="start" x="386.75" y="-418.7" font-family="SimSun" font-size="14.00">曾7_2</text>
<polygon fill="#ffffff" stroke="none" points="379,-399 379,-416 429,-416 429,-399 379,-399"/>
<polygon fill="none" stroke="black" points="379,-399 379,-416 429,-416 429,-399 379,-399"/>
<text text-anchor="start" x="396.88" y="-401.7" font-family="SimSun" font-size="14.00">★</text>
</a>
</g>
</g>
<!-- 70021&#45;&gt;80014 -->
<g id="edge35" class="edge">
<title>70021&#45;&gt;80014</title>
<path fill="none" stroke="black" d="M331.06,-553.17C331.88,-545.27 332.85,-535.98 333.76,-527.21"/>
<polygon fill="black" stroke="black" points="337.24,-527.58 334.79,-517.27 330.28,-526.85 337.24,-527.58"/>
</g>
<!-- 80017 -->
<g id="node37" class="node">
<title>80017</title>
<g id="a_node37"><a xlink:href="/docs/biography/行传/8/0017" xlink:title="编号：80017，遙，0。点击查看详情">
<polygon fill="#f0f0f0" stroke="none" points="379,-495 379,-512 429,-512 429,-495 379,-495"/>
<polygon fill="none" stroke="black" points="379,-495 379,-512 429,-512 429,-495 379,-495"/>
<text text-anchor="start" x="386.75" y="-497.7" font-family="SimSun" font-size="14.00">萬5_2</text>
<polygon fill="#ffffff" stroke="none" points="379,-478 379,-495 429,-495 429,-478 379,-478"/>
<polygon fill="none" stroke="black" points="379,-478 379,-495 429,-495 429,-478 379,-478"/>
<text text-anchor="start" x="396.88" y="-480.7" font-family="SimSun" font-size="14.00">遙</text>
</a>
</g>
</g>
<!-- 70021&#45;&gt;80017 -->
<g id="edge36" class="edge">
<title>70021&#45;&gt;80017</title>
<path fill="none" stroke="black" d="M348.31,-553.17C356.98,-544.28 367.34,-533.63 376.77,-523.95"/>
<polygon fill="black" stroke="black" points="379.22,-526.45 383.7,-516.85 374.21,-521.57 379.22,-526.45"/>
</g>
<!-- 80013 -->
<g id="node39" class="node">
<title>80013</title>
<g id="a_node39"><a xlink:href="/docs/biography/行传/8/0013" xlink:title="编号：80013，逢，0。点击查看详情">
<polygon fill="#f0f0f0" stroke="none" points="245,-495 245,-512 295,-512 295,-495 245,-495"/>
<polygon fill="none" stroke="black" points="245,-495 245,-512 295,-512 295,-495 245,-495"/>
<text text-anchor="start" x="252.38" y="-497.7" font-family="SimSun" font-size="14.00">萬3又</text>
<polygon fill="#ffffff" stroke="none" points="245,-478 245,-495 295,-495 295,-478 245,-478"/>
<polygon fill="none" stroke="black" points="245,-478 245,-495 295,-495 295,-478 245,-478"/>
<text text-anchor="start" x="262.88" y="-480.7" font-family="SimSun" font-size="14.00">逢</text>
</a>
</g>
</g>
<!-- 70021&#45;&gt;80013 -->
<g id="edge34" class="edge">
<title>70021&#45;&gt;80013</title>
<path fill="none" stroke="black" d="M313.81,-553.17C307.2,-544.55 299.33,-534.28 292.09,-524.84"/>
<polygon fill="black" stroke="black" points="294.92,-522.77 286.06,-516.96 289.37,-527.03 294.92,-522.77"/>
</g>
<!-- 80017&#45;&gt;90029 -->
<g id="edge37" class="edge">
<title>80017&#45;&gt;90029</title>
<path fill="none" stroke="black" d="M404,-474.17C404,-466.27 404,-456.98 404,-448.21"/>
<polygon fill="black" stroke="black" points="407.5,-448.28 404,-438.28 400.5,-448.28 407.5,-448.28"/>
</g>
<!-- 60019&#45;&gt;70023 -->
<g id="edge39" class="edge">
<title>60019&#45;&gt;70023</title>
<path fill="none" stroke="black" d="M480.25,-632.17C487.91,-623.37 497.07,-612.85 505.42,-603.25"/>
<polygon fill="black" stroke="black" points="507.89,-605.75 511.81,-595.9 502.61,-601.15 507.89,-605.75"/>
</g>
<!-- 60019&#45;&gt;70004 -->
<g id="edge38" class="edge">
<title>60019&#45;&gt;70004</title>
<path fill="none" stroke="black" d="M463,-632.17C463,-624.27 463,-614.98 463,-606.21"/>
<polygon fill="black" stroke="black" points="466.5,-606.28 463,-596.28 459.5,-606.28 466.5,-606.28"/>
</g>
<!-- 80013&#45;&gt;90026 -->
<g id="edge40" class="edge">
<title>80013&#45;&gt;90026</title>
<path fill="none" stroke="black" d="M270,-474.17C270,-466.27 270,-456.98 270,-448.21"/>
<polygon fill="black" stroke="black" points="273.5,-448.28 270,-438.28 266.5,-448.28 273.5,-448.28"/>
</g>
<!-- 60008&#45;&gt;70003 -->
<g id="edge41" class="edge">
<title>60008&#45;&gt;70003</title>
<path fill="none" stroke="black" d="M284.18,-632.17C279.63,-623.82 274.23,-613.92 269.21,-604.72"/>
<polygon fill="black" stroke="black" points="272.37,-603.19 264.5,-596.09 266.22,-606.55 272.37,-603.19"/>
</g>
</g>
</svg>
